<svg width="278" height="30" viewBox="0 0 278 30" fill="none" xmlns="http://www.w3.org/2000/svg">
<path d="M211.587 1.43527H211.192V0H211.587V1.43527ZM233.986 9.99062H233.59V11.4259H233.986V9.99062ZM235.558 14.2683V12.833H235.163V14.2683H235.558ZM235.163 17.1388H235.558V15.7036H235.163V17.1388ZM240.664 8.55535H240.269V9.99062H240.664V8.55535ZM241.059 7.14822H240.664V8.58349H241.059V7.14822ZM230.057 21.4165H230.453V19.9812H230.057V21.4165ZM206.086 0H205.691V1.43527H206.086V0ZM213.16 0H212.765V1.43527H213.16V0ZM235.163 12.8612V11.4259H234.768V12.8612H235.163ZM210.797 0H210.402V1.43527H210.797V0ZM239.882 7.14822V8.58349H240.277V7.14822H239.882ZM209.232 0H208.837V1.43527H209.232V0ZM234.768 11.4259V9.99062H234.373V11.4259H234.768ZM212.37 0H211.974V1.43527H212.37V0ZM242.632 12.8612H242.237V14.2964H242.632V12.8612ZM207.659 0H207.264V1.43527H207.659V0ZM212.765 29.9719H213.16V28.5366H212.765V29.9719ZM198.222 0H197.827V1.43527H198.222V0ZM199.795 0H199.4V1.43527H199.795V0ZM232.413 11.4259V9.99062H232.018V11.4259H232.413ZM217.483 29.9719H217.878V28.5366H217.483V29.9719ZM214.337 29.9719H214.733V28.5366H214.337V29.9719ZM215.91 29.9719H216.305V28.5366H215.91V29.9719ZM233.195 11.4259V9.99062H232.8V11.4259H233.195ZM231.63 11.4259V9.99062H231.235V11.4259H231.63ZM233.59 12.8612V11.4259H233.195V12.8612H233.59ZM204.513 0H204.118V1.43527H204.513V0ZM202.941 0H202.546V1.43527H202.941V0ZM229.662 22.8518H230.057V21.4165H229.662V22.8518ZM240.269 9.99062H239.874V11.4259H240.269V9.99062ZM228.88 21.4165V22.8518H229.275V21.4165H228.88ZM241.454 12.8612V14.2964H241.849V12.8612H241.454ZM201.368 0H200.973V1.43527H201.368V0ZM241.059 12.8612H240.664V14.2964H241.059V12.8612ZM241.059 11.4259V9.99062H240.664V11.4259H241.059ZM235.163 0H234.768V1.43527H235.163V0ZM230.84 11.4259V9.99062H230.445V11.4259H230.84ZM233.986 14.2683V12.833H233.59V14.2683H233.986ZM227.307 0H226.912V1.43527H227.307V0ZM224.161 0H223.766V1.43527H224.161V0ZM233.195 15.7036H233.59V14.2683H233.195V15.7036ZM225.734 0H225.339V1.43527H225.734V0ZM221.806 0H221.411V1.43527H221.806V0ZM233.195 12.8612H232.8V14.2964H233.195V12.8612ZM223.371 0H222.976V1.43527H223.371V0ZM238.309 1.43527V2.87054H238.704V1.43527H238.309ZM222.589 0H222.194V1.43527H222.589V0ZM233.59 0H233.195V1.43527H233.59V0ZM236.736 0H236.341V1.43527H236.736V0ZM232.018 0H231.622V1.43527H232.018V0ZM232.018 17.1388H232.413V15.7036H232.018V17.1388ZM237.914 1.43527H237.518V2.87054H237.914V1.43527ZM228.88 0H228.485V1.43527H228.88V0ZM230.445 0H230.05V1.43527H230.445V0ZM231.63 18.546H232.025V17.1107H231.63V18.546ZM232.413 14.2683V15.7036H232.808V14.2683H232.413ZM239.486 1.43527H239.091V2.87054H239.486V1.43527ZM233.986 14.2683V15.7036H234.381V14.2683H233.986ZM215.515 0H215.12V1.43527H215.515V0ZM230.445 18.546V19.9812H230.84V18.546H230.445ZM217.088 0H216.693V1.43527H217.088V0ZM217.87 0H217.475V1.43527H217.87V0ZM216.305 0H215.91V1.43527H216.305V0ZM234.768 12.8612H234.373V14.2964H234.768V12.8612ZM214.733 0H214.337V1.43527H214.733V0ZM239.486 7.14822H239.091V8.58349H239.486V7.14822ZM238.704 4.27767H238.309V5.71295H238.704V4.27767ZM220.233 0H219.838V1.43527H220.233V0ZM233.59 17.1388H233.986V15.7036H233.59V17.1388ZM232.808 15.7036V17.1388H233.203V15.7036H232.808ZM234.381 15.7036V17.1388H234.776V15.7036H234.381ZM221.016 0H220.621V1.43527H221.016V0ZM239.091 2.87054H238.696V4.30582H239.091V2.87054ZM239.486 5.71295V4.27767H239.091V5.71295H239.486ZM219.443 0H219.048V1.43527H219.443V0ZM218.661 0H218.266V1.43527H218.661V0ZM231.235 19.9812H231.63V18.546H231.235V19.9812ZM213.942 0H213.547V1.43527H213.942V0ZM244.205 5.71295V4.27767H243.81V5.71295H244.205ZM244.205 11.4259V9.99062H243.81V11.4259H244.205ZM243.414 4.27767H243.019V5.71295H243.414V4.27767ZM243.027 7.14822V8.58349H243.422V7.14822H243.027ZM244.205 7.14822H243.81V8.58349H244.205V7.14822ZM243.81 8.55535H243.414V9.99062H243.81V8.55535ZM242.237 2.87054H241.842V4.30582H242.237V2.87054ZM243.027 1.43527V2.87054H243.422V1.43527H243.027ZM217.87 9.99062V8.55535H217.475V9.99062H217.87ZM216.305 9.99062V11.4259H216.701V12.8612H217.096V11.4259H217.491V9.99062H217.096V8.55535H216.701V9.99062H216.305ZM244.205 1.43527H243.81V2.87054H244.205V1.43527ZM243.81 2.87054H243.414V4.30582H243.81V2.87054ZM219.056 29.9719H219.451V28.5366H219.056V29.9719ZM243.414 15.7036H243.019V17.1388H243.414V15.7036ZM220.233 7.14822V5.71295H219.838V7.14822H220.233ZM241.454 1.43527V2.87054H241.849V1.43527H241.454ZM242.632 1.43527H242.237V2.87054H242.632V1.43527ZM244.205 17.1388V15.7036H243.81V17.1388H244.205ZM244.987 4.27767H244.592V5.71295H244.987V4.27767ZM243.027 12.8612V14.2964H243.422V12.8612H243.027ZM243.414 9.99062H243.019V11.4259H243.414V9.99062ZM219.838 8.55535V7.12008H219.443V8.55535H219.838ZM244.205 12.8612H243.81V14.2964H244.205V12.8612ZM219.443 9.99062V8.55535H219.048V9.99062H219.443ZM217.87 9.99062V11.4259H218.266V12.8612H218.661V11.4259H219.056V9.99062H218.661V8.55535H218.266V9.99062H217.87ZM249.706 18.546H249.31V19.9812H249.706V18.546ZM249.706 15.7036H249.31V17.1388H249.706V15.7036ZM213.16 9.99062V11.4259H213.555V12.8612H213.95V11.4259H214.345V9.99062H213.95V8.55535H213.555V9.99062H213.16ZM248.133 1.43527H247.738V2.87054H248.133V1.43527ZM249.706 21.4165H249.31V22.8518H249.706V21.4165ZM249.706 9.99062H249.31V11.4259H249.706V9.99062ZM249.706 4.27767H249.31V5.71295H249.706V4.27767ZM249.706 1.43527H249.31V2.87054H249.706V1.43527ZM249.706 12.8612H249.31V14.2964H249.706V12.8612ZM249.706 7.14822H249.31V8.58349H249.706V7.14822ZM248.133 4.27767H247.738V5.71295H248.133V4.27767ZM248.133 15.7036H247.738V17.1388H248.133V15.7036ZM246.56 1.43527H246.165V2.87054H246.56V1.43527ZM246.56 7.14822H246.165V8.58349H246.56V7.14822ZM246.56 4.27767H246.165V5.71295H246.56V4.27767ZM246.56 9.99062H246.165V11.4259H246.56V9.99062ZM216.305 9.99062V8.55535H215.91V9.99062H216.305ZM214.733 9.99062V11.4259H215.128V12.8612H215.523V11.4259H215.918V9.99062H215.523V8.55535H215.128V9.99062H214.733ZM214.733 9.99062V8.55535H214.337V9.99062H214.733ZM248.133 7.14822H247.738V8.58349H248.133V7.14822ZM248.133 9.99062H247.738V11.4259H248.133V9.99062ZM244.987 1.43527H244.592V2.87054H244.987V1.43527ZM248.133 12.8612H247.738V14.2964H248.133V12.8612ZM243.81 14.2683H243.414V15.7036H243.81V14.2683ZM226.129 11.4259V9.99062H225.734V11.4259H226.129ZM230.057 29.9719H230.453V28.5366H230.057V29.9719ZM229.267 29.9719H229.662V28.5366H229.267V29.9719ZM226.912 11.4259V9.99062H226.517V11.4259H226.912ZM228.485 29.9719H228.88V28.5366H228.485V29.9719ZM230.84 29.9719H231.235V28.5366H230.84V29.9719ZM225.339 8.55535V7.12008H224.944V8.55535H225.339ZM234.768 29.9719H235.163V28.5366H234.768V29.9719ZM225.734 9.99062V8.55535H225.339V9.99062H225.734ZM233.195 29.9719H233.59V28.5366H233.195V29.9719ZM231.63 29.9719H232.025V28.5366H231.63V29.9719ZM236.341 29.9719H236.736V28.5366H236.341V29.9719ZM223.766 29.9719H224.161V28.5366H223.766V29.9719ZM222.194 29.9719H222.589V28.5366H222.194V29.9719ZM224.557 14.2683V12.833H224.161V14.2683H224.557ZM220.621 29.9719H221.016V28.5366H220.621V29.9719ZM230.057 11.4259V9.99062H229.662V11.4259H230.057ZM226.129 29.9719H226.525V28.5366H226.129V29.9719ZM226.912 29.9719H227.307V28.5366H226.912V29.9719ZM227.694 11.4259V9.99062H227.299V11.4259H227.694ZM225.339 29.9719H225.734V28.5366H225.339V29.9719ZM228.485 11.4259V9.99062H228.09V11.4259H228.485ZM227.694 29.9719H228.09V28.5366H227.694V29.9719ZM241.842 9.99062H241.447V11.4259H241.842V9.99062ZM222.589 7.14822V5.71295H222.194V7.14822H222.589ZM242.237 8.55535H241.842V9.99062H242.237V8.55535ZM242.632 11.4259V9.99062H242.237V11.4259H242.632ZM239.882 1.43527V2.87054H240.277V1.43527H239.882ZM221.016 7.14822V5.71295H220.621V7.14822H221.016ZM242.632 7.14822H242.237V8.58349H242.632V7.14822ZM242.632 5.71295V4.27767H242.237V5.71295H242.632ZM241.842 4.27767H241.447V5.71295H241.842V4.27767ZM241.059 1.43527H240.664V2.87054H241.059V1.43527ZM241.454 7.14822V8.58349H241.849V7.14822H241.454ZM221.806 7.14822V5.71295H221.411V7.14822H221.806ZM237.914 29.9719H238.309V28.5366H237.914V29.9719ZM224.557 8.55535V7.12008H224.161V8.55535H224.557ZM242.632 29.9719H243.027V28.5366H242.632V29.9719ZM239.486 29.9719H239.882V28.5366H239.486V29.9719ZM223.371 7.14822V5.71295H222.976V7.14822H223.371ZM244.205 29.9719H244.6V28.5366H244.205V29.9719ZM241.059 29.9719H241.454V28.5366H241.059V29.9719ZM240.664 2.87054H240.269V4.30582H240.664V2.87054ZM245.777 28.5366V27.1013H245.382V28.5366H245.777ZM241.059 5.71295V4.27767H240.664V5.71295H241.059ZM223.766 8.55535V7.12008H223.371V8.55535H223.766ZM240.269 4.27767H239.874V5.71295H240.269V4.27767ZM229.267 11.4259V9.99062H228.872V11.4259H229.267ZM219.443 12.8612V11.4259H219.048V12.8612H219.443ZM229.267 21.4165H229.662V19.9812H229.267V21.4165ZM223.766 14.2683V15.7036H224.161V14.2683H223.766ZM227.307 17.1388H226.912V18.5741H227.307V17.1388ZM219.838 11.4259V12.8612H220.233V11.4259H220.629V9.99062H220.233V8.55535H219.838V9.99062H219.443V11.4259H219.838ZM228.485 19.9812V21.4165H228.88V19.9812H228.485ZM234.768 18.546H235.163V17.1107H234.768V18.546ZM235.953 15.7036V14.2683H235.558V15.7036H235.953ZM233.195 21.4165H233.59V19.9812H233.195V21.4165ZM219.056 14.2683V12.833H218.661V14.2683H219.056ZM236.341 17.1388V15.7036H235.946V17.1388H236.341ZM230.445 11.4259H230.05V12.8612H230.445V11.4259ZM228.09 18.546V17.1107H227.694V18.546H228.09ZM228.88 11.4259H228.485V12.8612H228.88V11.4259ZM242.237 14.2683H241.842V15.7036H242.237V14.2683ZM229.662 19.9812H230.057V18.546H229.662V19.9812ZM232.018 11.4259H231.622V12.8612H232.018V11.4259ZM232.413 14.2683V12.833H232.018V14.2683H232.413ZM221.411 8.55535V7.12008H221.016V8.55535H221.411ZM220.621 8.55535V7.12008H220.226V8.55535H220.621ZM230.057 18.546H230.453V17.1107H230.057V18.546ZM222.984 14.2683V15.7036H223.379V14.2683H222.984ZM228.09 18.546V19.9812H228.485V18.546H228.09ZM226.912 18.546H226.517V19.9812H226.912V18.546ZM226.912 19.9812V21.4165H227.307V19.9812H226.912ZM215.91 14.2683V15.7036H216.305V14.2683H215.91ZM217.483 14.2683V12.833H217.088V14.2683H217.483ZM216.305 12.8612V11.4259H215.91V12.8612H216.305ZM217.87 12.8612V11.4259H217.475V12.8612H217.87ZM231.235 22.8518H231.63V21.4165H231.235V22.8518ZM228.485 18.546H228.88V17.1107H228.485V18.546ZM216.305 14.2683H216.701V12.833H216.305V14.2683ZM217.87 14.2683H218.266V12.833H217.87V14.2683ZM230.445 8.55535H230.05V9.99062H230.445V8.55535ZM228.88 8.55535H228.485V9.99062H228.88V8.55535ZM235.558 9.99062H235.163V11.4259H235.558V9.99062ZM232.018 8.55535H231.622V9.99062H232.018V8.55535ZM227.307 8.55535H226.912V9.99062H227.307V8.55535ZM227.307 18.546V19.9812H227.702V18.546H227.307ZM217.483 14.2683V15.7036H217.878V14.2683H217.483ZM236.341 12.8612H235.946V14.2964H236.341V12.8612ZM213.16 9.99062V8.55535H212.765V9.99062H213.16ZM227.694 19.9812V21.4165H228.09V19.9812H227.694ZM233.195 18.546H233.59V17.1107H233.195V18.546ZM224.161 12.8612V11.4259H223.766V12.8612H224.161ZM229.267 19.9812V18.546H228.872V19.9812H229.267ZM225.339 17.1388V18.5741H225.734V17.1388H225.339ZM229.267 14.2683V12.833H228.872V14.2683H229.267ZM226.517 15.7036V14.2683H226.122V15.7036H226.517ZM230.057 17.1388V15.7036H229.662V17.1388H230.057ZM225.734 15.7036V17.1388H226.129V15.7036H225.734ZM227.307 12.8612V11.4259H226.912V12.8612H227.307ZM226.517 12.8612V11.4259H226.122V12.8612H226.517ZM229.267 17.1388V15.7036H228.872V17.1388H229.267ZM223.371 12.8612V14.2964H223.766V12.8612H223.371ZM225.339 15.7036H224.944V17.1388H225.339V15.7036ZM221.411 11.4259V12.8612H221.806V11.4259H221.411ZM224.944 14.2683H224.549V15.7036H224.944V14.2683ZM228.09 15.7036V14.2683H227.694V15.7036H228.09ZM230.445 14.2683H230.05V15.7036H230.445V14.2683ZM227.694 14.2683V12.833H227.299V14.2683H227.694ZM221.411 9.99062H221.016V11.4259H221.411V9.99062ZM228.485 12.8612H228.09V14.2964H228.485V12.8612ZM222.194 11.4259V9.99062H221.798V11.4259H222.194ZM225.734 15.7036V14.2683H225.339V15.7036H225.734ZM231.63 12.8612H231.235V14.2964H231.63V12.8612ZM230.445 17.1388H230.84V15.7036H230.445V17.1388ZM231.235 15.7036V14.2683H230.84V15.7036H231.235ZM230.84 14.2683V12.833H230.445V14.2683H230.84ZM224.161 9.99062V8.55535H223.766V9.99062H224.161ZM224.944 9.99062V8.55535H224.549V9.99062H224.944ZM222.984 12.8612H222.589V14.2964H222.984V12.8612ZM231.63 15.7036H232.025V14.2683H231.63V15.7036ZM222.984 8.55535V7.12008H222.589V8.55535H222.984ZM223.371 9.99062V8.55535H222.976V9.99062H223.371ZM231.235 17.1388H231.63V15.7036H231.235V17.1388ZM223.371 12.8612V11.4259H222.976V12.8612H223.371ZM225.734 12.8612V11.4259H225.339V12.8612H225.734ZM226.912 17.1388V15.7036H226.517V17.1388H226.912ZM228.88 14.2683H228.485V15.7036H228.88V14.2683ZM219.443 12.8612V14.2964H219.838V12.8612H219.443ZM229.662 15.7036V14.2683H229.267V15.7036H229.662ZM225.339 11.4259V9.99062H224.944V11.4259H225.339ZM230.057 12.8612H229.662V14.2964H230.057V12.8612ZM226.129 17.1388V18.5741H226.525V17.1388H226.129ZM222.589 11.4259H222.194V12.8612H222.589V11.4259ZM219.056 14.2683V15.7036H219.451V14.2683H219.056ZM222.194 8.55535V7.12008H221.798V8.55535H222.194ZM220.621 14.2683V15.7036H221.016V14.2683H220.621ZM224.557 19.9812V21.4165H224.952V19.9812H224.557ZM221.016 12.8612V14.2964H221.411V12.8612H221.016ZM225.339 19.9812V21.4165H225.734V19.9812H225.339ZM226.129 14.2683V12.833H225.734V14.2683H226.129ZM224.944 12.8612V11.4259H224.549V12.8612H224.944ZM222.194 12.8612H221.798V14.2964H222.194V12.8612ZM221.016 12.8612V11.4259H220.621V12.8612H221.016ZM225.339 14.2683V12.833H224.944V14.2683H225.339ZM226.517 19.9812H226.122V21.4165H226.517V19.9812ZM220.621 12.8612H220.226V14.2964H220.621V12.8612ZM227.307 2.87054H226.912V4.30582H227.307V2.87054ZM224.557 18.546H224.161V19.9812H224.557V18.546ZM230.445 2.87054H230.05V4.30582H230.445V2.87054ZM237.131 4.27767H236.736V5.71295H237.131V4.27767ZM222.984 17.1388V18.5741H223.379V17.1388H222.984ZM228.88 2.87054H228.485V4.30582H228.88V2.87054ZM226.912 14.2683V12.833H226.517V14.2683H226.912ZM222.589 14.2683H222.194V15.7036H222.589V14.2683ZM225.734 2.87054H225.339V4.30582H225.734V2.87054ZM224.161 17.1388H223.766V18.5741H224.161V17.1388ZM222.194 17.1388V18.5741H222.589V17.1388H222.194ZM243.81 19.9812H243.414V21.4165H243.81V19.9812ZM244.205 18.546H243.81V19.9812H244.205V18.546ZM244.205 22.8518V21.4165H243.81V22.8518H244.205ZM243.414 21.4165H243.019V22.8518H243.414V21.4165ZM221.016 8.55535H220.621V9.99062H221.016V8.55535ZM241.842 15.7036H241.447V17.1388H241.842V15.7036ZM242.632 17.1388V15.7036H242.237V17.1388H242.632ZM228.09 21.4165V22.8518H228.485V21.4165H228.09ZM243.414 25.6942V24.2589H243.019V25.6942H243.414ZM242.632 18.546H242.237V19.9812H242.632V18.546ZM243.027 18.546V19.9812H243.422V18.546H243.027ZM226.517 21.4165V22.8518H226.912V21.4165H226.517ZM223.766 11.4259V9.99062H223.371V11.4259H223.766ZM222.589 9.99062V8.55535H222.194V9.99062H222.589ZM221.806 9.99062V8.55535H221.411V9.99062H221.806ZM224.557 11.4259V9.99062H224.161V11.4259H224.557ZM236.341 27.1295H236.736V25.6942H236.341V27.1295ZM243.027 24.2589V22.8236H242.632V24.2589H243.027ZM227.307 21.4165V22.8518H227.702V21.4165H227.307ZM234.768 27.1295H235.163V25.6942H234.768V27.1295ZM233.195 27.1295H233.59V25.6942H233.195V27.1295ZM238.704 15.7036H238.309V17.1388H238.704V15.7036ZM214.733 14.2683H214.337V15.7036H214.733V14.2683ZM225.734 18.546V19.9812H226.129V18.546H225.734ZM228.88 5.71295H228.485V7.14822H228.88V5.71295ZM214.337 12.8612H213.942V14.2964H214.337V12.8612ZM222.984 11.4259V9.99062H222.589V11.4259H222.984ZM227.307 5.71295H226.912V7.14822H227.307V5.71295ZM215.91 17.1388V15.7036H215.515V14.2683H215.12V15.7036H214.725V17.1388H215.12V18.5741H215.515V17.1388H215.91ZM215.91 17.1388V18.5741H216.305V17.1388H215.91ZM224.944 18.546V19.9812H225.339V18.546H224.944ZM228.485 17.1388V15.7036H228.09V17.1388H228.485ZM224.944 17.1388H224.549V18.5741H224.944V17.1388ZM234.768 21.4165H235.163V19.9812H234.768V21.4165ZM238.704 19.9812V18.546H238.309V19.9812H238.704ZM237.914 7.14822H237.518V8.58349H237.914V7.14822ZM237.914 12.8612H237.518V14.2964H237.914V12.8612ZM238.309 18.546V17.1107H237.914V18.546H238.309ZM215.91 14.2683V12.833H215.515V14.2683H215.91ZM214.733 12.8612V11.4259H214.337V12.8612H214.733ZM237.131 9.99062H236.736V11.4259H237.131V9.99062ZM236.341 7.14822H235.946V8.58349H236.341V7.14822ZM214.733 14.2683H215.128V12.833H214.733V14.2683ZM230.445 5.71295H230.05V7.14822H230.445V5.71295ZM241.059 18.546H240.664V19.9812H241.059V18.546ZM220.621 17.1388V18.5741H221.016V17.1388H220.621ZM241.059 22.8518V21.4165H240.664V22.8518H241.059ZM240.664 21.4165V19.9812H240.269V21.4165H240.664ZM236.341 24.2589H236.736V22.8236H236.341V24.2589ZM238.704 9.99062H238.309V11.4259H238.704V9.99062ZM222.194 17.1388V15.7036H221.798V14.2683H221.403V15.7036H221.008V17.1388H221.403V18.5741H221.798V17.1388H222.194ZM220.621 17.1388V15.7036H220.226V14.2683H219.831V15.7036H219.435V17.1388H219.831V18.5741H220.226V17.1388H220.621ZM240.269 15.7036H239.874V17.1388H240.269V15.7036ZM239.486 12.8612H239.091V14.2964H239.486V12.8612ZM219.056 17.1388V15.7036H218.661V14.2683H218.266V15.7036H217.87V17.1388H218.266V18.5741H218.661V17.1388H219.056ZM227.307 15.7036V14.2683H226.912V15.7036H227.307ZM224.557 15.7036H224.161V17.1388H224.557V15.7036ZM217.483 17.1388V18.5741H217.878V17.1388H217.483ZM234.768 24.2589H235.163V22.8236H234.768V24.2589ZM217.483 17.1388V15.7036H217.088V14.2683H216.693V15.7036H216.298V17.1388H216.693V18.5741H217.088V17.1388H217.483ZM227.694 17.1388V15.7036H227.299V17.1388H227.694ZM222.589 15.7036V17.1388H222.984V15.7036H222.589ZM233.195 24.2589H233.59V22.8236H233.195V24.2589ZM223.371 15.7036V17.1388H223.766V15.7036H223.371ZM219.056 17.1388V18.5741H219.451V17.1388H219.056ZM258.739 17.1388H259.134V15.7036H258.739V17.1388ZM249.31 28.5366H249.706V27.1013H249.31V28.5366ZM250.488 28.5366V27.1013H250.093V28.5366H250.488ZM248.528 2.87054H248.923V1.43527H248.528V2.87054ZM249.706 27.1295H250.101V25.6942H249.706V27.1295ZM248.528 14.2683H248.923V12.833H248.528V14.2683ZM248.528 11.4259H248.923V9.99062H248.528V11.4259ZM249.31 24.2589V25.6942H249.706V24.2589H249.31ZM248.528 5.71295H248.923V4.27767H248.528V5.71295ZM248.528 8.55535H248.923V7.12008H248.528V8.55535ZM250.093 11.4259H250.488V9.99062H250.093V11.4259ZM250.093 8.55535H250.488V7.12008H250.093V8.55535ZM250.093 2.87054H250.488V1.43527H250.093V2.87054ZM250.093 14.2683H250.488V12.833H250.093V14.2683ZM250.093 25.6942H250.488V24.2589H250.093V25.6942ZM250.093 5.71295H250.488V4.27767H250.093V5.71295ZM253.238 8.55535H253.634V7.12008H253.238V8.55535ZM250.093 22.8518H250.488V21.4165H250.093V22.8518ZM250.093 19.9812H250.488V18.546H250.093V19.9812ZM248.528 17.1388H248.923V15.7036H248.528V17.1388ZM246.955 5.71295H247.35V4.27767H246.955V5.71295ZM246.955 8.55535H247.35V7.12008H246.955V8.55535ZM246.955 11.4259H247.35V9.99062H246.955V11.4259ZM247.342 17.1388V15.7036H246.947V17.1388H247.342ZM248.915 28.5366V27.1013H248.52V28.5366H248.915ZM246.955 14.2683H247.35V12.833H246.955V14.2683ZM248.528 19.9812H248.923V18.546H248.528V19.9812ZM246.56 15.7036H246.955V14.2683H246.56V15.7036ZM246.165 12.8612V14.2964H246.56V12.8612H246.165ZM246.165 17.1388H246.56V15.7036H246.165V17.1388ZM248.133 21.4165H248.528V19.9812H248.133V21.4165ZM248.915 22.8518V21.4165H248.52V22.8518H248.915ZM247.738 28.5366H248.133V27.1013H247.738V28.5366ZM247.738 18.546V19.9812H248.133V18.546H247.738ZM247.738 22.8518H248.133V21.4165H247.738V22.8518ZM248.528 25.6942H248.923V24.2589H248.528V25.6942ZM248.133 27.1295H248.528V25.6942H248.133V27.1295ZM247.738 24.2589V25.6942H248.133V24.2589H247.738ZM246.955 2.87054H247.35V1.43527H246.955V2.87054ZM252.456 14.2683H252.851V12.833H252.456V14.2683ZM252.456 19.9812H252.851V18.546H252.456V19.9812ZM252.456 8.55535H252.851V7.12008H252.456V8.55535ZM252.456 11.4259H252.851V9.99062H252.456V11.4259ZM252.456 17.1388H252.851V15.7036H252.456V17.1388ZM252.456 28.5366H252.851V27.1013H252.456V28.5366ZM251.666 2.87054H252.061V1.43527H251.666V2.87054ZM252.456 22.8518H252.851V21.4165H252.456V22.8518ZM252.456 25.6942H252.851V24.2589H252.456V25.6942ZM252.456 5.71295H252.851V4.27767H252.456V5.71295ZM253.238 17.1388H253.634V15.7036H253.238V17.1388ZM253.238 14.2683H253.634V12.833H253.238V14.2683ZM250.883 28.5366H251.278V27.1013H250.883V28.5366ZM253.238 19.9812H253.634V18.546H253.238V19.9812ZM253.238 11.4259H253.634V9.99062H253.238V11.4259ZM253.238 28.5366H253.634V27.1013H253.238V28.5366ZM253.238 25.6942H253.634V24.2589H253.238V25.6942ZM253.238 22.8518H253.634V21.4165H253.238V22.8518ZM251.666 5.71295H252.061V4.27767H251.666V5.71295ZM250.883 11.4259H251.278V9.99062H250.883V11.4259ZM250.883 17.1388H251.278V15.7036H250.883V17.1388ZM250.883 14.2683H251.278V12.833H250.883V14.2683ZM250.883 8.55535H251.278V7.12008H250.883V8.55535ZM250.883 5.71295H251.278V4.27767H250.883V5.71295ZM250.883 19.9812H251.278V18.546H250.883V19.9812ZM250.883 25.6942H251.278V24.2589H250.883V25.6942ZM250.883 22.8518H251.278V21.4165H250.883V22.8518ZM251.666 11.4259H252.061V9.99062H251.666V11.4259ZM251.666 19.9812H252.061V18.546H251.666V19.9812ZM251.666 14.2683H252.061V12.833H251.666V14.2683ZM251.666 17.1388H252.061V15.7036H251.666V17.1388ZM251.666 8.55535H252.061V7.12008H251.666V8.55535ZM251.666 25.6942H252.061V24.2589H251.666V25.6942ZM251.666 28.5366H252.061V27.1013H251.666V28.5366ZM251.666 22.8518H252.061V21.4165H251.666V22.8518ZM250.883 2.87054H251.278V1.43527H250.883V2.87054ZM250.093 17.1388H250.488V15.7036H250.093V17.1388ZM235.558 25.6942V27.1295H235.953V25.6942H235.558ZM236.736 28.5366H237.131V27.1013H236.736V28.5366ZM235.953 27.1295V28.5647H236.349V27.1295H235.953ZM234.381 27.1295V28.5647H234.776V27.1295H234.381ZM235.163 28.5366H235.558V27.1013H235.163V28.5366ZM232.413 25.6942V27.1295H232.808V25.6942H232.413ZM232.808 27.1295V28.5647H233.203V27.1295H232.808ZM233.59 28.5366H233.986V27.1013H233.59V28.5366ZM232.018 28.5366H232.413V27.1013H232.018V28.5366ZM241.454 28.5366H241.849V27.1013H241.454V28.5366ZM239.882 28.5366H240.277V27.1013H239.882V28.5366ZM239.091 27.1295V28.5647H239.486V27.1295H239.091ZM240.269 25.6942V27.1295H240.664V25.6942H240.269ZM237.131 25.6942V27.1295H237.526V25.6942H237.131ZM240.664 27.1295V28.5647H241.059V27.1295H240.664ZM237.518 27.1295V28.5647H237.914V27.1295H237.518ZM238.309 28.5366H238.704V27.1013H238.309V28.5366ZM238.704 25.6942V27.1295H239.099V25.6942H238.704ZM233.986 25.6942V27.1295H234.381V25.6942H233.986ZM218.661 27.1295V25.6942H218.266V27.1295H217.87V28.5647H218.266V30H218.661V28.5647H219.056V27.1295H218.661ZM223.371 27.1295V25.6942H222.976V27.1295H222.581V28.5647H222.976V30H223.371V28.5647H223.766V27.1295H223.371ZM220.233 27.1295V25.6942H219.838V27.1295H219.443V28.5647H219.838V30H220.233V28.5647H220.629V27.1295H220.233ZM221.806 27.1295V25.6942H221.411V27.1295H221.016V28.5647H221.411V30H221.806V28.5647H222.201V27.1295H221.806ZM217.088 27.1295V25.6942H216.693V27.1295H216.298V28.5647H216.693V30H217.088V28.5647H217.483V27.1295H217.088ZM212.765 27.1295V28.5647H212.37V30H211.974V28.5647H211.579V30H211.184V28.5647H210.789V30H210.394V28.5647H209.999V30H209.604V28.5647H209.208V30H208.813V28.5647H208.418V30H208.023V28.5647H207.628V30H207.233V28.5647H206.838V30H206.443V28.5647H206.047V30H205.652V28.5647H205.257V30H204.862V28.5647H204.467V30H204.072V28.5647H203.677V30H203.282V28.5647H202.886V30H202.491V28.5647H202.096V30H201.701V28.5647H201.306V30H200.911V28.5647H200.516V30H200.12V28.5647H199.725V30H199.33V28.5647H198.935V30H198.54V28.5647H198.145V30H197.75V28.5647H197.355V30H196.959V28.5647H196.564V30H196.169V28.5647H195.774V30H195.379V28.5647H194.984V30H194.589V28.5647H194.194V30H193.798V28.5647H193.403V30H193.008V28.5647H192.613V30H192.218V28.5647H191.823V30H191.428V28.5647H191.033V30H189.855V28.5647H189.46V30H188.282V28.5647H187.887V30H186.709V28.5647H186.314V30H185.137V28.5647H184.741V30H183.564V28.5647H183.169V30H181.991V28.5647H181.596V30H180.418V28.5647H180.023V30H178.845V28.5647H178.45V30H-2V0H170.718V1.43527H171.113V0H172.291V1.43527H172.686V0H173.864V1.43527H174.259V0H175.436V1.43527H175.832V0H177.009V1.43527H177.404V0H178.582V1.43527H178.977V0H180.155V1.43527H180.55V0H181.728V1.43527H182.123V0H183.3V1.43527H183.695V0H184.091V1.43527H184.486V0H184.881V1.43527H185.276V0H185.671V1.43527H186.066V0H186.461V1.43527H186.857V0H187.252V1.43527H187.647V0H188.042V1.43527H188.437V0H188.832V1.43527H189.227V0H189.622V1.43527H190.018V0H191.195V1.43527H191.59V0H191.985V1.43527H192.381V0H192.776V1.43527H193.171V0H193.566V1.43527H193.961V0H194.356V1.43527H194.751V0H195.147V1.43527H195.542V0H195.937V1.43527H196.332V0H196.727V1.43527H197.122V0H197.517V1.43527H197.912V2.87054H197.517V4.30582H197.912V2.87054H198.308V4.30582H198.703V2.87054H198.308V1.43527H198.703V0H199.098V1.43527H199.493V2.87054H199.098V4.30582H199.493V2.87054H199.888V4.30582H200.283V2.87054H199.888V1.43527H200.283V0H200.678V1.43527H201.073V2.87054H200.678V4.30582H201.073V2.87054H201.469V4.30582H201.864V2.87054H201.469V1.43527H201.864V0H202.259V1.43527H202.654V2.87054H202.259V4.30582H202.654V2.87054H203.049V4.30582H203.444V2.87054H203.049V1.43527H203.444V0H203.839V1.43527H204.235V2.87054H203.839V4.30582H204.235V2.87054H204.63V4.30582H205.025V2.87054H204.63V1.43527H205.025V0H205.42V1.43527H205.815V2.87054H205.42V4.30582H205.815V2.87054H206.21V4.30582H206.605V5.74109H206.21V7.17636H205.815V5.74109H205.42V7.17636H205.815V8.61163H205.42V10.0469H205.815V8.61163H206.21V10.0469H206.605V8.61163H206.21V7.17636H206.605V5.74109H207V7.17636H207.396V8.61163H207V10.0469H207.396V8.61163H207.791V10.0469H208.186V11.4822H207.791V12.9175H207.396V11.4822H207V12.9175H207.396V14.3527H207V15.788H207.396V14.3527H207.791V15.788H208.186V14.3527H207.791V12.9175H208.186V11.4822H208.581V12.9175H208.976V14.3527H208.581V15.788H208.976V14.3527H209.371V15.788H209.766V17.2233H209.371V18.6585H208.976V17.2233H208.581V18.6585H208.976V20.0938H208.581V21.5291H208.976V20.0938H209.371V21.5291H209.766V20.0938H209.371V18.6585H209.766V17.2233H210.161V18.6585H210.557V20.0938H210.161V21.5291H210.557V20.0938H210.952V21.5291H211.347V22.9644H210.952V24.3996H210.557V22.9644H210.161V24.3996H210.557V25.8349H210.161V27.2702H210.557V25.8349H210.952V27.2702H211.347V25.8349H210.952V24.3996H211.347V22.9644H211.742V24.3996H212.137V25.8349H211.742V27.2702H212.137V25.8349H212.532V27.2702H212.927L212.765 27.1295ZM172.686 5.71295H172.291V7.14822H172.686V5.71295ZM174.251 11.4259H173.856V12.8612H174.251V11.4259ZM174.251 5.71295H173.856V7.14822H174.251V5.71295ZM175.824 17.1388H175.429V18.5741H175.824V17.1388ZM175.824 11.4259H175.429V12.8612H175.824V11.4259ZM175.824 5.71295H175.429V7.14822H175.824V5.71295ZM177.397 22.8518H177.001V24.2871H177.397V22.8518ZM177.397 17.1388H177.001V18.5741H177.397V17.1388ZM177.397 11.4259H177.001V12.8612H177.397V11.4259ZM177.397 5.71295H177.001V7.14822H177.397V5.71295ZM178.969 22.8518H178.574V24.2871H178.969V22.8518ZM178.969 17.1388H178.574V18.5741H178.969V17.1388ZM178.969 11.4259H178.574V12.8612H178.969V11.4259ZM178.969 5.71295H178.574V7.14822H178.969V5.71295ZM179.76 2.87054H179.365V4.30582H179.76V2.87054ZM180.542 22.8518H180.147V24.2871H180.542V22.8518ZM180.542 17.1388H180.147V18.5741H180.542V17.1388ZM180.542 11.4259H180.147V12.8612H180.542V11.4259ZM180.542 5.71295H180.147V7.14822H180.542V5.71295ZM181.325 8.55535H180.93V9.99062H181.325V8.55535ZM181.325 2.87054H180.93V4.30582H181.325V2.87054ZM182.115 22.8518H181.72V24.2871H182.115V22.8518ZM182.115 17.1388H181.72V18.5741H182.115V17.1388ZM182.115 11.4259H181.72V12.8612H182.115V11.4259ZM182.115 5.71295H181.72V7.14822H182.115V5.71295ZM182.897 14.2683H182.502V15.7036H182.897V14.2683ZM182.897 8.55535H182.502V9.99062H182.897V8.55535ZM182.897 2.87054H182.502V4.30582H182.897V2.87054ZM183.688 22.8518H183.293V24.2871H183.688V22.8518ZM183.688 17.1388H183.293V18.5741H183.688V17.1388ZM183.688 11.4259H183.293V12.8612H183.688V11.4259ZM183.688 5.71295H183.293V7.14822H183.688V5.71295ZM184.47 19.9812H184.075V21.4165H184.47V19.9812ZM184.47 14.2683H184.075V15.7036H184.47V14.2683ZM184.47 8.55535H184.075V9.99062H184.47V8.55535ZM184.47 2.87054H184.075V4.30582H184.47V2.87054ZM185.26 22.8518H184.865V24.2871H185.26V22.8518ZM185.26 17.1388H184.865V18.5741H185.26V17.1388ZM185.26 11.4259H184.865V12.8612H185.26V11.4259ZM185.26 5.71295H184.865V7.14822H185.26V5.71295ZM186.043 25.6942H185.648V27.1295H186.043V25.6942ZM186.043 19.9812H185.648V21.4165H186.043V19.9812ZM186.043 14.2683H185.648V15.7036H186.043V14.2683ZM186.043 8.55535H185.648V9.99062H186.043V8.55535ZM186.043 5.71295H185.648V7.14822H186.043V5.71295ZM186.043 2.87054H185.648V4.30582H186.043V2.87054ZM186.826 22.8518H186.43V24.2871H186.826V22.8518ZM186.826 17.1388H186.43V18.5741H186.826V17.1388ZM186.826 11.4259H186.43V12.8612H186.826V11.4259ZM186.826 5.71295H186.43V7.14822H186.826V5.71295ZM187.616 25.6942H187.221V27.1295H187.616V25.6942ZM187.616 19.9812H187.221V21.4165H187.616V19.9812ZM187.616 14.2683H187.221V15.7036H187.616V14.2683ZM187.616 11.4259H187.221V12.8612H187.616V11.4259ZM187.616 8.55535H187.221V9.99062H187.616V8.55535ZM187.616 5.71295H187.221V7.14822H187.616V5.71295ZM187.616 2.87054H187.221V4.30582H187.616V2.87054ZM188.398 22.8518H188.003V24.2871H188.398V22.8518ZM188.398 17.1388H188.003V18.5741H188.398V17.1388ZM188.398 11.4259H188.003V12.8612H188.398V11.4259ZM188.398 5.71295H188.003V7.14822H188.398V5.71295ZM189.189 25.6942H188.793V27.1295H189.189V25.6942ZM189.189 19.9812H188.793V21.4165H189.189V19.9812ZM189.189 17.1388H188.793V18.5741H189.189V17.1388ZM189.189 14.2683H188.793V15.7036H189.189V14.2683ZM189.189 11.4259H188.793V12.8612H189.189V11.4259ZM189.189 8.55535H188.793V9.99062H189.189V8.55535ZM189.189 5.71295H188.793V7.14822H189.189V5.71295ZM189.189 2.87054H188.793V4.30582H189.189V2.87054ZM189.971 22.8518H189.576V24.2871H189.971V22.8518ZM189.971 17.1388H189.576V18.5741H189.971V17.1388ZM189.971 11.4259H189.576V12.8612H189.971V11.4259ZM189.971 5.71295H189.576V7.14822H189.971V5.71295ZM190.761 25.6942H190.366V27.1295H190.761V25.6942ZM190.761 22.8518H190.366V24.2871H190.761V22.8518ZM190.761 19.9812H190.366V21.4165H190.761V19.9812ZM190.761 17.1388H190.366V18.5741H190.761V17.1388ZM190.761 14.2683H190.366V15.7036H190.761V14.2683ZM190.761 11.4259H190.366V12.8612H190.761V11.4259ZM190.761 8.55535H190.366V9.99062H190.761V8.55535ZM190.761 5.71295H190.366V7.14822H190.761V5.71295ZM190.761 2.87054H190.366V4.30582H190.761V2.87054ZM191.544 22.8518H191.149V24.2871H191.544V22.8518ZM191.544 17.1388H191.149V18.5741H191.544V17.1388ZM191.544 11.4259H191.149V12.8612H191.544V11.4259ZM191.544 5.71295H191.149V7.14822H191.544V5.71295ZM192.334 25.6942H191.939V27.1295H192.334V25.6942ZM192.334 22.8518H191.939V24.2871H192.334V22.8518ZM192.334 19.9812H191.939V21.4165H192.334V19.9812ZM192.334 17.1388H191.939V18.5741H192.334V17.1388ZM192.334 14.2683H191.939V15.7036H192.334V14.2683ZM192.334 11.4259H191.939V12.8612H192.334V11.4259ZM192.334 8.55535H191.939V9.99062H192.334V8.55535ZM192.334 5.71295H191.939V7.14822H192.334V5.71295ZM192.334 2.87054H191.939V4.30582H192.334V2.87054ZM193.117 22.8518H192.721V24.2871H193.117V22.8518ZM193.117 17.1388H192.721V18.5741H193.117V17.1388ZM193.117 11.4259H192.721V12.8612H193.117V11.4259ZM193.117 5.71295H192.721V7.14822H193.117V5.71295ZM193.117 2.87054H192.721V4.30582H193.117V2.87054ZM193.899 25.6942H193.504V27.1295H193.899V25.6942ZM193.899 22.8518H193.504V24.2871H193.899V22.8518ZM193.899 19.9812H193.504V21.4165H193.899V19.9812ZM193.899 17.1388H193.504V18.5741H193.899V17.1388ZM193.899 14.2683H193.504V15.7036H193.899V14.2683ZM193.899 11.4259H193.504V12.8612H193.899V11.4259ZM193.899 8.55535H193.504V9.99062H193.899V8.55535ZM193.899 5.71295H193.504V7.14822H193.899V5.71295ZM193.899 2.87054H193.504V4.30582H193.899V2.87054ZM194.689 22.8518H194.294V24.2871H194.689V22.8518ZM194.689 17.1388H194.294V18.5741H194.689V17.1388ZM194.689 11.4259H194.294V12.8612H194.689V11.4259ZM194.689 8.55535H194.294V9.99062H194.689V8.55535ZM194.689 5.71295H194.294V7.14822H194.689V5.71295ZM194.689 2.87054H194.294V4.30582H194.689V2.87054ZM195.472 25.6942H195.077V27.1295H195.472V25.6942ZM195.472 22.8518H195.077V24.2871H195.472V22.8518ZM195.472 19.9812H195.077V21.4165H195.472V19.9812ZM195.472 17.1388H195.077V18.5741H195.472V17.1388ZM195.472 14.2683H195.077V15.7036H195.472V14.2683ZM195.472 11.4259H195.077V12.8612H195.472V11.4259ZM195.472 8.55535H195.077V9.99062H195.472V8.55535ZM195.472 5.71295H195.077V7.14822H195.472V5.71295ZM195.472 2.87054H195.077V4.30582H195.472V2.87054ZM196.262 22.8518H195.867V24.2871H196.262V22.8518ZM196.262 17.1388H195.867V18.5741H196.262V17.1388ZM196.262 14.2683H195.867V15.7036H196.262V14.2683ZM196.262 11.4259H195.867V12.8612H196.262V11.4259ZM196.262 8.55535H195.867V9.99062H196.262V8.55535ZM196.262 5.71295H195.867V7.14822H196.262V5.71295ZM196.262 2.87054H195.867V4.30582H196.262V2.87054ZM197.045 25.6942H196.65V27.1295H197.045V25.6942ZM197.045 22.8518H196.65V24.2871H197.045V22.8518ZM197.045 19.9812H196.65V21.4165H197.045V19.9812ZM197.045 17.1388H196.65V18.5741H197.045V17.1388ZM197.045 14.2683H196.65V15.7036H197.045V14.2683ZM197.045 11.4259H196.65V12.8612H197.045V11.4259ZM197.045 8.55535H196.65V9.99062H197.045V8.55535ZM197.045 5.71295H196.65V7.14822H197.045V5.71295ZM197.045 2.87054H196.65V4.30582H197.045V2.87054ZM197.835 22.8518H197.44V24.2871H197.835V22.8518ZM197.835 19.9812H197.44V21.4165H197.835V19.9812ZM197.835 17.1388H197.44V18.5741H197.835V17.1388ZM197.835 14.2683H197.44V15.7036H197.835V14.2683ZM197.835 11.4259H197.44V12.8612H197.835V11.4259ZM197.835 8.55535H197.44V9.99062H197.835V8.55535ZM197.835 5.71295H197.44V7.14822H197.835V5.71295ZM198.617 25.6942H198.222V27.1295H198.617V25.6942ZM198.617 22.8518H198.222V24.2871H198.617V22.8518ZM198.617 19.9812H198.222V21.4165H198.617V19.9812ZM198.617 17.1388H198.222V18.5741H198.617V17.1388ZM198.617 14.2683H198.222V15.7036H198.617V14.2683ZM198.617 11.4259H198.222V12.8612H198.617V11.4259ZM198.617 8.55535H198.222V9.99062H198.617V8.55535ZM198.617 5.71295H198.222V7.14822H198.617V5.71295ZM199.408 25.6942H199.013V27.1295H199.408V25.6942ZM199.408 22.8518H199.013V24.2871H199.408V22.8518ZM199.408 19.9812H199.013V21.4165H199.408V19.9812ZM199.408 17.1388H199.013V18.5741H199.408V17.1388ZM199.408 14.2683H199.013V15.7036H199.408V14.2683ZM199.408 11.4259H199.013V12.8612H199.408V11.4259ZM200.19 25.6942H199.795V27.1295H200.19V25.6942ZM200.19 22.8518H199.795V24.2871H200.19V22.8518ZM200.19 19.9812H199.795V21.4165H200.19V19.9812ZM200.19 17.1388H199.795V18.5741H200.19V17.1388ZM200.19 14.2683H199.795V15.7036H200.19V14.2683ZM200.19 11.4259H199.795V12.8612H200.19V11.4259ZM200.19 5.71295H199.795V7.14822H199.4V5.71295H199.005V7.14822H199.4V8.58349H199.005V10.0188H199.4V8.58349H199.795V10.0188H200.19V8.58349H199.795V7.14822H200.19V5.71295ZM200.973 25.6942H200.578V27.1295H200.973V25.6942ZM200.973 22.8518H200.578V24.2871H200.973V22.8518ZM200.973 19.9812H200.578V21.4165H200.973V19.9812ZM200.973 17.1388H200.578V18.5741H200.973V17.1388ZM201.763 25.6942H201.368V27.1295H201.763V25.6942ZM201.763 22.8518H201.368V24.2871H201.763V22.8518ZM201.763 19.9812H201.368V21.4165H201.763V19.9812ZM201.763 17.1388H201.368V18.5741H201.763V17.1388ZM201.763 11.4259H201.368V12.8612H200.973V11.4259H200.578V12.8612H200.973V14.2964H200.578V15.7317H200.973V14.2964H201.368V15.7317H201.763V14.2964H201.368V12.8612H201.763V11.4259ZM201.763 5.71295H201.368V7.14822H200.973V5.71295H200.578V7.14822H200.973V8.58349H200.578V10.0188H200.973V8.58349H201.368V10.0188H201.763V8.58349H201.368V7.14822H201.763V5.71295ZM202.546 25.6942H202.15V27.1295H202.546V25.6942ZM202.546 22.8518H202.15V24.2871H202.546V22.8518ZM203.336 25.6942H202.941V27.1295H203.336V25.6942ZM203.336 22.8518H202.941V24.2871H203.336V22.8518ZM203.336 17.1388H202.941V18.5741H202.546V17.1388H202.15V18.5741H202.546V20.0094H202.15V21.4447H202.546V20.0094H202.941V21.4447H203.336V20.0094H202.941V18.5741H203.336V17.1388ZM203.336 11.4259H202.941V12.8612H202.546V11.4259H202.15V12.8612H202.546V14.2964H202.15V15.7317H202.546V14.2964H202.941V15.7317H203.336V14.2964H202.941V12.8612H203.336V11.4259ZM203.336 5.71295H202.941V7.14822H202.546V5.71295H202.15V7.14822H202.546V8.58349H202.15V10.0188H202.546V8.58349H202.941V10.0188H203.336V8.58349H202.941V7.14822H203.336V5.71295ZM204.909 22.8518H204.513V24.2871H204.118V22.8518H203.723V24.2871H204.118V25.7223H203.723V27.1576H204.118V25.7223H204.513V27.1576H204.909V25.7223H204.513V24.2871H204.909V22.8518ZM204.909 17.1388H204.513V18.5741H204.118V17.1388H203.723V18.5741H204.118V20.0094H203.723V21.4447H204.118V20.0094H204.513V21.4447H204.909V20.0094H204.513V18.5741H204.909V17.1388ZM204.909 11.4259H204.513V12.8612H204.118V11.4259H203.723V12.8612H204.118V14.2964H203.723V15.7317H204.118V14.2964H204.513V15.7317H204.909V14.2964H204.513V12.8612H204.909V11.4259ZM204.909 5.71295H204.513V7.14822H204.118V5.71295H203.723V7.14822H204.118V8.58349H203.723V10.0188H204.118V8.58349H204.513V10.0188H204.909V8.58349H204.513V7.14822H204.909V5.71295ZM206.481 22.8518H206.086V24.2871H205.691V22.8518H205.296V24.2871H205.691V25.7223H205.296V27.1576H205.691V25.7223H206.086V27.1576H206.481V25.7223H206.086V24.2871H206.481V22.8518ZM206.481 17.1388H206.086V18.5741H205.691V17.1388H205.296V18.5741H205.691V20.0094H205.296V21.4447H205.691V20.0094H206.086V21.4447H206.481V20.0094H206.086V18.5741H206.481V17.1388ZM206.481 11.4259H206.086V12.8612H205.691V11.4259H205.296V12.8612H205.691V14.2964H205.296V15.7317H205.691V14.2964H206.086V15.7317H206.481V14.2964H206.086V12.8612H206.481V11.4259ZM208.046 22.8518H207.651V24.2871H207.256V22.8518H206.861V24.2871H207.256V25.7223H206.861V27.1576H207.256V25.7223H207.651V27.1576H208.046V25.7223H207.651V24.2871H208.046V22.8518ZM208.046 17.1388H207.651V18.5741H207.256V17.1388H206.861V18.5741H207.256V20.0094H206.861V21.4447H207.256V20.0094H207.651V21.4447H208.046V20.0094H207.651V18.5741H208.046V17.1388ZM209.619 22.8518H209.224V24.2871H208.829V22.8518H208.434V24.2871H208.829V25.7223H208.434V27.1576H208.829V25.7223H209.224V27.1576H209.619V25.7223H209.224V24.2871H209.619V22.8518ZM213.942 27.1295V25.6942H213.547V27.1295H213.152V28.5647H213.547V30H213.942V28.5647H214.337V27.1295H213.942ZM246.955 19.9812H247.35V18.546H246.955V19.9812ZM215.515 27.1295V25.6942H215.12V27.1295H214.725V28.5647H215.12V30H215.515V28.5647H215.91V27.1295H215.515ZM228.88 27.1295V28.5647H229.275V27.1295H228.88ZM228.09 27.1295V28.5647H228.485V27.1295H228.09ZM229.662 27.1295V28.5647H230.057V27.1295H229.662ZM230.445 27.1295V28.5647H230.84V27.1295H230.445ZM226.517 27.1295V28.5647H226.912V27.1295H226.517ZM225.734 27.1295V28.5647H226.129V27.1295H225.734ZM227.307 27.1295V28.5647H227.702V27.1295H227.307ZM224.944 27.1295V25.6942H224.549V27.1295H224.154V28.5647H224.549V30H224.944V28.5647H225.339V27.1295H224.944ZM231.235 27.1295V28.5647H231.63V27.1295H231.235ZM244.592 7.14822V8.58349H244.987V7.14822H244.592ZM245.382 5.71295H245.777V4.27767H245.382V5.71295ZM245.382 8.55535H245.777V7.12008H245.382V8.55535ZM247.342 28.5366V27.1013H246.947V28.5366H247.342ZM245.382 2.87054H245.777V1.43527H245.382V2.87054ZM245.382 14.2683H245.777V12.833H245.382V14.2683ZM245.777 11.4259V9.99062H245.382V11.4259H245.777ZM244.592 11.4259H244.987V9.99062H244.592V11.4259ZM241.842 25.6942V27.1295H242.237V25.6942H241.842ZM246.165 28.5366H246.56V27.1013H246.165V28.5366ZM246.56 21.4165H246.955V19.9812H246.56V21.4165ZM247.342 22.8518V21.4165H246.947V22.8518H247.342ZM246.165 22.8518H246.56V21.4165H246.165V22.8518ZM244.592 12.8612V14.2964H244.987V12.8612H244.592ZM246.165 18.546V19.9812H246.56V18.546H246.165ZM246.955 25.6942H247.35V24.2589H246.955V25.6942ZM246.56 27.1295H246.955V25.6942H246.56V27.1295ZM246.165 24.2589V25.6942H246.56V24.2589H246.165ZM244.987 9.99062H245.382V8.55535H244.987V9.99062ZM243.81 27.1295V28.5647H244.205V27.1295H243.81ZM244.592 28.5366H244.987V27.1013H244.592V28.5366ZM244.205 24.2589H243.81V25.6942H244.205V24.2589ZM244.987 27.1295H245.382V25.6942H244.987V27.1295ZM242.237 27.1295V28.5647H242.632V27.1295H242.237ZM244.987 15.7036H245.382V14.2683H244.987V15.7036ZM243.414 25.6942V27.1295H243.81V25.6942H243.414ZM243.027 28.5366H243.422V27.1013H243.027V28.5366ZM244.592 24.2589V25.6942H244.987V24.2589H244.592ZM245.382 19.9812H245.777V18.546H245.382V19.9812ZM245.777 17.1388V15.7036H245.382V17.1388H245.777ZM244.592 18.546V19.9812H244.987V18.546H244.592ZM244.592 17.1388H244.987V15.7036H244.592V17.1388ZM245.382 25.6942H245.777V24.2589H245.382V25.6942ZM244.987 21.4165H245.382V19.9812H244.987V21.4165ZM245.777 22.8518V21.4165H245.382V22.8518H245.777ZM244.592 22.8518H244.987V21.4165H244.592V22.8518ZM267.386 14.2683H267.781V12.833H267.386V14.2683ZM264.24 19.9812H264.635V18.546H264.24V19.9812ZM264.24 14.2683H264.635V12.833H264.24V14.2683ZM264.24 8.55535H264.635V7.12008H264.24V8.55535ZM264.24 25.6942H264.635V24.2589H264.24V25.6942ZM264.24 28.5366H264.635V27.1013H264.24V28.5366ZM263.458 11.4259H263.853V9.99062H263.458V11.4259ZM264.24 2.87054H264.635V1.43527H264.24V2.87054ZM263.458 17.1388H263.853V15.7036H263.458V17.1388ZM263.458 5.71295H263.853V4.27767H263.458V5.71295ZM265.813 8.55535H266.208V7.12008H265.813V8.55535ZM265.03 28.5366H265.426V27.1013H265.03V28.5366ZM265.03 5.71295H265.426V4.27767H265.03V5.71295ZM265.813 19.9812H266.208V18.546H265.813V19.9812ZM265.813 14.2683H266.208V12.833H265.813V14.2683ZM265.813 25.6942H266.208V24.2589H265.813V25.6942ZM265.03 22.8518H265.426V21.4165H265.03V22.8518ZM265.03 17.1388H265.426V15.7036H265.03V17.1388ZM265.03 11.4259H265.426V9.99062H265.03V11.4259ZM263.458 22.8518H263.853V21.4165H263.458V22.8518ZM261.885 11.4259H262.28V9.99062H261.885V11.4259ZM261.885 22.8518H262.28V21.4165H261.885V22.8518ZM263.458 28.5366H263.853V27.1013H263.458V28.5366ZM261.885 17.1388H262.28V15.7036H261.885V17.1388ZM261.102 2.87054H261.497V1.43527H261.102V2.87054ZM261.102 17.1388H261.497V15.7036H261.102V17.1388ZM261.102 14.2683H261.497V12.833H261.102V14.2683ZM261.102 8.55535H261.497V7.12008H261.102V8.55535ZM261.885 28.5366H262.28V27.1013H261.885V28.5366ZM262.675 14.2683H263.07V12.833H262.675V14.2683ZM261.885 5.71295H262.28V4.27767H261.885V5.71295ZM262.675 2.87054H263.07V1.43527H262.675V2.87054ZM262.675 19.9812H263.07V18.546H262.675V19.9812ZM262.675 8.55535H263.07V7.12008H262.675V8.55535ZM262.675 22.8518H263.07V21.4165H262.675V22.8518ZM262.675 28.5366H263.07V27.1013H262.675V28.5366ZM262.675 25.6942H263.07V24.2589H262.675V25.6942ZM268.176 5.71295H268.571V4.27767H268.176V5.71295ZM271.314 11.4259H271.709V9.99062H271.314V11.4259ZM271.314 5.71295H271.709V4.27767H271.314V5.71295ZM272.887 28.5366H273.282V27.1013H272.887V28.5366ZM271.314 17.1388H271.709V15.7036H271.314V17.1388ZM269.741 5.71295H270.136V4.27767H269.741V5.71295ZM272.887 22.8518H273.282V21.4165H272.887V22.8518ZM271.314 22.8518H271.709V21.4165H271.314V22.8518ZM270.531 25.6942H270.926V24.2589H270.531V25.6942ZM271.314 28.5366H271.709V27.1013H271.314V28.5366ZM266.603 28.5366H266.998V27.1013H266.603V28.5366ZM276.032 28.5366H276.427V27.1013H276.032V28.5366ZM276.032 22.8518H276.427V21.4165H276.032V22.8518ZM277.605 27.1295V28.5647H278V27.1295H277.605ZM272.887 17.1388H273.282V15.7036H272.887V17.1388ZM274.459 17.1388H274.854V15.7036H274.459V17.1388ZM269.741 11.4259H270.136V9.99062H269.741V11.4259ZM274.459 28.5366H274.854V27.1013H274.459V28.5366ZM274.459 22.8518H274.854V21.4165H274.459V22.8518ZM272.887 11.4259H273.282V9.99062H272.887V11.4259ZM267.386 25.6942H267.781V24.2589H267.386V25.6942ZM267.386 19.9812H267.781V18.546H267.386V19.9812ZM266.603 5.71295H266.998V4.27767H266.603V5.71295ZM206.481 2.87054V4.30582H206.876V2.87054H207.272V1.43527H206.876V0H206.481V1.43527H206.086V2.87054H206.481ZM266.603 22.8518H266.998V21.4165H266.603V22.8518ZM268.176 28.5366H268.571V27.1013H268.176V28.5366ZM266.603 11.4259H266.998V9.99062H266.603V11.4259ZM266.603 17.1388H266.998V15.7036H266.603V17.1388ZM261.102 19.9812H261.497V18.546H261.102V19.9812ZM268.958 19.9812H269.354V18.546H268.958V19.9812ZM269.741 28.5366H270.136V27.1013H269.741V28.5366ZM269.741 22.8518H270.136V21.4165H269.741V22.8518ZM268.958 25.6942H269.354V24.2589H268.958V25.6942ZM268.176 22.8518H268.571V21.4165H268.176V22.8518ZM269.741 17.1388H270.136V15.7036H269.741V17.1388ZM268.176 17.1388H268.571V15.7036H268.176V17.1388ZM268.176 11.4259H268.571V9.99062H268.176V11.4259ZM255.602 22.8518H255.997V21.4165H255.602V22.8518ZM255.602 11.4259H255.997V9.99062H255.602V11.4259ZM255.602 17.1388H255.997V15.7036H255.602V17.1388ZM255.602 5.71295H255.997V4.27767H255.602V5.71295ZM255.602 19.9812H255.997V18.546H255.602V19.9812ZM256.384 28.5366H256.779V27.1013H256.384V28.5366ZM254.811 2.87054H255.206V1.43527H254.811V2.87054ZM255.602 28.5366H255.997V27.1013H255.602V28.5366ZM255.602 25.6942H255.997V24.2589H255.602V25.6942ZM253.238 5.71295H253.634V4.27767H253.238V5.71295ZM256.384 14.2683H256.779V12.833H256.384V14.2683ZM256.384 11.4259H256.779V9.99062H256.384V11.4259ZM256.384 8.55535H256.779V7.12008H256.384V8.55535ZM256.384 5.71295H256.779V4.27767H256.384V5.71295ZM254.811 5.71295H255.206V4.27767H254.811V5.71295ZM256.384 19.9812H256.779V18.546H256.384V19.9812ZM256.384 22.8518H256.779V21.4165H256.384V22.8518ZM256.384 17.1388H256.779V15.7036H256.384V17.1388ZM256.384 25.6942H256.779V24.2589H256.384V25.6942ZM254.029 5.71295H254.424V4.27767H254.029V5.71295ZM254.029 17.1388H254.424V15.7036H254.029V17.1388ZM254.029 19.9812H254.424V18.546H254.029V19.9812ZM254.029 14.2683H254.424V12.833H254.029V14.2683ZM254.029 22.8518H254.424V21.4165H254.029V22.8518ZM253.238 2.87054H253.634V1.43527H253.238V2.87054ZM254.029 11.4259H254.424V9.99062H254.029V11.4259ZM254.029 28.5366H254.424V27.1013H254.029V28.5366ZM254.029 25.6942H254.424V24.2589H254.029V25.6942ZM261.102 22.8518H261.497V21.4165H261.102V22.8518ZM254.811 8.55535H255.206V7.12008H254.811V8.55535ZM254.811 14.2683H255.206V12.833H254.811V14.2683ZM254.811 17.1388H255.206V15.7036H254.811V17.1388ZM254.811 11.4259H255.206V9.99062H254.811V11.4259ZM254.811 19.9812H255.206V18.546H254.811V19.9812ZM254.811 28.5366H255.206V27.1013H254.811V28.5366ZM254.811 25.6942H255.206V24.2589H254.811V25.6942ZM254.811 22.8518H255.206V21.4165H254.811V22.8518ZM256.384 2.87054H256.779V1.43527H256.384V2.87054ZM259.53 14.2683H259.925V12.833H259.53V14.2683ZM259.53 17.1388H259.925V15.7036H259.53V17.1388ZM259.53 19.9812H259.925V18.546H259.53V19.9812ZM259.53 11.4259H259.925V9.99062H259.53V11.4259ZM258.739 5.71295H259.134V4.27767H258.739V5.71295ZM259.53 28.5366H259.925V27.1013H259.53V28.5366ZM259.53 8.55535H259.925V7.12008H259.53V8.55535ZM258.739 11.4259H259.134V9.99062H258.739V11.4259ZM259.53 22.8518H259.925V21.4165H259.53V22.8518ZM259.53 25.6942H259.925V24.2589H259.53V25.6942ZM261.102 28.5366H261.497V27.1013H261.102V28.5366ZM260.312 5.71295H260.707V4.27767H260.312V5.71295ZM259.53 2.87054H259.925V1.43527H259.53V2.87054ZM260.312 11.4259H260.707V9.99062H260.312V11.4259ZM261.102 25.6942H261.497V24.2589H261.102V25.6942ZM260.312 17.1388H260.707V15.7036H260.312V17.1388ZM260.312 28.5366H260.707V27.1013H260.312V28.5366ZM260.312 22.8518H260.707V21.4165H260.312V22.8518ZM257.957 8.55535H258.352V7.12008H257.957V8.55535ZM257.167 11.4259H257.562V9.99062H257.167V11.4259ZM257.167 5.71295H257.562V4.27767H257.167V5.71295ZM257.957 28.5366H258.352V27.1013H257.957V28.5366ZM257.957 22.8518H258.352V21.4165H257.957V22.8518ZM257.957 25.6942H258.352V24.2589H257.957V25.6942ZM257.167 25.6942H257.562V24.2589H257.167V25.6942ZM257.167 22.8518H257.562V21.4165H257.167V22.8518ZM257.167 17.1388H257.562V15.7036H257.167V17.1388ZM257.957 2.87054H258.352V1.43527H257.957V2.87054ZM257.957 5.71295H258.352V4.27767H257.957V5.71295ZM258.739 22.8518H259.134V21.4165H258.739V22.8518ZM258.739 28.5366H259.134V27.1013H258.739V28.5366ZM257.167 28.5366H257.562V27.1013H257.167V28.5366ZM257.957 14.2683H258.352V12.833H257.957V14.2683ZM257.957 17.1388H258.352V15.7036H257.957V17.1388ZM257.957 11.4259H258.352V9.99062H257.957V11.4259ZM257.957 19.9812H258.352V18.546H257.957V19.9812ZM237.518 25.6942H237.914V24.2589H237.518V25.6942ZM219.056 22.8518V21.4165H218.661V19.9812H218.266V21.4165H217.87V22.8518H218.266V24.2871H218.661V22.8518H219.056ZM217.483 22.8518V21.4165H217.088V19.9812H216.693V21.4165H216.298V22.8518H216.693V24.2871H217.088V22.8518H217.483ZM221.411 5.71295V4.27767H221.016V5.71295H221.411ZM217.483 22.8518V24.2871H217.878V22.8518H217.483ZM215.515 21.4165V19.9812H215.12V21.4165H214.725V22.8518H215.12V24.2871H215.515V22.8518H215.91V21.4165H215.515ZM211.587 14.2683H211.982V12.833H211.587V11.3978H211.192V12.833H210.797V14.2683H211.192V15.7036H211.587V14.2683ZM210.797 11.4259H211.192V9.99062H210.797V8.55535H210.402V9.99062H210.007V11.4259H210.402V12.8612H210.797V11.4259ZM213.16 19.9812H213.555V18.546H213.16V17.1107H212.765V18.546H212.37V19.9812H212.765V21.4165H213.16V19.9812ZM212.37 17.1388H212.765V15.7036H212.37V14.2683H211.974V15.7036H211.579V17.1388H211.974V18.5741H212.37V17.1388ZM224.557 22.8518V24.2871H224.952V22.8518H224.557ZM223.766 22.8518V21.4165H223.371V19.9812H222.976V21.4165H222.581V22.8518H222.976V24.2871H223.371V22.8518H223.766ZM223.766 22.8518V24.2871H224.161V22.8518H223.766ZM210.014 8.55535H210.409V7.12008H210.014V5.6848H209.619V7.12008H209.224V8.55535H209.619V9.99062H210.014V8.55535ZM219.056 22.8518V24.2871H219.451V22.8518H219.056ZM222.194 22.8518V24.2871H222.589V22.8518H222.194ZM220.621 22.8518V21.4165H220.226V19.9812H219.831V21.4165H219.435V22.8518H219.831V24.2871H220.226V22.8518H220.621ZM222.194 22.8518V21.4165H221.798V19.9812H221.403V21.4165H221.008V22.8518H221.403V24.2871H221.798V22.8518H222.194ZM220.621 22.8518V24.2871H221.016V22.8518H220.621ZM213.16 7.14822V5.71295H212.765V7.14822H213.16ZM219.056 8.55535V7.12008H218.661V8.55535H219.056ZM217.87 7.14822V5.71295H217.475V7.14822H217.87ZM217.87 8.55535H218.266V7.12008H217.87V8.55535ZM211.192 8.55535V9.99062H211.587V8.55535H211.982V7.12008H211.587V5.6848H211.192V7.12008H210.797V8.55535H211.192ZM219.443 7.14822V5.71295H219.048V7.14822H219.443ZM220.621 5.71295V4.27767H220.226V5.71295H220.621ZM219.838 5.71295V4.27767H219.443V5.71295H219.838ZM216.305 8.55535H216.701V7.12008H216.305V8.55535ZM217.483 8.55535V7.12008H217.088V8.55535H217.483ZM213.16 8.55535H213.555V7.12008H213.16V8.55535ZM216.305 7.14822V5.71295H215.91V7.14822H216.305ZM214.337 8.55535V7.12008H213.942V8.55535H214.337ZM212.765 8.55535V7.12008H212.37V8.55535H212.765ZM225.734 22.8518H225.339V24.2871H225.734V22.8518ZM214.733 7.14822V5.71295H214.337V7.14822H214.733ZM236.341 5.71295V4.27767H235.946V5.71295H236.341ZM214.733 8.55535H215.128V7.12008H214.733V8.55535ZM213.942 21.4165V19.9812H213.547V21.4165H213.152V22.8518H213.547V24.2871H213.942V22.8518H214.337V21.4165H213.942ZM239.486 18.546H239.091V19.9812H239.486V18.546ZM239.882 22.8518H240.277V21.4165H239.882V22.8518ZM239.091 21.4165V22.8518H239.486V21.4165H239.091ZM239.882 18.546V17.1107H239.486V18.546H239.882ZM240.269 19.9812V18.546H239.874V19.9812H240.269ZM238.704 19.9812V21.4165H239.099V19.9812H238.704ZM237.518 21.4165V22.8518H237.914V21.4165H237.518ZM236.736 22.8518H237.131V21.4165H236.736V22.8518ZM238.309 22.8518H238.704V21.4165H238.309V22.8518ZM237.131 19.9812V21.4165H237.526V19.9812H237.131ZM237.518 9.99062V8.55535H237.123V9.99062H237.518ZM237.131 8.55535V7.12008H236.736V8.55535H237.131ZM239.486 17.1388V15.7036H239.091V17.1388H239.486ZM237.914 11.4259V9.99062H237.518V11.4259H237.914ZM236.736 7.14822V5.71295H236.341V7.14822H236.736ZM239.091 15.7036V14.2683H238.696V15.7036H239.091ZM238.309 12.8612V11.4259H237.914V12.8612H238.309ZM238.704 14.2683V12.833H238.309V14.2683H238.704ZM230.445 24.2589V25.6942H230.84V24.2589H230.445ZM225.734 24.2589V25.6942H226.129V24.2589H225.734ZM231.63 24.2589H232.025V22.8236H231.63V24.2589ZM228.88 24.2589V25.6942H229.275V24.2589H228.88ZM231.235 25.6942H231.63V24.2589H231.235V25.6942ZM229.662 24.2589V25.6942H230.057V24.2589H229.662ZM226.517 24.2589V25.6942H226.912V24.2589H226.517ZM227.307 24.2589V25.6942H227.702V24.2589H227.307ZM228.09 24.2589V25.6942H228.485V24.2589H228.09ZM235.558 19.9812V21.4165H235.953V19.9812H235.558ZM235.163 22.8518H235.558V21.4165H235.163V22.8518ZM234.381 21.4165V22.8518H234.776V21.4165H234.381ZM233.986 19.9812V21.4165H234.381V19.9812H233.986ZM235.953 21.4165V22.8518H236.349V21.4165H235.953ZM232.808 21.4165V22.8518H233.203V21.4165H232.808ZM232.413 19.9812V21.4165H232.808V19.9812H232.413ZM232.018 22.8518H232.413V21.4165H232.018V22.8518ZM233.59 22.8518H233.986V21.4165H233.59V22.8518ZM215.91 8.55535V7.12008H215.515V8.55535H215.91ZM226.129 22.8518V24.2871H226.525V22.8518H226.129ZM226.912 22.8518V24.2871H227.307V22.8518H226.912ZM228.485 22.8518V24.2871H228.88V22.8518H228.485ZM227.694 22.8518V24.2871H228.09V22.8518H227.694ZM226.129 21.4165H225.734V22.8518H226.129V21.4165ZM223.766 18.546H223.371V19.9812H223.766V18.546ZM224.161 19.9812H223.766V21.4165H224.161V19.9812ZM222.589 18.546V19.9812H222.984V18.546H222.589ZM234.381 18.546V19.9812H234.776V18.546H234.381ZM224.944 21.4165V22.8518H225.339V21.4165H224.944ZM232.018 18.546V19.9812H232.413V18.546H232.018ZM222.194 5.71295V4.27767H221.798V5.71295H222.194ZM231.63 21.4165H232.025V19.9812H231.63V21.4165ZM233.59 18.546V19.9812H233.986V18.546H233.59ZM230.057 24.2589H230.453V22.8236H230.057V24.2589ZM230.84 19.9812V21.4165H231.235V19.9812H230.84ZM229.267 22.8518V24.2871H229.662V22.8518H229.267ZM230.445 22.8518H230.84V21.4165H230.445V22.8518ZM224.161 21.4165V22.8518H224.557V21.4165H224.161ZM216.305 18.546V19.9812H216.701V18.546H216.305ZM215.91 18.546H215.515V19.9812H215.91V18.546ZM217.483 19.9812V21.4165H217.878V19.9812H217.483ZM217.483 18.546H217.088V19.9812H217.483V18.546ZM215.91 19.9812V21.4165H216.305V19.9812H215.91ZM222.194 19.9812V21.4165H222.589V19.9812H222.194ZM214.733 18.546V17.1107H214.337V18.546H213.942V19.9812H214.337V21.4165H214.733V19.9812H215.128V18.546H214.733ZM213.942 17.1388H214.337V15.7036H213.942V14.2683H213.547V15.7036H213.152V17.1388H213.547V18.5741H213.942V17.1388ZM213.16 14.2683H213.555V12.833H213.16V11.3978H212.765V12.833H212.37V14.2683H212.765V15.7036H213.16V14.2683ZM220.621 19.9812V21.4165H221.016V19.9812H220.621ZM217.87 18.546V19.9812H218.266V18.546H217.87ZM220.621 18.546H220.226V19.9812H220.621V18.546ZM222.194 18.546H221.798V19.9812H222.194V18.546ZM221.016 18.546V19.9812H221.411V18.546H221.016ZM219.443 18.546V19.9812H219.838V18.546H219.443ZM219.056 18.546H218.661V19.9812H219.056V18.546ZM219.056 19.9812V21.4165H219.451V19.9812H219.056ZM232.808 18.546V19.9812H233.203V18.546H232.808ZM229.267 8.55535V7.12008H228.872V8.55535H229.267ZM228.485 7.14822H228.09V8.58349H228.485V7.14822ZM228.09 9.99062V8.55535H227.694V9.99062H228.09ZM229.662 9.99062V8.55535H229.267V9.99062H229.662ZM230.057 7.14822H229.662V8.58349H230.057V7.14822ZM227.694 8.55535V7.12008H227.299V8.55535H227.694ZM231.235 9.99062V8.55535H230.84V9.99062H231.235ZM231.63 7.14822H231.235V8.58349H231.63V7.14822ZM230.84 8.55535V7.12008H230.445V8.55535H230.84ZM226.517 9.99062V8.55535H226.122V9.99062H226.517ZM226.912 7.14822H226.517V8.58349H226.912V7.14822ZM224.944 7.14822V5.71295H224.549V7.14822H224.944ZM223.766 5.71295V4.27767H223.371V5.71295H223.766ZM222.984 5.71295V4.27767H222.589V5.71295H222.984ZM224.161 7.14822V5.71295H223.766V7.14822H224.161ZM232.413 8.55535V7.12008H232.018V8.55535H232.413ZM225.734 7.14822V5.71295H225.339V7.14822H225.734ZM226.129 8.55535V7.12008H225.734V8.55535H226.129ZM234.768 7.14822H234.373V8.58349H234.768V7.14822ZM236.736 18.546V19.9812H237.131V18.546H236.736ZM237.518 19.9812H237.914V18.546H237.518V19.9812ZM237.914 17.1388V15.7036H237.518V17.1388H237.914ZM237.518 15.7036V14.2683H237.123V15.7036H237.518ZM237.131 15.7036H236.736V17.1388H237.131V15.7036ZM237.131 14.2683V12.833H236.736V14.2683H237.131ZM235.953 19.9812H236.349V18.546H235.953V19.9812ZM236.341 17.1388V18.5741H236.736V17.1388H236.341ZM235.163 18.546V19.9812H235.558V18.546H235.163ZM234.381 9.99062V8.55535H233.986V9.99062H234.381ZM233.986 8.55535V7.12008H233.59V8.55535H233.986ZM233.195 7.14822H232.8V8.58349H233.195V7.14822ZM232.808 9.99062V8.55535H232.413V9.99062H232.808ZM235.558 8.55535V7.12008H235.163V8.55535H235.558ZM236.341 11.4259V9.99062H235.946V11.4259H236.341ZM235.953 9.99062V8.55535H235.558V9.99062H235.953ZM236.736 12.8612V11.4259H236.341V12.8612H236.736ZM219.056 25.6942V27.1295H219.451V25.6942H219.056ZM239.486 11.4259V9.99062H239.091V11.4259H239.486ZM238.309 7.14822V5.71295H237.914V7.14822H238.309ZM239.882 12.8612V11.4259H239.486V12.8612H239.882ZM238.704 8.55535V7.12008H238.309V8.55535H238.704ZM239.091 9.99062V8.55535H238.696V9.99062H239.091ZM241.059 17.1388V15.7036H240.664V17.1388H241.059ZM241.454 18.546V17.1107H241.059V18.546H241.454ZM241.842 19.9812V18.546H241.447V19.9812H241.842ZM240.269 14.2683V12.833H239.874V14.2683H240.269ZM240.664 15.7036V14.2683H240.269V15.7036H240.664ZM235.953 4.27767V2.8424H235.558V4.27767H235.953ZM234.768 1.43527H234.373V2.87054H234.768V1.43527ZM235.558 2.87054V1.43527H235.163V2.87054H235.558ZM234.381 4.27767V2.8424H233.986V4.27767H234.381ZM237.518 4.27767V2.8424H237.123V4.27767H237.518ZM236.341 1.43527H235.946V2.87054H236.341V1.43527ZM233.986 2.87054V1.43527H233.59V2.87054H233.986ZM237.131 2.87054V1.43527H236.736V2.87054H237.131ZM237.914 5.71295V4.27767H237.518V5.71295H237.914ZM237.914 22.8518V24.2871H238.309V22.8518H237.914ZM239.091 25.6942H239.486V24.2589H239.091V25.6942ZM212.37 11.4259H212.765V9.99062H212.37V8.55535H211.974V9.99062H211.579V11.4259H211.974V12.8612H212.37V11.4259ZM238.309 24.2589V25.6942H238.704V24.2589H238.309ZM236.736 24.2589V25.6942H237.131V24.2589H236.736ZM235.953 24.2589V25.6942H236.349V24.2589H235.953ZM234.381 24.2589V25.6942H234.776V24.2589H234.381ZM235.163 24.2589V25.6942H235.558V24.2589H235.163ZM241.454 24.2589V25.6942H241.849V24.2589H241.454ZM241.842 21.4165H241.447V22.8518H241.842V21.4165ZM242.237 25.6942H242.632V24.2589H242.237V25.6942ZM242.237 21.4165V19.9812H241.842V21.4165H242.237ZM242.632 22.8518V21.4165H242.237V22.8518H242.632ZM240.664 25.6942H241.059V24.2589H240.664V25.6942ZM239.882 24.2589V25.6942H240.277V24.2589H239.882ZM241.059 22.8518V24.2871H241.454V22.8518H241.059ZM239.486 22.8518V24.2871H239.882V22.8518H239.486ZM222.984 2.87054V1.43527H222.589V2.87054H222.984ZM218.266 2.87054V1.43527H217.87V2.87054H218.266ZM219.838 2.87054V1.43527H219.443V2.87054H219.838ZM219.056 2.87054V1.43527H218.661V2.87054H219.056ZM233.195 1.43527H232.8V2.87054H233.195V1.43527ZM221.411 2.87054V1.43527H221.016V2.87054H221.411ZM222.194 2.87054V1.43527H221.798V2.87054H222.194ZM223.766 2.87054V1.43527H223.371V2.87054H223.766ZM233.59 24.2589V25.6942H233.986V24.2589H233.59ZM216.693 2.87054V1.43527H216.298V2.87054H216.693ZM220.621 2.87054V1.43527H220.226V2.87054H220.621ZM215.91 2.87054V1.43527H215.515V2.87054H215.91ZM212.765 2.87054V1.43527H212.37V2.87054H212.765ZM211.982 2.87054V1.43527H211.587V2.87054H211.982ZM209.619 2.87054V4.30582H210.014V2.87054H210.409V1.43527H210.014V0H209.619V1.43527H209.224V2.87054H209.619ZM211.192 2.87054V1.43527H210.797V2.87054H211.192ZM213.547 2.87054V1.43527H213.152V2.87054H213.547ZM215.12 2.87054V1.43527H214.725V2.87054H215.12ZM214.337 2.87054V1.43527H213.942V2.87054H214.337ZM217.483 2.87054V1.43527H217.088V2.87054H217.483ZM230.84 2.87054V1.43527H230.445V2.87054H230.84ZM229.267 2.87054V1.43527H228.872V2.87054H229.267ZM229.662 4.27767V2.8424H229.267V4.27767H229.662ZM231.235 4.27767V2.8424H230.84V4.27767H231.235ZM235.558 4.27767H235.163V5.71295H235.558V4.27767ZM232.808 4.27767V2.8424H232.413V4.27767H232.808ZM231.63 1.43527H231.235V2.87054H231.63V1.43527ZM232.413 2.87054V1.43527H232.018V2.87054H232.413ZM228.09 4.27767V2.8424H227.694V4.27767H228.09ZM226.129 2.87054V1.43527H225.734V2.87054H226.129ZM228.485 1.43527H228.09V2.87054H228.485V1.43527ZM224.944 4.27767V2.8424H224.549V4.27767H224.944ZM226.517 4.27767V2.8424H226.122V4.27767H226.517ZM225.339 1.43527H224.944V2.87054H225.339V1.43527ZM224.557 2.87054V1.43527H224.161V2.87054H224.557ZM227.694 2.87054V1.43527H227.299V2.87054H227.694ZM226.912 1.43527H226.517V2.87054H226.912V1.43527ZM230.057 1.43527H229.662V2.87054H230.057V1.43527ZM219.443 4.27767V2.8424H219.048V4.27767H219.443ZM217.87 4.27767V5.71295H218.266V7.14822H218.661V5.71295H219.056V4.27767H218.661V2.8424H218.266V4.27767H217.87ZM216.305 4.27767V5.71295H216.701V7.14822H217.096V5.71295H217.491V4.27767H217.096V2.8424H216.701V4.27767H216.305ZM220.233 4.27767V2.8424H219.838V4.27767H220.233ZM224.161 4.27767V2.8424H223.766V4.27767H224.161ZM222.589 4.27767V2.8424H222.194V4.27767H222.589ZM221.016 4.27767V2.8424H220.621V4.27767H221.016ZM223.371 4.27767V2.8424H222.976V4.27767H223.371ZM221.806 4.27767V2.8424H221.411V4.27767H221.806ZM217.87 4.27767V2.8424H217.475V4.27767H217.87ZM211.587 4.27767V2.8424H211.192V4.27767H211.587ZM211.587 4.27767V5.71295H211.982V7.14822H212.377V5.71295H212.772V4.27767H212.377V2.8424H211.982V4.27767H211.587ZM213.16 4.27767V2.8424H212.765V4.27767H213.16ZM216.305 4.27767V2.8424H215.91V4.27767H216.305ZM210.409 5.71295V7.14822H210.805V5.71295H211.2V4.27767H210.805V2.8424H210.409V4.27767H210.014V5.71295H210.409ZM214.733 4.27767V5.71295H215.128V7.14822H215.523V5.71295H215.918V4.27767H215.523V2.8424H215.128V4.27767H214.733ZM213.16 4.27767V5.71295H213.555V7.14822H213.95V5.71295H214.345V4.27767H213.95V2.8424H213.555V4.27767H213.16ZM214.733 4.27767V2.8424H214.337V4.27767H214.733ZM232.018 7.14822V5.71295H231.622V7.14822H232.018ZM231.63 5.71295V4.27767H231.235V5.71295H231.63ZM233.195 5.71295V4.27767H232.8V5.71295H233.195ZM233.59 7.14822V5.71295H233.195V7.14822H233.59ZM208.837 5.71295V7.14822H209.232V5.71295H209.627V4.27767H209.232V2.8424H208.837V4.27767H208.441V5.71295H208.837ZM232.413 4.27767H232.018V5.71295H232.413V4.27767ZM233.986 4.27767H233.59V5.71295H233.986V4.27767ZM235.163 7.14822V5.71295H234.768V7.14822H235.163ZM234.768 5.71295V4.27767H234.373V5.71295H234.768ZM229.267 5.71295V4.27767H228.872V5.71295H229.267ZM226.912 5.71295V4.27767H226.517V5.71295H226.912ZM226.129 5.71295V4.27767H225.734V5.71295H226.129ZM227.694 5.71295V4.27767H227.299V5.71295H227.694ZM225.339 5.71295V4.27767H224.944V5.71295H225.339ZM230.057 5.71295V4.27767H229.662V5.71295H230.057ZM230.84 5.71295V4.27767H230.445V5.71295H230.84ZM228.485 5.71295V4.27767H228.09V5.71295H228.485ZM224.557 5.71295V4.27767H224.161V5.71295H224.557ZM221.016 24.2589V25.6942H221.411V24.2589H221.016ZM224.161 24.2589V25.6942H224.557V24.2589H224.161ZM223.766 25.6942V27.1295H224.161V25.6942H223.766ZM225.339 24.2589H224.944V25.6942H225.339V24.2589ZM226.129 25.6942V27.1295H226.525V25.6942H226.129ZM225.339 25.6942V27.1295H225.734V25.6942H225.339ZM223.766 24.2589H223.371V25.6942H223.766V24.2589ZM222.194 24.2589H221.798V25.6942H222.194V24.2589ZM222.194 25.6942V27.1295H222.589V25.6942H222.194ZM222.589 24.2589V25.6942H222.984V24.2589H222.589ZM230.057 25.6942V27.1295H230.453V25.6942H230.057ZM207.659 5.71295H208.054V4.27767H207.659V2.8424H207.264V4.27767H206.869V5.71295H207.264V7.14822H207.659V5.71295ZM231.63 27.1295H232.025V25.6942H231.63V27.1295ZM232.808 24.2589V25.6942H233.203V24.2589H232.808ZM232.018 24.2589V25.6942H232.413V24.2589H232.018ZM227.694 25.6942V27.1295H228.09V25.6942H227.694ZM226.912 25.6942V27.1295H227.307V25.6942H226.912ZM228.485 25.6942V27.1295H228.88V25.6942H228.485ZM229.267 25.6942V27.1295H229.662V25.6942H229.267ZM230.84 25.6942V27.1295H231.235V25.6942H230.84ZM212.37 22.8518H212.765V21.4165H212.37V19.9812H211.974V21.4165H211.579V22.8518H211.974V24.2871H212.37V22.8518ZM220.621 25.6942V27.1295H221.016V25.6942H220.621ZM214.733 24.2589V22.8236H214.337V24.2589H213.942V25.6942H214.337V27.1295H214.733V25.6942H215.128V24.2589H214.733ZM213.16 24.2589V22.8236H212.765V24.2589H212.37V25.6942H212.765V27.1295H213.16V25.6942H213.555V24.2589H213.16ZM211.587 19.9812H211.982V18.546H211.587V17.1107H211.192V18.546H210.797V19.9812H211.192V21.4165H211.587V19.9812ZM210.014 14.2683H210.409V12.833H210.014V11.3978H209.619V12.833H209.224V14.2683H209.619V15.7036H210.014V14.2683ZM208.441 8.55535H208.837V7.12008H208.441V5.6848H208.046V7.12008H207.651V8.55535H208.046V9.99062H208.441V8.55535ZM209.232 11.4259H209.627V9.99062H209.232V8.55535H208.837V9.99062H208.441V11.4259H208.837V12.8612H209.232V11.4259ZM210.797 17.1388H211.192V15.7036H210.797V14.2683H210.402V15.7036H210.007V17.1388H210.402V18.5741H210.797V17.1388ZM219.056 24.2589H218.661V25.6942H219.056V24.2589ZM219.443 24.2589V25.6942H219.838V24.2589H219.443ZM208.046 2.87054V4.30582H208.441V2.87054H208.837V1.43527H208.441V0H208.046V1.43527H207.651V2.87054H208.046ZM220.621 24.2589H220.226V25.6942H220.621V24.2589ZM217.483 25.6942V27.1295H217.878V25.6942H217.483ZM217.87 24.2589V25.6942H218.266V24.2589H217.87ZM217.483 24.2589H217.088V25.6942H217.483V24.2589ZM216.305 24.2589V22.8236H215.91V24.2589H215.515V25.6942H215.91V27.1295H216.305V25.6942H216.701V24.2589H216.305Z" fill="#010715"/>
</svg>
