<svg width="358" height="30" viewBox="0 0 358 30" fill="none" xmlns="http://www.w3.org/2000/svg">
<path d="M291.587 1.43527H291.192V0H291.587V1.43527ZM313.986 9.99062H313.59V11.4259H313.986V9.99062ZM315.558 14.2683V12.833H315.163V14.2683H315.558ZM315.163 17.1388H315.558V15.7036H315.163V17.1388ZM320.664 8.55535H320.269V9.99062H320.664V8.55535ZM321.059 7.14822H320.664V8.58349H321.059V7.14822ZM310.057 21.4165H310.453V19.9812H310.057V21.4165ZM286.086 0H285.691V1.43527H286.086V0ZM293.16 0H292.765V1.43527H293.16V0ZM315.163 12.8612V11.4259H314.768V12.8612H315.163ZM290.797 0H290.402V1.43527H290.797V0ZM319.882 7.14822V8.58349H320.277V7.14822H319.882ZM289.232 0H288.837V1.43527H289.232V0ZM314.768 11.4259V9.99062H314.373V11.4259H314.768ZM292.37 0H291.974V1.43527H292.37V0ZM322.632 12.8612H322.237V14.2964H322.632V12.8612ZM287.659 0H287.264V1.43527H287.659V0ZM292.765 29.9719H293.16V28.5366H292.765V29.9719ZM278.222 0H277.827V1.43527H278.222V0ZM279.795 0H279.4V1.43527H279.795V0ZM312.413 11.4259V9.99062H312.018V11.4259H312.413ZM297.483 29.9719H297.878V28.5366H297.483V29.9719ZM294.337 29.9719H294.733V28.5366H294.337V29.9719ZM295.91 29.9719H296.305V28.5366H295.91V29.9719ZM313.195 11.4259V9.99062H312.8V11.4259H313.195ZM311.63 11.4259V9.99062H311.235V11.4259H311.63ZM313.59 12.8612V11.4259H313.195V12.8612H313.59ZM284.513 0H284.118V1.43527H284.513V0ZM282.941 0H282.546V1.43527H282.941V0ZM309.662 22.8518H310.057V21.4165H309.662V22.8518ZM320.269 9.99062H319.874V11.4259H320.269V9.99062ZM308.88 21.4165V22.8518H309.275V21.4165H308.88ZM321.454 12.8612V14.2964H321.849V12.8612H321.454ZM281.368 0H280.973V1.43527H281.368V0ZM321.059 12.8612H320.664V14.2964H321.059V12.8612ZM321.059 11.4259V9.99062H320.664V11.4259H321.059ZM315.163 0H314.768V1.43527H315.163V0ZM310.84 11.4259V9.99062H310.445V11.4259H310.84ZM313.986 14.2683V12.833H313.59V14.2683H313.986ZM307.307 0H306.912V1.43527H307.307V0ZM304.161 0H303.766V1.43527H304.161V0ZM313.195 15.7036H313.59V14.2683H313.195V15.7036ZM305.734 0H305.339V1.43527H305.734V0ZM301.806 0H301.411V1.43527H301.806V0ZM313.195 12.8612H312.8V14.2964H313.195V12.8612ZM303.371 0H302.976V1.43527H303.371V0ZM318.309 1.43527V2.87054H318.704V1.43527H318.309ZM302.589 0H302.194V1.43527H302.589V0ZM313.59 0H313.195V1.43527H313.59V0ZM316.736 0H316.341V1.43527H316.736V0ZM312.018 0H311.622V1.43527H312.018V0ZM312.018 17.1388H312.413V15.7036H312.018V17.1388ZM317.914 1.43527H317.518V2.87054H317.914V1.43527ZM308.88 0H308.485V1.43527H308.88V0ZM310.445 0H310.05V1.43527H310.445V0ZM311.63 18.546H312.025V17.1107H311.63V18.546ZM312.413 14.2683V15.7036H312.808V14.2683H312.413ZM319.486 1.43527H319.091V2.87054H319.486V1.43527ZM313.986 14.2683V15.7036H314.381V14.2683H313.986ZM295.515 0H295.12V1.43527H295.515V0ZM310.445 18.546V19.9812H310.84V18.546H310.445ZM297.088 0H296.693V1.43527H297.088V0ZM297.87 0H297.475V1.43527H297.87V0ZM296.305 0H295.91V1.43527H296.305V0ZM314.768 12.8612H314.373V14.2964H314.768V12.8612ZM294.733 0H294.337V1.43527H294.733V0ZM319.486 7.14822H319.091V8.58349H319.486V7.14822ZM318.704 4.27767H318.309V5.71295H318.704V4.27767ZM300.233 0H299.838V1.43527H300.233V0ZM313.59 17.1388H313.986V15.7036H313.59V17.1388ZM312.808 15.7036V17.1388H313.203V15.7036H312.808ZM314.381 15.7036V17.1388H314.776V15.7036H314.381ZM301.016 0H300.621V1.43527H301.016V0ZM319.091 2.87054H318.696V4.30582H319.091V2.87054ZM319.486 5.71295V4.27767H319.091V5.71295H319.486ZM299.443 0H299.048V1.43527H299.443V0ZM298.661 0H298.266V1.43527H298.661V0ZM311.235 19.9812H311.63V18.546H311.235V19.9812ZM293.942 0H293.547V1.43527H293.942V0ZM324.205 5.71295V4.27767H323.81V5.71295H324.205ZM324.205 11.4259V9.99062H323.81V11.4259H324.205ZM323.414 4.27767H323.019V5.71295H323.414V4.27767ZM323.027 7.14822V8.58349H323.422V7.14822H323.027ZM324.205 7.14822H323.81V8.58349H324.205V7.14822ZM323.81 8.55535H323.414V9.99062H323.81V8.55535ZM322.237 2.87054H321.842V4.30582H322.237V2.87054ZM323.027 1.43527V2.87054H323.422V1.43527H323.027ZM297.87 9.99062V8.55535H297.475V9.99062H297.87ZM296.305 9.99062V11.4259H296.701V12.8612H297.096V11.4259H297.491V9.99062H297.096V8.55535H296.701V9.99062H296.305ZM324.205 1.43527H323.81V2.87054H324.205V1.43527ZM323.81 2.87054H323.414V4.30582H323.81V2.87054ZM299.056 29.9719H299.451V28.5366H299.056V29.9719ZM323.414 15.7036H323.019V17.1388H323.414V15.7036ZM300.233 7.14822V5.71295H299.838V7.14822H300.233ZM321.454 1.43527V2.87054H321.849V1.43527H321.454ZM322.632 1.43527H322.237V2.87054H322.632V1.43527ZM324.205 17.1388V15.7036H323.81V17.1388H324.205ZM324.987 4.27767H324.592V5.71295H324.987V4.27767ZM323.027 12.8612V14.2964H323.422V12.8612H323.027ZM323.414 9.99062H323.019V11.4259H323.414V9.99062ZM299.838 8.55535V7.12008H299.443V8.55535H299.838ZM324.205 12.8612H323.81V14.2964H324.205V12.8612ZM299.443 9.99062V8.55535H299.048V9.99062H299.443ZM297.87 9.99062V11.4259H298.266V12.8612H298.661V11.4259H299.056V9.99062H298.661V8.55535H298.266V9.99062H297.87ZM329.706 18.546H329.31V19.9812H329.706V18.546ZM329.706 15.7036H329.31V17.1388H329.706V15.7036ZM293.16 9.99062V11.4259H293.555V12.8612H293.95V11.4259H294.345V9.99062H293.95V8.55535H293.555V9.99062H293.16ZM328.133 1.43527H327.738V2.87054H328.133V1.43527ZM329.706 21.4165H329.31V22.8518H329.706V21.4165ZM329.706 9.99062H329.31V11.4259H329.706V9.99062ZM329.706 4.27767H329.31V5.71295H329.706V4.27767ZM329.706 1.43527H329.31V2.87054H329.706V1.43527ZM329.706 12.8612H329.31V14.2964H329.706V12.8612ZM329.706 7.14822H329.31V8.58349H329.706V7.14822ZM328.133 4.27767H327.738V5.71295H328.133V4.27767ZM328.133 15.7036H327.738V17.1388H328.133V15.7036ZM326.56 1.43527H326.165V2.87054H326.56V1.43527ZM326.56 7.14822H326.165V8.58349H326.56V7.14822ZM326.56 4.27767H326.165V5.71295H326.56V4.27767ZM326.56 9.99062H326.165V11.4259H326.56V9.99062ZM296.305 9.99062V8.55535H295.91V9.99062H296.305ZM294.733 9.99062V11.4259H295.128V12.8612H295.523V11.4259H295.918V9.99062H295.523V8.55535H295.128V9.99062H294.733ZM294.733 9.99062V8.55535H294.337V9.99062H294.733ZM328.133 7.14822H327.738V8.58349H328.133V7.14822ZM328.133 9.99062H327.738V11.4259H328.133V9.99062ZM324.987 1.43527H324.592V2.87054H324.987V1.43527ZM328.133 12.8612H327.738V14.2964H328.133V12.8612ZM323.81 14.2683H323.414V15.7036H323.81V14.2683ZM306.129 11.4259V9.99062H305.734V11.4259H306.129ZM310.057 29.9719H310.453V28.5366H310.057V29.9719ZM309.267 29.9719H309.662V28.5366H309.267V29.9719ZM306.912 11.4259V9.99062H306.517V11.4259H306.912ZM308.485 29.9719H308.88V28.5366H308.485V29.9719ZM310.84 29.9719H311.235V28.5366H310.84V29.9719ZM305.339 8.55535V7.12008H304.944V8.55535H305.339ZM314.768 29.9719H315.163V28.5366H314.768V29.9719ZM305.734 9.99062V8.55535H305.339V9.99062H305.734ZM313.195 29.9719H313.59V28.5366H313.195V29.9719ZM311.63 29.9719H312.025V28.5366H311.63V29.9719ZM316.341 29.9719H316.736V28.5366H316.341V29.9719ZM303.766 29.9719H304.161V28.5366H303.766V29.9719ZM302.194 29.9719H302.589V28.5366H302.194V29.9719ZM304.557 14.2683V12.833H304.161V14.2683H304.557ZM300.621 29.9719H301.016V28.5366H300.621V29.9719ZM310.057 11.4259V9.99062H309.662V11.4259H310.057ZM306.129 29.9719H306.525V28.5366H306.129V29.9719ZM306.912 29.9719H307.307V28.5366H306.912V29.9719ZM307.694 11.4259V9.99062H307.299V11.4259H307.694ZM305.339 29.9719H305.734V28.5366H305.339V29.9719ZM308.485 11.4259V9.99062H308.09V11.4259H308.485ZM307.694 29.9719H308.09V28.5366H307.694V29.9719ZM321.842 9.99062H321.447V11.4259H321.842V9.99062ZM302.589 7.14822V5.71295H302.194V7.14822H302.589ZM322.237 8.55535H321.842V9.99062H322.237V8.55535ZM322.632 11.4259V9.99062H322.237V11.4259H322.632ZM319.882 1.43527V2.87054H320.277V1.43527H319.882ZM301.016 7.14822V5.71295H300.621V7.14822H301.016ZM322.632 7.14822H322.237V8.58349H322.632V7.14822ZM322.632 5.71295V4.27767H322.237V5.71295H322.632ZM321.842 4.27767H321.447V5.71295H321.842V4.27767ZM321.059 1.43527H320.664V2.87054H321.059V1.43527ZM321.454 7.14822V8.58349H321.849V7.14822H321.454ZM301.806 7.14822V5.71295H301.411V7.14822H301.806ZM317.914 29.9719H318.309V28.5366H317.914V29.9719ZM304.557 8.55535V7.12008H304.161V8.55535H304.557ZM322.632 29.9719H323.027V28.5366H322.632V29.9719ZM319.486 29.9719H319.882V28.5366H319.486V29.9719ZM303.371 7.14822V5.71295H302.976V7.14822H303.371ZM324.205 29.9719H324.6V28.5366H324.205V29.9719ZM321.059 29.9719H321.454V28.5366H321.059V29.9719ZM320.664 2.87054H320.269V4.30582H320.664V2.87054ZM325.777 28.5366V27.1013H325.382V28.5366H325.777ZM321.059 5.71295V4.27767H320.664V5.71295H321.059ZM303.766 8.55535V7.12008H303.371V8.55535H303.766ZM320.269 4.27767H319.874V5.71295H320.269V4.27767ZM309.267 11.4259V9.99062H308.872V11.4259H309.267ZM299.443 12.8612V11.4259H299.048V12.8612H299.443ZM309.267 21.4165H309.662V19.9812H309.267V21.4165ZM303.766 14.2683V15.7036H304.161V14.2683H303.766ZM307.307 17.1388H306.912V18.5741H307.307V17.1388ZM299.838 11.4259V12.8612H300.233V11.4259H300.629V9.99062H300.233V8.55535H299.838V9.99062H299.443V11.4259H299.838ZM308.485 19.9812V21.4165H308.88V19.9812H308.485ZM314.768 18.546H315.163V17.1107H314.768V18.546ZM315.953 15.7036V14.2683H315.558V15.7036H315.953ZM313.195 21.4165H313.59V19.9812H313.195V21.4165ZM299.056 14.2683V12.833H298.661V14.2683H299.056ZM316.341 17.1388V15.7036H315.946V17.1388H316.341ZM310.445 11.4259H310.05V12.8612H310.445V11.4259ZM308.09 18.546V17.1107H307.694V18.546H308.09ZM308.88 11.4259H308.485V12.8612H308.88V11.4259ZM322.237 14.2683H321.842V15.7036H322.237V14.2683ZM309.662 19.9812H310.057V18.546H309.662V19.9812ZM312.018 11.4259H311.622V12.8612H312.018V11.4259ZM312.413 14.2683V12.833H312.018V14.2683H312.413ZM301.411 8.55535V7.12008H301.016V8.55535H301.411ZM300.621 8.55535V7.12008H300.226V8.55535H300.621ZM310.057 18.546H310.453V17.1107H310.057V18.546ZM302.984 14.2683V15.7036H303.379V14.2683H302.984ZM308.09 18.546V19.9812H308.485V18.546H308.09ZM306.912 18.546H306.517V19.9812H306.912V18.546ZM306.912 19.9812V21.4165H307.307V19.9812H306.912ZM295.91 14.2683V15.7036H296.305V14.2683H295.91ZM297.483 14.2683V12.833H297.088V14.2683H297.483ZM296.305 12.8612V11.4259H295.91V12.8612H296.305ZM297.87 12.8612V11.4259H297.475V12.8612H297.87ZM311.235 22.8518H311.63V21.4165H311.235V22.8518ZM308.485 18.546H308.88V17.1107H308.485V18.546ZM296.305 14.2683H296.701V12.833H296.305V14.2683ZM297.87 14.2683H298.266V12.833H297.87V14.2683ZM310.445 8.55535H310.05V9.99062H310.445V8.55535ZM308.88 8.55535H308.485V9.99062H308.88V8.55535ZM315.558 9.99062H315.163V11.4259H315.558V9.99062ZM312.018 8.55535H311.622V9.99062H312.018V8.55535ZM307.307 8.55535H306.912V9.99062H307.307V8.55535ZM307.307 18.546V19.9812H307.702V18.546H307.307ZM297.483 14.2683V15.7036H297.878V14.2683H297.483ZM316.341 12.8612H315.946V14.2964H316.341V12.8612ZM293.16 9.99062V8.55535H292.765V9.99062H293.16ZM307.694 19.9812V21.4165H308.09V19.9812H307.694ZM313.195 18.546H313.59V17.1107H313.195V18.546ZM304.161 12.8612V11.4259H303.766V12.8612H304.161ZM309.267 19.9812V18.546H308.872V19.9812H309.267ZM305.339 17.1388V18.5741H305.734V17.1388H305.339ZM309.267 14.2683V12.833H308.872V14.2683H309.267ZM306.517 15.7036V14.2683H306.122V15.7036H306.517ZM310.057 17.1388V15.7036H309.662V17.1388H310.057ZM305.734 15.7036V17.1388H306.129V15.7036H305.734ZM307.307 12.8612V11.4259H306.912V12.8612H307.307ZM306.517 12.8612V11.4259H306.122V12.8612H306.517ZM309.267 17.1388V15.7036H308.872V17.1388H309.267ZM303.371 12.8612V14.2964H303.766V12.8612H303.371ZM305.339 15.7036H304.944V17.1388H305.339V15.7036ZM301.411 11.4259V12.8612H301.806V11.4259H301.411ZM304.944 14.2683H304.549V15.7036H304.944V14.2683ZM308.09 15.7036V14.2683H307.694V15.7036H308.09ZM310.445 14.2683H310.05V15.7036H310.445V14.2683ZM307.694 14.2683V12.833H307.299V14.2683H307.694ZM301.411 9.99062H301.016V11.4259H301.411V9.99062ZM308.485 12.8612H308.09V14.2964H308.485V12.8612ZM302.194 11.4259V9.99062H301.798V11.4259H302.194ZM305.734 15.7036V14.2683H305.339V15.7036H305.734ZM311.63 12.8612H311.235V14.2964H311.63V12.8612ZM310.445 17.1388H310.84V15.7036H310.445V17.1388ZM311.235 15.7036V14.2683H310.84V15.7036H311.235ZM310.84 14.2683V12.833H310.445V14.2683H310.84ZM304.161 9.99062V8.55535H303.766V9.99062H304.161ZM304.944 9.99062V8.55535H304.549V9.99062H304.944ZM302.984 12.8612H302.589V14.2964H302.984V12.8612ZM311.63 15.7036H312.025V14.2683H311.63V15.7036ZM302.984 8.55535V7.12008H302.589V8.55535H302.984ZM303.371 9.99062V8.55535H302.976V9.99062H303.371ZM311.235 17.1388H311.63V15.7036H311.235V17.1388ZM303.371 12.8612V11.4259H302.976V12.8612H303.371ZM305.734 12.8612V11.4259H305.339V12.8612H305.734ZM306.912 17.1388V15.7036H306.517V17.1388H306.912ZM308.88 14.2683H308.485V15.7036H308.88V14.2683ZM299.443 12.8612V14.2964H299.838V12.8612H299.443ZM309.662 15.7036V14.2683H309.267V15.7036H309.662ZM305.339 11.4259V9.99062H304.944V11.4259H305.339ZM310.057 12.8612H309.662V14.2964H310.057V12.8612ZM306.129 17.1388V18.5741H306.525V17.1388H306.129ZM302.589 11.4259H302.194V12.8612H302.589V11.4259ZM299.056 14.2683V15.7036H299.451V14.2683H299.056ZM302.194 8.55535V7.12008H301.798V8.55535H302.194ZM300.621 14.2683V15.7036H301.016V14.2683H300.621ZM304.557 19.9812V21.4165H304.952V19.9812H304.557ZM301.016 12.8612V14.2964H301.411V12.8612H301.016ZM305.339 19.9812V21.4165H305.734V19.9812H305.339ZM306.129 14.2683V12.833H305.734V14.2683H306.129ZM304.944 12.8612V11.4259H304.549V12.8612H304.944ZM302.194 12.8612H301.798V14.2964H302.194V12.8612ZM301.016 12.8612V11.4259H300.621V12.8612H301.016ZM305.339 14.2683V12.833H304.944V14.2683H305.339ZM306.517 19.9812H306.122V21.4165H306.517V19.9812ZM300.621 12.8612H300.226V14.2964H300.621V12.8612ZM307.307 2.87054H306.912V4.30582H307.307V2.87054ZM304.557 18.546H304.161V19.9812H304.557V18.546ZM310.445 2.87054H310.05V4.30582H310.445V2.87054ZM317.131 4.27767H316.736V5.71295H317.131V4.27767ZM302.984 17.1388V18.5741H303.379V17.1388H302.984ZM308.88 2.87054H308.485V4.30582H308.88V2.87054ZM306.912 14.2683V12.833H306.517V14.2683H306.912ZM302.589 14.2683H302.194V15.7036H302.589V14.2683ZM305.734 2.87054H305.339V4.30582H305.734V2.87054ZM304.161 17.1388H303.766V18.5741H304.161V17.1388ZM302.194 17.1388V18.5741H302.589V17.1388H302.194ZM323.81 19.9812H323.414V21.4165H323.81V19.9812ZM324.205 18.546H323.81V19.9812H324.205V18.546ZM324.205 22.8518V21.4165H323.81V22.8518H324.205ZM323.414 21.4165H323.019V22.8518H323.414V21.4165ZM301.016 8.55535H300.621V9.99062H301.016V8.55535ZM321.842 15.7036H321.447V17.1388H321.842V15.7036ZM322.632 17.1388V15.7036H322.237V17.1388H322.632ZM308.09 21.4165V22.8518H308.485V21.4165H308.09ZM323.414 25.6942V24.2589H323.019V25.6942H323.414ZM322.632 18.546H322.237V19.9812H322.632V18.546ZM323.027 18.546V19.9812H323.422V18.546H323.027ZM306.517 21.4165V22.8518H306.912V21.4165H306.517ZM303.766 11.4259V9.99062H303.371V11.4259H303.766ZM302.589 9.99062V8.55535H302.194V9.99062H302.589ZM301.806 9.99062V8.55535H301.411V9.99062H301.806ZM304.557 11.4259V9.99062H304.161V11.4259H304.557ZM316.341 27.1295H316.736V25.6942H316.341V27.1295ZM323.027 24.2589V22.8236H322.632V24.2589H323.027ZM307.307 21.4165V22.8518H307.702V21.4165H307.307ZM314.768 27.1295H315.163V25.6942H314.768V27.1295ZM313.195 27.1295H313.59V25.6942H313.195V27.1295ZM318.704 15.7036H318.309V17.1388H318.704V15.7036ZM294.733 14.2683H294.337V15.7036H294.733V14.2683ZM305.734 18.546V19.9812H306.129V18.546H305.734ZM308.88 5.71295H308.485V7.14822H308.88V5.71295ZM294.337 12.8612H293.942V14.2964H294.337V12.8612ZM302.984 11.4259V9.99062H302.589V11.4259H302.984ZM307.307 5.71295H306.912V7.14822H307.307V5.71295ZM295.91 17.1388V15.7036H295.515V14.2683H295.12V15.7036H294.725V17.1388H295.12V18.5741H295.515V17.1388H295.91ZM295.91 17.1388V18.5741H296.305V17.1388H295.91ZM304.944 18.546V19.9812H305.339V18.546H304.944ZM308.485 17.1388V15.7036H308.09V17.1388H308.485ZM304.944 17.1388H304.549V18.5741H304.944V17.1388ZM314.768 21.4165H315.163V19.9812H314.768V21.4165ZM318.704 19.9812V18.546H318.309V19.9812H318.704ZM317.914 7.14822H317.518V8.58349H317.914V7.14822ZM317.914 12.8612H317.518V14.2964H317.914V12.8612ZM318.309 18.546V17.1107H317.914V18.546H318.309ZM295.91 14.2683V12.833H295.515V14.2683H295.91ZM294.733 12.8612V11.4259H294.337V12.8612H294.733ZM317.131 9.99062H316.736V11.4259H317.131V9.99062ZM316.341 7.14822H315.946V8.58349H316.341V7.14822ZM294.733 14.2683H295.128V12.833H294.733V14.2683ZM310.445 5.71295H310.05V7.14822H310.445V5.71295ZM321.059 18.546H320.664V19.9812H321.059V18.546ZM300.621 17.1388V18.5741H301.016V17.1388H300.621ZM321.059 22.8518V21.4165H320.664V22.8518H321.059ZM320.664 21.4165V19.9812H320.269V21.4165H320.664ZM316.341 24.2589H316.736V22.8236H316.341V24.2589ZM318.704 9.99062H318.309V11.4259H318.704V9.99062ZM302.194 17.1388V15.7036H301.798V14.2683H301.403V15.7036H301.008V17.1388H301.403V18.5741H301.798V17.1388H302.194ZM300.621 17.1388V15.7036H300.226V14.2683H299.831V15.7036H299.435V17.1388H299.831V18.5741H300.226V17.1388H300.621ZM320.269 15.7036H319.874V17.1388H320.269V15.7036ZM319.486 12.8612H319.091V14.2964H319.486V12.8612ZM299.056 17.1388V15.7036H298.661V14.2683H298.266V15.7036H297.87V17.1388H298.266V18.5741H298.661V17.1388H299.056ZM307.307 15.7036V14.2683H306.912V15.7036H307.307ZM304.557 15.7036H304.161V17.1388H304.557V15.7036ZM297.483 17.1388V18.5741H297.878V17.1388H297.483ZM314.768 24.2589H315.163V22.8236H314.768V24.2589ZM297.483 17.1388V15.7036H297.088V14.2683H296.693V15.7036H296.298V17.1388H296.693V18.5741H297.088V17.1388H297.483ZM307.694 17.1388V15.7036H307.299V17.1388H307.694ZM302.589 15.7036V17.1388H302.984V15.7036H302.589ZM313.195 24.2589H313.59V22.8236H313.195V24.2589ZM303.371 15.7036V17.1388H303.766V15.7036H303.371ZM299.056 17.1388V18.5741H299.451V17.1388H299.056ZM338.739 17.1388H339.134V15.7036H338.739V17.1388ZM329.31 28.5366H329.706V27.1013H329.31V28.5366ZM330.488 28.5366V27.1013H330.093V28.5366H330.488ZM328.528 2.87054H328.923V1.43527H328.528V2.87054ZM329.706 27.1295H330.101V25.6942H329.706V27.1295ZM328.528 14.2683H328.923V12.833H328.528V14.2683ZM328.528 11.4259H328.923V9.99062H328.528V11.4259ZM329.31 24.2589V25.6942H329.706V24.2589H329.31ZM328.528 5.71295H328.923V4.27767H328.528V5.71295ZM328.528 8.55535H328.923V7.12008H328.528V8.55535ZM330.093 11.4259H330.488V9.99062H330.093V11.4259ZM330.093 8.55535H330.488V7.12008H330.093V8.55535ZM330.093 2.87054H330.488V1.43527H330.093V2.87054ZM330.093 14.2683H330.488V12.833H330.093V14.2683ZM330.093 25.6942H330.488V24.2589H330.093V25.6942ZM330.093 5.71295H330.488V4.27767H330.093V5.71295ZM333.238 8.55535H333.634V7.12008H333.238V8.55535ZM330.093 22.8518H330.488V21.4165H330.093V22.8518ZM330.093 19.9812H330.488V18.546H330.093V19.9812ZM328.528 17.1388H328.923V15.7036H328.528V17.1388ZM326.955 5.71295H327.35V4.27767H326.955V5.71295ZM326.955 8.55535H327.35V7.12008H326.955V8.55535ZM326.955 11.4259H327.35V9.99062H326.955V11.4259ZM327.342 17.1388V15.7036H326.947V17.1388H327.342ZM328.915 28.5366V27.1013H328.52V28.5366H328.915ZM326.955 14.2683H327.35V12.833H326.955V14.2683ZM328.528 19.9812H328.923V18.546H328.528V19.9812ZM326.56 15.7036H326.955V14.2683H326.56V15.7036ZM326.165 12.8612V14.2964H326.56V12.8612H326.165ZM326.165 17.1388H326.56V15.7036H326.165V17.1388ZM328.133 21.4165H328.528V19.9812H328.133V21.4165ZM328.915 22.8518V21.4165H328.52V22.8518H328.915ZM327.738 28.5366H328.133V27.1013H327.738V28.5366ZM327.738 18.546V19.9812H328.133V18.546H327.738ZM327.738 22.8518H328.133V21.4165H327.738V22.8518ZM328.528 25.6942H328.923V24.2589H328.528V25.6942ZM328.133 27.1295H328.528V25.6942H328.133V27.1295ZM327.738 24.2589V25.6942H328.133V24.2589H327.738ZM326.955 2.87054H327.35V1.43527H326.955V2.87054ZM332.456 14.2683H332.851V12.833H332.456V14.2683ZM332.456 19.9812H332.851V18.546H332.456V19.9812ZM332.456 8.55535H332.851V7.12008H332.456V8.55535ZM332.456 11.4259H332.851V9.99062H332.456V11.4259ZM332.456 17.1388H332.851V15.7036H332.456V17.1388ZM332.456 28.5366H332.851V27.1013H332.456V28.5366ZM331.666 2.87054H332.061V1.43527H331.666V2.87054ZM332.456 22.8518H332.851V21.4165H332.456V22.8518ZM332.456 25.6942H332.851V24.2589H332.456V25.6942ZM332.456 5.71295H332.851V4.27767H332.456V5.71295ZM333.238 17.1388H333.634V15.7036H333.238V17.1388ZM333.238 14.2683H333.634V12.833H333.238V14.2683ZM330.883 28.5366H331.278V27.1013H330.883V28.5366ZM333.238 19.9812H333.634V18.546H333.238V19.9812ZM333.238 11.4259H333.634V9.99062H333.238V11.4259ZM333.238 28.5366H333.634V27.1013H333.238V28.5366ZM333.238 25.6942H333.634V24.2589H333.238V25.6942ZM333.238 22.8518H333.634V21.4165H333.238V22.8518ZM331.666 5.71295H332.061V4.27767H331.666V5.71295ZM330.883 11.4259H331.278V9.99062H330.883V11.4259ZM330.883 17.1388H331.278V15.7036H330.883V17.1388ZM330.883 14.2683H331.278V12.833H330.883V14.2683ZM330.883 8.55535H331.278V7.12008H330.883V8.55535ZM330.883 5.71295H331.278V4.27767H330.883V5.71295ZM330.883 19.9812H331.278V18.546H330.883V19.9812ZM330.883 25.6942H331.278V24.2589H330.883V25.6942ZM330.883 22.8518H331.278V21.4165H330.883V22.8518ZM331.666 11.4259H332.061V9.99062H331.666V11.4259ZM331.666 19.9812H332.061V18.546H331.666V19.9812ZM331.666 14.2683H332.061V12.833H331.666V14.2683ZM331.666 17.1388H332.061V15.7036H331.666V17.1388ZM331.666 8.55535H332.061V7.12008H331.666V8.55535ZM331.666 25.6942H332.061V24.2589H331.666V25.6942ZM331.666 28.5366H332.061V27.1013H331.666V28.5366ZM331.666 22.8518H332.061V21.4165H331.666V22.8518ZM330.883 2.87054H331.278V1.43527H330.883V2.87054ZM330.093 17.1388H330.488V15.7036H330.093V17.1388ZM315.558 25.6942V27.1295H315.953V25.6942H315.558ZM316.736 28.5366H317.131V27.1013H316.736V28.5366ZM315.953 27.1295V28.5647H316.349V27.1295H315.953ZM314.381 27.1295V28.5647H314.776V27.1295H314.381ZM315.163 28.5366H315.558V27.1013H315.163V28.5366ZM312.413 25.6942V27.1295H312.808V25.6942H312.413ZM312.808 27.1295V28.5647H313.203V27.1295H312.808ZM313.59 28.5366H313.986V27.1013H313.59V28.5366ZM312.018 28.5366H312.413V27.1013H312.018V28.5366ZM321.454 28.5366H321.849V27.1013H321.454V28.5366ZM319.882 28.5366H320.277V27.1013H319.882V28.5366ZM319.091 27.1295V28.5647H319.486V27.1295H319.091ZM320.269 25.6942V27.1295H320.664V25.6942H320.269ZM317.131 25.6942V27.1295H317.526V25.6942H317.131ZM320.664 27.1295V28.5647H321.059V27.1295H320.664ZM317.518 27.1295V28.5647H317.914V27.1295H317.518ZM318.309 28.5366H318.704V27.1013H318.309V28.5366ZM318.704 25.6942V27.1295H319.099V25.6942H318.704ZM313.986 25.6942V27.1295H314.381V25.6942H313.986ZM298.661 27.1295V25.6942H298.266V27.1295H297.87V28.5647H298.266V30H298.661V28.5647H299.056V27.1295H298.661ZM303.371 27.1295V25.6942H302.976V27.1295H302.581V28.5647H302.976V30H303.371V28.5647H303.766V27.1295H303.371ZM300.233 27.1295V25.6942H299.838V27.1295H299.443V28.5647H299.838V30H300.233V28.5647H300.629V27.1295H300.233ZM301.806 27.1295V25.6942H301.411V27.1295H301.016V28.5647H301.411V30H301.806V28.5647H302.201V27.1295H301.806ZM297.088 27.1295V25.6942H296.693V27.1295H296.298V28.5647H296.693V30H297.088V28.5647H297.483V27.1295H297.088ZM292.765 27.1295V28.5647H292.37V30H291.974V28.5647H291.579V30H291.184V28.5647H290.789V30H290.394V28.5647H289.999V30H289.604V28.5647H289.208V30H288.813V28.5647H288.418V30H288.023V28.5647H287.628V30H287.233V28.5647H286.838V30H286.443V28.5647H286.047V30H285.652V28.5647H285.257V30H284.862V28.5647H284.467V30H284.072V28.5647H283.677V30H283.282V28.5647H282.886V30H282.491V28.5647H282.096V30H281.701V28.5647H281.306V30H280.911V28.5647H280.516V30H280.12V28.5647H279.725V30H279.33V28.5647H278.935V30H278.54V28.5647H278.145V30H277.75V28.5647H277.355V30H276.959V28.5647H276.564V30H276.169V28.5647H275.774V30H275.379V28.5647H274.984V30H274.589V28.5647H274.194V30H273.798V28.5647H273.403V30H273.008V28.5647H272.613V30H272.218V28.5647H271.823V30H271.428V28.5647H271.033V30H269.855V28.5647H269.46V30H268.282V28.5647H267.887V30H266.709V28.5647H266.314V30H265.137V28.5647H264.741V30H263.564V28.5647H263.169V30H261.991V28.5647H261.596V30H260.418V28.5647H260.023V30H258.845V28.5647H258.45V30H0V0H250.718V1.43527H251.113V0H252.291V1.43527H252.686V0H253.864V1.43527H254.259V0H255.436V1.43527H255.832V0H257.009V1.43527H257.404V0H258.582V1.43527H258.977V0H260.155V1.43527H260.55V0H261.728V1.43527H262.123V0H263.3V1.43527H263.695V0H264.091V1.43527H264.486V0H264.881V1.43527H265.276V0H265.671V1.43527H266.066V0H266.461V1.43527H266.857V0H267.252V1.43527H267.647V0H268.042V1.43527H268.437V0H268.832V1.43527H269.227V0H269.622V1.43527H270.018V0H271.195V1.43527H271.59V0H271.985V1.43527H272.381V0H272.776V1.43527H273.171V0H273.566V1.43527H273.961V0H274.356V1.43527H274.751V0H275.147V1.43527H275.542V0H275.937V1.43527H276.332V0H276.727V1.43527H277.122V0H277.517V1.43527H277.912V2.87054H277.517V4.30582H277.912V2.87054H278.308V4.30582H278.703V2.87054H278.308V1.43527H278.703V0H279.098V1.43527H279.493V2.87054H279.098V4.30582H279.493V2.87054H279.888V4.30582H280.283V2.87054H279.888V1.43527H280.283V0H280.678V1.43527H281.073V2.87054H280.678V4.30582H281.073V2.87054H281.469V4.30582H281.864V2.87054H281.469V1.43527H281.864V0H282.259V1.43527H282.654V2.87054H282.259V4.30582H282.654V2.87054H283.049V4.30582H283.444V2.87054H283.049V1.43527H283.444V0H283.839V1.43527H284.235V2.87054H283.839V4.30582H284.235V2.87054H284.63V4.30582H285.025V2.87054H284.63V1.43527H285.025V0H285.42V1.43527H285.815V2.87054H285.42V4.30582H285.815V2.87054H286.21V4.30582H286.605V5.74109H286.21V7.17636H285.815V5.74109H285.42V7.17636H285.815V8.61163H285.42V10.0469H285.815V8.61163H286.21V10.0469H286.605V8.61163H286.21V7.17636H286.605V5.74109H287V7.17636H287.396V8.61163H287V10.0469H287.396V8.61163H287.791V10.0469H288.186V11.4822H287.791V12.9175H287.396V11.4822H287V12.9175H287.396V14.3527H287V15.788H287.396V14.3527H287.791V15.788H288.186V14.3527H287.791V12.9175H288.186V11.4822H288.581V12.9175H288.976V14.3527H288.581V15.788H288.976V14.3527H289.371V15.788H289.766V17.2233H289.371V18.6585H288.976V17.2233H288.581V18.6585H288.976V20.0938H288.581V21.5291H288.976V20.0938H289.371V21.5291H289.766V20.0938H289.371V18.6585H289.766V17.2233H290.161V18.6585H290.557V20.0938H290.161V21.5291H290.557V20.0938H290.952V21.5291H291.347V22.9644H290.952V24.3996H290.557V22.9644H290.161V24.3996H290.557V25.8349H290.161V27.2702H290.557V25.8349H290.952V27.2702H291.347V25.8349H290.952V24.3996H291.347V22.9644H291.742V24.3996H292.137V25.8349H291.742V27.2702H292.137V25.8349H292.532V27.2702H292.927L292.765 27.1295ZM252.686 5.71295H252.291V7.14822H252.686V5.71295ZM254.251 11.4259H253.856V12.8612H254.251V11.4259ZM254.251 5.71295H253.856V7.14822H254.251V5.71295ZM255.824 17.1388H255.429V18.5741H255.824V17.1388ZM255.824 11.4259H255.429V12.8612H255.824V11.4259ZM255.824 5.71295H255.429V7.14822H255.824V5.71295ZM257.397 22.8518H257.001V24.2871H257.397V22.8518ZM257.397 17.1388H257.001V18.5741H257.397V17.1388ZM257.397 11.4259H257.001V12.8612H257.397V11.4259ZM257.397 5.71295H257.001V7.14822H257.397V5.71295ZM258.969 22.8518H258.574V24.2871H258.969V22.8518ZM258.969 17.1388H258.574V18.5741H258.969V17.1388ZM258.969 11.4259H258.574V12.8612H258.969V11.4259ZM258.969 5.71295H258.574V7.14822H258.969V5.71295ZM259.76 2.87054H259.365V4.30582H259.76V2.87054ZM260.542 22.8518H260.147V24.2871H260.542V22.8518ZM260.542 17.1388H260.147V18.5741H260.542V17.1388ZM260.542 11.4259H260.147V12.8612H260.542V11.4259ZM260.542 5.71295H260.147V7.14822H260.542V5.71295ZM261.325 8.55535H260.93V9.99062H261.325V8.55535ZM261.325 2.87054H260.93V4.30582H261.325V2.87054ZM262.115 22.8518H261.72V24.2871H262.115V22.8518ZM262.115 17.1388H261.72V18.5741H262.115V17.1388ZM262.115 11.4259H261.72V12.8612H262.115V11.4259ZM262.115 5.71295H261.72V7.14822H262.115V5.71295ZM262.897 14.2683H262.502V15.7036H262.897V14.2683ZM262.897 8.55535H262.502V9.99062H262.897V8.55535ZM262.897 2.87054H262.502V4.30582H262.897V2.87054ZM263.688 22.8518H263.293V24.2871H263.688V22.8518ZM263.688 17.1388H263.293V18.5741H263.688V17.1388ZM263.688 11.4259H263.293V12.8612H263.688V11.4259ZM263.688 5.71295H263.293V7.14822H263.688V5.71295ZM264.47 19.9812H264.075V21.4165H264.47V19.9812ZM264.47 14.2683H264.075V15.7036H264.47V14.2683ZM264.47 8.55535H264.075V9.99062H264.47V8.55535ZM264.47 2.87054H264.075V4.30582H264.47V2.87054ZM265.26 22.8518H264.865V24.2871H265.26V22.8518ZM265.26 17.1388H264.865V18.5741H265.26V17.1388ZM265.26 11.4259H264.865V12.8612H265.26V11.4259ZM265.26 5.71295H264.865V7.14822H265.26V5.71295ZM266.043 25.6942H265.648V27.1295H266.043V25.6942ZM266.043 19.9812H265.648V21.4165H266.043V19.9812ZM266.043 14.2683H265.648V15.7036H266.043V14.2683ZM266.043 8.55535H265.648V9.99062H266.043V8.55535ZM266.043 5.71295H265.648V7.14822H266.043V5.71295ZM266.043 2.87054H265.648V4.30582H266.043V2.87054ZM266.826 22.8518H266.43V24.2871H266.826V22.8518ZM266.826 17.1388H266.43V18.5741H266.826V17.1388ZM266.826 11.4259H266.43V12.8612H266.826V11.4259ZM266.826 5.71295H266.43V7.14822H266.826V5.71295ZM267.616 25.6942H267.221V27.1295H267.616V25.6942ZM267.616 19.9812H267.221V21.4165H267.616V19.9812ZM267.616 14.2683H267.221V15.7036H267.616V14.2683ZM267.616 11.4259H267.221V12.8612H267.616V11.4259ZM267.616 8.55535H267.221V9.99062H267.616V8.55535ZM267.616 5.71295H267.221V7.14822H267.616V5.71295ZM267.616 2.87054H267.221V4.30582H267.616V2.87054ZM268.398 22.8518H268.003V24.2871H268.398V22.8518ZM268.398 17.1388H268.003V18.5741H268.398V17.1388ZM268.398 11.4259H268.003V12.8612H268.398V11.4259ZM268.398 5.71295H268.003V7.14822H268.398V5.71295ZM269.189 25.6942H268.793V27.1295H269.189V25.6942ZM269.189 19.9812H268.793V21.4165H269.189V19.9812ZM269.189 17.1388H268.793V18.5741H269.189V17.1388ZM269.189 14.2683H268.793V15.7036H269.189V14.2683ZM269.189 11.4259H268.793V12.8612H269.189V11.4259ZM269.189 8.55535H268.793V9.99062H269.189V8.55535ZM269.189 5.71295H268.793V7.14822H269.189V5.71295ZM269.189 2.87054H268.793V4.30582H269.189V2.87054ZM269.971 22.8518H269.576V24.2871H269.971V22.8518ZM269.971 17.1388H269.576V18.5741H269.971V17.1388ZM269.971 11.4259H269.576V12.8612H269.971V11.4259ZM269.971 5.71295H269.576V7.14822H269.971V5.71295ZM270.761 25.6942H270.366V27.1295H270.761V25.6942ZM270.761 22.8518H270.366V24.2871H270.761V22.8518ZM270.761 19.9812H270.366V21.4165H270.761V19.9812ZM270.761 17.1388H270.366V18.5741H270.761V17.1388ZM270.761 14.2683H270.366V15.7036H270.761V14.2683ZM270.761 11.4259H270.366V12.8612H270.761V11.4259ZM270.761 8.55535H270.366V9.99062H270.761V8.55535ZM270.761 5.71295H270.366V7.14822H270.761V5.71295ZM270.761 2.87054H270.366V4.30582H270.761V2.87054ZM271.544 22.8518H271.149V24.2871H271.544V22.8518ZM271.544 17.1388H271.149V18.5741H271.544V17.1388ZM271.544 11.4259H271.149V12.8612H271.544V11.4259ZM271.544 5.71295H271.149V7.14822H271.544V5.71295ZM272.334 25.6942H271.939V27.1295H272.334V25.6942ZM272.334 22.8518H271.939V24.2871H272.334V22.8518ZM272.334 19.9812H271.939V21.4165H272.334V19.9812ZM272.334 17.1388H271.939V18.5741H272.334V17.1388ZM272.334 14.2683H271.939V15.7036H272.334V14.2683ZM272.334 11.4259H271.939V12.8612H272.334V11.4259ZM272.334 8.55535H271.939V9.99062H272.334V8.55535ZM272.334 5.71295H271.939V7.14822H272.334V5.71295ZM272.334 2.87054H271.939V4.30582H272.334V2.87054ZM273.117 22.8518H272.721V24.2871H273.117V22.8518ZM273.117 17.1388H272.721V18.5741H273.117V17.1388ZM273.117 11.4259H272.721V12.8612H273.117V11.4259ZM273.117 5.71295H272.721V7.14822H273.117V5.71295ZM273.117 2.87054H272.721V4.30582H273.117V2.87054ZM273.899 25.6942H273.504V27.1295H273.899V25.6942ZM273.899 22.8518H273.504V24.2871H273.899V22.8518ZM273.899 19.9812H273.504V21.4165H273.899V19.9812ZM273.899 17.1388H273.504V18.5741H273.899V17.1388ZM273.899 14.2683H273.504V15.7036H273.899V14.2683ZM273.899 11.4259H273.504V12.8612H273.899V11.4259ZM273.899 8.55535H273.504V9.99062H273.899V8.55535ZM273.899 5.71295H273.504V7.14822H273.899V5.71295ZM273.899 2.87054H273.504V4.30582H273.899V2.87054ZM274.689 22.8518H274.294V24.2871H274.689V22.8518ZM274.689 17.1388H274.294V18.5741H274.689V17.1388ZM274.689 11.4259H274.294V12.8612H274.689V11.4259ZM274.689 8.55535H274.294V9.99062H274.689V8.55535ZM274.689 5.71295H274.294V7.14822H274.689V5.71295ZM274.689 2.87054H274.294V4.30582H274.689V2.87054ZM275.472 25.6942H275.077V27.1295H275.472V25.6942ZM275.472 22.8518H275.077V24.2871H275.472V22.8518ZM275.472 19.9812H275.077V21.4165H275.472V19.9812ZM275.472 17.1388H275.077V18.5741H275.472V17.1388ZM275.472 14.2683H275.077V15.7036H275.472V14.2683ZM275.472 11.4259H275.077V12.8612H275.472V11.4259ZM275.472 8.55535H275.077V9.99062H275.472V8.55535ZM275.472 5.71295H275.077V7.14822H275.472V5.71295ZM275.472 2.87054H275.077V4.30582H275.472V2.87054ZM276.262 22.8518H275.867V24.2871H276.262V22.8518ZM276.262 17.1388H275.867V18.5741H276.262V17.1388ZM276.262 14.2683H275.867V15.7036H276.262V14.2683ZM276.262 11.4259H275.867V12.8612H276.262V11.4259ZM276.262 8.55535H275.867V9.99062H276.262V8.55535ZM276.262 5.71295H275.867V7.14822H276.262V5.71295ZM276.262 2.87054H275.867V4.30582H276.262V2.87054ZM277.045 25.6942H276.65V27.1295H277.045V25.6942ZM277.045 22.8518H276.65V24.2871H277.045V22.8518ZM277.045 19.9812H276.65V21.4165H277.045V19.9812ZM277.045 17.1388H276.65V18.5741H277.045V17.1388ZM277.045 14.2683H276.65V15.7036H277.045V14.2683ZM277.045 11.4259H276.65V12.8612H277.045V11.4259ZM277.045 8.55535H276.65V9.99062H277.045V8.55535ZM277.045 5.71295H276.65V7.14822H277.045V5.71295ZM277.045 2.87054H276.65V4.30582H277.045V2.87054ZM277.835 22.8518H277.44V24.2871H277.835V22.8518ZM277.835 19.9812H277.44V21.4165H277.835V19.9812ZM277.835 17.1388H277.44V18.5741H277.835V17.1388ZM277.835 14.2683H277.44V15.7036H277.835V14.2683ZM277.835 11.4259H277.44V12.8612H277.835V11.4259ZM277.835 8.55535H277.44V9.99062H277.835V8.55535ZM277.835 5.71295H277.44V7.14822H277.835V5.71295ZM278.617 25.6942H278.222V27.1295H278.617V25.6942ZM278.617 22.8518H278.222V24.2871H278.617V22.8518ZM278.617 19.9812H278.222V21.4165H278.617V19.9812ZM278.617 17.1388H278.222V18.5741H278.617V17.1388ZM278.617 14.2683H278.222V15.7036H278.617V14.2683ZM278.617 11.4259H278.222V12.8612H278.617V11.4259ZM278.617 8.55535H278.222V9.99062H278.617V8.55535ZM278.617 5.71295H278.222V7.14822H278.617V5.71295ZM279.408 25.6942H279.013V27.1295H279.408V25.6942ZM279.408 22.8518H279.013V24.2871H279.408V22.8518ZM279.408 19.9812H279.013V21.4165H279.408V19.9812ZM279.408 17.1388H279.013V18.5741H279.408V17.1388ZM279.408 14.2683H279.013V15.7036H279.408V14.2683ZM279.408 11.4259H279.013V12.8612H279.408V11.4259ZM280.19 25.6942H279.795V27.1295H280.19V25.6942ZM280.19 22.8518H279.795V24.2871H280.19V22.8518ZM280.19 19.9812H279.795V21.4165H280.19V19.9812ZM280.19 17.1388H279.795V18.5741H280.19V17.1388ZM280.19 14.2683H279.795V15.7036H280.19V14.2683ZM280.19 11.4259H279.795V12.8612H280.19V11.4259ZM280.19 5.71295H279.795V7.14822H279.4V5.71295H279.005V7.14822H279.4V8.58349H279.005V10.0188H279.4V8.58349H279.795V10.0188H280.19V8.58349H279.795V7.14822H280.19V5.71295ZM280.973 25.6942H280.578V27.1295H280.973V25.6942ZM280.973 22.8518H280.578V24.2871H280.973V22.8518ZM280.973 19.9812H280.578V21.4165H280.973V19.9812ZM280.973 17.1388H280.578V18.5741H280.973V17.1388ZM281.763 25.6942H281.368V27.1295H281.763V25.6942ZM281.763 22.8518H281.368V24.2871H281.763V22.8518ZM281.763 19.9812H281.368V21.4165H281.763V19.9812ZM281.763 17.1388H281.368V18.5741H281.763V17.1388ZM281.763 11.4259H281.368V12.8612H280.973V11.4259H280.578V12.8612H280.973V14.2964H280.578V15.7317H280.973V14.2964H281.368V15.7317H281.763V14.2964H281.368V12.8612H281.763V11.4259ZM281.763 5.71295H281.368V7.14822H280.973V5.71295H280.578V7.14822H280.973V8.58349H280.578V10.0188H280.973V8.58349H281.368V10.0188H281.763V8.58349H281.368V7.14822H281.763V5.71295ZM282.546 25.6942H282.15V27.1295H282.546V25.6942ZM282.546 22.8518H282.15V24.2871H282.546V22.8518ZM283.336 25.6942H282.941V27.1295H283.336V25.6942ZM283.336 22.8518H282.941V24.2871H283.336V22.8518ZM283.336 17.1388H282.941V18.5741H282.546V17.1388H282.15V18.5741H282.546V20.0094H282.15V21.4447H282.546V20.0094H282.941V21.4447H283.336V20.0094H282.941V18.5741H283.336V17.1388ZM283.336 11.4259H282.941V12.8612H282.546V11.4259H282.15V12.8612H282.546V14.2964H282.15V15.7317H282.546V14.2964H282.941V15.7317H283.336V14.2964H282.941V12.8612H283.336V11.4259ZM283.336 5.71295H282.941V7.14822H282.546V5.71295H282.15V7.14822H282.546V8.58349H282.15V10.0188H282.546V8.58349H282.941V10.0188H283.336V8.58349H282.941V7.14822H283.336V5.71295ZM284.909 22.8518H284.513V24.2871H284.118V22.8518H283.723V24.2871H284.118V25.7223H283.723V27.1576H284.118V25.7223H284.513V27.1576H284.909V25.7223H284.513V24.2871H284.909V22.8518ZM284.909 17.1388H284.513V18.5741H284.118V17.1388H283.723V18.5741H284.118V20.0094H283.723V21.4447H284.118V20.0094H284.513V21.4447H284.909V20.0094H284.513V18.5741H284.909V17.1388ZM284.909 11.4259H284.513V12.8612H284.118V11.4259H283.723V12.8612H284.118V14.2964H283.723V15.7317H284.118V14.2964H284.513V15.7317H284.909V14.2964H284.513V12.8612H284.909V11.4259ZM284.909 5.71295H284.513V7.14822H284.118V5.71295H283.723V7.14822H284.118V8.58349H283.723V10.0188H284.118V8.58349H284.513V10.0188H284.909V8.58349H284.513V7.14822H284.909V5.71295ZM286.481 22.8518H286.086V24.2871H285.691V22.8518H285.296V24.2871H285.691V25.7223H285.296V27.1576H285.691V25.7223H286.086V27.1576H286.481V25.7223H286.086V24.2871H286.481V22.8518ZM286.481 17.1388H286.086V18.5741H285.691V17.1388H285.296V18.5741H285.691V20.0094H285.296V21.4447H285.691V20.0094H286.086V21.4447H286.481V20.0094H286.086V18.5741H286.481V17.1388ZM286.481 11.4259H286.086V12.8612H285.691V11.4259H285.296V12.8612H285.691V14.2964H285.296V15.7317H285.691V14.2964H286.086V15.7317H286.481V14.2964H286.086V12.8612H286.481V11.4259ZM288.046 22.8518H287.651V24.2871H287.256V22.8518H286.861V24.2871H287.256V25.7223H286.861V27.1576H287.256V25.7223H287.651V27.1576H288.046V25.7223H287.651V24.2871H288.046V22.8518ZM288.046 17.1388H287.651V18.5741H287.256V17.1388H286.861V18.5741H287.256V20.0094H286.861V21.4447H287.256V20.0094H287.651V21.4447H288.046V20.0094H287.651V18.5741H288.046V17.1388ZM289.619 22.8518H289.224V24.2871H288.829V22.8518H288.434V24.2871H288.829V25.7223H288.434V27.1576H288.829V25.7223H289.224V27.1576H289.619V25.7223H289.224V24.2871H289.619V22.8518ZM293.942 27.1295V25.6942H293.547V27.1295H293.152V28.5647H293.547V30H293.942V28.5647H294.337V27.1295H293.942ZM326.955 19.9812H327.35V18.546H326.955V19.9812ZM295.515 27.1295V25.6942H295.12V27.1295H294.725V28.5647H295.12V30H295.515V28.5647H295.91V27.1295H295.515ZM308.88 27.1295V28.5647H309.275V27.1295H308.88ZM308.09 27.1295V28.5647H308.485V27.1295H308.09ZM309.662 27.1295V28.5647H310.057V27.1295H309.662ZM310.445 27.1295V28.5647H310.84V27.1295H310.445ZM306.517 27.1295V28.5647H306.912V27.1295H306.517ZM305.734 27.1295V28.5647H306.129V27.1295H305.734ZM307.307 27.1295V28.5647H307.702V27.1295H307.307ZM304.944 27.1295V25.6942H304.549V27.1295H304.154V28.5647H304.549V30H304.944V28.5647H305.339V27.1295H304.944ZM311.235 27.1295V28.5647H311.63V27.1295H311.235ZM324.592 7.14822V8.58349H324.987V7.14822H324.592ZM325.382 5.71295H325.777V4.27767H325.382V5.71295ZM325.382 8.55535H325.777V7.12008H325.382V8.55535ZM327.342 28.5366V27.1013H326.947V28.5366H327.342ZM325.382 2.87054H325.777V1.43527H325.382V2.87054ZM325.382 14.2683H325.777V12.833H325.382V14.2683ZM325.777 11.4259V9.99062H325.382V11.4259H325.777ZM324.592 11.4259H324.987V9.99062H324.592V11.4259ZM321.842 25.6942V27.1295H322.237V25.6942H321.842ZM326.165 28.5366H326.56V27.1013H326.165V28.5366ZM326.56 21.4165H326.955V19.9812H326.56V21.4165ZM327.342 22.8518V21.4165H326.947V22.8518H327.342ZM326.165 22.8518H326.56V21.4165H326.165V22.8518ZM324.592 12.8612V14.2964H324.987V12.8612H324.592ZM326.165 18.546V19.9812H326.56V18.546H326.165ZM326.955 25.6942H327.35V24.2589H326.955V25.6942ZM326.56 27.1295H326.955V25.6942H326.56V27.1295ZM326.165 24.2589V25.6942H326.56V24.2589H326.165ZM324.987 9.99062H325.382V8.55535H324.987V9.99062ZM323.81 27.1295V28.5647H324.205V27.1295H323.81ZM324.592 28.5366H324.987V27.1013H324.592V28.5366ZM324.205 24.2589H323.81V25.6942H324.205V24.2589ZM324.987 27.1295H325.382V25.6942H324.987V27.1295ZM322.237 27.1295V28.5647H322.632V27.1295H322.237ZM324.987 15.7036H325.382V14.2683H324.987V15.7036ZM323.414 25.6942V27.1295H323.81V25.6942H323.414ZM323.027 28.5366H323.422V27.1013H323.027V28.5366ZM324.592 24.2589V25.6942H324.987V24.2589H324.592ZM325.382 19.9812H325.777V18.546H325.382V19.9812ZM325.777 17.1388V15.7036H325.382V17.1388H325.777ZM324.592 18.546V19.9812H324.987V18.546H324.592ZM324.592 17.1388H324.987V15.7036H324.592V17.1388ZM325.382 25.6942H325.777V24.2589H325.382V25.6942ZM324.987 21.4165H325.382V19.9812H324.987V21.4165ZM325.777 22.8518V21.4165H325.382V22.8518H325.777ZM324.592 22.8518H324.987V21.4165H324.592V22.8518ZM347.386 14.2683H347.781V12.833H347.386V14.2683ZM344.24 19.9812H344.635V18.546H344.24V19.9812ZM344.24 14.2683H344.635V12.833H344.24V14.2683ZM344.24 8.55535H344.635V7.12008H344.24V8.55535ZM344.24 25.6942H344.635V24.2589H344.24V25.6942ZM344.24 28.5366H344.635V27.1013H344.24V28.5366ZM343.458 11.4259H343.853V9.99062H343.458V11.4259ZM344.24 2.87054H344.635V1.43527H344.24V2.87054ZM343.458 17.1388H343.853V15.7036H343.458V17.1388ZM343.458 5.71295H343.853V4.27767H343.458V5.71295ZM345.813 8.55535H346.208V7.12008H345.813V8.55535ZM345.03 28.5366H345.426V27.1013H345.03V28.5366ZM345.03 5.71295H345.426V4.27767H345.03V5.71295ZM345.813 19.9812H346.208V18.546H345.813V19.9812ZM345.813 14.2683H346.208V12.833H345.813V14.2683ZM345.813 25.6942H346.208V24.2589H345.813V25.6942ZM345.03 22.8518H345.426V21.4165H345.03V22.8518ZM345.03 17.1388H345.426V15.7036H345.03V17.1388ZM345.03 11.4259H345.426V9.99062H345.03V11.4259ZM343.458 22.8518H343.853V21.4165H343.458V22.8518ZM341.885 11.4259H342.28V9.99062H341.885V11.4259ZM341.885 22.8518H342.28V21.4165H341.885V22.8518ZM343.458 28.5366H343.853V27.1013H343.458V28.5366ZM341.885 17.1388H342.28V15.7036H341.885V17.1388ZM341.102 2.87054H341.497V1.43527H341.102V2.87054ZM341.102 17.1388H341.497V15.7036H341.102V17.1388ZM341.102 14.2683H341.497V12.833H341.102V14.2683ZM341.102 8.55535H341.497V7.12008H341.102V8.55535ZM341.885 28.5366H342.28V27.1013H341.885V28.5366ZM342.675 14.2683H343.07V12.833H342.675V14.2683ZM341.885 5.71295H342.28V4.27767H341.885V5.71295ZM342.675 2.87054H343.07V1.43527H342.675V2.87054ZM342.675 19.9812H343.07V18.546H342.675V19.9812ZM342.675 8.55535H343.07V7.12008H342.675V8.55535ZM342.675 22.8518H343.07V21.4165H342.675V22.8518ZM342.675 28.5366H343.07V27.1013H342.675V28.5366ZM342.675 25.6942H343.07V24.2589H342.675V25.6942ZM348.176 5.71295H348.571V4.27767H348.176V5.71295ZM351.314 11.4259H351.709V9.99062H351.314V11.4259ZM351.314 5.71295H351.709V4.27767H351.314V5.71295ZM352.887 28.5366H353.282V27.1013H352.887V28.5366ZM351.314 17.1388H351.709V15.7036H351.314V17.1388ZM349.741 5.71295H350.136V4.27767H349.741V5.71295ZM352.887 22.8518H353.282V21.4165H352.887V22.8518ZM351.314 22.8518H351.709V21.4165H351.314V22.8518ZM350.531 25.6942H350.926V24.2589H350.531V25.6942ZM351.314 28.5366H351.709V27.1013H351.314V28.5366ZM346.603 28.5366H346.998V27.1013H346.603V28.5366ZM356.032 28.5366H356.427V27.1013H356.032V28.5366ZM356.032 22.8518H356.427V21.4165H356.032V22.8518ZM357.605 27.1295V28.5647H358V27.1295H357.605ZM352.887 17.1388H353.282V15.7036H352.887V17.1388ZM354.459 17.1388H354.854V15.7036H354.459V17.1388ZM349.741 11.4259H350.136V9.99062H349.741V11.4259ZM354.459 28.5366H354.854V27.1013H354.459V28.5366ZM354.459 22.8518H354.854V21.4165H354.459V22.8518ZM352.887 11.4259H353.282V9.99062H352.887V11.4259ZM347.386 25.6942H347.781V24.2589H347.386V25.6942ZM347.386 19.9812H347.781V18.546H347.386V19.9812ZM346.603 5.71295H346.998V4.27767H346.603V5.71295ZM286.481 2.87054V4.30582H286.876V2.87054H287.272V1.43527H286.876V0H286.481V1.43527H286.086V2.87054H286.481ZM346.603 22.8518H346.998V21.4165H346.603V22.8518ZM348.176 28.5366H348.571V27.1013H348.176V28.5366ZM346.603 11.4259H346.998V9.99062H346.603V11.4259ZM346.603 17.1388H346.998V15.7036H346.603V17.1388ZM341.102 19.9812H341.497V18.546H341.102V19.9812ZM348.958 19.9812H349.354V18.546H348.958V19.9812ZM349.741 28.5366H350.136V27.1013H349.741V28.5366ZM349.741 22.8518H350.136V21.4165H349.741V22.8518ZM348.958 25.6942H349.354V24.2589H348.958V25.6942ZM348.176 22.8518H348.571V21.4165H348.176V22.8518ZM349.741 17.1388H350.136V15.7036H349.741V17.1388ZM348.176 17.1388H348.571V15.7036H348.176V17.1388ZM348.176 11.4259H348.571V9.99062H348.176V11.4259ZM335.602 22.8518H335.997V21.4165H335.602V22.8518ZM335.602 11.4259H335.997V9.99062H335.602V11.4259ZM335.602 17.1388H335.997V15.7036H335.602V17.1388ZM335.602 5.71295H335.997V4.27767H335.602V5.71295ZM335.602 19.9812H335.997V18.546H335.602V19.9812ZM336.384 28.5366H336.779V27.1013H336.384V28.5366ZM334.811 2.87054H335.206V1.43527H334.811V2.87054ZM335.602 28.5366H335.997V27.1013H335.602V28.5366ZM335.602 25.6942H335.997V24.2589H335.602V25.6942ZM333.238 5.71295H333.634V4.27767H333.238V5.71295ZM336.384 14.2683H336.779V12.833H336.384V14.2683ZM336.384 11.4259H336.779V9.99062H336.384V11.4259ZM336.384 8.55535H336.779V7.12008H336.384V8.55535ZM336.384 5.71295H336.779V4.27767H336.384V5.71295ZM334.811 5.71295H335.206V4.27767H334.811V5.71295ZM336.384 19.9812H336.779V18.546H336.384V19.9812ZM336.384 22.8518H336.779V21.4165H336.384V22.8518ZM336.384 17.1388H336.779V15.7036H336.384V17.1388ZM336.384 25.6942H336.779V24.2589H336.384V25.6942ZM334.029 5.71295H334.424V4.27767H334.029V5.71295ZM334.029 17.1388H334.424V15.7036H334.029V17.1388ZM334.029 19.9812H334.424V18.546H334.029V19.9812ZM334.029 14.2683H334.424V12.833H334.029V14.2683ZM334.029 22.8518H334.424V21.4165H334.029V22.8518ZM333.238 2.87054H333.634V1.43527H333.238V2.87054ZM334.029 11.4259H334.424V9.99062H334.029V11.4259ZM334.029 28.5366H334.424V27.1013H334.029V28.5366ZM334.029 25.6942H334.424V24.2589H334.029V25.6942ZM341.102 22.8518H341.497V21.4165H341.102V22.8518ZM334.811 8.55535H335.206V7.12008H334.811V8.55535ZM334.811 14.2683H335.206V12.833H334.811V14.2683ZM334.811 17.1388H335.206V15.7036H334.811V17.1388ZM334.811 11.4259H335.206V9.99062H334.811V11.4259ZM334.811 19.9812H335.206V18.546H334.811V19.9812ZM334.811 28.5366H335.206V27.1013H334.811V28.5366ZM334.811 25.6942H335.206V24.2589H334.811V25.6942ZM334.811 22.8518H335.206V21.4165H334.811V22.8518ZM336.384 2.87054H336.779V1.43527H336.384V2.87054ZM339.53 14.2683H339.925V12.833H339.53V14.2683ZM339.53 17.1388H339.925V15.7036H339.53V17.1388ZM339.53 19.9812H339.925V18.546H339.53V19.9812ZM339.53 11.4259H339.925V9.99062H339.53V11.4259ZM338.739 5.71295H339.134V4.27767H338.739V5.71295ZM339.53 28.5366H339.925V27.1013H339.53V28.5366ZM339.53 8.55535H339.925V7.12008H339.53V8.55535ZM338.739 11.4259H339.134V9.99062H338.739V11.4259ZM339.53 22.8518H339.925V21.4165H339.53V22.8518ZM339.53 25.6942H339.925V24.2589H339.53V25.6942ZM341.102 28.5366H341.497V27.1013H341.102V28.5366ZM340.312 5.71295H340.707V4.27767H340.312V5.71295ZM339.53 2.87054H339.925V1.43527H339.53V2.87054ZM340.312 11.4259H340.707V9.99062H340.312V11.4259ZM341.102 25.6942H341.497V24.2589H341.102V25.6942ZM340.312 17.1388H340.707V15.7036H340.312V17.1388ZM340.312 28.5366H340.707V27.1013H340.312V28.5366ZM340.312 22.8518H340.707V21.4165H340.312V22.8518ZM337.957 8.55535H338.352V7.12008H337.957V8.55535ZM337.167 11.4259H337.562V9.99062H337.167V11.4259ZM337.167 5.71295H337.562V4.27767H337.167V5.71295ZM337.957 28.5366H338.352V27.1013H337.957V28.5366ZM337.957 22.8518H338.352V21.4165H337.957V22.8518ZM337.957 25.6942H338.352V24.2589H337.957V25.6942ZM337.167 25.6942H337.562V24.2589H337.167V25.6942ZM337.167 22.8518H337.562V21.4165H337.167V22.8518ZM337.167 17.1388H337.562V15.7036H337.167V17.1388ZM337.957 2.87054H338.352V1.43527H337.957V2.87054ZM337.957 5.71295H338.352V4.27767H337.957V5.71295ZM338.739 22.8518H339.134V21.4165H338.739V22.8518ZM338.739 28.5366H339.134V27.1013H338.739V28.5366ZM337.167 28.5366H337.562V27.1013H337.167V28.5366ZM337.957 14.2683H338.352V12.833H337.957V14.2683ZM337.957 17.1388H338.352V15.7036H337.957V17.1388ZM337.957 11.4259H338.352V9.99062H337.957V11.4259ZM337.957 19.9812H338.352V18.546H337.957V19.9812ZM317.518 25.6942H317.914V24.2589H317.518V25.6942ZM299.056 22.8518V21.4165H298.661V19.9812H298.266V21.4165H297.87V22.8518H298.266V24.2871H298.661V22.8518H299.056ZM297.483 22.8518V21.4165H297.088V19.9812H296.693V21.4165H296.298V22.8518H296.693V24.2871H297.088V22.8518H297.483ZM301.411 5.71295V4.27767H301.016V5.71295H301.411ZM297.483 22.8518V24.2871H297.878V22.8518H297.483ZM295.515 21.4165V19.9812H295.12V21.4165H294.725V22.8518H295.12V24.2871H295.515V22.8518H295.91V21.4165H295.515ZM291.587 14.2683H291.982V12.833H291.587V11.3978H291.192V12.833H290.797V14.2683H291.192V15.7036H291.587V14.2683ZM290.797 11.4259H291.192V9.99062H290.797V8.55535H290.402V9.99062H290.007V11.4259H290.402V12.8612H290.797V11.4259ZM293.16 19.9812H293.555V18.546H293.16V17.1107H292.765V18.546H292.37V19.9812H292.765V21.4165H293.16V19.9812ZM292.37 17.1388H292.765V15.7036H292.37V14.2683H291.974V15.7036H291.579V17.1388H291.974V18.5741H292.37V17.1388ZM304.557 22.8518V24.2871H304.952V22.8518H304.557ZM303.766 22.8518V21.4165H303.371V19.9812H302.976V21.4165H302.581V22.8518H302.976V24.2871H303.371V22.8518H303.766ZM303.766 22.8518V24.2871H304.161V22.8518H303.766ZM290.014 8.55535H290.409V7.12008H290.014V5.6848H289.619V7.12008H289.224V8.55535H289.619V9.99062H290.014V8.55535ZM299.056 22.8518V24.2871H299.451V22.8518H299.056ZM302.194 22.8518V24.2871H302.589V22.8518H302.194ZM300.621 22.8518V21.4165H300.226V19.9812H299.831V21.4165H299.435V22.8518H299.831V24.2871H300.226V22.8518H300.621ZM302.194 22.8518V21.4165H301.798V19.9812H301.403V21.4165H301.008V22.8518H301.403V24.2871H301.798V22.8518H302.194ZM300.621 22.8518V24.2871H301.016V22.8518H300.621ZM293.16 7.14822V5.71295H292.765V7.14822H293.16ZM299.056 8.55535V7.12008H298.661V8.55535H299.056ZM297.87 7.14822V5.71295H297.475V7.14822H297.87ZM297.87 8.55535H298.266V7.12008H297.87V8.55535ZM291.192 8.55535V9.99062H291.587V8.55535H291.982V7.12008H291.587V5.6848H291.192V7.12008H290.797V8.55535H291.192ZM299.443 7.14822V5.71295H299.048V7.14822H299.443ZM300.621 5.71295V4.27767H300.226V5.71295H300.621ZM299.838 5.71295V4.27767H299.443V5.71295H299.838ZM296.305 8.55535H296.701V7.12008H296.305V8.55535ZM297.483 8.55535V7.12008H297.088V8.55535H297.483ZM293.16 8.55535H293.555V7.12008H293.16V8.55535ZM296.305 7.14822V5.71295H295.91V7.14822H296.305ZM294.337 8.55535V7.12008H293.942V8.55535H294.337ZM292.765 8.55535V7.12008H292.37V8.55535H292.765ZM305.734 22.8518H305.339V24.2871H305.734V22.8518ZM294.733 7.14822V5.71295H294.337V7.14822H294.733ZM316.341 5.71295V4.27767H315.946V5.71295H316.341ZM294.733 8.55535H295.128V7.12008H294.733V8.55535ZM293.942 21.4165V19.9812H293.547V21.4165H293.152V22.8518H293.547V24.2871H293.942V22.8518H294.337V21.4165H293.942ZM319.486 18.546H319.091V19.9812H319.486V18.546ZM319.882 22.8518H320.277V21.4165H319.882V22.8518ZM319.091 21.4165V22.8518H319.486V21.4165H319.091ZM319.882 18.546V17.1107H319.486V18.546H319.882ZM320.269 19.9812V18.546H319.874V19.9812H320.269ZM318.704 19.9812V21.4165H319.099V19.9812H318.704ZM317.518 21.4165V22.8518H317.914V21.4165H317.518ZM316.736 22.8518H317.131V21.4165H316.736V22.8518ZM318.309 22.8518H318.704V21.4165H318.309V22.8518ZM317.131 19.9812V21.4165H317.526V19.9812H317.131ZM317.518 9.99062V8.55535H317.123V9.99062H317.518ZM317.131 8.55535V7.12008H316.736V8.55535H317.131ZM319.486 17.1388V15.7036H319.091V17.1388H319.486ZM317.914 11.4259V9.99062H317.518V11.4259H317.914ZM316.736 7.14822V5.71295H316.341V7.14822H316.736ZM319.091 15.7036V14.2683H318.696V15.7036H319.091ZM318.309 12.8612V11.4259H317.914V12.8612H318.309ZM318.704 14.2683V12.833H318.309V14.2683H318.704ZM310.445 24.2589V25.6942H310.84V24.2589H310.445ZM305.734 24.2589V25.6942H306.129V24.2589H305.734ZM311.63 24.2589H312.025V22.8236H311.63V24.2589ZM308.88 24.2589V25.6942H309.275V24.2589H308.88ZM311.235 25.6942H311.63V24.2589H311.235V25.6942ZM309.662 24.2589V25.6942H310.057V24.2589H309.662ZM306.517 24.2589V25.6942H306.912V24.2589H306.517ZM307.307 24.2589V25.6942H307.702V24.2589H307.307ZM308.09 24.2589V25.6942H308.485V24.2589H308.09ZM315.558 19.9812V21.4165H315.953V19.9812H315.558ZM315.163 22.8518H315.558V21.4165H315.163V22.8518ZM314.381 21.4165V22.8518H314.776V21.4165H314.381ZM313.986 19.9812V21.4165H314.381V19.9812H313.986ZM315.953 21.4165V22.8518H316.349V21.4165H315.953ZM312.808 21.4165V22.8518H313.203V21.4165H312.808ZM312.413 19.9812V21.4165H312.808V19.9812H312.413ZM312.018 22.8518H312.413V21.4165H312.018V22.8518ZM313.59 22.8518H313.986V21.4165H313.59V22.8518ZM295.91 8.55535V7.12008H295.515V8.55535H295.91ZM306.129 22.8518V24.2871H306.525V22.8518H306.129ZM306.912 22.8518V24.2871H307.307V22.8518H306.912ZM308.485 22.8518V24.2871H308.88V22.8518H308.485ZM307.694 22.8518V24.2871H308.09V22.8518H307.694ZM306.129 21.4165H305.734V22.8518H306.129V21.4165ZM303.766 18.546H303.371V19.9812H303.766V18.546ZM304.161 19.9812H303.766V21.4165H304.161V19.9812ZM302.589 18.546V19.9812H302.984V18.546H302.589ZM314.381 18.546V19.9812H314.776V18.546H314.381ZM304.944 21.4165V22.8518H305.339V21.4165H304.944ZM312.018 18.546V19.9812H312.413V18.546H312.018ZM302.194 5.71295V4.27767H301.798V5.71295H302.194ZM311.63 21.4165H312.025V19.9812H311.63V21.4165ZM313.59 18.546V19.9812H313.986V18.546H313.59ZM310.057 24.2589H310.453V22.8236H310.057V24.2589ZM310.84 19.9812V21.4165H311.235V19.9812H310.84ZM309.267 22.8518V24.2871H309.662V22.8518H309.267ZM310.445 22.8518H310.84V21.4165H310.445V22.8518ZM304.161 21.4165V22.8518H304.557V21.4165H304.161ZM296.305 18.546V19.9812H296.701V18.546H296.305ZM295.91 18.546H295.515V19.9812H295.91V18.546ZM297.483 19.9812V21.4165H297.878V19.9812H297.483ZM297.483 18.546H297.088V19.9812H297.483V18.546ZM295.91 19.9812V21.4165H296.305V19.9812H295.91ZM302.194 19.9812V21.4165H302.589V19.9812H302.194ZM294.733 18.546V17.1107H294.337V18.546H293.942V19.9812H294.337V21.4165H294.733V19.9812H295.128V18.546H294.733ZM293.942 17.1388H294.337V15.7036H293.942V14.2683H293.547V15.7036H293.152V17.1388H293.547V18.5741H293.942V17.1388ZM293.16 14.2683H293.555V12.833H293.16V11.3978H292.765V12.833H292.37V14.2683H292.765V15.7036H293.16V14.2683ZM300.621 19.9812V21.4165H301.016V19.9812H300.621ZM297.87 18.546V19.9812H298.266V18.546H297.87ZM300.621 18.546H300.226V19.9812H300.621V18.546ZM302.194 18.546H301.798V19.9812H302.194V18.546ZM301.016 18.546V19.9812H301.411V18.546H301.016ZM299.443 18.546V19.9812H299.838V18.546H299.443ZM299.056 18.546H298.661V19.9812H299.056V18.546ZM299.056 19.9812V21.4165H299.451V19.9812H299.056ZM312.808 18.546V19.9812H313.203V18.546H312.808ZM309.267 8.55535V7.12008H308.872V8.55535H309.267ZM308.485 7.14822H308.09V8.58349H308.485V7.14822ZM308.09 9.99062V8.55535H307.694V9.99062H308.09ZM309.662 9.99062V8.55535H309.267V9.99062H309.662ZM310.057 7.14822H309.662V8.58349H310.057V7.14822ZM307.694 8.55535V7.12008H307.299V8.55535H307.694ZM311.235 9.99062V8.55535H310.84V9.99062H311.235ZM311.63 7.14822H311.235V8.58349H311.63V7.14822ZM310.84 8.55535V7.12008H310.445V8.55535H310.84ZM306.517 9.99062V8.55535H306.122V9.99062H306.517ZM306.912 7.14822H306.517V8.58349H306.912V7.14822ZM304.944 7.14822V5.71295H304.549V7.14822H304.944ZM303.766 5.71295V4.27767H303.371V5.71295H303.766ZM302.984 5.71295V4.27767H302.589V5.71295H302.984ZM304.161 7.14822V5.71295H303.766V7.14822H304.161ZM312.413 8.55535V7.12008H312.018V8.55535H312.413ZM305.734 7.14822V5.71295H305.339V7.14822H305.734ZM306.129 8.55535V7.12008H305.734V8.55535H306.129ZM314.768 7.14822H314.373V8.58349H314.768V7.14822ZM316.736 18.546V19.9812H317.131V18.546H316.736ZM317.518 19.9812H317.914V18.546H317.518V19.9812ZM317.914 17.1388V15.7036H317.518V17.1388H317.914ZM317.518 15.7036V14.2683H317.123V15.7036H317.518ZM317.131 15.7036H316.736V17.1388H317.131V15.7036ZM317.131 14.2683V12.833H316.736V14.2683H317.131ZM315.953 19.9812H316.349V18.546H315.953V19.9812ZM316.341 17.1388V18.5741H316.736V17.1388H316.341ZM315.163 18.546V19.9812H315.558V18.546H315.163ZM314.381 9.99062V8.55535H313.986V9.99062H314.381ZM313.986 8.55535V7.12008H313.59V8.55535H313.986ZM313.195 7.14822H312.8V8.58349H313.195V7.14822ZM312.808 9.99062V8.55535H312.413V9.99062H312.808ZM315.558 8.55535V7.12008H315.163V8.55535H315.558ZM316.341 11.4259V9.99062H315.946V11.4259H316.341ZM315.953 9.99062V8.55535H315.558V9.99062H315.953ZM316.736 12.8612V11.4259H316.341V12.8612H316.736ZM299.056 25.6942V27.1295H299.451V25.6942H299.056ZM319.486 11.4259V9.99062H319.091V11.4259H319.486ZM318.309 7.14822V5.71295H317.914V7.14822H318.309ZM319.882 12.8612V11.4259H319.486V12.8612H319.882ZM318.704 8.55535V7.12008H318.309V8.55535H318.704ZM319.091 9.99062V8.55535H318.696V9.99062H319.091ZM321.059 17.1388V15.7036H320.664V17.1388H321.059ZM321.454 18.546V17.1107H321.059V18.546H321.454ZM321.842 19.9812V18.546H321.447V19.9812H321.842ZM320.269 14.2683V12.833H319.874V14.2683H320.269ZM320.664 15.7036V14.2683H320.269V15.7036H320.664ZM315.953 4.27767V2.8424H315.558V4.27767H315.953ZM314.768 1.43527H314.373V2.87054H314.768V1.43527ZM315.558 2.87054V1.43527H315.163V2.87054H315.558ZM314.381 4.27767V2.8424H313.986V4.27767H314.381ZM317.518 4.27767V2.8424H317.123V4.27767H317.518ZM316.341 1.43527H315.946V2.87054H316.341V1.43527ZM313.986 2.87054V1.43527H313.59V2.87054H313.986ZM317.131 2.87054V1.43527H316.736V2.87054H317.131ZM317.914 5.71295V4.27767H317.518V5.71295H317.914ZM317.914 22.8518V24.2871H318.309V22.8518H317.914ZM319.091 25.6942H319.486V24.2589H319.091V25.6942ZM292.37 11.4259H292.765V9.99062H292.37V8.55535H291.974V9.99062H291.579V11.4259H291.974V12.8612H292.37V11.4259ZM318.309 24.2589V25.6942H318.704V24.2589H318.309ZM316.736 24.2589V25.6942H317.131V24.2589H316.736ZM315.953 24.2589V25.6942H316.349V24.2589H315.953ZM314.381 24.2589V25.6942H314.776V24.2589H314.381ZM315.163 24.2589V25.6942H315.558V24.2589H315.163ZM321.454 24.2589V25.6942H321.849V24.2589H321.454ZM321.842 21.4165H321.447V22.8518H321.842V21.4165ZM322.237 25.6942H322.632V24.2589H322.237V25.6942ZM322.237 21.4165V19.9812H321.842V21.4165H322.237ZM322.632 22.8518V21.4165H322.237V22.8518H322.632ZM320.664 25.6942H321.059V24.2589H320.664V25.6942ZM319.882 24.2589V25.6942H320.277V24.2589H319.882ZM321.059 22.8518V24.2871H321.454V22.8518H321.059ZM319.486 22.8518V24.2871H319.882V22.8518H319.486ZM302.984 2.87054V1.43527H302.589V2.87054H302.984ZM298.266 2.87054V1.43527H297.87V2.87054H298.266ZM299.838 2.87054V1.43527H299.443V2.87054H299.838ZM299.056 2.87054V1.43527H298.661V2.87054H299.056ZM313.195 1.43527H312.8V2.87054H313.195V1.43527ZM301.411 2.87054V1.43527H301.016V2.87054H301.411ZM302.194 2.87054V1.43527H301.798V2.87054H302.194ZM303.766 2.87054V1.43527H303.371V2.87054H303.766ZM313.59 24.2589V25.6942H313.986V24.2589H313.59ZM296.693 2.87054V1.43527H296.298V2.87054H296.693ZM300.621 2.87054V1.43527H300.226V2.87054H300.621ZM295.91 2.87054V1.43527H295.515V2.87054H295.91ZM292.765 2.87054V1.43527H292.37V2.87054H292.765ZM291.982 2.87054V1.43527H291.587V2.87054H291.982ZM289.619 2.87054V4.30582H290.014V2.87054H290.409V1.43527H290.014V0H289.619V1.43527H289.224V2.87054H289.619ZM291.192 2.87054V1.43527H290.797V2.87054H291.192ZM293.547 2.87054V1.43527H293.152V2.87054H293.547ZM295.12 2.87054V1.43527H294.725V2.87054H295.12ZM294.337 2.87054V1.43527H293.942V2.87054H294.337ZM297.483 2.87054V1.43527H297.088V2.87054H297.483ZM310.84 2.87054V1.43527H310.445V2.87054H310.84ZM309.267 2.87054V1.43527H308.872V2.87054H309.267ZM309.662 4.27767V2.8424H309.267V4.27767H309.662ZM311.235 4.27767V2.8424H310.84V4.27767H311.235ZM315.558 4.27767H315.163V5.71295H315.558V4.27767ZM312.808 4.27767V2.8424H312.413V4.27767H312.808ZM311.63 1.43527H311.235V2.87054H311.63V1.43527ZM312.413 2.87054V1.43527H312.018V2.87054H312.413ZM308.09 4.27767V2.8424H307.694V4.27767H308.09ZM306.129 2.87054V1.43527H305.734V2.87054H306.129ZM308.485 1.43527H308.09V2.87054H308.485V1.43527ZM304.944 4.27767V2.8424H304.549V4.27767H304.944ZM306.517 4.27767V2.8424H306.122V4.27767H306.517ZM305.339 1.43527H304.944V2.87054H305.339V1.43527ZM304.557 2.87054V1.43527H304.161V2.87054H304.557ZM307.694 2.87054V1.43527H307.299V2.87054H307.694ZM306.912 1.43527H306.517V2.87054H306.912V1.43527ZM310.057 1.43527H309.662V2.87054H310.057V1.43527ZM299.443 4.27767V2.8424H299.048V4.27767H299.443ZM297.87 4.27767V5.71295H298.266V7.14822H298.661V5.71295H299.056V4.27767H298.661V2.8424H298.266V4.27767H297.87ZM296.305 4.27767V5.71295H296.701V7.14822H297.096V5.71295H297.491V4.27767H297.096V2.8424H296.701V4.27767H296.305ZM300.233 4.27767V2.8424H299.838V4.27767H300.233ZM304.161 4.27767V2.8424H303.766V4.27767H304.161ZM302.589 4.27767V2.8424H302.194V4.27767H302.589ZM301.016 4.27767V2.8424H300.621V4.27767H301.016ZM303.371 4.27767V2.8424H302.976V4.27767H303.371ZM301.806 4.27767V2.8424H301.411V4.27767H301.806ZM297.87 4.27767V2.8424H297.475V4.27767H297.87ZM291.587 4.27767V2.8424H291.192V4.27767H291.587ZM291.587 4.27767V5.71295H291.982V7.14822H292.377V5.71295H292.772V4.27767H292.377V2.8424H291.982V4.27767H291.587ZM293.16 4.27767V2.8424H292.765V4.27767H293.16ZM296.305 4.27767V2.8424H295.91V4.27767H296.305ZM290.409 5.71295V7.14822H290.805V5.71295H291.2V4.27767H290.805V2.8424H290.409V4.27767H290.014V5.71295H290.409ZM294.733 4.27767V5.71295H295.128V7.14822H295.523V5.71295H295.918V4.27767H295.523V2.8424H295.128V4.27767H294.733ZM293.16 4.27767V5.71295H293.555V7.14822H293.95V5.71295H294.345V4.27767H293.95V2.8424H293.555V4.27767H293.16ZM294.733 4.27767V2.8424H294.337V4.27767H294.733ZM312.018 7.14822V5.71295H311.622V7.14822H312.018ZM311.63 5.71295V4.27767H311.235V5.71295H311.63ZM313.195 5.71295V4.27767H312.8V5.71295H313.195ZM313.59 7.14822V5.71295H313.195V7.14822H313.59ZM288.837 5.71295V7.14822H289.232V5.71295H289.627V4.27767H289.232V2.8424H288.837V4.27767H288.441V5.71295H288.837ZM312.413 4.27767H312.018V5.71295H312.413V4.27767ZM313.986 4.27767H313.59V5.71295H313.986V4.27767ZM315.163 7.14822V5.71295H314.768V7.14822H315.163ZM314.768 5.71295V4.27767H314.373V5.71295H314.768ZM309.267 5.71295V4.27767H308.872V5.71295H309.267ZM306.912 5.71295V4.27767H306.517V5.71295H306.912ZM306.129 5.71295V4.27767H305.734V5.71295H306.129ZM307.694 5.71295V4.27767H307.299V5.71295H307.694ZM305.339 5.71295V4.27767H304.944V5.71295H305.339ZM310.057 5.71295V4.27767H309.662V5.71295H310.057ZM310.84 5.71295V4.27767H310.445V5.71295H310.84ZM308.485 5.71295V4.27767H308.09V5.71295H308.485ZM304.557 5.71295V4.27767H304.161V5.71295H304.557ZM301.016 24.2589V25.6942H301.411V24.2589H301.016ZM304.161 24.2589V25.6942H304.557V24.2589H304.161ZM303.766 25.6942V27.1295H304.161V25.6942H303.766ZM305.339 24.2589H304.944V25.6942H305.339V24.2589ZM306.129 25.6942V27.1295H306.525V25.6942H306.129ZM305.339 25.6942V27.1295H305.734V25.6942H305.339ZM303.766 24.2589H303.371V25.6942H303.766V24.2589ZM302.194 24.2589H301.798V25.6942H302.194V24.2589ZM302.194 25.6942V27.1295H302.589V25.6942H302.194ZM302.589 24.2589V25.6942H302.984V24.2589H302.589ZM310.057 25.6942V27.1295H310.453V25.6942H310.057ZM287.659 5.71295H288.054V4.27767H287.659V2.8424H287.264V4.27767H286.869V5.71295H287.264V7.14822H287.659V5.71295ZM311.63 27.1295H312.025V25.6942H311.63V27.1295ZM312.808 24.2589V25.6942H313.203V24.2589H312.808ZM312.018 24.2589V25.6942H312.413V24.2589H312.018ZM307.694 25.6942V27.1295H308.09V25.6942H307.694ZM306.912 25.6942V27.1295H307.307V25.6942H306.912ZM308.485 25.6942V27.1295H308.88V25.6942H308.485ZM309.267 25.6942V27.1295H309.662V25.6942H309.267ZM310.84 25.6942V27.1295H311.235V25.6942H310.84ZM292.37 22.8518H292.765V21.4165H292.37V19.9812H291.974V21.4165H291.579V22.8518H291.974V24.2871H292.37V22.8518ZM300.621 25.6942V27.1295H301.016V25.6942H300.621ZM294.733 24.2589V22.8236H294.337V24.2589H293.942V25.6942H294.337V27.1295H294.733V25.6942H295.128V24.2589H294.733ZM293.16 24.2589V22.8236H292.765V24.2589H292.37V25.6942H292.765V27.1295H293.16V25.6942H293.555V24.2589H293.16ZM291.587 19.9812H291.982V18.546H291.587V17.1107H291.192V18.546H290.797V19.9812H291.192V21.4165H291.587V19.9812ZM290.014 14.2683H290.409V12.833H290.014V11.3978H289.619V12.833H289.224V14.2683H289.619V15.7036H290.014V14.2683ZM288.441 8.55535H288.837V7.12008H288.441V5.6848H288.046V7.12008H287.651V8.55535H288.046V9.99062H288.441V8.55535ZM289.232 11.4259H289.627V9.99062H289.232V8.55535H288.837V9.99062H288.441V11.4259H288.837V12.8612H289.232V11.4259ZM290.797 17.1388H291.192V15.7036H290.797V14.2683H290.402V15.7036H290.007V17.1388H290.402V18.5741H290.797V17.1388ZM299.056 24.2589H298.661V25.6942H299.056V24.2589ZM299.443 24.2589V25.6942H299.838V24.2589H299.443ZM288.046 2.87054V4.30582H288.441V2.87054H288.837V1.43527H288.441V0H288.046V1.43527H287.651V2.87054H288.046ZM300.621 24.2589H300.226V25.6942H300.621V24.2589ZM297.483 25.6942V27.1295H297.878V25.6942H297.483ZM297.87 24.2589V25.6942H298.266V24.2589H297.87ZM297.483 24.2589H297.088V25.6942H297.483V24.2589ZM296.305 24.2589V22.8236H295.91V24.2589H295.515V25.6942H295.91V27.1295H296.305V25.6942H296.701V24.2589H296.305Z" fill="#ECECEC"/>
</svg>
