<svg width="328" height="32" viewBox="0 0 328 32" fill="none" xmlns="http://www.w3.org/2000/svg">
<path d="M236.756 1.53096H236.217V0H236.756V1.53096ZM267.306 10.6567H266.767V12.1876H267.306V10.6567ZM269.451 15.2195V13.6886H268.912V15.2195H269.451ZM268.912 18.2814H269.451V16.7505H268.912V18.2814ZM276.415 9.1257H275.876V10.6567H276.415V9.1257ZM276.954 7.62477H276.415V9.15572H276.954V7.62477ZM261.948 22.8443H262.487V21.3133H261.948V22.8443ZM229.254 0H228.715V1.53096H229.254V0ZM238.902 0H238.363V1.53096H238.902V0ZM268.912 13.7186V12.1876H268.373V13.7186H268.912ZM235.679 0H235.14V1.53096H235.679V0ZM275.347 7.62477V9.15572H275.886V7.62477H275.347ZM233.544 0H233.005V1.53096H233.544V0ZM268.373 12.1876V10.6567H267.834V12.1876H268.373ZM237.824 0H237.285V1.53096H237.824V0ZM279.099 13.7186H278.56V15.2495H279.099V13.7186ZM231.399 0H230.86V1.53096H231.399V0ZM238.363 31.97H238.902V30.439H238.363V31.97ZM218.528 0H217.989V1.53096H218.528V0ZM220.673 0H220.134V1.53096H220.673V0ZM265.161 12.1876V10.6567H264.622V12.1876H265.161ZM244.798 31.97H245.337V30.439H244.798V31.97ZM240.508 31.97H241.047V30.439H240.508V31.97ZM242.653 31.97H243.192V30.439H242.653V31.97ZM266.228 12.1876V10.6567H265.689V12.1876H266.228ZM264.093 12.1876V10.6567H263.555V12.1876H264.093ZM266.767 13.7186V12.1876H266.228V13.7186H266.767ZM227.109 0H226.57V1.53096H227.109V0ZM224.964 0H224.425V1.53096H224.964V0ZM261.409 24.3752H261.948V22.8443H261.409V24.3752ZM275.876 10.6567H275.337V12.1876H275.876V10.6567ZM260.342 22.8443V24.3752H260.881V22.8443H260.342ZM277.493 13.7186V15.2495H278.031V13.7186H277.493ZM222.818 0H222.279V1.53096H222.818V0ZM276.954 13.7186H276.415V15.2495H276.954V13.7186ZM276.954 12.1876V10.6567H276.415V12.1876H276.954ZM268.912 0H268.373V1.53096H268.912V0ZM263.016 12.1876V10.6567H262.477V12.1876H263.016ZM267.306 15.2195V13.6886H266.767V15.2195H267.306ZM258.197 0H257.658V1.53096H258.197V0ZM253.907 0H253.368V1.53096H253.907V0ZM266.228 16.7505H266.767V15.2195H266.228V16.7505ZM256.052 0H255.513V1.53096H256.052V0ZM250.694 0H250.155V1.53096H250.694V0ZM266.228 13.7186H265.689V15.2495H266.228V13.7186ZM252.829 0H252.29V1.53096H252.829V0ZM273.202 1.53096V3.06191H273.741V1.53096H273.202ZM251.762 0H251.223V1.53096H251.762V0ZM266.767 0H266.228V1.53096H266.767V0ZM271.057 0H270.518V1.53096H271.057V0ZM264.622 0H264.083V1.53096H264.622V0ZM264.622 18.2814H265.161V16.7505H264.622V18.2814ZM272.663 1.53096H272.124V3.06191H272.663V1.53096ZM260.342 0H259.803V1.53096H260.342V0ZM262.477 0H261.938V1.53096H262.477V0ZM264.093 19.7824H264.632V18.2514H264.093V19.7824ZM265.161 15.2195V16.7505H265.7V15.2195H265.161ZM274.808 1.53096H274.27V3.06191H274.808V1.53096ZM267.306 15.2195V16.7505H267.845V15.2195H267.306ZM242.114 0H241.575V1.53096H242.114V0ZM262.477 19.7824V21.3133H263.016V19.7824H262.477ZM244.259 0H243.72V1.53096H244.259V0ZM245.326 0H244.787V1.53096H245.326V0ZM243.192 0H242.653V1.53096H243.192V0ZM268.373 13.7186H267.834V15.2495H268.373V13.7186ZM241.047 0H240.508V1.53096H241.047V0ZM274.808 7.62477H274.27V9.15572H274.808V7.62477ZM273.741 4.56285H273.202V6.09381H273.741V4.56285ZM248.549 0H248.01V1.53096H248.549V0ZM266.767 18.2814H267.306V16.7505H266.767V18.2814ZM265.7 16.7505V18.2814H266.239V16.7505H265.7ZM267.845 16.7505V18.2814H268.384V16.7505H267.845ZM249.617 0H249.078V1.53096H249.617V0ZM274.27 3.06191H273.731V4.59287H274.27V3.06191ZM274.808 6.09381V4.56285H274.27V6.09381H274.808ZM247.471 0H246.933V1.53096H247.471V0ZM246.404 0H245.865V1.53096H246.404V0ZM263.555 21.3133H264.093V19.7824H263.555V21.3133ZM239.969 0H239.43V1.53096H239.969V0ZM281.244 6.09381V4.56285H280.705V6.09381H281.244ZM281.244 12.1876V10.6567H280.705V12.1876H281.244ZM280.166 4.56285H279.627V6.09381H280.166V4.56285ZM279.638 7.62477V9.15572H280.177V7.62477H279.638ZM281.244 7.62477H280.705V9.15572H281.244V7.62477ZM280.705 9.1257H280.166V10.6567H280.705V9.1257ZM278.56 3.06191H278.021V4.59287H278.56V3.06191ZM279.638 1.53096V3.06191H280.177V1.53096H279.638ZM245.326 10.6567V9.1257H244.787V10.6567H245.326ZM243.192 10.6567V12.1876H243.731V13.7186H244.27V12.1876H244.809V10.6567H244.27V9.1257H243.731V10.6567H243.192ZM281.244 1.53096H280.705V3.06191H281.244V1.53096ZM280.705 3.06191H280.166V4.59287H280.705V3.06191ZM246.943 31.97H247.482V30.439H246.943V31.97ZM280.166 16.7505H279.627V18.2814H280.166V16.7505ZM248.549 7.62477V6.09381H248.01V7.62477H248.549ZM277.493 1.53096V3.06191H278.031V1.53096H277.493ZM279.099 1.53096H278.56V3.06191H279.099V1.53096ZM281.244 18.2814V16.7505H280.705V18.2814H281.244ZM282.311 4.56285H281.772V6.09381H282.311V4.56285ZM279.638 13.7186V15.2495H280.177V13.7186H279.638ZM280.166 10.6567H279.627V12.1876H280.166V10.6567ZM248.01 9.1257V7.59475H247.471V9.1257H248.01ZM281.244 13.7186H280.705V15.2495H281.244V13.7186ZM247.471 10.6567V9.1257H246.933V10.6567H247.471ZM245.326 10.6567V12.1876H245.865V13.7186H246.404V12.1876H246.943V10.6567H246.404V9.1257H245.865V10.6567H245.326ZM288.746 19.7824H288.208V21.3133H288.746V19.7824ZM288.746 16.7505H288.208V18.2814H288.746V16.7505ZM238.902 10.6567V12.1876H239.44V13.7186H239.979V12.1876H240.518V10.6567H239.979V9.1257H239.44V10.6567H238.902ZM286.601 1.53096H286.062V3.06191H286.601V1.53096ZM288.746 22.8443H288.208V24.3752H288.746V22.8443ZM288.746 10.6567H288.208V12.1876H288.746V10.6567ZM288.746 4.56285H288.208V6.09381H288.746V4.56285ZM288.746 1.53096H288.208V3.06191H288.746V1.53096ZM288.746 13.7186H288.208V15.2495H288.746V13.7186ZM288.746 7.62477H288.208V9.15572H288.746V7.62477ZM286.601 4.56285H286.062V6.09381H286.601V4.56285ZM286.601 16.7505H286.062V18.2814H286.601V16.7505ZM284.456 1.53096H283.917V3.06191H284.456V1.53096ZM284.456 7.62477H283.917V9.15572H284.456V7.62477ZM284.456 4.56285H283.917V6.09381H284.456V4.56285ZM284.456 10.6567H283.917V12.1876H284.456V10.6567ZM243.192 10.6567V9.1257H242.653V10.6567H243.192ZM241.047 10.6567V12.1876H241.586V13.7186H242.124V12.1876H242.663V10.6567H242.124V9.1257H241.586V10.6567H241.047ZM241.047 10.6567V9.1257H240.508V10.6567H241.047ZM286.601 7.62477H286.062V9.15572H286.601V7.62477ZM286.601 10.6567H286.062V12.1876H286.601V10.6567ZM282.311 1.53096H281.772V3.06191H282.311V1.53096ZM286.601 13.7186H286.062V15.2495H286.601V13.7186ZM280.705 15.2195H280.166V16.7505H280.705V15.2195ZM256.591 12.1876V10.6567H256.052V12.1876H256.591ZM261.948 31.97H262.487V30.439H261.948V31.97ZM260.87 31.97H261.409V30.439H260.87V31.97ZM257.658 12.1876V10.6567H257.119V12.1876H257.658ZM259.803 31.97H260.342V30.439H259.803V31.97ZM263.016 31.97H263.555V30.439H263.016V31.97ZM255.513 9.1257V7.59475H254.974V9.1257H255.513ZM268.373 31.97H268.912V30.439H268.373V31.97ZM256.052 10.6567V9.1257H255.513V10.6567H256.052ZM266.228 31.97H266.767V30.439H266.228V31.97ZM264.093 31.97H264.632V30.439H264.093V31.97ZM270.518 31.97H271.057V30.439H270.518V31.97ZM253.368 31.97H253.907V30.439H253.368V31.97ZM251.223 31.97H251.762V30.439H251.223V31.97ZM254.446 15.2195V13.6886H253.907V15.2195H254.446ZM249.078 31.97H249.617V30.439H249.078V31.97ZM261.948 12.1876V10.6567H261.409V12.1876H261.948ZM256.591 31.97H257.13V30.439H256.591V31.97ZM257.658 31.97H258.197V30.439H257.658V31.97ZM258.725 12.1876V10.6567H258.186V12.1876H258.725ZM255.513 31.97H256.052V30.439H255.513V31.97ZM259.803 12.1876V10.6567H259.264V12.1876H259.803ZM258.725 31.97H259.264V30.439H258.725V31.97ZM278.021 10.6567H277.482V12.1876H278.021V10.6567ZM251.762 7.62477V6.09381H251.223V7.62477H251.762ZM278.56 9.1257H278.021V10.6567H278.56V9.1257ZM279.099 12.1876V10.6567H278.56V12.1876H279.099ZM275.347 1.53096V3.06191H275.886V1.53096H275.347ZM249.617 7.62477V6.09381H249.078V7.62477H249.617ZM279.099 7.62477H278.56V9.15572H279.099V7.62477ZM279.099 6.09381V4.56285H278.56V6.09381H279.099ZM278.021 4.56285H277.482V6.09381H278.021V4.56285ZM276.954 1.53096H276.415V3.06191H276.954V1.53096ZM277.493 7.62477V9.15572H278.031V7.62477H277.493ZM250.694 7.62477V6.09381H250.155V7.62477H250.694ZM272.663 31.97H273.202V30.439H272.663V31.97ZM254.446 9.1257V7.59475H253.907V9.1257H254.446ZM279.099 31.97H279.638V30.439H279.099V31.97ZM274.808 31.97H275.347V30.439H274.808V31.97ZM252.829 7.62477V6.09381H252.29V7.62477H252.829ZM281.244 31.97H281.783V30.439H281.244V31.97ZM276.954 31.97H277.493V30.439H276.954V31.97ZM276.415 3.06191H275.876V4.59287H276.415V3.06191ZM283.389 30.439V28.9081H282.85V30.439H283.389ZM276.954 6.09381V4.56285H276.415V6.09381H276.954ZM253.368 9.1257V7.59475H252.829V9.1257H253.368ZM275.876 4.56285H275.337V6.09381H275.876V4.56285ZM260.87 12.1876V10.6567H260.332V12.1876H260.87ZM247.471 13.7186V12.1876H246.933V13.7186H247.471ZM260.87 22.8443H261.409V21.3133H260.87V22.8443ZM253.368 15.2195V16.7505H253.907V15.2195H253.368ZM258.197 18.2814H257.658V19.8124H258.197V18.2814ZM248.01 12.1876V13.7186H248.549V12.1876H249.088V10.6567H248.549V9.1257H248.01V10.6567H247.471V12.1876H248.01ZM259.803 21.3133V22.8443H260.342V21.3133H259.803ZM268.373 19.7824H268.912V18.2514H268.373V19.7824ZM269.99 16.7505V15.2195H269.451V16.7505H269.99ZM266.228 22.8443H266.767V21.3133H266.228V22.8443ZM246.943 15.2195V13.6886H246.404V15.2195H246.943ZM270.518 18.2814V16.7505H269.979V18.2814H270.518ZM262.477 12.1876H261.938V13.7186H262.477V12.1876ZM259.264 19.7824V18.2514H258.725V19.7824H259.264ZM260.342 12.1876H259.803V13.7186H260.342V12.1876ZM278.56 15.2195H278.021V16.7505H278.56V15.2195ZM261.409 21.3133H261.948V19.7824H261.409V21.3133ZM264.622 12.1876H264.083V13.7186H264.622V12.1876ZM265.161 15.2195V13.6886H264.622V15.2195H265.161ZM250.155 9.1257V7.59475H249.617V9.1257H250.155ZM249.078 9.1257V7.59475H248.539V9.1257H249.078ZM261.948 19.7824H262.487V18.2514H261.948V19.7824ZM252.301 15.2195V16.7505H252.84V15.2195H252.301ZM259.264 19.7824V21.3133H259.803V19.7824H259.264ZM257.658 19.7824H257.119V21.3133H257.658V19.7824ZM257.658 21.3133V22.8443H258.197V21.3133H257.658ZM242.653 15.2195V16.7505H243.192V15.2195H242.653ZM244.798 15.2195V13.6886H244.259V15.2195H244.798ZM243.192 13.7186V12.1876H242.653V13.7186H243.192ZM245.326 13.7186V12.1876H244.787V13.7186H245.326ZM263.555 24.3752H264.093V22.8443H263.555V24.3752ZM259.803 19.7824H260.342V18.2514H259.803V19.7824ZM243.192 15.2195H243.731V13.6886H243.192V15.2195ZM245.326 15.2195H245.865V13.6886H245.326V15.2195ZM262.477 9.1257H261.938V10.6567H262.477V9.1257ZM260.342 9.1257H259.803V10.6567H260.342V9.1257ZM269.451 10.6567H268.912V12.1876H269.451V10.6567ZM264.622 9.1257H264.083V10.6567H264.622V9.1257ZM258.197 9.1257H257.658V10.6567H258.197V9.1257ZM258.197 19.7824V21.3133H258.736V19.7824H258.197ZM244.798 15.2195V16.7505H245.337V15.2195H244.798ZM270.518 13.7186H269.979V15.2495H270.518V13.7186ZM238.902 10.6567V9.1257H238.363V10.6567H238.902ZM258.725 21.3133V22.8443H259.264V21.3133H258.725ZM266.228 19.7824H266.767V18.2514H266.228V19.7824ZM253.907 13.7186V12.1876H253.368V13.7186H253.907ZM260.87 21.3133V19.7824H260.332V21.3133H260.87ZM255.513 18.2814V19.8124H256.052V18.2814H255.513ZM260.87 15.2195V13.6886H260.332V15.2195H260.87ZM257.119 16.7505V15.2195H256.58V16.7505H257.119ZM261.948 18.2814V16.7505H261.409V18.2814H261.948ZM256.052 16.7505V18.2814H256.591V16.7505H256.052ZM258.197 13.7186V12.1876H257.658V13.7186H258.197ZM257.119 13.7186V12.1876H256.58V13.7186H257.119ZM260.87 18.2814V16.7505H260.332V18.2814H260.87ZM252.829 13.7186V15.2495H253.368V13.7186H252.829ZM255.513 16.7505H254.974V18.2814H255.513V16.7505ZM250.155 12.1876V13.7186H250.694V12.1876H250.155ZM254.974 15.2195H254.435V16.7505H254.974V15.2195ZM259.264 16.7505V15.2195H258.725V16.7505H259.264ZM262.477 15.2195H261.938V16.7505H262.477V15.2195ZM258.725 15.2195V13.6886H258.186V15.2195H258.725ZM250.155 10.6567H249.617V12.1876H250.155V10.6567ZM259.803 13.7186H259.264V15.2495H259.803V13.7186ZM251.223 12.1876V10.6567H250.684V12.1876H251.223ZM256.052 16.7505V15.2195H255.513V16.7505H256.052ZM264.093 13.7186H263.555V15.2495H264.093V13.7186ZM262.477 18.2814H263.016V16.7505H262.477V18.2814ZM263.555 16.7505V15.2195H263.016V16.7505H263.555ZM263.016 15.2195V13.6886H262.477V15.2195H263.016ZM253.907 10.6567V9.1257H253.368V10.6567H253.907ZM254.974 10.6567V9.1257H254.435V10.6567H254.974ZM252.301 13.7186H251.762V15.2495H252.301V13.7186ZM264.093 16.7505H264.632V15.2195H264.093V16.7505ZM252.301 9.1257V7.59475H251.762V9.1257H252.301ZM252.829 10.6567V9.1257H252.29V10.6567H252.829ZM263.555 18.2814H264.093V16.7505H263.555V18.2814ZM252.829 13.7186V12.1876H252.29V13.7186H252.829ZM256.052 13.7186V12.1876H255.513V13.7186H256.052ZM257.658 18.2814V16.7505H257.119V18.2814H257.658ZM260.342 15.2195H259.803V16.7505H260.342V15.2195ZM247.471 13.7186V15.2495H248.01V13.7186H247.471ZM261.409 16.7505V15.2195H260.87V16.7505H261.409ZM255.513 12.1876V10.6567H254.974V12.1876H255.513ZM261.948 13.7186H261.409V15.2495H261.948V13.7186ZM256.591 18.2814V19.8124H257.13V18.2814H256.591ZM251.762 12.1876H251.223V13.7186H251.762V12.1876ZM246.943 15.2195V16.7505H247.482V15.2195H246.943ZM251.223 9.1257V7.59475H250.684V9.1257H251.223ZM249.078 15.2195V16.7505H249.617V15.2195H249.078ZM254.446 21.3133V22.8443H254.985V21.3133H254.446ZM249.617 13.7186V15.2495H250.155V13.7186H249.617ZM255.513 21.3133V22.8443H256.052V21.3133H255.513ZM256.591 15.2195V13.6886H256.052V15.2195H256.591ZM254.974 13.7186V12.1876H254.435V13.7186H254.974ZM251.223 13.7186H250.684V15.2495H251.223V13.7186ZM249.617 13.7186V12.1876H249.078V13.7186H249.617ZM255.513 15.2195V13.6886H254.974V15.2195H255.513ZM257.119 21.3133H256.58V22.8443H257.119V21.3133ZM249.078 13.7186H248.539V15.2495H249.078V13.7186ZM258.197 3.06191H257.658V4.59287H258.197V3.06191ZM254.446 19.7824H253.907V21.3133H254.446V19.7824ZM262.477 3.06191H261.938V4.59287H262.477V3.06191ZM271.596 4.56285H271.057V6.09381H271.596V4.56285ZM252.301 18.2814V19.8124H252.84V18.2814H252.301ZM260.342 3.06191H259.803V4.59287H260.342V3.06191ZM257.658 15.2195V13.6886H257.119V15.2195H257.658ZM251.762 15.2195H251.223V16.7505H251.762V15.2195ZM256.052 3.06191H255.513V4.59287H256.052V3.06191ZM253.907 18.2814H253.368V19.8124H253.907V18.2814ZM251.223 18.2814V19.8124H251.762V18.2814H251.223ZM280.705 21.3133H280.166V22.8443H280.705V21.3133ZM281.244 19.7824H280.705V21.3133H281.244V19.7824ZM281.244 24.3752V22.8443H280.705V24.3752H281.244ZM280.166 22.8443H279.627V24.3752H280.166V22.8443ZM249.617 9.1257H249.078V10.6567H249.617V9.1257ZM278.021 16.7505H277.482V18.2814H278.021V16.7505ZM279.099 18.2814V16.7505H278.56V18.2814H279.099ZM259.264 22.8443V24.3752H259.803V22.8443H259.264ZM280.166 27.4071V25.8762H279.627V27.4071H280.166ZM279.099 19.7824H278.56V21.3133H279.099V19.7824ZM279.638 19.7824V21.3133H280.177V19.7824H279.638ZM257.119 22.8443V24.3752H257.658V22.8443H257.119ZM253.368 12.1876V10.6567H252.829V12.1876H253.368ZM251.762 10.6567V9.1257H251.223V10.6567H251.762ZM250.694 10.6567V9.1257H250.155V10.6567H250.694ZM254.446 12.1876V10.6567H253.907V12.1876H254.446ZM270.518 28.9381H271.057V27.4071H270.518V28.9381ZM279.638 25.8762V24.3452H279.099V25.8762H279.638ZM258.197 22.8443V24.3752H258.736V22.8443H258.197ZM268.373 28.9381H268.912V27.4071H268.373V28.9381ZM266.228 28.9381H266.767V27.4071H266.228V28.9381ZM273.741 16.7505H273.202V18.2814H273.741V16.7505ZM241.047 15.2195H240.508V16.7505H241.047V15.2195ZM256.052 19.7824V21.3133H256.591V19.7824H256.052ZM260.342 6.09381H259.803V7.62477H260.342V6.09381ZM240.508 13.7186H239.969V15.2495H240.508V13.7186ZM252.301 12.1876V10.6567H251.762V12.1876H252.301ZM258.197 6.09381H257.658V7.62477H258.197V6.09381ZM242.653 18.2814V16.7505H242.114V15.2195H241.575V16.7505H241.036V18.2814H241.575V19.8124H242.114V18.2814H242.653ZM242.653 18.2814V19.8124H243.192V18.2814H242.653ZM254.974 19.7824V21.3133H255.513V19.7824H254.974ZM259.803 18.2814V16.7505H259.264V18.2814H259.803ZM254.974 18.2814H254.435V19.8124H254.974V18.2814ZM268.373 22.8443H268.912V21.3133H268.373V22.8443ZM273.741 21.3133V19.7824H273.202V21.3133H273.741ZM272.663 7.62477H272.124V9.15572H272.663V7.62477ZM272.663 13.7186H272.124V15.2495H272.663V13.7186ZM273.202 19.7824V18.2514H272.663V19.7824H273.202ZM242.653 15.2195V13.6886H242.114V15.2195H242.653ZM241.047 13.7186V12.1876H240.508V13.7186H241.047ZM271.596 10.6567H271.057V12.1876H271.596V10.6567ZM270.518 7.62477H269.979V9.15572H270.518V7.62477ZM241.047 15.2195H241.586V13.6886H241.047V15.2195ZM262.477 6.09381H261.938V7.62477H262.477V6.09381ZM276.954 19.7824H276.415V21.3133H276.954V19.7824ZM249.078 18.2814V19.8124H249.617V18.2814H249.078ZM276.954 24.3752V22.8443H276.415V24.3752H276.954ZM276.415 22.8443V21.3133H275.876V22.8443H276.415ZM270.518 25.8762H271.057V24.3452H270.518V25.8762ZM273.741 10.6567H273.202V12.1876H273.741V10.6567ZM251.223 18.2814V16.7505H250.684V15.2195H250.145V16.7505H249.606V18.2814H250.145V19.8124H250.684V18.2814H251.223ZM249.078 18.2814V16.7505H248.539V15.2195H248V16.7505H247.461V18.2814H248V19.8124H248.539V18.2814H249.078ZM275.876 16.7505H275.337V18.2814H275.876V16.7505ZM274.808 13.7186H274.27V15.2495H274.808V13.7186ZM246.943 18.2814V16.7505H246.404V15.2195H245.865V16.7505H245.326V18.2814H245.865V19.8124H246.404V18.2814H246.943ZM258.197 16.7505V15.2195H257.658V16.7505H258.197ZM254.446 16.7505H253.907V18.2814H254.446V16.7505ZM244.798 18.2814V19.8124H245.337V18.2814H244.798ZM268.373 25.8762H268.912V24.3452H268.373V25.8762ZM244.798 18.2814V16.7505H244.259V15.2195H243.72V16.7505H243.181V18.2814H243.72V19.8124H244.259V18.2814H244.798ZM258.725 18.2814V16.7505H258.186V18.2814H258.725ZM251.762 16.7505V18.2814H252.301V16.7505H251.762ZM266.228 25.8762H266.767V24.3452H266.228V25.8762ZM252.829 16.7505V18.2814H253.368V16.7505H252.829ZM246.943 18.2814V19.8124H247.482V18.2814H246.943ZM301.068 18.2814H301.607V16.7505H301.068V18.2814ZM288.208 30.439H288.746V28.9081H288.208V30.439ZM289.814 30.439V28.9081H289.275V30.439H289.814ZM287.14 3.06191H287.679V1.53096H287.14V3.06191ZM288.746 28.9381H289.285V27.4071H288.746V28.9381ZM287.14 15.2195H287.679V13.6886H287.14V15.2195ZM287.14 12.1876H287.679V10.6567H287.14V12.1876ZM288.208 25.8762V27.4071H288.746V25.8762H288.208ZM287.14 6.09381H287.679V4.56285H287.14V6.09381ZM287.14 9.1257H287.679V7.59475H287.14V9.1257ZM289.275 12.1876H289.814V10.6567H289.275V12.1876ZM289.275 9.1257H289.814V7.59475H289.275V9.1257ZM289.275 3.06191H289.814V1.53096H289.275V3.06191ZM289.275 15.2195H289.814V13.6886H289.275V15.2195ZM289.275 27.4071H289.814V25.8762H289.275V27.4071ZM289.275 6.09381H289.814V4.56285H289.275V6.09381ZM293.565 9.1257H294.104V7.59475H293.565V9.1257ZM289.275 24.3752H289.814V22.8443H289.275V24.3752ZM289.275 21.3133H289.814V19.7824H289.275V21.3133ZM287.14 18.2814H287.679V16.7505H287.14V18.2814ZM284.995 6.09381H285.534V4.56285H284.995V6.09381ZM284.995 9.1257H285.534V7.59475H284.995V9.1257ZM284.995 12.1876H285.534V10.6567H284.995V12.1876ZM285.523 18.2814V16.7505H284.985V18.2814H285.523ZM287.669 30.439V28.9081H287.13V30.439H287.669ZM284.995 15.2195H285.534V13.6886H284.995V15.2195ZM287.14 21.3133H287.679V19.7824H287.14V21.3133ZM284.456 16.7505H284.995V15.2195H284.456V16.7505ZM283.917 13.7186V15.2495H284.456V13.7186H283.917ZM283.917 18.2814H284.456V16.7505H283.917V18.2814ZM286.601 22.8443H287.14V21.3133H286.601V22.8443ZM287.669 24.3752V22.8443H287.13V24.3752H287.669ZM286.062 30.439H286.601V28.9081H286.062V30.439ZM286.062 19.7824V21.3133H286.601V19.7824H286.062ZM286.062 24.3752H286.601V22.8443H286.062V24.3752ZM287.14 27.4071H287.679V25.8762H287.14V27.4071ZM286.601 28.9381H287.14V27.4071H286.601V28.9381ZM286.062 25.8762V27.4071H286.601V25.8762H286.062ZM284.995 3.06191H285.534V1.53096H284.995V3.06191ZM292.498 15.2195H293.037V13.6886H292.498V15.2195ZM292.498 21.3133H293.037V19.7824H292.498V21.3133ZM292.498 9.1257H293.037V7.59475H292.498V9.1257ZM292.498 12.1876H293.037V10.6567H292.498V12.1876ZM292.498 18.2814H293.037V16.7505H292.498V18.2814ZM292.498 30.439H293.037V28.9081H292.498V30.439ZM291.42 3.06191H291.959V1.53096H291.42V3.06191ZM292.498 24.3752H293.037V22.8443H292.498V24.3752ZM292.498 27.4071H293.037V25.8762H292.498V27.4071ZM292.498 6.09381H293.037V4.56285H292.498V6.09381ZM293.565 18.2814H294.104V16.7505H293.565V18.2814ZM293.565 15.2195H294.104V13.6886H293.565V15.2195ZM290.353 30.439H290.892V28.9081H290.353V30.439ZM293.565 21.3133H294.104V19.7824H293.565V21.3133ZM293.565 12.1876H294.104V10.6567H293.565V12.1876ZM293.565 30.439H294.104V28.9081H293.565V30.439ZM293.565 27.4071H294.104V25.8762H293.565V27.4071ZM293.565 24.3752H294.104V22.8443H293.565V24.3752ZM291.42 6.09381H291.959V4.56285H291.42V6.09381ZM290.353 12.1876H290.892V10.6567H290.353V12.1876ZM290.353 18.2814H290.892V16.7505H290.353V18.2814ZM290.353 15.2195H290.892V13.6886H290.353V15.2195ZM290.353 9.1257H290.892V7.59475H290.353V9.1257ZM290.353 6.09381H290.892V4.56285H290.353V6.09381ZM290.353 21.3133H290.892V19.7824H290.353V21.3133ZM290.353 27.4071H290.892V25.8762H290.353V27.4071ZM290.353 24.3752H290.892V22.8443H290.353V24.3752ZM291.42 12.1876H291.959V10.6567H291.42V12.1876ZM291.42 21.3133H291.959V19.7824H291.42V21.3133ZM291.42 15.2195H291.959V13.6886H291.42V15.2195ZM291.42 18.2814H291.959V16.7505H291.42V18.2814ZM291.42 9.1257H291.959V7.59475H291.42V9.1257ZM291.42 27.4071H291.959V25.8762H291.42V27.4071ZM291.42 30.439H291.959V28.9081H291.42V30.439ZM291.42 24.3752H291.959V22.8443H291.42V24.3752ZM290.353 3.06191H290.892V1.53096H290.353V3.06191ZM289.275 18.2814H289.814V16.7505H289.275V18.2814ZM269.451 27.4071V28.9381H269.99V27.4071H269.451ZM271.057 30.439H271.596V28.9081H271.057V30.439ZM269.99 28.9381V30.469H270.529V28.9381H269.99ZM267.845 28.9381V30.469H268.384V28.9381H267.845ZM268.912 30.439H269.451V28.9081H268.912V30.439ZM265.161 27.4071V28.9381H265.7V27.4071H265.161ZM265.7 28.9381V30.469H266.239V28.9381H265.7ZM266.767 30.439H267.306V28.9081H266.767V30.439ZM264.622 30.439H265.161V28.9081H264.622V30.439ZM277.493 30.439H278.031V28.9081H277.493V30.439ZM275.347 30.439H275.886V28.9081H275.347V30.439ZM274.27 28.9381V30.469H274.808V28.9381H274.27ZM275.876 27.4071V28.9381H276.415V27.4071H275.876ZM271.596 27.4071V28.9381H272.135V27.4071H271.596ZM276.415 28.9381V30.469H276.954V28.9381H276.415ZM272.124 28.9381V30.469H272.663V28.9381H272.124ZM273.202 30.439H273.741V28.9081H273.202V30.439ZM273.741 27.4071V28.9381H274.28V27.4071H273.741ZM267.306 27.4071V28.9381H267.845V27.4071H267.306ZM246.404 28.9381V27.4071H245.865V28.9381H245.326V30.469H245.865V32H246.404V30.469H246.943V28.9381H246.404ZM252.829 28.9381V27.4071H252.29V28.9381H251.751V30.469H252.29V32H252.829V30.469H253.368V28.9381H252.829ZM248.549 28.9381V27.4071H248.01V28.9381H247.471V30.469H248.01V32H248.549V30.469H249.088V28.9381H248.549ZM250.694 28.9381V27.4071H250.155V28.9381H249.617V30.469H250.155V32H250.694V30.469H251.233V28.9381H250.694ZM244.259 28.9381V27.4071H243.72V28.9381H243.181V30.469H243.72V32H244.259V30.469H244.798V28.9381H244.259ZM238.363 28.9381V30.469H237.824V32H237.285V30.469H236.746V32H236.207V30.469H235.668V32H235.129V30.469H234.59V32H234.051V30.469H233.512V32H232.973V30.469H232.434V32H231.896V30.469H231.357V32H230.818V30.469H230.279V32H229.74V30.469H229.201V32H228.662V30.469H228.123V32H227.584V30.469H227.045V32H226.506V30.469H225.967V32H225.429V30.469H224.89V32H224.351V30.469H223.812V32H223.273V30.469H222.734V32H222.195V30.469H221.656V32H221.117V30.469H220.578V32H220.039V30.469H219.5V32H218.961V30.469H218.423V32H217.884V30.469H217.345V32H216.806V30.469H216.267V32H215.728V30.469H215.189V32H214.65V30.469H214.111V32H213.572V30.469H213.033V32H212.494V30.469H211.955V32H211.417V30.469H210.878V32H210.339V30.469H209.8V32H209.261V30.469H208.722V32H207.116V30.469H206.577V32H204.971V30.469H204.432V32H202.826V30.469H202.287V32H200.68V30.469H200.141V32H198.535V30.469H197.996V32H196.39V30.469H195.851V32H194.245V30.469H193.706V32H192.1V30.469H191.561V32H-6.53624e-05V0H181.015V1.53096H181.554V0H183.16V1.53096H183.699V0H185.305V1.53096H185.844V0H187.45V1.53096H187.989V0H189.596V1.53096H190.134V0H191.741V1.53096H192.28V0H193.886V1.53096H194.425V0H196.031V1.53096H196.57V0H198.176V1.53096H198.715V0H199.254V1.53096H199.793V0H200.332V1.53096H200.871V0H201.41V1.53096H201.948V0H202.487V1.53096H203.026V0H203.565V1.53096H204.104V0H204.643V1.53096H205.182V0H205.721V1.53096H206.26V0H206.799V1.53096H207.338V0H208.944V1.53096H209.483V0H210.022V1.53096H210.561V0H211.1V1.53096H211.638V0H212.177V1.53096H212.716V0H213.255V1.53096H213.794V0H214.333V1.53096H214.872V0H215.411V1.53096H215.95V0H216.489V1.53096H217.028V0H217.567V1.53096H218.105V3.06191H217.567V4.59287H218.105V3.06191H218.644V4.59287H219.183V3.06191H218.644V1.53096H219.183V0H219.722V1.53096H220.261V3.06191H219.722V4.59287H220.261V3.06191H220.8V4.59287H221.339V3.06191H220.8V1.53096H221.339V0H221.878V1.53096H222.417V3.06191H221.878V4.59287H222.417V3.06191H222.956V4.59287H223.495V3.06191H222.956V1.53096H223.495V0H224.034V1.53096H224.573V3.06191H224.034V4.59287H224.573V3.06191H225.111V4.59287H225.65V3.06191H225.111V1.53096H225.65V0H226.189V1.53096H226.728V3.06191H226.189V4.59287H226.728V3.06191H227.267V4.59287H227.806V3.06191H227.267V1.53096H227.806V0H228.345V1.53096H228.884V3.06191H228.345V4.59287H228.884V3.06191H229.423V4.59287H229.962V6.12383H229.423V7.65479H228.884V6.12383H228.345V7.65479H228.884V9.18574H228.345V10.7167H228.884V9.18574H229.423V10.7167H229.962V9.18574H229.423V7.65479H229.962V6.12383H230.501V7.65479H231.04V9.18574H230.501V10.7167H231.04V9.18574H231.579V10.7167H232.117V12.2477H231.579V13.7786H231.04V12.2477H230.501V13.7786H231.04V15.3096H230.501V16.8405H231.04V15.3096H231.579V16.8405H232.117V15.3096H231.579V13.7786H232.117V12.2477H232.656V13.7786H233.195V15.3096H232.656V16.8405H233.195V15.3096H233.734V16.8405H234.273V18.3715H233.734V19.9024H233.195V18.3715H232.656V19.9024H233.195V21.4334H232.656V22.9644H233.195V21.4334H233.734V22.9644H234.273V21.4334H233.734V19.9024H234.273V18.3715H234.812V19.9024H235.351V21.4334H234.812V22.9644H235.351V21.4334H235.89V22.9644H236.429V24.4953H235.89V26.0263H235.351V24.4953H234.812V26.0263H235.351V27.5572H234.812V29.0882H235.351V27.5572H235.89V29.0882H236.429V27.5572H235.89V26.0263H236.429V24.4953H236.968V26.0263H237.507V27.5572H236.968V29.0882H237.507V27.5572H238.046V29.0882H238.585L238.363 28.9381ZM183.699 6.09381H183.16V7.62477H183.699V6.09381ZM185.834 12.1876H185.295V13.7186H185.834V12.1876ZM185.834 6.09381H185.295V7.62477H185.834V6.09381ZM187.979 18.2814H187.44V19.8124H187.979V18.2814ZM187.979 12.1876H187.44V13.7186H187.979V12.1876ZM187.979 6.09381H187.44V7.62477H187.979V6.09381ZM190.124 24.3752H189.585V25.9062H190.124V24.3752ZM190.124 18.2814H189.585V19.8124H190.124V18.2814ZM190.124 12.1876H189.585V13.7186H190.124V12.1876ZM190.124 6.09381H189.585V7.62477H190.124V6.09381ZM192.269 24.3752H191.73V25.9062H192.269V24.3752ZM192.269 18.2814H191.73V19.8124H192.269V18.2814ZM192.269 12.1876H191.73V13.7186H192.269V12.1876ZM192.269 6.09381H191.73V7.62477H192.269V6.09381ZM193.347 3.06191H192.808V4.59287H193.347V3.06191ZM194.414 24.3752H193.875V25.9062H194.414V24.3752ZM194.414 18.2814H193.875V19.8124H194.414V18.2814ZM194.414 12.1876H193.875V13.7186H194.414V12.1876ZM194.414 6.09381H193.875V7.62477H194.414V6.09381ZM195.481 9.1257H194.942V10.6567H195.481V9.1257ZM195.481 3.06191H194.942V4.59287H195.481V3.06191ZM196.559 24.3752H196.02V25.9062H196.559V24.3752ZM196.559 18.2814H196.02V19.8124H196.559V18.2814ZM196.559 12.1876H196.02V13.7186H196.559V12.1876ZM196.559 6.09381H196.02V7.62477H196.559V6.09381ZM197.626 15.2195H197.088V16.7505H197.626V15.2195ZM197.626 9.1257H197.088V10.6567H197.626V9.1257ZM197.626 3.06191H197.088V4.59287H197.626V3.06191ZM198.704 24.3752H198.165V25.9062H198.704V24.3752ZM198.704 18.2814H198.165V19.8124H198.704V18.2814ZM198.704 12.1876H198.165V13.7186H198.704V12.1876ZM198.704 6.09381H198.165V7.62477H198.704V6.09381ZM199.772 21.3133H199.233V22.8443H199.772V21.3133ZM199.772 15.2195H199.233V16.7505H199.772V15.2195ZM199.772 9.1257H199.233V10.6567H199.772V9.1257ZM199.772 3.06191H199.233V4.59287H199.772V3.06191ZM200.849 24.3752H200.311V25.9062H200.849V24.3752ZM200.849 18.2814H200.311V19.8124H200.849V18.2814ZM200.849 12.1876H200.311V13.7186H200.849V12.1876ZM200.849 6.09381H200.311V7.62477H200.849V6.09381ZM201.917 27.4071H201.378V28.9381H201.917V27.4071ZM201.917 21.3133H201.378V22.8443H201.917V21.3133ZM201.917 15.2195H201.378V16.7505H201.917V15.2195ZM201.917 9.1257H201.378V10.6567H201.917V9.1257ZM201.917 6.09381H201.378V7.62477H201.917V6.09381ZM201.917 3.06191H201.378V4.59287H201.917V3.06191ZM202.984 24.3752H202.445V25.9062H202.984V24.3752ZM202.984 18.2814H202.445V19.8124H202.984V18.2814ZM202.984 12.1876H202.445V13.7186H202.984V12.1876ZM202.984 6.09381H202.445V7.62477H202.984V6.09381ZM204.062 27.4071H203.523V28.9381H204.062V27.4071ZM204.062 21.3133H203.523V22.8443H204.062V21.3133ZM204.062 15.2195H203.523V16.7505H204.062V15.2195ZM204.062 12.1876H203.523V13.7186H204.062V12.1876ZM204.062 9.1257H203.523V10.6567H204.062V9.1257ZM204.062 6.09381H203.523V7.62477H204.062V6.09381ZM204.062 3.06191H203.523V4.59287H204.062V3.06191ZM205.129 24.3752H204.59V25.9062H205.129V24.3752ZM205.129 18.2814H204.59V19.8124H205.129V18.2814ZM205.129 12.1876H204.59V13.7186H205.129V12.1876ZM205.129 6.09381H204.59V7.62477H205.129V6.09381ZM206.207 27.4071H205.668V28.9381H206.207V27.4071ZM206.207 21.3133H205.668V22.8443H206.207V21.3133ZM206.207 18.2814H205.668V19.8124H206.207V18.2814ZM206.207 15.2195H205.668V16.7505H206.207V15.2195ZM206.207 12.1876H205.668V13.7186H206.207V12.1876ZM206.207 9.1257H205.668V10.6567H206.207V9.1257ZM206.207 6.09381H205.668V7.62477H206.207V6.09381ZM206.207 3.06191H205.668V4.59287H206.207V3.06191ZM207.274 24.3752H206.735V25.9062H207.274V24.3752ZM207.274 18.2814H206.735V19.8124H207.274V18.2814ZM207.274 12.1876H206.735V13.7186H207.274V12.1876ZM207.274 6.09381H206.735V7.62477H207.274V6.09381ZM208.352 27.4071H207.813V28.9381H208.352V27.4071ZM208.352 24.3752H207.813V25.9062H208.352V24.3752ZM208.352 21.3133H207.813V22.8443H208.352V21.3133ZM208.352 18.2814H207.813V19.8124H208.352V18.2814ZM208.352 15.2195H207.813V16.7505H208.352V15.2195ZM208.352 12.1876H207.813V13.7186H208.352V12.1876ZM208.352 9.1257H207.813V10.6567H208.352V9.1257ZM208.352 6.09381H207.813V7.62477H208.352V6.09381ZM208.352 3.06191H207.813V4.59287H208.352V3.06191ZM209.419 24.3752H208.88V25.9062H209.419V24.3752ZM209.419 18.2814H208.88V19.8124H209.419V18.2814ZM209.419 12.1876H208.88V13.7186H209.419V12.1876ZM209.419 6.09381H208.88V7.62477H209.419V6.09381ZM210.497 27.4071H209.958V28.9381H210.497V27.4071ZM210.497 24.3752H209.958V25.9062H210.497V24.3752ZM210.497 21.3133H209.958V22.8443H210.497V21.3133ZM210.497 18.2814H209.958V19.8124H210.497V18.2814ZM210.497 15.2195H209.958V16.7505H210.497V15.2195ZM210.497 12.1876H209.958V13.7186H210.497V12.1876ZM210.497 9.1257H209.958V10.6567H210.497V9.1257ZM210.497 6.09381H209.958V7.62477H210.497V6.09381ZM210.497 3.06191H209.958V4.59287H210.497V3.06191ZM211.564 24.3752H211.026V25.9062H211.564V24.3752ZM211.564 18.2814H211.026V19.8124H211.564V18.2814ZM211.564 12.1876H211.026V13.7186H211.564V12.1876ZM211.564 6.09381H211.026V7.62477H211.564V6.09381ZM211.564 3.06191H211.026V4.59287H211.564V3.06191ZM212.632 27.4071H212.093V28.9381H212.632V27.4071ZM212.632 24.3752H212.093V25.9062H212.632V24.3752ZM212.632 21.3133H212.093V22.8443H212.632V21.3133ZM212.632 18.2814H212.093V19.8124H212.632V18.2814ZM212.632 15.2195H212.093V16.7505H212.632V15.2195ZM212.632 12.1876H212.093V13.7186H212.632V12.1876ZM212.632 9.1257H212.093V10.6567H212.632V9.1257ZM212.632 6.09381H212.093V7.62477H212.632V6.09381ZM212.632 3.06191H212.093V4.59287H212.632V3.06191ZM213.71 24.3752H213.171V25.9062H213.71V24.3752ZM213.71 18.2814H213.171V19.8124H213.71V18.2814ZM213.71 12.1876H213.171V13.7186H213.71V12.1876ZM213.71 9.1257H213.171V10.6567H213.71V9.1257ZM213.71 6.09381H213.171V7.62477H213.71V6.09381ZM213.71 3.06191H213.171V4.59287H213.71V3.06191ZM214.777 27.4071H214.238V28.9381H214.777V27.4071ZM214.777 24.3752H214.238V25.9062H214.777V24.3752ZM214.777 21.3133H214.238V22.8443H214.777V21.3133ZM214.777 18.2814H214.238V19.8124H214.777V18.2814ZM214.777 15.2195H214.238V16.7505H214.777V15.2195ZM214.777 12.1876H214.238V13.7186H214.777V12.1876ZM214.777 9.1257H214.238V10.6567H214.777V9.1257ZM214.777 6.09381H214.238V7.62477H214.777V6.09381ZM214.777 3.06191H214.238V4.59287H214.777V3.06191ZM215.855 24.3752H215.316V25.9062H215.855V24.3752ZM215.855 18.2814H215.316V19.8124H215.855V18.2814ZM215.855 15.2195H215.316V16.7505H215.855V15.2195ZM215.855 12.1876H215.316V13.7186H215.855V12.1876ZM215.855 9.1257H215.316V10.6567H215.855V9.1257ZM215.855 6.09381H215.316V7.62477H215.855V6.09381ZM215.855 3.06191H215.316V4.59287H215.855V3.06191ZM216.922 27.4071H216.383V28.9381H216.922V27.4071ZM216.922 24.3752H216.383V25.9062H216.922V24.3752ZM216.922 21.3133H216.383V22.8443H216.922V21.3133ZM216.922 18.2814H216.383V19.8124H216.922V18.2814ZM216.922 15.2195H216.383V16.7505H216.922V15.2195ZM216.922 12.1876H216.383V13.7186H216.922V12.1876ZM216.922 9.1257H216.383V10.6567H216.922V9.1257ZM216.922 6.09381H216.383V7.62477H216.922V6.09381ZM216.922 3.06191H216.383V4.59287H216.922V3.06191ZM218 24.3752H217.461V25.9062H218V24.3752ZM218 21.3133H217.461V22.8443H218V21.3133ZM218 18.2814H217.461V19.8124H218V18.2814ZM218 15.2195H217.461V16.7505H218V15.2195ZM218 12.1876H217.461V13.7186H218V12.1876ZM218 9.1257H217.461V10.6567H218V9.1257ZM218 6.09381H217.461V7.62477H218V6.09381ZM219.067 27.4071H218.528V28.9381H219.067V27.4071ZM219.067 24.3752H218.528V25.9062H219.067V24.3752ZM219.067 21.3133H218.528V22.8443H219.067V21.3133ZM219.067 18.2814H218.528V19.8124H219.067V18.2814ZM219.067 15.2195H218.528V16.7505H219.067V15.2195ZM219.067 12.1876H218.528V13.7186H219.067V12.1876ZM219.067 9.1257H218.528V10.6567H219.067V9.1257ZM219.067 6.09381H218.528V7.62477H219.067V6.09381ZM220.145 27.4071H219.606V28.9381H220.145V27.4071ZM220.145 24.3752H219.606V25.9062H220.145V24.3752ZM220.145 21.3133H219.606V22.8443H220.145V21.3133ZM220.145 18.2814H219.606V19.8124H220.145V18.2814ZM220.145 15.2195H219.606V16.7505H220.145V15.2195ZM220.145 12.1876H219.606V13.7186H220.145V12.1876ZM221.212 27.4071H220.673V28.9381H221.212V27.4071ZM221.212 24.3752H220.673V25.9062H221.212V24.3752ZM221.212 21.3133H220.673V22.8443H221.212V21.3133ZM221.212 18.2814H220.673V19.8124H221.212V18.2814ZM221.212 15.2195H220.673V16.7505H221.212V15.2195ZM221.212 12.1876H220.673V13.7186H221.212V12.1876ZM221.212 6.09381H220.673V7.62477H220.134V6.09381H219.595V7.62477H220.134V9.15572H219.595V10.6867H220.134V9.15572H220.673V10.6867H221.212V9.15572H220.673V7.62477H221.212V6.09381ZM222.279 27.4071H221.741V28.9381H222.279V27.4071ZM222.279 24.3752H221.741V25.9062H222.279V24.3752ZM222.279 21.3133H221.741V22.8443H222.279V21.3133ZM222.279 18.2814H221.741V19.8124H222.279V18.2814ZM223.357 27.4071H222.818V28.9381H223.357V27.4071ZM223.357 24.3752H222.818V25.9062H223.357V24.3752ZM223.357 21.3133H222.818V22.8443H223.357V21.3133ZM223.357 18.2814H222.818V19.8124H223.357V18.2814ZM223.357 12.1876H222.818V13.7186H222.279V12.1876H221.741V13.7186H222.279V15.2495H221.741V16.7805H222.279V15.2495H222.818V16.7805H223.357V15.2495H222.818V13.7186H223.357V12.1876ZM223.357 6.09381H222.818V7.62477H222.279V6.09381H221.741V7.62477H222.279V9.15572H221.741V10.6867H222.279V9.15572H222.818V10.6867H223.357V9.15572H222.818V7.62477H223.357V6.09381ZM224.425 27.4071H223.886V28.9381H224.425V27.4071ZM224.425 24.3752H223.886V25.9062H224.425V24.3752ZM225.502 27.4071H224.964V28.9381H225.502V27.4071ZM225.502 24.3752H224.964V25.9062H225.502V24.3752ZM225.502 18.2814H224.964V19.8124H224.425V18.2814H223.886V19.8124H224.425V21.3433H223.886V22.8743H224.425V21.3433H224.964V22.8743H225.502V21.3433H224.964V19.8124H225.502V18.2814ZM225.502 12.1876H224.964V13.7186H224.425V12.1876H223.886V13.7186H224.425V15.2495H223.886V16.7805H224.425V15.2495H224.964V16.7805H225.502V15.2495H224.964V13.7186H225.502V12.1876ZM225.502 6.09381H224.964V7.62477H224.425V6.09381H223.886V7.62477H224.425V9.15572H223.886V10.6867H224.425V9.15572H224.964V10.6867H225.502V9.15572H224.964V7.62477H225.502V6.09381ZM227.648 24.3752H227.109V25.9062H226.57V24.3752H226.031V25.9062H226.57V27.4372H226.031V28.9681H226.57V27.4372H227.109V28.9681H227.648V27.4372H227.109V25.9062H227.648V24.3752ZM227.648 18.2814H227.109V19.8124H226.57V18.2814H226.031V19.8124H226.57V21.3433H226.031V22.8743H226.57V21.3433H227.109V22.8743H227.648V21.3433H227.109V19.8124H227.648V18.2814ZM227.648 12.1876H227.109V13.7186H226.57V12.1876H226.031V13.7186H226.57V15.2495H226.031V16.7805H226.57V15.2495H227.109V16.7805H227.648V15.2495H227.109V13.7186H227.648V12.1876ZM227.648 6.09381H227.109V7.62477H226.57V6.09381H226.031V7.62477H226.57V9.15572H226.031V10.6867H226.57V9.15572H227.109V10.6867H227.648V9.15572H227.109V7.62477H227.648V6.09381ZM229.793 24.3752H229.254V25.9062H228.715V24.3752H228.176V25.9062H228.715V27.4372H228.176V28.9681H228.715V27.4372H229.254V28.9681H229.793V27.4372H229.254V25.9062H229.793V24.3752ZM229.793 18.2814H229.254V19.8124H228.715V18.2814H228.176V19.8124H228.715V21.3433H228.176V22.8743H228.715V21.3433H229.254V22.8743H229.793V21.3433H229.254V19.8124H229.793V18.2814ZM229.793 12.1876H229.254V13.7186H228.715V12.1876H228.176V13.7186H228.715V15.2495H228.176V16.7805H228.715V15.2495H229.254V16.7805H229.793V15.2495H229.254V13.7186H229.793V12.1876ZM231.927 24.3752H231.388V25.9062H230.849V24.3752H230.31V25.9062H230.849V27.4372H230.31V28.9681H230.849V27.4372H231.388V28.9681H231.927V27.4372H231.388V25.9062H231.927V24.3752ZM231.927 18.2814H231.388V19.8124H230.849V18.2814H230.31V19.8124H230.849V21.3433H230.31V22.8743H230.849V21.3433H231.388V22.8743H231.927V21.3433H231.388V19.8124H231.927V18.2814ZM234.072 24.3752H233.533V25.9062H232.995V24.3752H232.456V25.9062H232.995V27.4372H232.456V28.9681H232.995V27.4372H233.533V28.9681H234.072V27.4372H233.533V25.9062H234.072V24.3752ZM239.969 28.9381V27.4071H239.43V28.9381H238.891V30.469H239.43V32H239.969V30.469H240.508V28.9381H239.969ZM284.995 21.3133H285.534V19.7824H284.995V21.3133ZM242.114 28.9381V27.4071H241.575V28.9381H241.036V30.469H241.575V32H242.114V30.469H242.653V28.9381H242.114ZM260.342 28.9381V30.469H260.881V28.9381H260.342ZM259.264 28.9381V30.469H259.803V28.9381H259.264ZM261.409 28.9381V30.469H261.948V28.9381H261.409ZM262.477 28.9381V30.469H263.016V28.9381H262.477ZM257.119 28.9381V30.469H257.658V28.9381H257.119ZM256.052 28.9381V30.469H256.591V28.9381H256.052ZM258.197 28.9381V30.469H258.736V28.9381H258.197ZM254.974 28.9381V27.4071H254.435V28.9381H253.896V30.469H254.435V32H254.974V30.469H255.513V28.9381H254.974ZM263.555 28.9381V30.469H264.093V28.9381H263.555ZM281.772 7.62477V9.15572H282.311V7.62477H281.772ZM282.85 6.09381H283.389V4.56285H282.85V6.09381ZM282.85 9.1257H283.389V7.59475H282.85V9.1257ZM285.523 30.439V28.9081H284.985V30.439H285.523ZM282.85 3.06191H283.389V1.53096H282.85V3.06191ZM282.85 15.2195H283.389V13.6886H282.85V15.2195ZM283.389 12.1876V10.6567H282.85V12.1876H283.389ZM281.772 12.1876H282.311V10.6567H281.772V12.1876ZM278.021 27.4071V28.9381H278.56V27.4071H278.021ZM283.917 30.439H284.456V28.9081H283.917V30.439ZM284.456 22.8443H284.995V21.3133H284.456V22.8443ZM285.523 24.3752V22.8443H284.985V24.3752H285.523ZM283.917 24.3752H284.456V22.8443H283.917V24.3752ZM281.772 13.7186V15.2495H282.311V13.7186H281.772ZM283.917 19.7824V21.3133H284.456V19.7824H283.917ZM284.995 27.4071H285.534V25.8762H284.995V27.4071ZM284.456 28.9381H284.995V27.4071H284.456V28.9381ZM283.917 25.8762V27.4071H284.456V25.8762H283.917ZM282.311 10.6567H282.85V9.1257H282.311V10.6567ZM280.705 28.9381V30.469H281.244V28.9381H280.705ZM281.772 30.439H282.311V28.9081H281.772V30.439ZM281.244 25.8762H280.705V27.4071H281.244V25.8762ZM282.311 28.9381H282.85V27.4071H282.311V28.9381ZM278.56 28.9381V30.469H279.099V28.9381H278.56ZM282.311 16.7505H282.85V15.2195H282.311V16.7505ZM280.166 27.4071V28.9381H280.705V27.4071H280.166ZM279.638 30.439H280.177V28.9081H279.638V30.439ZM281.772 25.8762V27.4071H282.311V25.8762H281.772ZM282.85 21.3133H283.389V19.7824H282.85V21.3133ZM283.389 18.2814V16.7505H282.85V18.2814H283.389ZM281.772 19.7824V21.3133H282.311V19.7824H281.772ZM281.772 18.2814H282.311V16.7505H281.772V18.2814ZM282.85 27.4071H283.389V25.8762H282.85V27.4071ZM282.311 22.8443H282.85V21.3133H282.311V22.8443ZM283.389 24.3752V22.8443H282.85V24.3752H283.389ZM281.772 24.3752H282.311V22.8443H281.772V24.3752ZM312.861 15.2195H313.399V13.6886H312.861V15.2195ZM308.57 21.3133H309.109V19.7824H308.57V21.3133ZM308.57 15.2195H309.109V13.6886H308.57V15.2195ZM308.57 9.1257H309.109V7.59475H308.57V9.1257ZM308.57 27.4071H309.109V25.8762H308.57V27.4071ZM308.57 30.439H309.109V28.9081H308.57V30.439ZM307.503 12.1876H308.042V10.6567H307.503V12.1876ZM308.57 3.06191H309.109V1.53096H308.57V3.06191ZM307.503 18.2814H308.042V16.7505H307.503V18.2814ZM307.503 6.09381H308.042V4.56285H307.503V6.09381ZM310.715 9.1257H311.254V7.59475H310.715V9.1257ZM309.648 30.439H310.187V28.9081H309.648V30.439ZM309.648 6.09381H310.187V4.56285H309.648V6.09381ZM310.715 21.3133H311.254V19.7824H310.715V21.3133ZM310.715 15.2195H311.254V13.6886H310.715V15.2195ZM310.715 27.4071H311.254V25.8762H310.715V27.4071ZM309.648 24.3752H310.187V22.8443H309.648V24.3752ZM309.648 18.2814H310.187V16.7505H309.648V18.2814ZM309.648 12.1876H310.187V10.6567H309.648V12.1876ZM307.503 24.3752H308.042V22.8443H307.503V24.3752ZM305.358 12.1876H305.897V10.6567H305.358V12.1876ZM305.358 24.3752H305.897V22.8443H305.358V24.3752ZM307.503 30.439H308.042V28.9081H307.503V30.439ZM305.358 18.2814H305.897V16.7505H305.358V18.2814ZM304.291 3.06191H304.83V1.53096H304.291V3.06191ZM304.291 18.2814H304.83V16.7505H304.291V18.2814ZM304.291 15.2195H304.83V13.6886H304.291V15.2195ZM304.291 9.1257H304.83V7.59475H304.291V9.1257ZM305.358 30.439H305.897V28.9081H305.358V30.439ZM306.436 15.2195H306.975V13.6886H306.436V15.2195ZM305.358 6.09381H305.897V4.56285H305.358V6.09381ZM306.436 3.06191H306.975V1.53096H306.436V3.06191ZM306.436 21.3133H306.975V19.7824H306.436V21.3133ZM306.436 9.1257H306.975V7.59475H306.436V9.1257ZM306.436 24.3752H306.975V22.8443H306.436V24.3752ZM306.436 30.439H306.975V28.9081H306.436V30.439ZM306.436 27.4071H306.975V25.8762H306.436V27.4071ZM313.938 6.09381H314.477V4.56285H313.938V6.09381ZM318.218 12.1876H318.757V10.6567H318.218V12.1876ZM318.218 6.09381H318.757V4.56285H318.218V6.09381ZM320.363 30.439H320.902V28.9081H320.363V30.439ZM318.218 18.2814H318.757V16.7505H318.218V18.2814ZM316.073 6.09381H316.612V4.56285H316.073V6.09381ZM320.363 24.3752H320.902V22.8443H320.363V24.3752ZM318.218 24.3752H318.757V22.8443H318.218V24.3752ZM317.151 27.4071H317.69V25.8762H317.151V27.4071ZM318.218 30.439H318.757V28.9081H318.218V30.439ZM311.793 30.439H312.332V28.9081H311.793V30.439ZM324.653 30.439H325.192V28.9081H324.653V30.439ZM324.653 24.3752H325.192V22.8443H324.653V24.3752ZM326.799 28.9381V30.469H327.337V28.9381H326.799ZM320.363 18.2814H320.902V16.7505H320.363V18.2814ZM322.508 18.2814H323.047V16.7505H322.508V18.2814ZM316.073 12.1876H316.612V10.6567H316.073V12.1876ZM322.508 30.439H323.047V28.9081H322.508V30.439ZM322.508 24.3752H323.047V22.8443H322.508V24.3752ZM320.363 12.1876H320.902V10.6567H320.363V12.1876ZM312.861 27.4071H313.399V25.8762H312.861V27.4071ZM312.861 21.3133H313.399V19.7824H312.861V21.3133ZM311.793 6.09381H312.332V4.56285H311.793V6.09381ZM229.793 3.06191V4.59287H230.332V3.06191H230.871V1.53096H230.332V0H229.793V1.53096H229.254V3.06191H229.793ZM311.793 24.3752H312.332V22.8443H311.793V24.3752ZM313.938 30.439H314.477V28.9081H313.938V30.439ZM311.793 12.1876H312.332V10.6567H311.793V12.1876ZM311.793 18.2814H312.332V16.7505H311.793V18.2814ZM304.291 21.3133H304.83V19.7824H304.291V21.3133ZM315.006 21.3133H315.545V19.7824H315.006V21.3133ZM316.073 30.439H316.612V28.9081H316.073V30.439ZM316.073 24.3752H316.612V22.8443H316.073V24.3752ZM315.006 27.4071H315.545V25.8762H315.006V27.4071ZM313.938 24.3752H314.477V22.8443H313.938V24.3752ZM316.073 18.2814H316.612V16.7505H316.073V18.2814ZM313.938 18.2814H314.477V16.7505H313.938V18.2814ZM313.938 12.1876H314.477V10.6567H313.938V12.1876ZM296.788 24.3752H297.327V22.8443H296.788V24.3752ZM296.788 12.1876H297.327V10.6567H296.788V12.1876ZM296.788 18.2814H297.327V16.7505H296.788V18.2814ZM296.788 6.09381H297.327V4.56285H296.788V6.09381ZM296.788 21.3133H297.327V19.7824H296.788V21.3133ZM297.855 30.439H298.394V28.9081H297.855V30.439ZM295.71 3.06191H296.249V1.53096H295.71V3.06191ZM296.788 30.439H297.327V28.9081H296.788V30.439ZM296.788 27.4071H297.327V25.8762H296.788V27.4071ZM293.565 6.09381H294.104V4.56285H293.565V6.09381ZM297.855 15.2195H298.394V13.6886H297.855V15.2195ZM297.855 12.1876H298.394V10.6567H297.855V12.1876ZM297.855 9.1257H298.394V7.59475H297.855V9.1257ZM297.855 6.09381H298.394V4.56285H297.855V6.09381ZM295.71 6.09381H296.249V4.56285H295.71V6.09381ZM297.855 21.3133H298.394V19.7824H297.855V21.3133ZM297.855 24.3752H298.394V22.8443H297.855V24.3752ZM297.855 18.2814H298.394V16.7505H297.855V18.2814ZM297.855 27.4071H298.394V25.8762H297.855V27.4071ZM294.643 6.09381H295.182V4.56285H294.643V6.09381ZM294.643 18.2814H295.182V16.7505H294.643V18.2814ZM294.643 21.3133H295.182V19.7824H294.643V21.3133ZM294.643 15.2195H295.182V13.6886H294.643V15.2195ZM294.643 24.3752H295.182V22.8443H294.643V24.3752ZM293.565 3.06191H294.104V1.53096H293.565V3.06191ZM294.643 12.1876H295.182V10.6567H294.643V12.1876ZM294.643 30.439H295.182V28.9081H294.643V30.439ZM294.643 27.4071H295.182V25.8762H294.643V27.4071ZM304.291 24.3752H304.83V22.8443H304.291V24.3752ZM295.71 9.1257H296.249V7.59475H295.71V9.1257ZM295.71 15.2195H296.249V13.6886H295.71V15.2195ZM295.71 18.2814H296.249V16.7505H295.71V18.2814ZM295.71 12.1876H296.249V10.6567H295.71V12.1876ZM295.71 21.3133H296.249V19.7824H295.71V21.3133ZM295.71 30.439H296.249V28.9081H295.71V30.439ZM295.71 27.4071H296.249V25.8762H295.71V27.4071ZM295.71 24.3752H296.249V22.8443H295.71V24.3752ZM297.855 3.06191H298.394V1.53096H297.855V3.06191ZM302.146 15.2195H302.684V13.6886H302.146V15.2195ZM302.146 18.2814H302.684V16.7505H302.146V18.2814ZM302.146 21.3133H302.684V19.7824H302.146V21.3133ZM302.146 12.1876H302.684V10.6567H302.146V12.1876ZM301.068 6.09381H301.607V4.56285H301.068V6.09381ZM302.146 30.439H302.684V28.9081H302.146V30.439ZM302.146 9.1257H302.684V7.59475H302.146V9.1257ZM301.068 12.1876H301.607V10.6567H301.068V12.1876ZM302.146 24.3752H302.684V22.8443H302.146V24.3752ZM302.146 27.4071H302.684V25.8762H302.146V27.4071ZM304.291 30.439H304.83V28.9081H304.291V30.439ZM303.213 6.09381H303.752V4.56285H303.213V6.09381ZM302.146 3.06191H302.684V1.53096H302.146V3.06191ZM303.213 12.1876H303.752V10.6567H303.213V12.1876ZM304.291 27.4071H304.83V25.8762H304.291V27.4071ZM303.213 18.2814H303.752V16.7505H303.213V18.2814ZM303.213 30.439H303.752V28.9081H303.213V30.439ZM303.213 24.3752H303.752V22.8443H303.213V24.3752ZM300 9.1257H300.539V7.59475H300V9.1257ZM298.923 12.1876H299.461V10.6567H298.923V12.1876ZM298.923 6.09381H299.461V4.56285H298.923V6.09381ZM300 30.439H300.539V28.9081H300V30.439ZM300 24.3752H300.539V22.8443H300V24.3752ZM300 27.4071H300.539V25.8762H300V27.4071ZM298.923 27.4071H299.461V25.8762H298.923V27.4071ZM298.923 24.3752H299.461V22.8443H298.923V24.3752ZM298.923 18.2814H299.461V16.7505H298.923V18.2814ZM300 3.06191H300.539V1.53096H300V3.06191ZM300 6.09381H300.539V4.56285H300V6.09381ZM301.068 24.3752H301.607V22.8443H301.068V24.3752ZM301.068 30.439H301.607V28.9081H301.068V30.439ZM298.923 30.439H299.461V28.9081H298.923V30.439ZM300 15.2195H300.539V13.6886H300V15.2195ZM300 18.2814H300.539V16.7505H300V18.2814ZM300 12.1876H300.539V10.6567H300V12.1876ZM300 21.3133H300.539V19.7824H300V21.3133ZM272.124 27.4071H272.663V25.8762H272.124V27.4071ZM246.943 24.3752V22.8443H246.404V21.3133H245.865V22.8443H245.326V24.3752H245.865V25.9062H246.404V24.3752H246.943ZM244.798 24.3752V22.8443H244.259V21.3133H243.72V22.8443H243.181V24.3752H243.72V25.9062H244.259V24.3752H244.798ZM250.155 6.09381V4.56285H249.617V6.09381H250.155ZM244.798 24.3752V25.9062H245.337V24.3752H244.798ZM242.114 22.8443V21.3133H241.575V22.8443H241.036V24.3752H241.575V25.9062H242.114V24.3752H242.653V22.8443H242.114ZM236.756 15.2195H237.295V13.6886H236.756V12.1576H236.217V13.6886H235.679V15.2195H236.217V16.7505H236.756V15.2195ZM235.679 12.1876H236.217V10.6567H235.679V9.1257H235.14V10.6567H234.601V12.1876H235.14V13.7186H235.679V12.1876ZM238.902 21.3133H239.44V19.7824H238.902V18.2514H238.363V19.7824H237.824V21.3133H238.363V22.8443H238.902V21.3133ZM237.824 18.2814H238.363V16.7505H237.824V15.2195H237.285V16.7505H236.746V18.2814H237.285V19.8124H237.824V18.2814ZM254.446 24.3752V25.9062H254.985V24.3752H254.446ZM253.368 24.3752V22.8443H252.829V21.3133H252.29V22.8443H251.751V24.3752H252.29V25.9062H252.829V24.3752H253.368ZM253.368 24.3752V25.9062H253.907V24.3752H253.368ZM234.611 9.1257H235.15V7.59475H234.611V6.06379H234.072V7.59475H233.533V9.1257H234.072V10.6567H234.611V9.1257ZM246.943 24.3752V25.9062H247.482V24.3752H246.943ZM251.223 24.3752V25.9062H251.762V24.3752H251.223ZM249.078 24.3752V22.8443H248.539V21.3133H248V22.8443H247.461V24.3752H248V25.9062H248.539V24.3752H249.078ZM251.223 24.3752V22.8443H250.684V21.3133H250.145V22.8443H249.606V24.3752H250.145V25.9062H250.684V24.3752H251.223ZM249.078 24.3752V25.9062H249.617V24.3752H249.078ZM238.902 7.62477V6.09381H238.363V7.62477H238.902ZM246.943 9.1257V7.59475H246.404V9.1257H246.943ZM245.326 7.62477V6.09381H244.787V7.62477H245.326ZM245.326 9.1257H245.865V7.59475H245.326V9.1257ZM236.217 9.1257V10.6567H236.756V9.1257H237.295V7.59475H236.756V6.06379H236.217V7.59475H235.679V9.1257H236.217ZM247.471 7.62477V6.09381H246.933V7.62477H247.471ZM249.078 6.09381V4.56285H248.539V6.09381H249.078ZM248.01 6.09381V4.56285H247.471V6.09381H248.01ZM243.192 9.1257H243.731V7.59475H243.192V9.1257ZM244.798 9.1257V7.59475H244.259V9.1257H244.798ZM238.902 9.1257H239.44V7.59475H238.902V9.1257ZM243.192 7.62477V6.09381H242.653V7.62477H243.192ZM240.508 9.1257V7.59475H239.969V9.1257H240.508ZM238.363 9.1257V7.59475H237.824V9.1257H238.363ZM256.052 24.3752H255.513V25.9062H256.052V24.3752ZM241.047 7.62477V6.09381H240.508V7.62477H241.047ZM270.518 6.09381V4.56285H269.979V6.09381H270.518ZM241.047 9.1257H241.586V7.59475H241.047V9.1257ZM239.969 22.8443V21.3133H239.43V22.8443H238.891V24.3752H239.43V25.9062H239.969V24.3752H240.508V22.8443H239.969ZM274.808 19.7824H274.27V21.3133H274.808V19.7824ZM275.347 24.3752H275.886V22.8443H275.347V24.3752ZM274.27 22.8443V24.3752H274.808V22.8443H274.27ZM275.347 19.7824V18.2514H274.808V19.7824H275.347ZM275.876 21.3133V19.7824H275.337V21.3133H275.876ZM273.741 21.3133V22.8443H274.28V21.3133H273.741ZM272.124 22.8443V24.3752H272.663V22.8443H272.124ZM271.057 24.3752H271.596V22.8443H271.057V24.3752ZM273.202 24.3752H273.741V22.8443H273.202V24.3752ZM271.596 21.3133V22.8443H272.135V21.3133H271.596ZM272.124 10.6567V9.1257H271.586V10.6567H272.124ZM271.596 9.1257V7.59475H271.057V9.1257H271.596ZM274.808 18.2814V16.7505H274.27V18.2814H274.808ZM272.663 12.1876V10.6567H272.124V12.1876H272.663ZM271.057 7.62477V6.09381H270.518V7.62477H271.057ZM274.27 16.7505V15.2195H273.731V16.7505H274.27ZM273.202 13.7186V12.1876H272.663V13.7186H273.202ZM273.741 15.2195V13.6886H273.202V15.2195H273.741ZM262.477 25.8762V27.4071H263.016V25.8762H262.477ZM256.052 25.8762V27.4071H256.591V25.8762H256.052ZM264.093 25.8762H264.632V24.3452H264.093V25.8762ZM260.342 25.8762V27.4071H260.881V25.8762H260.342ZM263.555 27.4071H264.093V25.8762H263.555V27.4071ZM261.409 25.8762V27.4071H261.948V25.8762H261.409ZM257.119 25.8762V27.4071H257.658V25.8762H257.119ZM258.197 25.8762V27.4071H258.736V25.8762H258.197ZM259.264 25.8762V27.4071H259.803V25.8762H259.264ZM269.451 21.3133V22.8443H269.99V21.3133H269.451ZM268.912 24.3752H269.451V22.8443H268.912V24.3752ZM267.845 22.8443V24.3752H268.384V22.8443H267.845ZM267.306 21.3133V22.8443H267.845V21.3133H267.306ZM269.99 22.8443V24.3752H270.529V22.8443H269.99ZM265.7 22.8443V24.3752H266.239V22.8443H265.7ZM265.161 21.3133V22.8443H265.7V21.3133H265.161ZM264.622 24.3752H265.161V22.8443H264.622V24.3752ZM266.767 24.3752H267.306V22.8443H266.767V24.3752ZM242.653 9.1257V7.59475H242.114V9.1257H242.653ZM256.591 24.3752V25.9062H257.13V24.3752H256.591ZM257.658 24.3752V25.9062H258.197V24.3752H257.658ZM259.803 24.3752V25.9062H260.342V24.3752H259.803ZM258.725 24.3752V25.9062H259.264V24.3752H258.725ZM256.591 22.8443H256.052V24.3752H256.591V22.8443ZM253.368 19.7824H252.829V21.3133H253.368V19.7824ZM253.907 21.3133H253.368V22.8443H253.907V21.3133ZM251.762 19.7824V21.3133H252.301V19.7824H251.762ZM267.845 19.7824V21.3133H268.384V19.7824H267.845ZM254.974 22.8443V24.3752H255.513V22.8443H254.974ZM264.622 19.7824V21.3133H265.161V19.7824H264.622ZM251.223 6.09381V4.56285H250.684V6.09381H251.223ZM264.093 22.8443H264.632V21.3133H264.093V22.8443ZM266.767 19.7824V21.3133H267.306V19.7824H266.767ZM261.948 25.8762H262.487V24.3452H261.948V25.8762ZM263.016 21.3133V22.8443H263.555V21.3133H263.016ZM260.87 24.3752V25.9062H261.409V24.3752H260.87ZM262.477 24.3752H263.016V22.8443H262.477V24.3752ZM253.907 22.8443V24.3752H254.446V22.8443H253.907ZM243.192 19.7824V21.3133H243.731V19.7824H243.192ZM242.653 19.7824H242.114V21.3133H242.653V19.7824ZM244.798 21.3133V22.8443H245.337V21.3133H244.798ZM244.798 19.7824H244.259V21.3133H244.798V19.7824ZM242.653 21.3133V22.8443H243.192V21.3133H242.653ZM251.223 21.3133V22.8443H251.762V21.3133H251.223ZM241.047 19.7824V18.2514H240.508V19.7824H239.969V21.3133H240.508V22.8443H241.047V21.3133H241.586V19.7824H241.047ZM239.969 18.2814H240.508V16.7505H239.969V15.2195H239.43V16.7505H238.891V18.2814H239.43V19.8124H239.969V18.2814ZM238.902 15.2195H239.44V13.6886H238.902V12.1576H238.363V13.6886H237.824V15.2195H238.363V16.7505H238.902V15.2195ZM249.078 21.3133V22.8443H249.617V21.3133H249.078ZM245.326 19.7824V21.3133H245.865V19.7824H245.326ZM249.078 19.7824H248.539V21.3133H249.078V19.7824ZM251.223 19.7824H250.684V21.3133H251.223V19.7824ZM249.617 19.7824V21.3133H250.155V19.7824H249.617ZM247.471 19.7824V21.3133H248.01V19.7824H247.471ZM246.943 19.7824H246.404V21.3133H246.943V19.7824ZM246.943 21.3133V22.8443H247.482V21.3133H246.943ZM265.7 19.7824V21.3133H266.239V19.7824H265.7ZM260.87 9.1257V7.59475H260.332V9.1257H260.87ZM259.803 7.62477H259.264V9.15572H259.803V7.62477ZM259.264 10.6567V9.1257H258.725V10.6567H259.264ZM261.409 10.6567V9.1257H260.87V10.6567H261.409ZM261.948 7.62477H261.409V9.15572H261.948V7.62477ZM258.725 9.1257V7.59475H258.186V9.1257H258.725ZM263.555 10.6567V9.1257H263.016V10.6567H263.555ZM264.093 7.62477H263.555V9.15572H264.093V7.62477ZM263.016 9.1257V7.59475H262.477V9.1257H263.016ZM257.119 10.6567V9.1257H256.58V10.6567H257.119ZM257.658 7.62477H257.119V9.15572H257.658V7.62477ZM254.974 7.62477V6.09381H254.435V7.62477H254.974ZM253.368 6.09381V4.56285H252.829V6.09381H253.368ZM252.301 6.09381V4.56285H251.762V6.09381H252.301ZM253.907 7.62477V6.09381H253.368V7.62477H253.907ZM265.161 9.1257V7.59475H264.622V9.1257H265.161ZM256.052 7.62477V6.09381H255.513V7.62477H256.052ZM256.591 9.1257V7.59475H256.052V9.1257H256.591ZM268.373 7.62477H267.834V9.15572H268.373V7.62477ZM271.057 19.7824V21.3133H271.596V19.7824H271.057ZM272.124 21.3133H272.663V19.7824H272.124V21.3133ZM272.663 18.2814V16.7505H272.124V18.2814H272.663ZM272.124 16.7505V15.2195H271.586V16.7505H272.124ZM271.596 16.7505H271.057V18.2814H271.596V16.7505ZM271.596 15.2195V13.6886H271.057V15.2195H271.596ZM269.99 21.3133H270.529V19.7824H269.99V21.3133ZM270.518 18.2814V19.8124H271.057V18.2814H270.518ZM268.912 19.7824V21.3133H269.451V19.7824H268.912ZM267.845 10.6567V9.1257H267.306V10.6567H267.845ZM267.306 9.1257V7.59475H266.767V9.1257H267.306ZM266.228 7.62477H265.689V9.15572H266.228V7.62477ZM265.7 10.6567V9.1257H265.161V10.6567H265.7ZM269.451 9.1257V7.59475H268.912V9.1257H269.451ZM270.518 12.1876V10.6567H269.979V12.1876H270.518ZM269.99 10.6567V9.1257H269.451V10.6567H269.99ZM271.057 13.7186V12.1876H270.518V13.7186H271.057ZM246.943 27.4071V28.9381H247.482V27.4071H246.943ZM274.808 12.1876V10.6567H274.27V12.1876H274.808ZM273.202 7.62477V6.09381H272.663V7.62477H273.202ZM275.347 13.7186V12.1876H274.808V13.7186H275.347ZM273.741 9.1257V7.59475H273.202V9.1257H273.741ZM274.27 10.6567V9.1257H273.731V10.6567H274.27ZM276.954 18.2814V16.7505H276.415V18.2814H276.954ZM277.493 19.7824V18.2514H276.954V19.7824H277.493ZM278.021 21.3133V19.7824H277.482V21.3133H278.021ZM275.876 15.2195V13.6886H275.337V15.2195H275.876ZM276.415 16.7505V15.2195H275.876V16.7505H276.415ZM269.99 4.56285V3.0319H269.451V4.56285H269.99ZM268.373 1.53096H267.834V3.06191H268.373V1.53096ZM269.451 3.06191V1.53096H268.912V3.06191H269.451ZM267.845 4.56285V3.0319H267.306V4.56285H267.845ZM272.124 4.56285V3.0319H271.586V4.56285H272.124ZM270.518 1.53096H269.979V3.06191H270.518V1.53096ZM267.306 3.06191V1.53096H266.767V3.06191H267.306ZM271.596 3.06191V1.53096H271.057V3.06191H271.596ZM272.663 6.09381V4.56285H272.124V6.09381H272.663ZM272.663 24.3752V25.9062H273.202V24.3752H272.663ZM274.27 27.4071H274.808V25.8762H274.27V27.4071ZM237.824 12.1876H238.363V10.6567H237.824V9.1257H237.285V10.6567H236.746V12.1876H237.285V13.7186H237.824V12.1876ZM273.202 25.8762V27.4071H273.741V25.8762H273.202ZM271.057 25.8762V27.4071H271.596V25.8762H271.057ZM269.99 25.8762V27.4071H270.529V25.8762H269.99ZM267.845 25.8762V27.4071H268.384V25.8762H267.845ZM268.912 25.8762V27.4071H269.451V25.8762H268.912ZM277.493 25.8762V27.4071H278.031V25.8762H277.493ZM278.021 22.8443H277.482V24.3752H278.021V22.8443ZM278.56 27.4071H279.099V25.8762H278.56V27.4071ZM278.56 22.8443V21.3133H278.021V22.8443H278.56ZM279.099 24.3752V22.8443H278.56V24.3752H279.099ZM276.415 27.4071H276.954V25.8762H276.415V27.4071ZM275.347 25.8762V27.4071H275.886V25.8762H275.347ZM276.954 24.3752V25.9062H277.493V24.3752H276.954ZM274.808 24.3752V25.9062H275.347V24.3752H274.808ZM252.301 3.06191V1.53096H251.762V3.06191H252.301ZM245.865 3.06191V1.53096H245.326V3.06191H245.865ZM248.01 3.06191V1.53096H247.471V3.06191H248.01ZM246.943 3.06191V1.53096H246.404V3.06191H246.943ZM266.228 1.53096H265.689V3.06191H266.228V1.53096ZM250.155 3.06191V1.53096H249.617V3.06191H250.155ZM251.223 3.06191V1.53096H250.684V3.06191H251.223ZM253.368 3.06191V1.53096H252.829V3.06191H253.368ZM266.767 25.8762V27.4071H267.306V25.8762H266.767ZM243.72 3.06191V1.53096H243.181V3.06191H243.72ZM249.078 3.06191V1.53096H248.539V3.06191H249.078ZM242.653 3.06191V1.53096H242.114V3.06191H242.653ZM238.363 3.06191V1.53096H237.824V3.06191H238.363ZM237.295 3.06191V1.53096H236.756V3.06191H237.295ZM234.072 3.06191V4.59287H234.611V3.06191H235.15V1.53096H234.611V0H234.072V1.53096H233.533V3.06191H234.072ZM236.217 3.06191V1.53096H235.679V3.06191H236.217ZM239.43 3.06191V1.53096H238.891V3.06191H239.43ZM241.575 3.06191V1.53096H241.036V3.06191H241.575ZM240.508 3.06191V1.53096H239.969V3.06191H240.508ZM244.798 3.06191V1.53096H244.259V3.06191H244.798ZM263.016 3.06191V1.53096H262.477V3.06191H263.016ZM260.87 3.06191V1.53096H260.332V3.06191H260.87ZM261.409 4.56285V3.0319H260.87V4.56285H261.409ZM263.555 4.56285V3.0319H263.016V4.56285H263.555ZM269.451 4.56285H268.912V6.09381H269.451V4.56285ZM265.7 4.56285V3.0319H265.161V4.56285H265.7ZM264.093 1.53096H263.555V3.06191H264.093V1.53096ZM265.161 3.06191V1.53096H264.622V3.06191H265.161ZM259.264 4.56285V3.0319H258.725V4.56285H259.264ZM256.591 3.06191V1.53096H256.052V3.06191H256.591ZM259.803 1.53096H259.264V3.06191H259.803V1.53096ZM254.974 4.56285V3.0319H254.435V4.56285H254.974ZM257.119 4.56285V3.0319H256.58V4.56285H257.119ZM255.513 1.53096H254.974V3.06191H255.513V1.53096ZM254.446 3.06191V1.53096H253.907V3.06191H254.446ZM258.725 3.06191V1.53096H258.186V3.06191H258.725ZM257.658 1.53096H257.119V3.06191H257.658V1.53096ZM261.948 1.53096H261.409V3.06191H261.948V1.53096ZM247.471 4.56285V3.0319H246.933V4.56285H247.471ZM245.326 4.56285V6.09381H245.865V7.62477H246.404V6.09381H246.943V4.56285H246.404V3.0319H245.865V4.56285H245.326ZM243.192 4.56285V6.09381H243.731V7.62477H244.27V6.09381H244.809V4.56285H244.27V3.0319H243.731V4.56285H243.192ZM248.549 4.56285V3.0319H248.01V4.56285H248.549ZM253.907 4.56285V3.0319H253.368V4.56285H253.907ZM251.762 4.56285V3.0319H251.223V4.56285H251.762ZM249.617 4.56285V3.0319H249.078V4.56285H249.617ZM252.829 4.56285V3.0319H252.29V4.56285H252.829ZM250.694 4.56285V3.0319H250.155V4.56285H250.694ZM245.326 4.56285V3.0319H244.787V4.56285H245.326ZM236.756 4.56285V3.0319H236.217V4.56285H236.756ZM236.756 4.56285V6.09381H237.295V7.62477H237.834V6.09381H238.373V4.56285H237.834V3.0319H237.295V4.56285H236.756ZM238.902 4.56285V3.0319H238.363V4.56285H238.902ZM243.192 4.56285V3.0319H242.653V4.56285H243.192ZM235.15 6.09381V7.62477H235.689V6.09381H236.228V4.56285H235.689V3.0319H235.15V4.56285H234.611V6.09381H235.15ZM241.047 4.56285V6.09381H241.586V7.62477H242.124V6.09381H242.663V4.56285H242.124V3.0319H241.586V4.56285H241.047ZM238.902 4.56285V6.09381H239.44V7.62477H239.979V6.09381H240.518V4.56285H239.979V3.0319H239.44V4.56285H238.902ZM241.047 4.56285V3.0319H240.508V4.56285H241.047ZM264.622 7.62477V6.09381H264.083V7.62477H264.622ZM264.093 6.09381V4.56285H263.555V6.09381H264.093ZM266.228 6.09381V4.56285H265.689V6.09381H266.228ZM266.767 7.62477V6.09381H266.228V7.62477H266.767ZM233.005 6.09381V7.62477H233.544V6.09381H234.083V4.56285H233.544V3.0319H233.005V4.56285H232.466V6.09381H233.005ZM265.161 4.56285H264.622V6.09381H265.161V4.56285ZM267.306 4.56285H266.767V6.09381H267.306V4.56285ZM268.912 7.62477V6.09381H268.373V7.62477H268.912ZM268.373 6.09381V4.56285H267.834V6.09381H268.373ZM260.87 6.09381V4.56285H260.332V6.09381H260.87ZM257.658 6.09381V4.56285H257.119V6.09381H257.658ZM256.591 6.09381V4.56285H256.052V6.09381H256.591ZM258.725 6.09381V4.56285H258.186V6.09381H258.725ZM255.513 6.09381V4.56285H254.974V6.09381H255.513ZM261.948 6.09381V4.56285H261.409V6.09381H261.948ZM263.016 6.09381V4.56285H262.477V6.09381H263.016ZM259.803 6.09381V4.56285H259.264V6.09381H259.803ZM254.446 6.09381V4.56285H253.907V6.09381H254.446ZM249.617 25.8762V27.4071H250.155V25.8762H249.617ZM253.907 25.8762V27.4071H254.446V25.8762H253.907ZM253.368 27.4071V28.9381H253.907V27.4071H253.368ZM255.513 25.8762H254.974V27.4071H255.513V25.8762ZM256.591 27.4071V28.9381H257.13V27.4071H256.591ZM255.513 27.4071V28.9381H256.052V27.4071H255.513ZM253.368 25.8762H252.829V27.4071H253.368V25.8762ZM251.223 25.8762H250.684V27.4071H251.223V25.8762ZM251.223 27.4071V28.9381H251.762V27.4071H251.223ZM251.762 25.8762V27.4071H252.301V25.8762H251.762ZM261.948 27.4071V28.9381H262.487V27.4071H261.948ZM231.399 6.09381H231.938V4.56285H231.399V3.0319H230.86V4.56285H230.321V6.09381H230.86V7.62477H231.399V6.09381ZM264.093 28.9381H264.632V27.4071H264.093V28.9381ZM265.7 25.8762V27.4071H266.239V25.8762H265.7ZM264.622 25.8762V27.4071H265.161V25.8762H264.622ZM258.725 27.4071V28.9381H259.264V27.4071H258.725ZM257.658 27.4071V28.9381H258.197V27.4071H257.658ZM259.803 27.4071V28.9381H260.342V27.4071H259.803ZM260.87 27.4071V28.9381H261.409V27.4071H260.87ZM263.016 27.4071V28.9381H263.555V27.4071H263.016ZM237.824 24.3752H238.363V22.8443H237.824V21.3133H237.285V22.8443H236.746V24.3752H237.285V25.9062H237.824V24.3752ZM249.078 27.4071V28.9381H249.617V27.4071H249.078ZM241.047 25.8762V24.3452H240.508V25.8762H239.969V27.4071H240.508V28.9381H241.047V27.4071H241.586V25.8762H241.047ZM238.902 25.8762V24.3452H238.363V25.8762H237.824V27.4071H238.363V28.9381H238.902V27.4071H239.44V25.8762H238.902ZM236.756 21.3133H237.295V19.7824H236.756V18.2514H236.217V19.7824H235.679V21.3133H236.217V22.8443H236.756V21.3133ZM234.611 15.2195H235.15V13.6886H234.611V12.1576H234.072V13.6886H233.533V15.2195H234.072V16.7505H234.611V15.2195ZM232.466 9.1257H233.005V7.59475H232.466V6.06379H231.927V7.59475H231.388V9.1257H231.927V10.6567H232.466V9.1257ZM233.544 12.1876H234.083V10.6567H233.544V9.1257H233.005V10.6567H232.466V12.1876H233.005V13.7186H233.544V12.1876ZM235.679 18.2814H236.217V16.7505H235.679V15.2195H235.14V16.7505H234.601V18.2814H235.14V19.8124H235.679V18.2814ZM246.943 25.8762H246.404V27.4071H246.943V25.8762ZM247.471 25.8762V27.4071H248.01V25.8762H247.471ZM231.927 3.06191V4.59287H232.466V3.06191H233.005V1.53096H232.466V0H231.927V1.53096H231.388V3.06191H231.927ZM249.078 25.8762H248.539V27.4071H249.078V25.8762ZM244.798 27.4071V28.9381H245.337V27.4071H244.798ZM245.326 25.8762V27.4071H245.865V25.8762H245.326ZM244.798 25.8762H244.259V27.4071H244.798V25.8762ZM243.192 25.8762V24.3452H242.653V25.8762H242.114V27.4071H242.653V28.9381H243.192V27.4071H243.731V25.8762H243.192Z" fill="#ECECEC"/>
</svg>
