<svg width="599" height="32" viewBox="0 0 599 32" fill="none" xmlns="http://www.w3.org/2000/svg">
<path d="M432.693 1.53096H431.708V0H432.693V1.53096ZM488.524 10.6567H487.54V12.1876H488.524V10.6567ZM492.445 15.2195V13.6886H491.46V15.2195H492.445ZM491.46 18.2814H492.445V16.7505H491.46V18.2814ZM505.172 9.1257H504.187V10.6567H505.172V9.1257ZM506.157 7.62477H505.172V9.15572H506.157V7.62477ZM478.733 22.8443H479.718V21.3133H478.733V22.8443ZM418.981 0H417.996V1.53096H418.981V0ZM436.613 0H435.628V1.53096H436.613V0ZM491.46 13.7186V12.1876H490.475V13.7186H491.46ZM430.723 0H429.738V1.53096H430.723V0ZM503.221 7.62477V9.15572H504.206V7.62477H503.221ZM426.822 0H425.837V1.53096H426.822V0ZM490.475 12.1876V10.6567H489.49V12.1876H490.475ZM434.643 0H433.658V1.53096H434.643V0ZM510.077 13.7186H509.092V15.2495H510.077V13.7186ZM422.901 0H421.917V1.53096H422.901V0ZM435.628 31.97H436.613V30.439H435.628V31.97ZM399.379 0H398.394V1.53096H399.379V0ZM403.299 0H402.315V1.53096H403.299V0ZM484.604 12.1876V10.6567H483.619V12.1876H484.604ZM447.389 31.97H448.374V30.439H447.389V31.97ZM439.549 31.97H440.533V30.439H439.549V31.97ZM443.469 31.97H444.454V30.439H443.469V31.97ZM486.555 12.1876V10.6567H485.57V12.1876H486.555ZM482.654 12.1876V10.6567H481.669V12.1876H482.654ZM487.54 13.7186V12.1876H486.555V13.7186H487.54ZM415.061 0H414.076V1.53096H415.061V0ZM411.14 0H410.155V1.53096H411.14V0ZM477.748 24.3752H478.733V22.8443H477.748V24.3752ZM504.187 10.6567H503.202V12.1876H504.187V10.6567ZM475.798 22.8443V24.3752H476.783V22.8443H475.798ZM507.141 13.7186V15.2495H508.126V13.7186H507.141ZM407.22 0H406.235V1.53096H407.22V0ZM506.157 13.7186H505.172V15.2495H506.157V13.7186ZM506.157 12.1876V10.6567H505.172V12.1876H506.157ZM491.46 0H490.475V1.53096H491.46V0ZM480.684 12.1876V10.6567H479.699V12.1876H480.684ZM488.524 15.2195V13.6886H487.54V15.2195H488.524ZM471.877 0H470.892V1.53096H471.877V0ZM464.036 0H463.052V1.53096H464.036V0ZM486.555 16.7505H487.54V15.2195H486.555V16.7505ZM467.957 0H466.972V1.53096H467.957V0ZM458.166 0H457.181V1.53096H458.166V0ZM486.555 13.7186H485.57V15.2495H486.555V13.7186ZM462.067 0H461.082V1.53096H462.067V0ZM499.301 1.53096V3.06191H500.286V1.53096H499.301ZM460.116 0H459.131V1.53096H460.116V0ZM487.54 0H486.555V1.53096H487.54V0ZM495.38 0H494.395V1.53096H495.38V0ZM483.619 0H482.634V1.53096H483.619V0ZM483.619 18.2814H484.604V16.7505H483.619V18.2814ZM498.316 1.53096H497.331V3.06191H498.316V1.53096ZM475.798 0H474.813V1.53096H475.798V0ZM479.699 0H478.714V1.53096H479.699V0ZM482.654 19.7824H483.638V18.2514H482.654V19.7824ZM484.604 15.2195V16.7505H485.589V15.2195H484.604ZM502.236 1.53096H501.251V3.06191H502.236V1.53096ZM488.524 15.2195V16.7505H489.509V15.2195H488.524ZM442.484 0H441.499V1.53096H442.484V0ZM479.699 19.7824V21.3133H480.684V19.7824H479.699ZM446.404 0H445.419V1.53096H446.404V0ZM448.355 0H447.37V1.53096H448.355V0ZM444.454 0H443.469V1.53096H444.454V0ZM490.475 13.7186H489.49V15.2495H490.475V13.7186ZM440.533 0H439.549V1.53096H440.533V0ZM502.236 7.62477H501.251V9.15572H502.236V7.62477ZM500.286 4.56285H499.301V6.09381H500.286V4.56285ZM454.245 0H453.26V1.53096H454.245V0ZM487.54 18.2814H488.524V16.7505H487.54V18.2814ZM485.589 16.7505V18.2814H486.574V16.7505H485.589ZM489.509 16.7505V18.2814H490.494V16.7505H489.509ZM456.196 0H455.211V1.53096H456.196V0ZM501.251 3.06191H500.266V4.59287H501.251V3.06191ZM502.236 6.09381V4.56285H501.251V6.09381H502.236ZM452.275 0H451.29V1.53096H452.275V0ZM450.325 0H449.34V1.53096H450.325V0ZM481.669 21.3133H482.654V19.7824H481.669V21.3133ZM438.564 0H437.579V1.53096H438.564V0ZM513.997 6.09381V4.56285H513.012V6.09381H513.997ZM513.997 12.1876V10.6567H513.012V12.1876H513.997ZM512.027 4.56285H511.043V6.09381H512.027V4.56285ZM511.062 7.62477V9.15572H512.047V7.62477H511.062ZM513.997 7.62477H513.012V9.15572H513.997V7.62477ZM513.012 9.1257H512.027V10.6567H513.012V9.1257ZM509.092 3.06191H508.107V4.59287H509.092V3.06191ZM511.062 1.53096V3.06191H512.047V1.53096H511.062ZM448.355 10.6567V9.1257H447.37V10.6567H448.355ZM444.454 10.6567V12.1876H445.439V13.7186H446.424V12.1876H447.409V10.6567H446.424V9.1257H445.439V10.6567H444.454ZM513.997 1.53096H513.012V3.06191H513.997V1.53096ZM513.012 3.06191H512.027V4.59287H513.012V3.06191ZM451.31 31.97H452.295V30.439H451.31V31.97ZM512.027 16.7505H511.043V18.2814H512.027V16.7505ZM454.245 7.62477V6.09381H453.26V7.62477H454.245ZM507.141 1.53096V3.06191H508.126V1.53096H507.141ZM510.077 1.53096H509.092V3.06191H510.077V1.53096ZM513.997 18.2814V16.7505H513.012V18.2814H513.997ZM515.948 4.56285H514.963V6.09381H515.948V4.56285ZM511.062 13.7186V15.2495H512.047V13.7186H511.062ZM512.027 10.6567H511.043V12.1876H512.027V10.6567ZM453.26 9.1257V7.59475H452.275V9.1257H453.26ZM513.997 13.7186H513.012V15.2495H513.997V13.7186ZM452.275 10.6567V9.1257H451.29V10.6567H452.275ZM448.355 10.6567V12.1876H449.34V13.7186H450.325V12.1876H451.31V10.6567H450.325V9.1257H449.34V10.6567H448.355ZM527.709 19.7824H526.724V21.3133H527.709V19.7824ZM527.709 16.7505H526.724V18.2814H527.709V16.7505ZM436.613 10.6567V12.1876H437.598V13.7186H438.583V12.1876H439.568V10.6567H438.583V9.1257H437.598V10.6567H436.613ZM523.789 1.53096H522.804V3.06191H523.789V1.53096ZM527.709 22.8443H526.724V24.3752H527.709V22.8443ZM527.709 10.6567H526.724V12.1876H527.709V10.6567ZM527.709 4.56285H526.724V6.09381H527.709V4.56285ZM527.709 1.53096H526.724V3.06191H527.709V1.53096ZM527.709 13.7186H526.724V15.2495H527.709V13.7186ZM527.709 7.62477H526.724V9.15572H527.709V7.62477ZM523.789 4.56285H522.804V6.09381H523.789V4.56285ZM523.789 16.7505H522.804V18.2814H523.789V16.7505ZM519.868 1.53096H518.883V3.06191H519.868V1.53096ZM519.868 7.62477H518.883V9.15572H519.868V7.62477ZM519.868 4.56285H518.883V6.09381H519.868V4.56285ZM519.868 10.6567H518.883V12.1876H519.868V10.6567ZM444.454 10.6567V9.1257H443.469V10.6567H444.454ZM440.533 10.6567V12.1876H441.518V13.7186H442.503V12.1876H443.488V10.6567H442.503V9.1257H441.518V10.6567H440.533ZM440.533 10.6567V9.1257H439.549V10.6567H440.533ZM523.789 7.62477H522.804V9.15572H523.789V7.62477ZM523.789 10.6567H522.804V12.1876H523.789V10.6567ZM515.948 1.53096H514.963V3.06191H515.948V1.53096ZM523.789 13.7186H522.804V15.2495H523.789V13.7186ZM513.012 15.2195H512.027V16.7505H513.012V15.2195ZM468.942 12.1876V10.6567H467.957V12.1876H468.942ZM478.733 31.97H479.718V30.439H478.733V31.97ZM476.763 31.97H477.748V30.439H476.763V31.97ZM470.892 12.1876V10.6567H469.907V12.1876H470.892ZM474.813 31.97H475.798V30.439H474.813V31.97ZM480.684 31.97H481.669V30.439H480.684V31.97ZM466.972 9.1257V7.59475H465.987V9.1257H466.972ZM490.475 31.97H491.46V30.439H490.475V31.97ZM467.957 10.6567V9.1257H466.972V10.6567H467.957ZM486.555 31.97H487.54V30.439H486.555V31.97ZM482.654 31.97H483.638V30.439H482.654V31.97ZM494.395 31.97H495.38V30.439H494.395V31.97ZM463.052 31.97H464.036V30.439H463.052V31.97ZM459.131 31.97H460.116V30.439H459.131V31.97ZM465.021 15.2195V13.6886H464.036V15.2195H465.021ZM455.211 31.97H456.196V30.439H455.211V31.97ZM478.733 12.1876V10.6567H477.748V12.1876H478.733ZM468.942 31.97H469.927V30.439H468.942V31.97ZM470.892 31.97H471.877V30.439H470.892V31.97ZM472.843 12.1876V10.6567H471.858V12.1876H472.843ZM466.972 31.97H467.957V30.439H466.972V31.97ZM474.813 12.1876V10.6567H473.828V12.1876H474.813ZM472.843 31.97H473.828V30.439H472.843V31.97ZM508.107 10.6567H507.122V12.1876H508.107V10.6567ZM460.116 7.62477V6.09381H459.131V7.62477H460.116ZM509.092 9.1257H508.107V10.6567H509.092V9.1257ZM510.077 12.1876V10.6567H509.092V12.1876H510.077ZM503.221 1.53096V3.06191H504.206V1.53096H503.221ZM456.196 7.62477V6.09381H455.211V7.62477H456.196ZM510.077 7.62477H509.092V9.15572H510.077V7.62477ZM510.077 6.09381V4.56285H509.092V6.09381H510.077ZM508.107 4.56285H507.122V6.09381H508.107V4.56285ZM506.157 1.53096H505.172V3.06191H506.157V1.53096ZM507.141 7.62477V9.15572H508.126V7.62477H507.141ZM458.166 7.62477V6.09381H457.181V7.62477H458.166ZM498.316 31.97H499.301V30.439H498.316V31.97ZM465.021 9.1257V7.59475H464.036V9.1257H465.021ZM510.077 31.97H511.062V30.439H510.077V31.97ZM502.236 31.97H503.221V30.439H502.236V31.97ZM462.067 7.62477V6.09381H461.082V7.62477H462.067ZM513.997 31.97H514.982V30.439H513.997V31.97ZM506.157 31.97H507.141V30.439H506.157V31.97ZM505.172 3.06191H504.187V4.59287H505.172V3.06191ZM517.918 30.439V28.9081H516.933V30.439H517.918ZM506.157 6.09381V4.56285H505.172V6.09381H506.157ZM463.052 9.1257V7.59475H462.067V9.1257H463.052ZM504.187 4.56285H503.202V6.09381H504.187V4.56285ZM476.763 12.1876V10.6567H475.778V12.1876H476.763ZM452.275 13.7186V12.1876H451.29V13.7186H452.275ZM476.763 22.8443H477.748V21.3133H476.763V22.8443ZM463.052 15.2195V16.7505H464.036V15.2195H463.052ZM471.877 18.2814H470.892V19.8124H471.877V18.2814ZM453.26 12.1876V13.7186H454.245V12.1876H455.23V10.6567H454.245V9.1257H453.26V10.6567H452.275V12.1876H453.26ZM474.813 21.3133V22.8443H475.798V21.3133H474.813ZM490.475 19.7824H491.46V18.2514H490.475V19.7824ZM493.43 16.7505V15.2195H492.445V16.7505H493.43ZM486.555 22.8443H487.54V21.3133H486.555V22.8443ZM451.31 15.2195V13.6886H450.325V15.2195H451.31ZM494.395 18.2814V16.7505H493.41V18.2814H494.395ZM479.699 12.1876H478.714V13.7186H479.699V12.1876ZM473.828 19.7824V18.2514H472.843V19.7824H473.828ZM475.798 12.1876H474.813V13.7186H475.798V12.1876ZM509.092 15.2195H508.107V16.7505H509.092V15.2195ZM477.748 21.3133H478.733V19.7824H477.748V21.3133ZM483.619 12.1876H482.634V13.7186H483.619V12.1876ZM484.604 15.2195V13.6886H483.619V15.2195H484.604ZM457.181 9.1257V7.59475H456.196V9.1257H457.181ZM455.211 9.1257V7.59475H454.226V9.1257H455.211ZM478.733 19.7824H479.718V18.2514H478.733V19.7824ZM461.101 15.2195V16.7505H462.086V15.2195H461.101ZM473.828 19.7824V21.3133H474.813V19.7824H473.828ZM470.892 19.7824H469.907V21.3133H470.892V19.7824ZM470.892 21.3133V22.8443H471.877V21.3133H470.892ZM443.469 15.2195V16.7505H444.454V15.2195H443.469ZM447.389 15.2195V13.6886H446.404V15.2195H447.389ZM444.454 13.7186V12.1876H443.469V13.7186H444.454ZM448.355 13.7186V12.1876H447.37V13.7186H448.355ZM481.669 24.3752H482.654V22.8443H481.669V24.3752ZM474.813 19.7824H475.798V18.2514H474.813V19.7824ZM444.454 15.2195H445.439V13.6886H444.454V15.2195ZM448.355 15.2195H449.34V13.6886H448.355V15.2195ZM479.699 9.1257H478.714V10.6567H479.699V9.1257ZM475.798 9.1257H474.813V10.6567H475.798V9.1257ZM492.445 10.6567H491.46V12.1876H492.445V10.6567ZM483.619 9.1257H482.634V10.6567H483.619V9.1257ZM471.877 9.1257H470.892V10.6567H471.877V9.1257ZM471.877 19.7824V21.3133H472.862V19.7824H471.877ZM447.389 15.2195V16.7505H448.374V15.2195H447.389ZM494.395 13.7186H493.41V15.2495H494.395V13.7186ZM436.613 10.6567V9.1257H435.628V10.6567H436.613ZM472.843 21.3133V22.8443H473.828V21.3133H472.843ZM486.555 19.7824H487.54V18.2514H486.555V19.7824ZM464.036 13.7186V12.1876H463.052V13.7186H464.036ZM476.763 21.3133V19.7824H475.778V21.3133H476.763ZM466.972 18.2814V19.8124H467.957V18.2814H466.972ZM476.763 15.2195V13.6886H475.778V15.2195H476.763ZM469.907 16.7505V15.2195H468.923V16.7505H469.907ZM478.733 18.2814V16.7505H477.748V18.2814H478.733ZM467.957 16.7505V18.2814H468.942V16.7505H467.957ZM471.877 13.7186V12.1876H470.892V13.7186H471.877ZM469.907 13.7186V12.1876H468.923V13.7186H469.907ZM476.763 18.2814V16.7505H475.778V18.2814H476.763ZM462.067 13.7186V15.2495H463.052V13.7186H462.067ZM466.972 16.7505H465.987V18.2814H466.972V16.7505ZM457.181 12.1876V13.7186H458.166V12.1876H457.181ZM465.987 15.2195H465.002V16.7505H465.987V15.2195ZM473.828 16.7505V15.2195H472.843V16.7505H473.828ZM479.699 15.2195H478.714V16.7505H479.699V15.2195ZM472.843 15.2195V13.6886H471.858V15.2195H472.843ZM457.181 10.6567H456.196V12.1876H457.181V10.6567ZM474.813 13.7186H473.828V15.2495H474.813V13.7186ZM459.131 12.1876V10.6567H458.146V12.1876H459.131ZM467.957 16.7505V15.2195H466.972V16.7505H467.957ZM482.654 13.7186H481.669V15.2495H482.654V13.7186ZM479.699 18.2814H480.684V16.7505H479.699V18.2814ZM481.669 16.7505V15.2195H480.684V16.7505H481.669ZM480.684 15.2195V13.6886H479.699V15.2195H480.684ZM464.036 10.6567V9.1257H463.052V10.6567H464.036ZM465.987 10.6567V9.1257H465.002V10.6567H465.987ZM461.101 13.7186H460.116V15.2495H461.101V13.7186ZM482.654 16.7505H483.638V15.2195H482.654V16.7505ZM461.101 9.1257V7.59475H460.116V9.1257H461.101ZM462.067 10.6567V9.1257H461.082V10.6567H462.067ZM481.669 18.2814H482.654V16.7505H481.669V18.2814ZM462.067 13.7186V12.1876H461.082V13.7186H462.067ZM467.957 13.7186V12.1876H466.972V13.7186H467.957ZM470.892 18.2814V16.7505H469.907V18.2814H470.892ZM475.798 15.2195H474.813V16.7505H475.798V15.2195ZM452.275 13.7186V15.2495H453.26V13.7186H452.275ZM477.748 16.7505V15.2195H476.763V16.7505H477.748ZM466.972 12.1876V10.6567H465.987V12.1876H466.972ZM478.733 13.7186H477.748V15.2495H478.733V13.7186ZM468.942 18.2814V19.8124H469.927V18.2814H468.942ZM460.116 12.1876H459.131V13.7186H460.116V12.1876ZM451.31 15.2195V16.7505H452.295V15.2195H451.31ZM459.131 9.1257V7.59475H458.146V9.1257H459.131ZM455.211 15.2195V16.7505H456.196V15.2195H455.211ZM465.021 21.3133V22.8443H466.006V21.3133H465.021ZM456.196 13.7186V15.2495H457.181V13.7186H456.196ZM466.972 21.3133V22.8443H467.957V21.3133H466.972ZM468.942 15.2195V13.6886H467.957V15.2195H468.942ZM465.987 13.7186V12.1876H465.002V13.7186H465.987ZM459.131 13.7186H458.146V15.2495H459.131V13.7186ZM456.196 13.7186V12.1876H455.211V13.7186H456.196ZM466.972 15.2195V13.6886H465.987V15.2195H466.972ZM469.907 21.3133H468.923V22.8443H469.907V21.3133ZM455.211 13.7186H454.226V15.2495H455.211V13.7186ZM471.877 3.06191H470.892V4.59287H471.877V3.06191ZM465.021 19.7824H464.036V21.3133H465.021V19.7824ZM479.699 3.06191H478.714V4.59287H479.699V3.06191ZM496.365 4.56285H495.38V6.09381H496.365V4.56285ZM461.101 18.2814V19.8124H462.086V18.2814H461.101ZM475.798 3.06191H474.813V4.59287H475.798V3.06191ZM470.892 15.2195V13.6886H469.907V15.2195H470.892ZM460.116 15.2195H459.131V16.7505H460.116V15.2195ZM467.957 3.06191H466.972V4.59287H467.957V3.06191ZM464.036 18.2814H463.052V19.8124H464.036V18.2814ZM459.131 18.2814V19.8124H460.116V18.2814H459.131ZM513.012 21.3133H512.027V22.8443H513.012V21.3133ZM513.997 19.7824H513.012V21.3133H513.997V19.7824ZM513.997 24.3752V22.8443H513.012V24.3752H513.997ZM512.027 22.8443H511.043V24.3752H512.027V22.8443ZM456.196 9.1257H455.211V10.6567H456.196V9.1257ZM508.107 16.7505H507.122V18.2814H508.107V16.7505ZM510.077 18.2814V16.7505H509.092V18.2814H510.077ZM473.828 22.8443V24.3752H474.813V22.8443H473.828ZM512.027 27.4071V25.8762H511.043V27.4071H512.027ZM510.077 19.7824H509.092V21.3133H510.077V19.7824ZM511.062 19.7824V21.3133H512.047V19.7824H511.062ZM469.907 22.8443V24.3752H470.892V22.8443H469.907ZM463.052 12.1876V10.6567H462.067V12.1876H463.052ZM460.116 10.6567V9.1257H459.131V10.6567H460.116ZM458.166 10.6567V9.1257H457.181V10.6567H458.166ZM465.021 12.1876V10.6567H464.036V12.1876H465.021ZM494.395 28.9381H495.38V27.4071H494.395V28.9381ZM511.062 25.8762V24.3452H510.077V25.8762H511.062ZM471.877 22.8443V24.3752H472.862V22.8443H471.877ZM490.475 28.9381H491.46V27.4071H490.475V28.9381ZM486.555 28.9381H487.54V27.4071H486.555V28.9381ZM500.286 16.7505H499.301V18.2814H500.286V16.7505ZM440.533 15.2195H439.549V16.7505H440.533V15.2195ZM467.957 19.7824V21.3133H468.942V19.7824H467.957ZM475.798 6.09381H474.813V7.62477H475.798V6.09381ZM439.549 13.7186H438.564V15.2495H439.549V13.7186ZM461.101 12.1876V10.6567H460.116V12.1876H461.101ZM471.877 6.09381H470.892V7.62477H471.877V6.09381ZM443.469 18.2814V16.7505H442.484V15.2195H441.499V16.7505H440.514V18.2814H441.499V19.8124H442.484V18.2814H443.469ZM443.469 18.2814V19.8124H444.454V18.2814H443.469ZM465.987 19.7824V21.3133H466.972V19.7824H465.987ZM474.813 18.2814V16.7505H473.828V18.2814H474.813ZM465.987 18.2814H465.002V19.8124H465.987V18.2814ZM490.475 22.8443H491.46V21.3133H490.475V22.8443ZM500.286 21.3133V19.7824H499.301V21.3133H500.286ZM498.316 7.62477H497.331V9.15572H498.316V7.62477ZM498.316 13.7186H497.331V15.2495H498.316V13.7186ZM499.301 19.7824V18.2514H498.316V19.7824H499.301ZM443.469 15.2195V13.6886H442.484V15.2195H443.469ZM440.533 13.7186V12.1876H439.549V13.7186H440.533ZM496.365 10.6567H495.38V12.1876H496.365V10.6567ZM494.395 7.62477H493.41V9.15572H494.395V7.62477ZM440.533 15.2195H441.518V13.6886H440.533V15.2195ZM479.699 6.09381H478.714V7.62477H479.699V6.09381ZM506.157 19.7824H505.172V21.3133H506.157V19.7824ZM455.211 18.2814V19.8124H456.196V18.2814H455.211ZM506.157 24.3752V22.8443H505.172V24.3752H506.157ZM505.172 22.8443V21.3133H504.187V22.8443H505.172ZM494.395 25.8762H495.38V24.3452H494.395V25.8762ZM500.286 10.6567H499.301V12.1876H500.286V10.6567ZM459.131 18.2814V16.7505H458.146V15.2195H457.161V16.7505H456.176V18.2814H457.161V19.8124H458.146V18.2814H459.131ZM455.211 18.2814V16.7505H454.226V15.2195H453.241V16.7505H452.256V18.2814H453.241V19.8124H454.226V18.2814H455.211ZM504.187 16.7505H503.202V18.2814H504.187V16.7505ZM502.236 13.7186H501.251V15.2495H502.236V13.7186ZM451.31 18.2814V16.7505H450.325V15.2195H449.34V16.7505H448.355V18.2814H449.34V19.8124H450.325V18.2814H451.31ZM471.877 16.7505V15.2195H470.892V16.7505H471.877ZM465.021 16.7505H464.036V18.2814H465.021V16.7505ZM447.389 18.2814V19.8124H448.374V18.2814H447.389ZM490.475 25.8762H491.46V24.3452H490.475V25.8762ZM447.389 18.2814V16.7505H446.404V15.2195H445.419V16.7505H444.435V18.2814H445.419V19.8124H446.404V18.2814H447.389ZM472.843 18.2814V16.7505H471.858V18.2814H472.843ZM460.116 16.7505V18.2814H461.101V16.7505H460.116ZM486.555 25.8762H487.54V24.3452H486.555V25.8762ZM462.067 16.7505V18.2814H463.052V16.7505H462.067ZM451.31 18.2814V19.8124H452.295V18.2814H451.31ZM550.227 18.2814H551.212V16.7505H550.227V18.2814ZM526.724 30.439H527.709V28.9081H526.724V30.439ZM529.66 30.439V28.9081H528.675V30.439H529.66ZM524.774 3.06191H525.758V1.53096H524.774V3.06191ZM527.709 28.9381H528.694V27.4071H527.709V28.9381ZM524.774 15.2195H525.758V13.6886H524.774V15.2195ZM524.774 12.1876H525.758V10.6567H524.774V12.1876ZM526.724 25.8762V27.4071H527.709V25.8762H526.724ZM524.774 6.09381H525.758V4.56285H524.774V6.09381ZM524.774 9.1257H525.758V7.59475H524.774V9.1257ZM528.675 12.1876H529.66V10.6567H528.675V12.1876ZM528.675 9.1257H529.66V7.59475H528.675V9.1257ZM528.675 3.06191H529.66V1.53096H528.675V3.06191ZM528.675 15.2195H529.66V13.6886H528.675V15.2195ZM528.675 27.4071H529.66V25.8762H528.675V27.4071ZM528.675 6.09381H529.66V4.56285H528.675V6.09381ZM536.515 9.1257H537.5V7.59475H536.515V9.1257ZM528.675 24.3752H529.66V22.8443H528.675V24.3752ZM528.675 21.3133H529.66V19.7824H528.675V21.3133ZM524.774 18.2814H525.758V16.7505H524.774V18.2814ZM520.853 6.09381H521.838V4.56285H520.853V6.09381ZM520.853 9.1257H521.838V7.59475H520.853V9.1257ZM520.853 12.1876H521.838V10.6567H520.853V12.1876ZM521.819 18.2814V16.7505H520.834V18.2814H521.819ZM525.739 30.439V28.9081H524.754V30.439H525.739ZM520.853 15.2195H521.838V13.6886H520.853V15.2195ZM524.774 21.3133H525.758V19.7824H524.774V21.3133ZM519.868 16.7505H520.853V15.2195H519.868V16.7505ZM518.883 13.7186V15.2495H519.868V13.7186H518.883ZM518.883 18.2814H519.868V16.7505H518.883V18.2814ZM523.789 22.8443H524.774V21.3133H523.789V22.8443ZM525.739 24.3752V22.8443H524.754V24.3752H525.739ZM522.804 30.439H523.789V28.9081H522.804V30.439ZM522.804 19.7824V21.3133H523.789V19.7824H522.804ZM522.804 24.3752H523.789V22.8443H522.804V24.3752ZM524.774 27.4071H525.758V25.8762H524.774V27.4071ZM523.789 28.9381H524.774V27.4071H523.789V28.9381ZM522.804 25.8762V27.4071H523.789V25.8762H522.804ZM520.853 3.06191H521.838V1.53096H520.853V3.06191ZM534.565 15.2195H535.55V13.6886H534.565V15.2195ZM534.565 21.3133H535.55V19.7824H534.565V21.3133ZM534.565 9.1257H535.55V7.59475H534.565V9.1257ZM534.565 12.1876H535.55V10.6567H534.565V12.1876ZM534.565 18.2814H535.55V16.7505H534.565V18.2814ZM534.565 30.439H535.55V28.9081H534.565V30.439ZM532.595 3.06191H533.58V1.53096H532.595V3.06191ZM534.565 24.3752H535.55V22.8443H534.565V24.3752ZM534.565 27.4071H535.55V25.8762H534.565V27.4071ZM534.565 6.09381H535.55V4.56285H534.565V6.09381ZM536.515 18.2814H537.5V16.7505H536.515V18.2814ZM536.515 15.2195H537.5V13.6886H536.515V15.2195ZM530.644 30.439H531.629V28.9081H530.644V30.439ZM536.515 21.3133H537.5V19.7824H536.515V21.3133ZM536.515 12.1876H537.5V10.6567H536.515V12.1876ZM536.515 30.439H537.5V28.9081H536.515V30.439ZM536.515 27.4071H537.5V25.8762H536.515V27.4071ZM536.515 24.3752H537.5V22.8443H536.515V24.3752ZM532.595 6.09381H533.58V4.56285H532.595V6.09381ZM530.644 12.1876H531.629V10.6567H530.644V12.1876ZM530.644 18.2814H531.629V16.7505H530.644V18.2814ZM530.644 15.2195H531.629V13.6886H530.644V15.2195ZM530.644 9.1257H531.629V7.59475H530.644V9.1257ZM530.644 6.09381H531.629V4.56285H530.644V6.09381ZM530.644 21.3133H531.629V19.7824H530.644V21.3133ZM530.644 27.4071H531.629V25.8762H530.644V27.4071ZM530.644 24.3752H531.629V22.8443H530.644V24.3752ZM532.595 12.1876H533.58V10.6567H532.595V12.1876ZM532.595 21.3133H533.58V19.7824H532.595V21.3133ZM532.595 15.2195H533.58V13.6886H532.595V15.2195ZM532.595 18.2814H533.58V16.7505H532.595V18.2814ZM532.595 9.1257H533.58V7.59475H532.595V9.1257ZM532.595 27.4071H533.58V25.8762H532.595V27.4071ZM532.595 30.439H533.58V28.9081H532.595V30.439ZM532.595 24.3752H533.58V22.8443H532.595V24.3752ZM530.644 3.06191H531.629V1.53096H530.644V3.06191ZM528.675 18.2814H529.66V16.7505H528.675V18.2814ZM492.445 27.4071V28.9381H493.43V27.4071H492.445ZM495.38 30.439H496.365V28.9081H495.38V30.439ZM493.43 28.9381V30.469H494.415V28.9381H493.43ZM489.509 28.9381V30.469H490.494V28.9381H489.509ZM491.46 30.439H492.445V28.9081H491.46V30.439ZM484.604 27.4071V28.9381H485.589V27.4071H484.604ZM485.589 28.9381V30.469H486.574V28.9381H485.589ZM487.54 30.439H488.524V28.9081H487.54V30.439ZM483.619 30.439H484.604V28.9081H483.619V30.439ZM507.141 30.439H508.126V28.9081H507.141V30.439ZM503.221 30.439H504.206V28.9081H503.221V30.439ZM501.251 28.9381V30.469H502.236V28.9381H501.251ZM504.187 27.4071V28.9381H505.172V27.4071H504.187ZM496.365 27.4071V28.9381H497.35V27.4071H496.365ZM505.172 28.9381V30.469H506.157V28.9381H505.172ZM497.331 28.9381V30.469H498.316V28.9381H497.331ZM499.301 30.439H500.286V28.9081H499.301V30.439ZM500.286 27.4071V28.9381H501.271V27.4071H500.286ZM488.524 27.4071V28.9381H489.509V27.4071H488.524ZM450.325 28.9381V27.4071H449.34V28.9381H448.355V30.469H449.34V32H450.325V30.469H451.31V28.9381H450.325ZM462.067 28.9381V27.4071H461.082V28.9381H460.097V30.469H461.082V32H462.067V30.469H463.052V28.9381H462.067ZM454.245 28.9381V27.4071H453.26V28.9381H452.275V30.469H453.26V32H454.245V30.469H455.23V28.9381H454.245ZM458.166 28.9381V27.4071H457.181V28.9381H456.196V30.469H457.181V32H458.166V30.469H459.151V28.9381H458.166ZM446.404 28.9381V27.4071H445.419V28.9381H444.435V30.469H445.419V32H446.404V30.469H447.389V28.9381H446.404ZM435.628 28.9381V30.469H434.643V32H433.658V30.469H432.673V32H431.689V30.469H430.704V32H429.719V30.469H428.734V32H427.749V30.469H426.764V32H425.779V30.469H424.794V32H423.809V30.469H422.824V32H421.839V30.469H420.854V32H419.869V30.469H418.884V32H417.9V30.469H416.915V32H415.93V30.469H414.945V32H413.96V30.469H412.975V32H411.99V30.469H411.005V32H410.02V30.469H409.035V32H408.05V30.469H407.065V32H406.08V30.469H405.096V32H404.111V30.469H403.126V32H402.141V30.469H401.156V32H400.171V30.469H399.186V32H398.201V30.469H397.216V32H396.231V30.469H395.246V32H394.261V30.469H393.276V32H392.292V30.469H391.307V32H390.322V30.469H389.337V32H388.352V30.469H387.367V32H386.382V30.469H385.397V32H384.412V30.469H383.427V32H382.442V30.469H381.457V32H378.522V30.469H377.537V32H374.601V30.469H373.617V32H370.681V30.469H369.696V32H366.761V30.469H365.776V32H362.84V30.469H361.855V32H358.92V30.469H357.935V32H355V30.469H354.015V32H351.079V30.469H350.094V32H-0.000119455V0H330.821V1.53096H331.806V0H334.741V1.53096H335.726V0H338.661V1.53096H339.646V0H342.582V1.53096H343.567V0H346.502V1.53096H347.487V0H350.423V1.53096H351.407V0H354.343V1.53096H355.328V0H358.263V1.53096H359.248V0H362.184V1.53096H363.169V0H364.154V1.53096H365.138V0H366.123V1.53096H367.108V0H368.093V1.53096H369.078V0H370.063V1.53096H371.048V0H372.033V1.53096H373.018V0H374.003V1.53096H374.988V0H375.973V1.53096H376.958V0H377.942V1.53096H378.927V0H381.863V1.53096H382.848V0H383.833V1.53096H384.818V0H385.803V1.53096H386.787V0H387.772V1.53096H388.757V0H389.742V1.53096H390.727V0H391.712V1.53096H392.697V0H393.682V1.53096H394.667V0H395.652V1.53096H396.637V0H397.622V1.53096H398.607V3.06191H397.622V4.59287H398.607V3.06191H399.591V4.59287H400.576V3.06191H399.591V1.53096H400.576V0H401.561V1.53096H402.546V3.06191H401.561V4.59287H402.546V3.06191H403.531V4.59287H404.516V3.06191H403.531V1.53096H404.516V0H405.501V1.53096H406.486V3.06191H405.501V4.59287H406.486V3.06191H407.471V4.59287H408.456V3.06191H407.471V1.53096H408.456V0H409.441V1.53096H410.426V3.06191H409.441V4.59287H410.426V3.06191H411.411V4.59287H412.396V3.06191H411.411V1.53096H412.396V0H413.38V1.53096H414.365V3.06191H413.38V4.59287H414.365V3.06191H415.35V4.59287H416.335V3.06191H415.35V1.53096H416.335V0H417.32V1.53096H418.305V3.06191H417.32V4.59287H418.305V3.06191H419.29V4.59287H420.275V6.12383H419.29V7.65479H418.305V6.12383H417.32V7.65479H418.305V9.18574H417.32V10.7167H418.305V9.18574H419.29V10.7167H420.275V9.18574H419.29V7.65479H420.275V6.12383H421.26V7.65479H422.245V9.18574H421.26V10.7167H422.245V9.18574H423.23V10.7167H424.215V12.2477H423.23V13.7786H422.245V12.2477H421.26V13.7786H422.245V15.3096H421.26V16.8405H422.245V15.3096H423.23V16.8405H424.215V15.3096H423.23V13.7786H424.215V12.2477H425.2V13.7786H426.184V15.3096H425.2V16.8405H426.184V15.3096H427.169V16.8405H428.154V18.3715H427.169V19.9024H426.184V18.3715H425.2V19.9024H426.184V21.4334H425.2V22.9644H426.184V21.4334H427.169V22.9644H428.154V21.4334H427.169V19.9024H428.154V18.3715H429.139V19.9024H430.124V21.4334H429.139V22.9644H430.124V21.4334H431.109V22.9644H432.094V24.4953H431.109V26.0263H430.124V24.4953H429.139V26.0263H430.124V27.5572H429.139V29.0882H430.124V27.5572H431.109V29.0882H432.094V27.5572H431.109V26.0263H432.094V24.4953H433.079V26.0263H434.064V27.5572H433.079V29.0882H434.064V27.5572H435.049V29.0882H436.034L435.628 28.9381ZM335.726 6.09381H334.741V7.62477H335.726V6.09381ZM339.627 12.1876H338.642V13.7186H339.627V12.1876ZM339.627 6.09381H338.642V7.62477H339.627V6.09381ZM343.547 18.2814H342.562V19.8124H343.547V18.2814ZM343.547 12.1876H342.562V13.7186H343.547V12.1876ZM343.547 6.09381H342.562V7.62477H343.547V6.09381ZM347.468 24.3752H346.483V25.9062H347.468V24.3752ZM347.468 18.2814H346.483V19.8124H347.468V18.2814ZM347.468 12.1876H346.483V13.7186H347.468V12.1876ZM347.468 6.09381H346.483V7.62477H347.468V6.09381ZM351.388 24.3752H350.403V25.9062H351.388V24.3752ZM351.388 18.2814H350.403V19.8124H351.388V18.2814ZM351.388 12.1876H350.403V13.7186H351.388V12.1876ZM351.388 6.09381H350.403V7.62477H351.388V6.09381ZM353.358 3.06191H352.373V4.59287H353.358V3.06191ZM355.309 24.3752H354.324V25.9062H355.309V24.3752ZM355.309 18.2814H354.324V19.8124H355.309V18.2814ZM355.309 12.1876H354.324V13.7186H355.309V12.1876ZM355.309 6.09381H354.324V7.62477H355.309V6.09381ZM357.259 9.1257H356.274V10.6567H357.259V9.1257ZM357.259 3.06191H356.274V4.59287H357.259V3.06191ZM359.229 24.3752H358.244V25.9062H359.229V24.3752ZM359.229 18.2814H358.244V19.8124H359.229V18.2814ZM359.229 12.1876H358.244V13.7186H359.229V12.1876ZM359.229 6.09381H358.244V7.62477H359.229V6.09381ZM361.179 15.2195H360.195V16.7505H361.179V15.2195ZM361.179 9.1257H360.195V10.6567H361.179V9.1257ZM361.179 3.06191H360.195V4.59287H361.179V3.06191ZM363.149 24.3752H362.164V25.9062H363.149V24.3752ZM363.149 18.2814H362.164V19.8124H363.149V18.2814ZM363.149 12.1876H362.164V13.7186H363.149V12.1876ZM363.149 6.09381H362.164V7.62477H363.149V6.09381ZM365.1 21.3133H364.115V22.8443H365.1V21.3133ZM365.1 15.2195H364.115V16.7505H365.1V15.2195ZM365.1 9.1257H364.115V10.6567H365.1V9.1257ZM365.1 3.06191H364.115V4.59287H365.1V3.06191ZM367.07 24.3752H366.085V25.9062H367.07V24.3752ZM367.07 18.2814H366.085V19.8124H367.07V18.2814ZM367.07 12.1876H366.085V13.7186H367.07V12.1876ZM367.07 6.09381H366.085V7.62477H367.07V6.09381ZM369.02 27.4071H368.035V28.9381H369.02V27.4071ZM369.02 21.3133H368.035V22.8443H369.02V21.3133ZM369.02 15.2195H368.035V16.7505H369.02V15.2195ZM369.02 9.1257H368.035V10.6567H369.02V9.1257ZM369.02 6.09381H368.035V7.62477H369.02V6.09381ZM369.02 3.06191H368.035V4.59287H369.02V3.06191ZM370.971 24.3752H369.986V25.9062H370.971V24.3752ZM370.971 18.2814H369.986V19.8124H370.971V18.2814ZM370.971 12.1876H369.986V13.7186H370.971V12.1876ZM370.971 6.09381H369.986V7.62477H370.971V6.09381ZM372.941 27.4071H371.956V28.9381H372.941V27.4071ZM372.941 21.3133H371.956V22.8443H372.941V21.3133ZM372.941 15.2195H371.956V16.7505H372.941V15.2195ZM372.941 12.1876H371.956V13.7186H372.941V12.1876ZM372.941 9.1257H371.956V10.6567H372.941V9.1257ZM372.941 6.09381H371.956V7.62477H372.941V6.09381ZM372.941 3.06191H371.956V4.59287H372.941V3.06191ZM374.891 24.3752H373.906V25.9062H374.891V24.3752ZM374.891 18.2814H373.906V19.8124H374.891V18.2814ZM374.891 12.1876H373.906V13.7186H374.891V12.1876ZM374.891 6.09381H373.906V7.62477H374.891V6.09381ZM376.861 27.4071H375.876V28.9381H376.861V27.4071ZM376.861 21.3133H375.876V22.8443H376.861V21.3133ZM376.861 18.2814H375.876V19.8124H376.861V18.2814ZM376.861 15.2195H375.876V16.7505H376.861V15.2195ZM376.861 12.1876H375.876V13.7186H376.861V12.1876ZM376.861 9.1257H375.876V10.6567H376.861V9.1257ZM376.861 6.09381H375.876V7.62477H376.861V6.09381ZM376.861 3.06191H375.876V4.59287H376.861V3.06191ZM378.812 24.3752H377.827V25.9062H378.812V24.3752ZM378.812 18.2814H377.827V19.8124H378.812V18.2814ZM378.812 12.1876H377.827V13.7186H378.812V12.1876ZM378.812 6.09381H377.827V7.62477H378.812V6.09381ZM380.781 27.4071H379.796V28.9381H380.781V27.4071ZM380.781 24.3752H379.796V25.9062H380.781V24.3752ZM380.781 21.3133H379.796V22.8443H380.781V21.3133ZM380.781 18.2814H379.796V19.8124H380.781V18.2814ZM380.781 15.2195H379.796V16.7505H380.781V15.2195ZM380.781 12.1876H379.796V13.7186H380.781V12.1876ZM380.781 9.1257H379.796V10.6567H380.781V9.1257ZM380.781 6.09381H379.796V7.62477H380.781V6.09381ZM380.781 3.06191H379.796V4.59287H380.781V3.06191ZM382.732 24.3752H381.747V25.9062H382.732V24.3752ZM382.732 18.2814H381.747V19.8124H382.732V18.2814ZM382.732 12.1876H381.747V13.7186H382.732V12.1876ZM382.732 6.09381H381.747V7.62477H382.732V6.09381ZM384.702 27.4071H383.717V28.9381H384.702V27.4071ZM384.702 24.3752H383.717V25.9062H384.702V24.3752ZM384.702 21.3133H383.717V22.8443H384.702V21.3133ZM384.702 18.2814H383.717V19.8124H384.702V18.2814ZM384.702 15.2195H383.717V16.7505H384.702V15.2195ZM384.702 12.1876H383.717V13.7186H384.702V12.1876ZM384.702 9.1257H383.717V10.6567H384.702V9.1257ZM384.702 6.09381H383.717V7.62477H384.702V6.09381ZM384.702 3.06191H383.717V4.59287H384.702V3.06191ZM386.652 24.3752H385.667V25.9062H386.652V24.3752ZM386.652 18.2814H385.667V19.8124H386.652V18.2814ZM386.652 12.1876H385.667V13.7186H386.652V12.1876ZM386.652 6.09381H385.667V7.62477H386.652V6.09381ZM386.652 3.06191H385.667V4.59287H386.652V3.06191ZM388.603 27.4071H387.618V28.9381H388.603V27.4071ZM388.603 24.3752H387.618V25.9062H388.603V24.3752ZM388.603 21.3133H387.618V22.8443H388.603V21.3133ZM388.603 18.2814H387.618V19.8124H388.603V18.2814ZM388.603 15.2195H387.618V16.7505H388.603V15.2195ZM388.603 12.1876H387.618V13.7186H388.603V12.1876ZM388.603 9.1257H387.618V10.6567H388.603V9.1257ZM388.603 6.09381H387.618V7.62477H388.603V6.09381ZM388.603 3.06191H387.618V4.59287H388.603V3.06191ZM390.573 24.3752H389.588V25.9062H390.573V24.3752ZM390.573 18.2814H389.588V19.8124H390.573V18.2814ZM390.573 12.1876H389.588V13.7186H390.573V12.1876ZM390.573 9.1257H389.588V10.6567H390.573V9.1257ZM390.573 6.09381H389.588V7.62477H390.573V6.09381ZM390.573 3.06191H389.588V4.59287H390.573V3.06191ZM392.523 27.4071H391.538V28.9381H392.523V27.4071ZM392.523 24.3752H391.538V25.9062H392.523V24.3752ZM392.523 21.3133H391.538V22.8443H392.523V21.3133ZM392.523 18.2814H391.538V19.8124H392.523V18.2814ZM392.523 15.2195H391.538V16.7505H392.523V15.2195ZM392.523 12.1876H391.538V13.7186H392.523V12.1876ZM392.523 9.1257H391.538V10.6567H392.523V9.1257ZM392.523 6.09381H391.538V7.62477H392.523V6.09381ZM392.523 3.06191H391.538V4.59287H392.523V3.06191ZM394.493 24.3752H393.508V25.9062H394.493V24.3752ZM394.493 18.2814H393.508V19.8124H394.493V18.2814ZM394.493 15.2195H393.508V16.7505H394.493V15.2195ZM394.493 12.1876H393.508V13.7186H394.493V12.1876ZM394.493 9.1257H393.508V10.6567H394.493V9.1257ZM394.493 6.09381H393.508V7.62477H394.493V6.09381ZM394.493 3.06191H393.508V4.59287H394.493V3.06191ZM396.444 27.4071H395.459V28.9381H396.444V27.4071ZM396.444 24.3752H395.459V25.9062H396.444V24.3752ZM396.444 21.3133H395.459V22.8443H396.444V21.3133ZM396.444 18.2814H395.459V19.8124H396.444V18.2814ZM396.444 15.2195H395.459V16.7505H396.444V15.2195ZM396.444 12.1876H395.459V13.7186H396.444V12.1876ZM396.444 9.1257H395.459V10.6567H396.444V9.1257ZM396.444 6.09381H395.459V7.62477H396.444V6.09381ZM396.444 3.06191H395.459V4.59287H396.444V3.06191ZM398.413 24.3752H397.429V25.9062H398.413V24.3752ZM398.413 21.3133H397.429V22.8443H398.413V21.3133ZM398.413 18.2814H397.429V19.8124H398.413V18.2814ZM398.413 15.2195H397.429V16.7505H398.413V15.2195ZM398.413 12.1876H397.429V13.7186H398.413V12.1876ZM398.413 9.1257H397.429V10.6567H398.413V9.1257ZM398.413 6.09381H397.429V7.62477H398.413V6.09381ZM400.364 27.4071H399.379V28.9381H400.364V27.4071ZM400.364 24.3752H399.379V25.9062H400.364V24.3752ZM400.364 21.3133H399.379V22.8443H400.364V21.3133ZM400.364 18.2814H399.379V19.8124H400.364V18.2814ZM400.364 15.2195H399.379V16.7505H400.364V15.2195ZM400.364 12.1876H399.379V13.7186H400.364V12.1876ZM400.364 9.1257H399.379V10.6567H400.364V9.1257ZM400.364 6.09381H399.379V7.62477H400.364V6.09381ZM402.334 27.4071H401.349V28.9381H402.334V27.4071ZM402.334 24.3752H401.349V25.9062H402.334V24.3752ZM402.334 21.3133H401.349V22.8443H402.334V21.3133ZM402.334 18.2814H401.349V19.8124H402.334V18.2814ZM402.334 15.2195H401.349V16.7505H402.334V15.2195ZM402.334 12.1876H401.349V13.7186H402.334V12.1876ZM404.284 27.4071H403.299V28.9381H404.284V27.4071ZM404.284 24.3752H403.299V25.9062H404.284V24.3752ZM404.284 21.3133H403.299V22.8443H404.284V21.3133ZM404.284 18.2814H403.299V19.8124H404.284V18.2814ZM404.284 15.2195H403.299V16.7505H404.284V15.2195ZM404.284 12.1876H403.299V13.7186H404.284V12.1876ZM404.284 6.09381H403.299V7.62477H402.315V6.09381H401.33V7.62477H402.315V9.15572H401.33V10.6867H402.315V9.15572H403.299V10.6867H404.284V9.15572H403.299V7.62477H404.284V6.09381ZM406.235 27.4071H405.25V28.9381H406.235V27.4071ZM406.235 24.3752H405.25V25.9062H406.235V24.3752ZM406.235 21.3133H405.25V22.8443H406.235V21.3133ZM406.235 18.2814H405.25V19.8124H406.235V18.2814ZM408.205 27.4071H407.22V28.9381H408.205V27.4071ZM408.205 24.3752H407.22V25.9062H408.205V24.3752ZM408.205 21.3133H407.22V22.8443H408.205V21.3133ZM408.205 18.2814H407.22V19.8124H408.205V18.2814ZM408.205 12.1876H407.22V13.7186H406.235V12.1876H405.25V13.7186H406.235V15.2495H405.25V16.7805H406.235V15.2495H407.22V16.7805H408.205V15.2495H407.22V13.7186H408.205V12.1876ZM408.205 6.09381H407.22V7.62477H406.235V6.09381H405.25V7.62477H406.235V9.15572H405.25V10.6867H406.235V9.15572H407.22V10.6867H408.205V9.15572H407.22V7.62477H408.205V6.09381ZM410.155 27.4071H409.17V28.9381H410.155V27.4071ZM410.155 24.3752H409.17V25.9062H410.155V24.3752ZM412.125 27.4071H411.14V28.9381H412.125V27.4071ZM412.125 24.3752H411.14V25.9062H412.125V24.3752ZM412.125 18.2814H411.14V19.8124H410.155V18.2814H409.17V19.8124H410.155V21.3433H409.17V22.8743H410.155V21.3433H411.14V22.8743H412.125V21.3433H411.14V19.8124H412.125V18.2814ZM412.125 12.1876H411.14V13.7186H410.155V12.1876H409.17V13.7186H410.155V15.2495H409.17V16.7805H410.155V15.2495H411.14V16.7805H412.125V15.2495H411.14V13.7186H412.125V12.1876ZM412.125 6.09381H411.14V7.62477H410.155V6.09381H409.17V7.62477H410.155V9.15572H409.17V10.6867H410.155V9.15572H411.14V10.6867H412.125V9.15572H411.14V7.62477H412.125V6.09381ZM416.046 24.3752H415.061V25.9062H414.076V24.3752H413.091V25.9062H414.076V27.4372H413.091V28.9681H414.076V27.4372H415.061V28.9681H416.046V27.4372H415.061V25.9062H416.046V24.3752ZM416.046 18.2814H415.061V19.8124H414.076V18.2814H413.091V19.8124H414.076V21.3433H413.091V22.8743H414.076V21.3433H415.061V22.8743H416.046V21.3433H415.061V19.8124H416.046V18.2814ZM416.046 12.1876H415.061V13.7186H414.076V12.1876H413.091V13.7186H414.076V15.2495H413.091V16.7805H414.076V15.2495H415.061V16.7805H416.046V15.2495H415.061V13.7186H416.046V12.1876ZM416.046 6.09381H415.061V7.62477H414.076V6.09381H413.091V7.62477H414.076V9.15572H413.091V10.6867H414.076V9.15572H415.061V10.6867H416.046V9.15572H415.061V7.62477H416.046V6.09381ZM419.966 24.3752H418.981V25.9062H417.996V24.3752H417.011V25.9062H417.996V27.4372H417.011V28.9681H417.996V27.4372H418.981V28.9681H419.966V27.4372H418.981V25.9062H419.966V24.3752ZM419.966 18.2814H418.981V19.8124H417.996V18.2814H417.011V19.8124H417.996V21.3433H417.011V22.8743H417.996V21.3433H418.981V22.8743H419.966V21.3433H418.981V19.8124H419.966V18.2814ZM419.966 12.1876H418.981V13.7186H417.996V12.1876H417.011V13.7186H417.996V15.2495H417.011V16.7805H417.996V15.2495H418.981V16.7805H419.966V15.2495H418.981V13.7186H419.966V12.1876ZM423.867 24.3752H422.882V25.9062H421.897V24.3752H420.912V25.9062H421.897V27.4372H420.912V28.9681H421.897V27.4372H422.882V28.9681H423.867V27.4372H422.882V25.9062H423.867V24.3752ZM423.867 18.2814H422.882V19.8124H421.897V18.2814H420.912V19.8124H421.897V21.3433H420.912V22.8743H421.897V21.3433H422.882V22.8743H423.867V21.3433H422.882V19.8124H423.867V18.2814ZM427.787 24.3752H426.802V25.9062H425.818V24.3752H424.833V25.9062H425.818V27.4372H424.833V28.9681H425.818V27.4372H426.802V28.9681H427.787V27.4372H426.802V25.9062H427.787V24.3752ZM438.564 28.9381V27.4071H437.579V28.9381H436.594V30.469H437.579V32H438.564V30.469H439.549V28.9381H438.564ZM520.853 21.3133H521.838V19.7824H520.853V21.3133ZM442.484 28.9381V27.4071H441.499V28.9381H440.514V30.469H441.499V32H442.484V30.469H443.469V28.9381H442.484ZM475.798 28.9381V30.469H476.783V28.9381H475.798ZM473.828 28.9381V30.469H474.813V28.9381H473.828ZM477.748 28.9381V30.469H478.733V28.9381H477.748ZM479.699 28.9381V30.469H480.684V28.9381H479.699ZM469.907 28.9381V30.469H470.892V28.9381H469.907ZM467.957 28.9381V30.469H468.942V28.9381H467.957ZM471.877 28.9381V30.469H472.862V28.9381H471.877ZM465.987 28.9381V27.4071H465.002V28.9381H464.017V30.469H465.002V32H465.987V30.469H466.972V28.9381H465.987ZM481.669 28.9381V30.469H482.654V28.9381H481.669ZM514.963 7.62477V9.15572H515.948V7.62477H514.963ZM516.933 6.09381H517.918V4.56285H516.933V6.09381ZM516.933 9.1257H517.918V7.59475H516.933V9.1257ZM521.819 30.439V28.9081H520.834V30.439H521.819ZM516.933 3.06191H517.918V1.53096H516.933V3.06191ZM516.933 15.2195H517.918V13.6886H516.933V15.2195ZM517.918 12.1876V10.6567H516.933V12.1876H517.918ZM514.963 12.1876H515.948V10.6567H514.963V12.1876ZM508.107 27.4071V28.9381H509.092V27.4071H508.107ZM518.883 30.439H519.868V28.9081H518.883V30.439ZM519.868 22.8443H520.853V21.3133H519.868V22.8443ZM521.819 24.3752V22.8443H520.834V24.3752H521.819ZM518.883 24.3752H519.868V22.8443H518.883V24.3752ZM514.963 13.7186V15.2495H515.948V13.7186H514.963ZM518.883 19.7824V21.3133H519.868V19.7824H518.883ZM520.853 27.4071H521.838V25.8762H520.853V27.4071ZM519.868 28.9381H520.853V27.4071H519.868V28.9381ZM518.883 25.8762V27.4071H519.868V25.8762H518.883ZM515.948 10.6567H516.933V9.1257H515.948V10.6567ZM513.012 28.9381V30.469H513.997V28.9381H513.012ZM514.963 30.439H515.948V28.9081H514.963V30.439ZM513.997 25.8762H513.012V27.4071H513.997V25.8762ZM515.948 28.9381H516.933V27.4071H515.948V28.9381ZM509.092 28.9381V30.469H510.077V28.9381H509.092ZM515.948 16.7505H516.933V15.2195H515.948V16.7505ZM512.027 27.4071V28.9381H513.012V27.4071H512.027ZM511.062 30.439H512.047V28.9081H511.062V30.439ZM514.963 25.8762V27.4071H515.948V25.8762H514.963ZM516.933 21.3133H517.918V19.7824H516.933V21.3133ZM517.918 18.2814V16.7505H516.933V18.2814H517.918ZM514.963 19.7824V21.3133H515.948V19.7824H514.963ZM514.963 18.2814H515.948V16.7505H514.963V18.2814ZM516.933 27.4071H517.918V25.8762H516.933V27.4071ZM515.948 22.8443H516.933V21.3133H515.948V22.8443ZM517.918 24.3752V22.8443H516.933V24.3752H517.918ZM514.963 24.3752H515.948V22.8443H514.963V24.3752ZM571.78 15.2195H572.764V13.6886H571.78V15.2195ZM563.939 21.3133H564.924V19.7824H563.939V21.3133ZM563.939 15.2195H564.924V13.6886H563.939V15.2195ZM563.939 9.1257H564.924V7.59475H563.939V9.1257ZM563.939 27.4071H564.924V25.8762H563.939V27.4071ZM563.939 30.439H564.924V28.9081H563.939V30.439ZM561.988 12.1876H562.973V10.6567H561.988V12.1876ZM563.939 3.06191H564.924V1.53096H563.939V3.06191ZM561.988 18.2814H562.973V16.7505H561.988V18.2814ZM561.988 6.09381H562.973V4.56285H561.988V6.09381ZM567.859 9.1257H568.844V7.59475H567.859V9.1257ZM565.909 30.439H566.894V28.9081H565.909V30.439ZM565.909 6.09381H566.894V4.56285H565.909V6.09381ZM567.859 21.3133H568.844V19.7824H567.859V21.3133ZM567.859 15.2195H568.844V13.6886H567.859V15.2195ZM567.859 27.4071H568.844V25.8762H567.859V27.4071ZM565.909 24.3752H566.894V22.8443H565.909V24.3752ZM565.909 18.2814H566.894V16.7505H565.909V18.2814ZM565.909 12.1876H566.894V10.6567H565.909V12.1876ZM561.988 24.3752H562.973V22.8443H561.988V24.3752ZM558.068 12.1876H559.053V10.6567H558.068V12.1876ZM558.068 24.3752H559.053V22.8443H558.068V24.3752ZM561.988 30.439H562.973V28.9081H561.988V30.439ZM558.068 18.2814H559.053V16.7505H558.068V18.2814ZM556.117 3.06191H557.102V1.53096H556.117V3.06191ZM556.117 18.2814H557.102V16.7505H556.117V18.2814ZM556.117 15.2195H557.102V13.6886H556.117V15.2195ZM556.117 9.1257H557.102V7.59475H556.117V9.1257ZM558.068 30.439H559.053V28.9081H558.068V30.439ZM560.038 15.2195H561.023V13.6886H560.038V15.2195ZM558.068 6.09381H559.053V4.56285H558.068V6.09381ZM560.038 3.06191H561.023V1.53096H560.038V3.06191ZM560.038 21.3133H561.023V19.7824H560.038V21.3133ZM560.038 9.1257H561.023V7.59475H560.038V9.1257ZM560.038 24.3752H561.023V22.8443H560.038V24.3752ZM560.038 30.439H561.023V28.9081H560.038V30.439ZM560.038 27.4071H561.023V25.8762H560.038V27.4071ZM573.749 6.09381H574.734V4.56285H573.749V6.09381ZM581.571 12.1876H582.556V10.6567H581.571V12.1876ZM581.571 6.09381H582.556V4.56285H581.571V6.09381ZM585.491 30.439H586.476V28.9081H585.491V30.439ZM581.571 18.2814H582.556V16.7505H581.571V18.2814ZM577.651 6.09381H578.635V4.56285H577.651V6.09381ZM585.491 24.3752H586.476V22.8443H585.491V24.3752ZM581.571 24.3752H582.556V22.8443H581.571V24.3752ZM579.62 27.4071H580.605V25.8762H579.62V27.4071ZM581.571 30.439H582.556V28.9081H581.571V30.439ZM569.829 30.439H570.814V28.9081H569.829V30.439ZM593.332 30.439H594.317V28.9081H593.332V30.439ZM593.332 24.3752H594.317V22.8443H593.332V24.3752ZM597.252 28.9381V30.469H598.237V28.9381H597.252ZM585.491 18.2814H586.476V16.7505H585.491V18.2814ZM589.412 18.2814H590.397V16.7505H589.412V18.2814ZM577.651 12.1876H578.635V10.6567H577.651V12.1876ZM589.412 30.439H590.397V28.9081H589.412V30.439ZM589.412 24.3752H590.397V22.8443H589.412V24.3752ZM585.491 12.1876H586.476V10.6567H585.491V12.1876ZM571.78 27.4071H572.764V25.8762H571.78V27.4071ZM571.78 21.3133H572.764V19.7824H571.78V21.3133ZM569.829 6.09381H570.814V4.56285H569.829V6.09381ZM419.966 3.06191V4.59287H420.951V3.06191H421.936V1.53096H420.951V0H419.966V1.53096H418.981V3.06191H419.966ZM569.829 24.3752H570.814V22.8443H569.829V24.3752ZM573.749 30.439H574.734V28.9081H573.749V30.439ZM569.829 12.1876H570.814V10.6567H569.829V12.1876ZM569.829 18.2814H570.814V16.7505H569.829V18.2814ZM556.117 21.3133H557.102V19.7824H556.117V21.3133ZM575.7 21.3133H576.685V19.7824H575.7V21.3133ZM577.651 30.439H578.635V28.9081H577.651V30.439ZM577.651 24.3752H578.635V22.8443H577.651V24.3752ZM575.7 27.4071H576.685V25.8762H575.7V27.4071ZM573.749 24.3752H574.734V22.8443H573.749V24.3752ZM577.651 18.2814H578.635V16.7505H577.651V18.2814ZM573.749 18.2814H574.734V16.7505H573.749V18.2814ZM573.749 12.1876H574.734V10.6567H573.749V12.1876ZM542.406 24.3752H543.391V22.8443H542.406V24.3752ZM542.406 12.1876H543.391V10.6567H542.406V12.1876ZM542.406 18.2814H543.391V16.7505H542.406V18.2814ZM542.406 6.09381H543.391V4.56285H542.406V6.09381ZM542.406 21.3133H543.391V19.7824H542.406V21.3133ZM544.356 30.439H545.341V28.9081H544.356V30.439ZM540.436 3.06191H541.421V1.53096H540.436V3.06191ZM542.406 30.439H543.391V28.9081H542.406V30.439ZM542.406 27.4071H543.391V25.8762H542.406V27.4071ZM536.515 6.09381H537.5V4.56285H536.515V6.09381ZM544.356 15.2195H545.341V13.6886H544.356V15.2195ZM544.356 12.1876H545.341V10.6567H544.356V12.1876ZM544.356 9.1257H545.341V7.59475H544.356V9.1257ZM544.356 6.09381H545.341V4.56285H544.356V6.09381ZM540.436 6.09381H541.421V4.56285H540.436V6.09381ZM544.356 21.3133H545.341V19.7824H544.356V21.3133ZM544.356 24.3752H545.341V22.8443H544.356V24.3752ZM544.356 18.2814H545.341V16.7505H544.356V18.2814ZM544.356 27.4071H545.341V25.8762H544.356V27.4071ZM538.485 6.09381H539.47V4.56285H538.485V6.09381ZM538.485 18.2814H539.47V16.7505H538.485V18.2814ZM538.485 21.3133H539.47V19.7824H538.485V21.3133ZM538.485 15.2195H539.47V13.6886H538.485V15.2195ZM538.485 24.3752H539.47V22.8443H538.485V24.3752ZM536.515 3.06191H537.5V1.53096H536.515V3.06191ZM538.485 12.1876H539.47V10.6567H538.485V12.1876ZM538.485 30.439H539.47V28.9081H538.485V30.439ZM538.485 27.4071H539.47V25.8762H538.485V27.4071ZM556.117 24.3752H557.102V22.8443H556.117V24.3752ZM540.436 9.1257H541.421V7.59475H540.436V9.1257ZM540.436 15.2195H541.421V13.6886H540.436V15.2195ZM540.436 18.2814H541.421V16.7505H540.436V18.2814ZM540.436 12.1876H541.421V10.6567H540.436V12.1876ZM540.436 21.3133H541.421V19.7824H540.436V21.3133ZM540.436 30.439H541.421V28.9081H540.436V30.439ZM540.436 27.4071H541.421V25.8762H540.436V27.4071ZM540.436 24.3752H541.421V22.8443H540.436V24.3752ZM544.356 3.06191H545.341V1.53096H544.356V3.06191ZM552.197 15.2195H553.182V13.6886H552.197V15.2195ZM552.197 18.2814H553.182V16.7505H552.197V18.2814ZM552.197 21.3133H553.182V19.7824H552.197V21.3133ZM552.197 12.1876H553.182V10.6567H552.197V12.1876ZM550.227 6.09381H551.212V4.56285H550.227V6.09381ZM552.197 30.439H553.182V28.9081H552.197V30.439ZM552.197 9.1257H553.182V7.59475H552.197V9.1257ZM550.227 12.1876H551.212V10.6567H550.227V12.1876ZM552.197 24.3752H553.182V22.8443H552.197V24.3752ZM552.197 27.4071H553.182V25.8762H552.197V27.4071ZM556.117 30.439H557.102V28.9081H556.117V30.439ZM554.147 6.09381H555.132V4.56285H554.147V6.09381ZM552.197 3.06191H553.182V1.53096H552.197V3.06191ZM554.147 12.1876H555.132V10.6567H554.147V12.1876ZM556.117 27.4071H557.102V25.8762H556.117V27.4071ZM554.147 18.2814H555.132V16.7505H554.147V18.2814ZM554.147 30.439H555.132V28.9081H554.147V30.439ZM554.147 24.3752H555.132V22.8443H554.147V24.3752ZM548.277 9.1257H549.261V7.59475H548.277V9.1257ZM546.307 12.1876H547.292V10.6567H546.307V12.1876ZM546.307 6.09381H547.292V4.56285H546.307V6.09381ZM548.277 30.439H549.261V28.9081H548.277V30.439ZM548.277 24.3752H549.261V22.8443H548.277V24.3752ZM548.277 27.4071H549.261V25.8762H548.277V27.4071ZM546.307 27.4071H547.292V25.8762H546.307V27.4071ZM546.307 24.3752H547.292V22.8443H546.307V24.3752ZM546.307 18.2814H547.292V16.7505H546.307V18.2814ZM548.277 3.06191H549.261V1.53096H548.277V3.06191ZM548.277 6.09381H549.261V4.56285H548.277V6.09381ZM550.227 24.3752H551.212V22.8443H550.227V24.3752ZM550.227 30.439H551.212V28.9081H550.227V30.439ZM546.307 30.439H547.292V28.9081H546.307V30.439ZM548.277 15.2195H549.261V13.6886H548.277V15.2195ZM548.277 18.2814H549.261V16.7505H548.277V18.2814ZM548.277 12.1876H549.261V10.6567H548.277V12.1876ZM548.277 21.3133H549.261V19.7824H548.277V21.3133ZM497.331 27.4071H498.316V25.8762H497.331V27.4071ZM451.31 24.3752V22.8443H450.325V21.3133H449.34V22.8443H448.355V24.3752H449.34V25.9062H450.325V24.3752H451.31ZM447.389 24.3752V22.8443H446.404V21.3133H445.419V22.8443H444.435V24.3752H445.419V25.9062H446.404V24.3752H447.389ZM457.181 6.09381V4.56285H456.196V6.09381H457.181ZM447.389 24.3752V25.9062H448.374V24.3752H447.389ZM442.484 22.8443V21.3133H441.499V22.8443H440.514V24.3752H441.499V25.9062H442.484V24.3752H443.469V22.8443H442.484ZM432.693 15.2195H433.678V13.6886H432.693V12.1576H431.708V13.6886H430.723V15.2195H431.708V16.7505H432.693V15.2195ZM430.723 12.1876H431.708V10.6567H430.723V9.1257H429.738V10.6567H428.753V12.1876H429.738V13.7186H430.723V12.1876ZM436.613 21.3133H437.598V19.7824H436.613V18.2514H435.628V19.7824H434.643V21.3133H435.628V22.8443H436.613V21.3133ZM434.643 18.2814H435.628V16.7505H434.643V15.2195H433.658V16.7505H432.673V18.2814H433.658V19.8124H434.643V18.2814ZM465.021 24.3752V25.9062H466.006V24.3752H465.021ZM463.052 24.3752V22.8443H462.067V21.3133H461.082V22.8443H460.097V24.3752H461.082V25.9062H462.067V24.3752H463.052ZM463.052 24.3752V25.9062H464.036V24.3752H463.052ZM428.772 9.1257H429.757V7.59475H428.772V6.06379H427.787V7.59475H426.802V9.1257H427.787V10.6567H428.772V9.1257ZM451.31 24.3752V25.9062H452.295V24.3752H451.31ZM459.131 24.3752V25.9062H460.116V24.3752H459.131ZM455.211 24.3752V22.8443H454.226V21.3133H453.241V22.8443H452.256V24.3752H453.241V25.9062H454.226V24.3752H455.211ZM459.131 24.3752V22.8443H458.146V21.3133H457.161V22.8443H456.176V24.3752H457.161V25.9062H458.146V24.3752H459.131ZM455.211 24.3752V25.9062H456.196V24.3752H455.211ZM436.613 7.62477V6.09381H435.628V7.62477H436.613ZM451.31 9.1257V7.59475H450.325V9.1257H451.31ZM448.355 7.62477V6.09381H447.37V7.62477H448.355ZM448.355 9.1257H449.34V7.59475H448.355V9.1257ZM431.708 9.1257V10.6567H432.693V9.1257H433.678V7.59475H432.693V6.06379H431.708V7.59475H430.723V9.1257H431.708ZM452.275 7.62477V6.09381H451.29V7.62477H452.275ZM455.211 6.09381V4.56285H454.226V6.09381H455.211ZM453.26 6.09381V4.56285H452.275V6.09381H453.26ZM444.454 9.1257H445.439V7.59475H444.454V9.1257ZM447.389 9.1257V7.59475H446.404V9.1257H447.389ZM436.613 9.1257H437.598V7.59475H436.613V9.1257ZM444.454 7.62477V6.09381H443.469V7.62477H444.454ZM439.549 9.1257V7.59475H438.564V9.1257H439.549ZM435.628 9.1257V7.59475H434.643V9.1257H435.628ZM467.957 24.3752H466.972V25.9062H467.957V24.3752ZM440.533 7.62477V6.09381H439.549V7.62477H440.533ZM494.395 6.09381V4.56285H493.41V6.09381H494.395ZM440.533 9.1257H441.518V7.59475H440.533V9.1257ZM438.564 22.8443V21.3133H437.579V22.8443H436.594V24.3752H437.579V25.9062H438.564V24.3752H439.549V22.8443H438.564ZM502.236 19.7824H501.251V21.3133H502.236V19.7824ZM503.221 24.3752H504.206V22.8443H503.221V24.3752ZM501.251 22.8443V24.3752H502.236V22.8443H501.251ZM503.221 19.7824V18.2514H502.236V19.7824H503.221ZM504.187 21.3133V19.7824H503.202V21.3133H504.187ZM500.286 21.3133V22.8443H501.271V21.3133H500.286ZM497.331 22.8443V24.3752H498.316V22.8443H497.331ZM495.38 24.3752H496.365V22.8443H495.38V24.3752ZM499.301 24.3752H500.286V22.8443H499.301V24.3752ZM496.365 21.3133V22.8443H497.35V21.3133H496.365ZM497.331 10.6567V9.1257H496.346V10.6567H497.331ZM496.365 9.1257V7.59475H495.38V9.1257H496.365ZM502.236 18.2814V16.7505H501.251V18.2814H502.236ZM498.316 12.1876V10.6567H497.331V12.1876H498.316ZM495.38 7.62477V6.09381H494.395V7.62477H495.38ZM501.251 16.7505V15.2195H500.266V16.7505H501.251ZM499.301 13.7186V12.1876H498.316V13.7186H499.301ZM500.286 15.2195V13.6886H499.301V15.2195H500.286ZM479.699 25.8762V27.4071H480.684V25.8762H479.699ZM467.957 25.8762V27.4071H468.942V25.8762H467.957ZM482.654 25.8762H483.638V24.3452H482.654V25.8762ZM475.798 25.8762V27.4071H476.783V25.8762H475.798ZM481.669 27.4071H482.654V25.8762H481.669V27.4071ZM477.748 25.8762V27.4071H478.733V25.8762H477.748ZM469.907 25.8762V27.4071H470.892V25.8762H469.907ZM471.877 25.8762V27.4071H472.862V25.8762H471.877ZM473.828 25.8762V27.4071H474.813V25.8762H473.828ZM492.445 21.3133V22.8443H493.43V21.3133H492.445ZM491.46 24.3752H492.445V22.8443H491.46V24.3752ZM489.509 22.8443V24.3752H490.494V22.8443H489.509ZM488.524 21.3133V22.8443H489.509V21.3133H488.524ZM493.43 22.8443V24.3752H494.415V22.8443H493.43ZM485.589 22.8443V24.3752H486.574V22.8443H485.589ZM484.604 21.3133V22.8443H485.589V21.3133H484.604ZM483.619 24.3752H484.604V22.8443H483.619V24.3752ZM487.54 24.3752H488.524V22.8443H487.54V24.3752ZM443.469 9.1257V7.59475H442.484V9.1257H443.469ZM468.942 24.3752V25.9062H469.927V24.3752H468.942ZM470.892 24.3752V25.9062H471.877V24.3752H470.892ZM474.813 24.3752V25.9062H475.798V24.3752H474.813ZM472.843 24.3752V25.9062H473.828V24.3752H472.843ZM468.942 22.8443H467.957V24.3752H468.942V22.8443ZM463.052 19.7824H462.067V21.3133H463.052V19.7824ZM464.036 21.3133H463.052V22.8443H464.036V21.3133ZM460.116 19.7824V21.3133H461.101V19.7824H460.116ZM489.509 19.7824V21.3133H490.494V19.7824H489.509ZM465.987 22.8443V24.3752H466.972V22.8443H465.987ZM483.619 19.7824V21.3133H484.604V19.7824H483.619ZM459.131 6.09381V4.56285H458.146V6.09381H459.131ZM482.654 22.8443H483.638V21.3133H482.654V22.8443ZM487.54 19.7824V21.3133H488.524V19.7824H487.54ZM478.733 25.8762H479.718V24.3452H478.733V25.8762ZM480.684 21.3133V22.8443H481.669V21.3133H480.684ZM476.763 24.3752V25.9062H477.748V24.3752H476.763ZM479.699 24.3752H480.684V22.8443H479.699V24.3752ZM464.036 22.8443V24.3752H465.021V22.8443H464.036ZM444.454 19.7824V21.3133H445.439V19.7824H444.454ZM443.469 19.7824H442.484V21.3133H443.469V19.7824ZM447.389 21.3133V22.8443H448.374V21.3133H447.389ZM447.389 19.7824H446.404V21.3133H447.389V19.7824ZM443.469 21.3133V22.8443H444.454V21.3133H443.469ZM459.131 21.3133V22.8443H460.116V21.3133H459.131ZM440.533 19.7824V18.2514H439.549V19.7824H438.564V21.3133H439.549V22.8443H440.533V21.3133H441.518V19.7824H440.533ZM438.564 18.2814H439.549V16.7505H438.564V15.2195H437.579V16.7505H436.594V18.2814H437.579V19.8124H438.564V18.2814ZM436.613 15.2195H437.598V13.6886H436.613V12.1576H435.628V13.6886H434.643V15.2195H435.628V16.7505H436.613V15.2195ZM455.211 21.3133V22.8443H456.196V21.3133H455.211ZM448.355 19.7824V21.3133H449.34V19.7824H448.355ZM455.211 19.7824H454.226V21.3133H455.211V19.7824ZM459.131 19.7824H458.146V21.3133H459.131V19.7824ZM456.196 19.7824V21.3133H457.181V19.7824H456.196ZM452.275 19.7824V21.3133H453.26V19.7824H452.275ZM451.31 19.7824H450.325V21.3133H451.31V19.7824ZM451.31 21.3133V22.8443H452.295V21.3133H451.31ZM485.589 19.7824V21.3133H486.574V19.7824H485.589ZM476.763 9.1257V7.59475H475.778V9.1257H476.763ZM474.813 7.62477H473.828V9.15572H474.813V7.62477ZM473.828 10.6567V9.1257H472.843V10.6567H473.828ZM477.748 10.6567V9.1257H476.763V10.6567H477.748ZM478.733 7.62477H477.748V9.15572H478.733V7.62477ZM472.843 9.1257V7.59475H471.858V9.1257H472.843ZM481.669 10.6567V9.1257H480.684V10.6567H481.669ZM482.654 7.62477H481.669V9.15572H482.654V7.62477ZM480.684 9.1257V7.59475H479.699V9.1257H480.684ZM469.907 10.6567V9.1257H468.923V10.6567H469.907ZM470.892 7.62477H469.907V9.15572H470.892V7.62477ZM465.987 7.62477V6.09381H465.002V7.62477H465.987ZM463.052 6.09381V4.56285H462.067V6.09381H463.052ZM461.101 6.09381V4.56285H460.116V6.09381H461.101ZM464.036 7.62477V6.09381H463.052V7.62477H464.036ZM484.604 9.1257V7.59475H483.619V9.1257H484.604ZM467.957 7.62477V6.09381H466.972V7.62477H467.957ZM468.942 9.1257V7.59475H467.957V9.1257H468.942ZM490.475 7.62477H489.49V9.15572H490.475V7.62477ZM495.38 19.7824V21.3133H496.365V19.7824H495.38ZM497.331 21.3133H498.316V19.7824H497.331V21.3133ZM498.316 18.2814V16.7505H497.331V18.2814H498.316ZM497.331 16.7505V15.2195H496.346V16.7505H497.331ZM496.365 16.7505H495.38V18.2814H496.365V16.7505ZM496.365 15.2195V13.6886H495.38V15.2195H496.365ZM493.43 21.3133H494.415V19.7824H493.43V21.3133ZM494.395 18.2814V19.8124H495.38V18.2814H494.395ZM491.46 19.7824V21.3133H492.445V19.7824H491.46ZM489.509 10.6567V9.1257H488.524V10.6567H489.509ZM488.524 9.1257V7.59475H487.54V9.1257H488.524ZM486.555 7.62477H485.57V9.15572H486.555V7.62477ZM485.589 10.6567V9.1257H484.604V10.6567H485.589ZM492.445 9.1257V7.59475H491.46V9.1257H492.445ZM494.395 12.1876V10.6567H493.41V12.1876H494.395ZM493.43 10.6567V9.1257H492.445V10.6567H493.43ZM495.38 13.7186V12.1876H494.395V13.7186H495.38ZM451.31 27.4071V28.9381H452.295V27.4071H451.31ZM502.236 12.1876V10.6567H501.251V12.1876H502.236ZM499.301 7.62477V6.09381H498.316V7.62477H499.301ZM503.221 13.7186V12.1876H502.236V13.7186H503.221ZM500.286 9.1257V7.59475H499.301V9.1257H500.286ZM501.251 10.6567V9.1257H500.266V10.6567H501.251ZM506.157 18.2814V16.7505H505.172V18.2814H506.157ZM507.141 19.7824V18.2514H506.157V19.7824H507.141ZM508.107 21.3133V19.7824H507.122V21.3133H508.107ZM504.187 15.2195V13.6886H503.202V15.2195H504.187ZM505.172 16.7505V15.2195H504.187V16.7505H505.172ZM493.43 4.56285V3.0319H492.445V4.56285H493.43ZM490.475 1.53096H489.49V3.06191H490.475V1.53096ZM492.445 3.06191V1.53096H491.46V3.06191H492.445ZM489.509 4.56285V3.0319H488.524V4.56285H489.509ZM497.331 4.56285V3.0319H496.346V4.56285H497.331ZM494.395 1.53096H493.41V3.06191H494.395V1.53096ZM488.524 3.06191V1.53096H487.54V3.06191H488.524ZM496.365 3.06191V1.53096H495.38V3.06191H496.365ZM498.316 6.09381V4.56285H497.331V6.09381H498.316ZM498.316 24.3752V25.9062H499.301V24.3752H498.316ZM501.251 27.4071H502.236V25.8762H501.251V27.4071ZM434.643 12.1876H435.628V10.6567H434.643V9.1257H433.658V10.6567H432.673V12.1876H433.658V13.7186H434.643V12.1876ZM499.301 25.8762V27.4071H500.286V25.8762H499.301ZM495.38 25.8762V27.4071H496.365V25.8762H495.38ZM493.43 25.8762V27.4071H494.415V25.8762H493.43ZM489.509 25.8762V27.4071H490.494V25.8762H489.509ZM491.46 25.8762V27.4071H492.445V25.8762H491.46ZM507.141 25.8762V27.4071H508.126V25.8762H507.141ZM508.107 22.8443H507.122V24.3752H508.107V22.8443ZM509.092 27.4071H510.077V25.8762H509.092V27.4071ZM509.092 22.8443V21.3133H508.107V22.8443H509.092ZM510.077 24.3752V22.8443H509.092V24.3752H510.077ZM505.172 27.4071H506.157V25.8762H505.172V27.4071ZM503.221 25.8762V27.4071H504.206V25.8762H503.221ZM506.157 24.3752V25.9062H507.141V24.3752H506.157ZM502.236 24.3752V25.9062H503.221V24.3752H502.236ZM461.101 3.06191V1.53096H460.116V3.06191H461.101ZM449.34 3.06191V1.53096H448.355V3.06191H449.34ZM453.26 3.06191V1.53096H452.275V3.06191H453.26ZM451.31 3.06191V1.53096H450.325V3.06191H451.31ZM486.555 1.53096H485.57V3.06191H486.555V1.53096ZM457.181 3.06191V1.53096H456.196V3.06191H457.181ZM459.131 3.06191V1.53096H458.146V3.06191H459.131ZM463.052 3.06191V1.53096H462.067V3.06191H463.052ZM487.54 25.8762V27.4071H488.524V25.8762H487.54ZM445.419 3.06191V1.53096H444.435V3.06191H445.419ZM455.211 3.06191V1.53096H454.226V3.06191H455.211ZM443.469 3.06191V1.53096H442.484V3.06191H443.469ZM435.628 3.06191V1.53096H434.643V3.06191H435.628ZM433.678 3.06191V1.53096H432.693V3.06191H433.678ZM427.787 3.06191V4.59287H428.772V3.06191H429.757V1.53096H428.772V0H427.787V1.53096H426.802V3.06191H427.787ZM431.708 3.06191V1.53096H430.723V3.06191H431.708ZM437.579 3.06191V1.53096H436.594V3.06191H437.579ZM441.499 3.06191V1.53096H440.514V3.06191H441.499ZM439.549 3.06191V1.53096H438.564V3.06191H439.549ZM447.389 3.06191V1.53096H446.404V3.06191H447.389ZM480.684 3.06191V1.53096H479.699V3.06191H480.684ZM476.763 3.06191V1.53096H475.778V3.06191H476.763ZM477.748 4.56285V3.0319H476.763V4.56285H477.748ZM481.669 4.56285V3.0319H480.684V4.56285H481.669ZM492.445 4.56285H491.46V6.09381H492.445V4.56285ZM485.589 4.56285V3.0319H484.604V4.56285H485.589ZM482.654 1.53096H481.669V3.06191H482.654V1.53096ZM484.604 3.06191V1.53096H483.619V3.06191H484.604ZM473.828 4.56285V3.0319H472.843V4.56285H473.828ZM468.942 3.06191V1.53096H467.957V3.06191H468.942ZM474.813 1.53096H473.828V3.06191H474.813V1.53096ZM465.987 4.56285V3.0319H465.002V4.56285H465.987ZM469.907 4.56285V3.0319H468.923V4.56285H469.907ZM466.972 1.53096H465.987V3.06191H466.972V1.53096ZM465.021 3.06191V1.53096H464.036V3.06191H465.021ZM472.843 3.06191V1.53096H471.858V3.06191H472.843ZM470.892 1.53096H469.907V3.06191H470.892V1.53096ZM478.733 1.53096H477.748V3.06191H478.733V1.53096ZM452.275 4.56285V3.0319H451.29V4.56285H452.275ZM448.355 4.56285V6.09381H449.34V7.62477H450.325V6.09381H451.31V4.56285H450.325V3.0319H449.34V4.56285H448.355ZM444.454 4.56285V6.09381H445.439V7.62477H446.424V6.09381H447.409V4.56285H446.424V3.0319H445.439V4.56285H444.454ZM454.245 4.56285V3.0319H453.26V4.56285H454.245ZM464.036 4.56285V3.0319H463.052V4.56285H464.036ZM460.116 4.56285V3.0319H459.131V4.56285H460.116ZM456.196 4.56285V3.0319H455.211V4.56285H456.196ZM462.067 4.56285V3.0319H461.082V4.56285H462.067ZM458.166 4.56285V3.0319H457.181V4.56285H458.166ZM448.355 4.56285V3.0319H447.37V4.56285H448.355ZM432.693 4.56285V3.0319H431.708V4.56285H432.693ZM432.693 4.56285V6.09381H433.678V7.62477H434.663V6.09381H435.647V4.56285H434.663V3.0319H433.678V4.56285H432.693ZM436.613 4.56285V3.0319H435.628V4.56285H436.613ZM444.454 4.56285V3.0319H443.469V4.56285H444.454ZM429.757 6.09381V7.62477H430.742V6.09381H431.727V4.56285H430.742V3.0319H429.757V4.56285H428.772V6.09381H429.757ZM440.533 4.56285V6.09381H441.518V7.62477H442.503V6.09381H443.488V4.56285H442.503V3.0319H441.518V4.56285H440.533ZM436.613 4.56285V6.09381H437.598V7.62477H438.583V6.09381H439.568V4.56285H438.583V3.0319H437.598V4.56285H436.613ZM440.533 4.56285V3.0319H439.549V4.56285H440.533ZM483.619 7.62477V6.09381H482.634V7.62477H483.619ZM482.654 6.09381V4.56285H481.669V6.09381H482.654ZM486.555 6.09381V4.56285H485.57V6.09381H486.555ZM487.54 7.62477V6.09381H486.555V7.62477H487.54ZM425.837 6.09381V7.62477H426.822V6.09381H427.807V4.56285H426.822V3.0319H425.837V4.56285H424.852V6.09381H425.837ZM484.604 4.56285H483.619V6.09381H484.604V4.56285ZM488.524 4.56285H487.54V6.09381H488.524V4.56285ZM491.46 7.62477V6.09381H490.475V7.62477H491.46ZM490.475 6.09381V4.56285H489.49V6.09381H490.475ZM476.763 6.09381V4.56285H475.778V6.09381H476.763ZM470.892 6.09381V4.56285H469.907V6.09381H470.892ZM468.942 6.09381V4.56285H467.957V6.09381H468.942ZM472.843 6.09381V4.56285H471.858V6.09381H472.843ZM466.972 6.09381V4.56285H465.987V6.09381H466.972ZM478.733 6.09381V4.56285H477.748V6.09381H478.733ZM480.684 6.09381V4.56285H479.699V6.09381H480.684ZM474.813 6.09381V4.56285H473.828V6.09381H474.813ZM465.021 6.09381V4.56285H464.036V6.09381H465.021ZM456.196 25.8762V27.4071H457.181V25.8762H456.196ZM464.036 25.8762V27.4071H465.021V25.8762H464.036ZM463.052 27.4071V28.9381H464.036V27.4071H463.052ZM466.972 25.8762H465.987V27.4071H466.972V25.8762ZM468.942 27.4071V28.9381H469.927V27.4071H468.942ZM466.972 27.4071V28.9381H467.957V27.4071H466.972ZM463.052 25.8762H462.067V27.4071H463.052V25.8762ZM459.131 25.8762H458.146V27.4071H459.131V25.8762ZM459.131 27.4071V28.9381H460.116V27.4071H459.131ZM460.116 25.8762V27.4071H461.101V25.8762H460.116ZM478.733 27.4071V28.9381H479.718V27.4071H478.733ZM422.901 6.09381H423.886V4.56285H422.901V3.0319H421.917V4.56285H420.932V6.09381H421.917V7.62477H422.901V6.09381ZM482.654 28.9381H483.638V27.4071H482.654V28.9381ZM485.589 25.8762V27.4071H486.574V25.8762H485.589ZM483.619 25.8762V27.4071H484.604V25.8762H483.619ZM472.843 27.4071V28.9381H473.828V27.4071H472.843ZM470.892 27.4071V28.9381H471.877V27.4071H470.892ZM474.813 27.4071V28.9381H475.798V27.4071H474.813ZM476.763 27.4071V28.9381H477.748V27.4071H476.763ZM480.684 27.4071V28.9381H481.669V27.4071H480.684ZM434.643 24.3752H435.628V22.8443H434.643V21.3133H433.658V22.8443H432.673V24.3752H433.658V25.9062H434.643V24.3752ZM455.211 27.4071V28.9381H456.196V27.4071H455.211ZM440.533 25.8762V24.3452H439.549V25.8762H438.564V27.4071H439.549V28.9381H440.533V27.4071H441.518V25.8762H440.533ZM436.613 25.8762V24.3452H435.628V25.8762H434.643V27.4071H435.628V28.9381H436.613V27.4071H437.598V25.8762H436.613ZM432.693 21.3133H433.678V19.7824H432.693V18.2514H431.708V19.7824H430.723V21.3133H431.708V22.8443H432.693V21.3133ZM428.772 15.2195H429.757V13.6886H428.772V12.1576H427.787V13.6886H426.802V15.2195H427.787V16.7505H428.772V15.2195ZM424.852 9.1257H425.837V7.59475H424.852V6.06379H423.867V7.59475H422.882V9.1257H423.867V10.6567H424.852V9.1257ZM426.822 12.1876H427.807V10.6567H426.822V9.1257H425.837V10.6567H424.852V12.1876H425.837V13.7186H426.822V12.1876ZM430.723 18.2814H431.708V16.7505H430.723V15.2195H429.738V16.7505H428.753V18.2814H429.738V19.8124H430.723V18.2814ZM451.31 25.8762H450.325V27.4071H451.31V25.8762ZM452.275 25.8762V27.4071H453.26V25.8762H452.275ZM423.867 3.06191V4.59287H424.852V3.06191H425.837V1.53096H424.852V0H423.867V1.53096H422.882V3.06191H423.867ZM455.211 25.8762H454.226V27.4071H455.211V25.8762ZM447.389 27.4071V28.9381H448.374V27.4071H447.389ZM448.355 25.8762V27.4071H449.34V25.8762H448.355ZM447.389 25.8762H446.404V27.4071H447.389V25.8762ZM444.454 25.8762V24.3452H443.469V25.8762H442.484V27.4071H443.469V28.9381H444.454V27.4071H445.439V25.8762H444.454Z" fill="#ECECEC"/>
</svg>
