<svg width="24" height="24" viewBox="0 0 24 24" fill="none" xmlns="http://www.w3.org/2000/svg">
<g clip-path="url(#clip0_554_15091)">
<path d="M21.714 3.43127H20.574V22.8563H21.714V3.43127Z" fill="#010715"/>
<path d="M20.574 2.28369H19.4265V3.43119H20.574V2.28369Z" fill="#010715"/>
<path d="M19.4266 1.14368H18.2866V2.28368H19.4266V1.14368Z" fill="#010715"/>
<path d="M19.4251 5.71119H18.2851V4.57494H17.1451V3.43119H15.9976V2.28369H2.28906V23.9999H19.4251V5.71119ZM18.2851 22.8562H3.42906V3.43119H13.7116V7.99869H18.2866L18.2851 22.8562Z" fill="#010715"/>
<path d="M18.2865 -0.00378418H3.42896V1.14372H18.2865V-0.00378418Z" fill="#010715"/>
<path d="M15.9991 19.4287H5.71655V20.5687H15.9991V19.4287Z" fill="#010715"/>
<path d="M15.9991 14.8538H5.71655V16.0013H15.9991V14.8538Z" fill="#010715"/>
<path d="M15.9991 10.2863H5.71655V11.4263H15.9991V10.2863Z" fill="#010715"/>
<path d="M10.2841 5.71118H5.71655V6.85868H10.2841V5.71118Z" fill="#010715"/>
</g>
<defs>
<clipPath id="clip0_554_15091">
<rect width="24" height="24" fill="white"/>
</clipPath>
</defs>
</svg>
