<svg width="24" height="24" viewBox="0 0 24 24" fill="none" xmlns="http://www.w3.org/2000/svg">
<g clip-path="url(#clip0_610_50826)">
<path d="M0.57373 12.57H2.85373V11.43H4.00123V10.2825H5.14123V9.1425H6.28873V8.0025H7.42873V6.855H8.56873V5.715H9.71623V4.5675H10.8562V3.4275H13.1437V4.5675H14.2837V5.715H15.4312V6.855H16.5712V8.0025H17.7112V9.1425H18.8587V10.2825H19.9987V11.43H21.1387V12.57H23.4262V10.2825H22.2862V9.1425H21.1387V8.0025H19.9987V6.855H18.8587V5.715H17.7112V4.5675H16.5712V3.4275H15.4312V2.2875H14.2837V1.14H13.1437V0H10.8562V1.14H9.71623V2.2875H8.56873V3.4275H7.42873V4.5675H6.28873V5.715H5.14123V6.855H4.00123V8.0025H2.85373V9.1425H1.71373V10.2825H0.57373V12.57Z" fill="#010715"/>
<path d="M19.9987 22.86H15.4312V17.145H14.2837V24H21.1387V13.71H19.9987V22.86Z" fill="#010715"/>
<path d="M19.9986 12.5699H18.8586V13.7099H19.9986V12.5699Z" fill="#010715"/>
<path d="M18.8587 11.4301H17.7112V12.5701H18.8587V11.4301Z" fill="#010715"/>
<path d="M17.7113 10.2825H16.5713V11.43H17.7113V10.2825Z" fill="#010715"/>
<path d="M16.5712 9.14246H15.4312V10.2825H16.5712V9.14246Z" fill="#010715"/>
<path d="M15.4312 8.00244H14.2837V9.14244H15.4312V8.00244Z" fill="#010715"/>
<path d="M14.2838 15.9976H13.1438V17.1451H14.2838V15.9976Z" fill="#010715"/>
<path d="M14.2838 6.85498H13.1438V8.00248H14.2838V6.85498Z" fill="#010715"/>
<path d="M13.1437 14.8575H10.8562V15.9975H13.1437V14.8575Z" fill="#010715"/>
<path d="M13.1437 5.71497H10.8562V6.85497H13.1437V5.71497Z" fill="#010715"/>
<path d="M10.8563 15.9976H9.71631V17.1451H10.8563V15.9976Z" fill="#010715"/>
<path d="M10.8563 6.85498H9.71631V8.00248H10.8563V6.85498Z" fill="#010715"/>
<path d="M9.71626 17.145H8.56876V22.86H4.00126V13.71H2.85376V24H9.71626V17.145Z" fill="#010715"/>
<path d="M9.71635 8.00244H8.56885V9.14244H9.71635V8.00244Z" fill="#010715"/>
<path d="M8.56871 9.14246H7.42871V10.2825H8.56871V9.14246Z" fill="#010715"/>
<path d="M7.42882 10.2825H6.28882V11.43H7.42882V10.2825Z" fill="#010715"/>
<path d="M6.28861 11.4301H5.14111V12.5701H6.28861V11.4301Z" fill="#010715"/>
<path d="M5.14122 12.5699H4.00122V13.7099H5.14122V12.5699Z" fill="#010715"/>
</g>
<defs>
<clipPath id="clip0_610_50826">
<rect width="24" height="24" fill="white"/>
</clipPath>
</defs>
</svg>
