<svg width="24" height="24" viewBox="0 0 24 24" fill="none" xmlns="http://www.w3.org/2000/svg">
<g clip-path="url(#clip0_554_15260)">
<path d="M22.8599 19.4251H21.7124V20.5726H23.9999V15.9976H22.8599V19.4251Z" fill="#010715"/>
<path d="M21.7124 3.42749V4.56749H22.8599V8.00249H23.9999V3.42749H21.7124Z" fill="#010715"/>
<path d="M22.8599 14.8575H21.7124V15.9975H22.8599V14.8575Z" fill="#010715"/>
<path d="M22.8599 8.00244H21.7124V9.14244H22.8599V8.00244Z" fill="#010715"/>
<path d="M21.7125 18.285H20.5725V19.425H21.7125V18.285Z" fill="#010715"/>
<path d="M21.7125 4.5675H20.5725V5.715H21.7125V4.5675Z" fill="#010715"/>
<path d="M17.1449 17.145V20.5725H18.2849V21.7125H19.4324V22.86H16.0049V24H21.7124V21.7125H20.5724V20.5725H19.4324V18.285H20.5724V17.145H17.1449Z" fill="#010715"/>
<path d="M21.7125 9.14246H17.145V10.2825H21.7125V9.14246Z" fill="#010715"/>
<path d="M19.4324 2.28748H18.2849V3.42748H19.4324V2.28748Z" fill="#010715"/>
<path d="M17.145 6.85499H20.5725V5.71499H18.285V3.42749H17.145V6.85499Z" fill="#010715"/>
<path d="M19.4324 1.14V2.2875H20.5724V0H16.0049V1.14H19.4324Z" fill="#010715"/>
<path d="M16.0049 21.7125H14.8574V22.86H16.0049V21.7125Z" fill="#010715"/>
<path d="M16.0049 14.8575H14.8574V15.9975H16.0049V14.8575Z" fill="#010715"/>
<path d="M14.8575 9.1425H13.7175V6.855H11.43V2.2875H10.29V1.14H9.14249V0H3.42749V2.2875H4.57499V1.14H8.00249V2.2875H9.14249V6.855H10.29V8.0025H11.43V9.1425H12.57V10.2825H13.7175V11.43H14.8575V12.57H16.005V13.71H17.145V14.8575H21.7125V13.71H18.285V12.57H17.145V10.2825H14.8575V9.1425Z" fill="#010715"/>
<path d="M16.0049 1.14001H14.8574V2.28751H16.0049V1.14001Z" fill="#010715"/>
<path d="M14.8575 17.145H13.7175V21.7125H14.8575V17.145Z" fill="#010715"/>
<path d="M14.8575 13.71H13.7175V14.8575H14.8575V13.71Z" fill="#010715"/>
<path d="M14.8575 2.28748H13.7175V6.85498H14.8575V2.28748Z" fill="#010715"/>
<path d="M13.7176 15.9976H12.5701V17.1451H13.7176V15.9976Z" fill="#010715"/>
<path d="M13.7176 12.5699H12.5701V13.7099H13.7176V12.5699Z" fill="#010715"/>
<path d="M12.5699 14.8575H11.4299V15.9975H12.5699V14.8575Z" fill="#010715"/>
<path d="M12.5699 11.4301H11.4299V12.5701H12.5699V11.4301Z" fill="#010715"/>
<path d="M11.43 15.9976H10.29V17.1451H11.43V15.9976Z" fill="#010715"/>
<path d="M11.43 13.71H10.29V14.8575H11.43V13.71Z" fill="#010715"/>
<path d="M11.43 10.2825H10.29V11.43H11.43V10.2825Z" fill="#010715"/>
<path d="M10.2901 17.145H9.14258V21.7125H10.2901V17.145Z" fill="#010715"/>
<path d="M10.2901 12.5699H9.14258V13.7099H10.2901V12.5699Z" fill="#010715"/>
<path d="M10.2901 9.14246H9.14258V10.2825H10.2901V9.14246Z" fill="#010715"/>
<path d="M9.14244 21.7125H8.00244V22.86H9.14244V21.7125Z" fill="#010715"/>
<path d="M9.14244 11.4301H8.00244V12.5701H9.14244V11.4301Z" fill="#010715"/>
<path d="M9.14244 8.00244H8.00244V9.14244H9.14244V8.00244Z" fill="#010715"/>
<path d="M8.00255 12.5699H6.86255V13.7099H8.00255V12.5699Z" fill="#010715"/>
<path d="M8.00255 10.2825H6.86255V11.43H8.00255V10.2825Z" fill="#010715"/>
<path d="M4.57499 22.86V21.7125H3.42749V24H8.00249V22.86H4.57499Z" fill="#010715"/>
<path d="M6.86249 17.145H3.42749V18.285H5.71499V20.5725H6.86249V17.145Z" fill="#010715"/>
<path d="M6.8626 9.14246H2.2876V10.2825H6.8626V9.14246Z" fill="#010715"/>
<path d="M5.71495 20.5725H4.57495V21.7125H5.71495V20.5725Z" fill="#010715"/>
<path d="M5.71495 2.28748H4.57495V3.42748H5.71495V2.28748Z" fill="#010715"/>
<path d="M6.8626 13.71H2.2876V14.8575H6.8626V13.71Z" fill="#010715"/>
<path d="M6.86249 6.85499V3.42749H5.71499V5.71499H3.42749V6.85499H6.86249Z" fill="#010715"/>
<path d="M3.4276 18.285H2.2876V19.425H3.4276V18.285Z" fill="#010715"/>
<path d="M3.4276 4.5675H2.2876V5.715H3.4276V4.5675Z" fill="#010715"/>
<path d="M2.28746 14.8575H1.14746V15.9975H2.28746V14.8575Z" fill="#010715"/>
<path d="M2.28746 8.00244H1.14746V9.14244H2.28746V8.00244Z" fill="#010715"/>
<path d="M1.1475 15.9976H0V20.5726H2.2875V19.4251H1.1475V15.9976Z" fill="#010715"/>
<path d="M1.1475 4.56749H2.2875V3.42749H0V8.00249H1.1475V4.56749Z" fill="#010715"/>
</g>
<defs>
<clipPath id="clip0_554_15260">
<rect width="24" height="24" fill="white"/>
</clipPath>
</defs>
</svg>
