<svg width="24" height="24" viewBox="0 0 24 24" fill="none" xmlns="http://www.w3.org/2000/svg">
<g clip-path="url(#clip0_554_15137)">
<path d="M23.4261 3.42749H22.2861V6.85499H23.4261V3.42749Z" fill="#010715"/>
<path d="M22.2862 14.85H21.1462V21.7125H22.2862V14.85Z" fill="#010715"/>
<path d="M22.2862 2.28003H21.1462V3.42753H22.2862V2.28003Z" fill="#010715"/>
<path d="M21.1463 21.7125H19.9988V22.8525H21.1463V21.7125Z" fill="#010715"/>
<path d="M21.1463 12.5699H19.9988V14.8499H21.1463V12.5699Z" fill="#010715"/>
<path d="M22.2861 6.85498H18.8586V7.99498H22.2861V6.85498Z" fill="#010715"/>
<path d="M21.1463 1.14001H19.9988V2.28001H21.1463V1.14001Z" fill="#010715"/>
<path d="M19.9986 11.4225H18.8586V12.57H19.9986V11.4225Z" fill="#010715"/>
<path d="M19.9987 22.8525H4.00122V24H19.9987V22.8525Z" fill="#010715"/>
<path d="M18.8588 4.5675H17.7188V6.85501H18.8588V4.5675Z" fill="#010715"/>
<path d="M17.7188 3.42749H6.28882V4.56749H17.7188V3.42749Z" fill="#010715"/>
<path d="M16.5712 14.85H15.4312V19.425H16.5712V14.85Z" fill="#010715"/>
<path d="M15.4312 19.425H14.2837V20.565H15.4312V19.425Z" fill="#010715"/>
<path d="M15.4312 13.71H14.2837V14.85H15.4312V13.71Z" fill="#010715"/>
<path d="M14.2838 20.5649H9.71631V21.7124H14.2838V20.5649Z" fill="#010715"/>
<path d="M13.1438 14.85H10.8563V15.9975H9.71631V18.285H10.8563V19.425H13.1438V18.285H14.2838V15.9975H13.1438V14.85Z" fill="#010715"/>
<path d="M14.2838 12.5699H9.71631V13.7099H14.2838V12.5699Z" fill="#010715"/>
<path d="M9.71617 19.425H8.57617V20.565H9.71617V19.425Z" fill="#010715"/>
<path d="M9.71617 13.71H8.57617V14.85H9.71617V13.71Z" fill="#010715"/>
<path d="M8.57621 14.85H7.42871V19.425H8.57621V14.85Z" fill="#010715"/>
<path d="M7.42861 9.14249H9.71611V11.4225H14.2836V9.14249H16.5711V11.4225H18.8586V10.2825H17.7186V7.995H13.1436V10.2825H10.8561V7.995H6.28861V10.2825H5.14111V11.4225H7.42861V9.14249Z" fill="#010715"/>
<path d="M6.28861 4.5675H5.14111V6.85501H6.28861V4.5675Z" fill="#010715"/>
<path d="M19.9987 0H4.00122V1.14H19.9987V0Z" fill="#010715"/>
<path d="M5.14122 11.4225H4.00122V12.57H5.14122V11.4225Z" fill="#010715"/>
<path d="M4.00133 21.7125H2.86133V22.8525H4.00133V21.7125Z" fill="#010715"/>
<path d="M4.00133 12.5699H2.86133V14.8499H4.00133V12.5699Z" fill="#010715"/>
<path d="M5.14112 6.85498H1.71362V7.99498H5.14112V6.85498Z" fill="#010715"/>
<path d="M4.00133 1.14001H2.86133V2.28001H4.00133V1.14001Z" fill="#010715"/>
<path d="M2.86112 14.85H1.71362V21.7125H2.86112V14.85Z" fill="#010715"/>
<path d="M2.86112 2.28003H1.71362V3.42753H2.86112V2.28003Z" fill="#010715"/>
<path d="M1.71373 3.42749H0.57373V6.85499H1.71373V3.42749Z" fill="#010715"/>
</g>
<defs>
<clipPath id="clip0_554_15137">
<rect width="24" height="24" fill="white"/>
</clipPath>
</defs>
</svg>
