<svg width="256" height="30" viewBox="0 0 256 30" fill="none" xmlns="http://www.w3.org/2000/svg">
<path d="M189.587 1.43527H189.192V0H189.587V1.43527ZM211.986 9.99062H211.59V11.4259H211.986V9.99062ZM213.558 14.2683V12.833H213.163V14.2683H213.558ZM213.163 17.1388H213.558V15.7036H213.163V17.1388ZM218.664 8.55535H218.269V9.99062H218.664V8.55535ZM219.059 7.14822H218.664V8.58349H219.059V7.14822ZM208.057 21.4165H208.453V19.9812H208.057V21.4165ZM184.086 0H183.691V1.43527H184.086V0ZM191.16 0H190.765V1.43527H191.16V0ZM213.163 12.8612V11.4259H212.768V12.8612H213.163ZM188.797 0H188.402V1.43527H188.797V0ZM217.882 7.14822V8.58349H218.277V7.14822H217.882ZM187.232 0H186.837V1.43527H187.232V0ZM212.768 11.4259V9.99062H212.373V11.4259H212.768ZM190.37 0H189.974V1.43527H190.37V0ZM220.632 12.8612H220.237V14.2964H220.632V12.8612ZM185.659 0H185.264V1.43527H185.659V0ZM190.765 29.9719H191.16V28.5366H190.765V29.9719ZM176.222 0H175.827V1.43527H176.222V0ZM177.795 0H177.4V1.43527H177.795V0ZM210.413 11.4259V9.99062H210.018V11.4259H210.413ZM195.483 29.9719H195.878V28.5366H195.483V29.9719ZM192.337 29.9719H192.733V28.5366H192.337V29.9719ZM193.91 29.9719H194.305V28.5366H193.91V29.9719ZM211.195 11.4259V9.99062H210.8V11.4259H211.195ZM209.63 11.4259V9.99062H209.235V11.4259H209.63ZM211.59 12.8612V11.4259H211.195V12.8612H211.59ZM182.513 0H182.118V1.43527H182.513V0ZM180.941 0H180.546V1.43527H180.941V0ZM207.662 22.8518H208.057V21.4165H207.662V22.8518ZM218.269 9.99062H217.874V11.4259H218.269V9.99062ZM206.88 21.4165V22.8518H207.275V21.4165H206.88ZM219.454 12.8612V14.2964H219.849V12.8612H219.454ZM179.368 0H178.973V1.43527H179.368V0ZM219.059 12.8612H218.664V14.2964H219.059V12.8612ZM219.059 11.4259V9.99062H218.664V11.4259H219.059ZM213.163 0H212.768V1.43527H213.163V0ZM208.84 11.4259V9.99062H208.445V11.4259H208.84ZM211.986 14.2683V12.833H211.59V14.2683H211.986ZM205.307 0H204.912V1.43527H205.307V0ZM202.161 0H201.766V1.43527H202.161V0ZM211.195 15.7036H211.59V14.2683H211.195V15.7036ZM203.734 0H203.339V1.43527H203.734V0ZM199.806 0H199.411V1.43527H199.806V0ZM211.195 12.8612H210.8V14.2964H211.195V12.8612ZM201.371 0H200.976V1.43527H201.371V0ZM216.309 1.43527V2.87054H216.704V1.43527H216.309ZM200.589 0H200.194V1.43527H200.589V0ZM211.59 0H211.195V1.43527H211.59V0ZM214.736 0H214.341V1.43527H214.736V0ZM210.018 0H209.622V1.43527H210.018V0ZM210.018 17.1388H210.413V15.7036H210.018V17.1388ZM215.914 1.43527H215.518V2.87054H215.914V1.43527ZM206.88 0H206.485V1.43527H206.88V0ZM208.445 0H208.05V1.43527H208.445V0ZM209.63 18.546H210.025V17.1107H209.63V18.546ZM210.413 14.2683V15.7036H210.808V14.2683H210.413ZM217.486 1.43527H217.091V2.87054H217.486V1.43527ZM211.986 14.2683V15.7036H212.381V14.2683H211.986ZM193.515 0H193.12V1.43527H193.515V0ZM208.445 18.546V19.9812H208.84V18.546H208.445ZM195.088 0H194.693V1.43527H195.088V0ZM195.87 0H195.475V1.43527H195.87V0ZM194.305 0H193.91V1.43527H194.305V0ZM212.768 12.8612H212.373V14.2964H212.768V12.8612ZM192.733 0H192.337V1.43527H192.733V0ZM217.486 7.14822H217.091V8.58349H217.486V7.14822ZM216.704 4.27767H216.309V5.71295H216.704V4.27767ZM198.233 0H197.838V1.43527H198.233V0ZM211.59 17.1388H211.986V15.7036H211.59V17.1388ZM210.808 15.7036V17.1388H211.203V15.7036H210.808ZM212.381 15.7036V17.1388H212.776V15.7036H212.381ZM199.016 0H198.621V1.43527H199.016V0ZM217.091 2.87054H216.696V4.30582H217.091V2.87054ZM217.486 5.71295V4.27767H217.091V5.71295H217.486ZM197.443 0H197.048V1.43527H197.443V0ZM196.661 0H196.266V1.43527H196.661V0ZM209.235 19.9812H209.63V18.546H209.235V19.9812ZM191.942 0H191.547V1.43527H191.942V0ZM222.205 5.71295V4.27767H221.81V5.71295H222.205ZM222.205 11.4259V9.99062H221.81V11.4259H222.205ZM221.414 4.27767H221.019V5.71295H221.414V4.27767ZM221.027 7.14822V8.58349H221.422V7.14822H221.027ZM222.205 7.14822H221.81V8.58349H222.205V7.14822ZM221.81 8.55535H221.414V9.99062H221.81V8.55535ZM220.237 2.87054H219.842V4.30582H220.237V2.87054ZM221.027 1.43527V2.87054H221.422V1.43527H221.027ZM195.87 9.99062V8.55535H195.475V9.99062H195.87ZM194.305 9.99062V11.4259H194.701V12.8612H195.096V11.4259H195.491V9.99062H195.096V8.55535H194.701V9.99062H194.305ZM222.205 1.43527H221.81V2.87054H222.205V1.43527ZM221.81 2.87054H221.414V4.30582H221.81V2.87054ZM197.056 29.9719H197.451V28.5366H197.056V29.9719ZM221.414 15.7036H221.019V17.1388H221.414V15.7036ZM198.233 7.14822V5.71295H197.838V7.14822H198.233ZM219.454 1.43527V2.87054H219.849V1.43527H219.454ZM220.632 1.43527H220.237V2.87054H220.632V1.43527ZM222.205 17.1388V15.7036H221.81V17.1388H222.205ZM222.987 4.27767H222.592V5.71295H222.987V4.27767ZM221.027 12.8612V14.2964H221.422V12.8612H221.027ZM221.414 9.99062H221.019V11.4259H221.414V9.99062ZM197.838 8.55535V7.12008H197.443V8.55535H197.838ZM222.205 12.8612H221.81V14.2964H222.205V12.8612ZM197.443 9.99062V8.55535H197.048V9.99062H197.443ZM195.87 9.99062V11.4259H196.266V12.8612H196.661V11.4259H197.056V9.99062H196.661V8.55535H196.266V9.99062H195.87ZM227.706 18.546H227.31V19.9812H227.706V18.546ZM227.706 15.7036H227.31V17.1388H227.706V15.7036ZM191.16 9.99062V11.4259H191.555V12.8612H191.95V11.4259H192.345V9.99062H191.95V8.55535H191.555V9.99062H191.16ZM226.133 1.43527H225.738V2.87054H226.133V1.43527ZM227.706 21.4165H227.31V22.8518H227.706V21.4165ZM227.706 9.99062H227.31V11.4259H227.706V9.99062ZM227.706 4.27767H227.31V5.71295H227.706V4.27767ZM227.706 1.43527H227.31V2.87054H227.706V1.43527ZM227.706 12.8612H227.31V14.2964H227.706V12.8612ZM227.706 7.14822H227.31V8.58349H227.706V7.14822ZM226.133 4.27767H225.738V5.71295H226.133V4.27767ZM226.133 15.7036H225.738V17.1388H226.133V15.7036ZM224.56 1.43527H224.165V2.87054H224.56V1.43527ZM224.56 7.14822H224.165V8.58349H224.56V7.14822ZM224.56 4.27767H224.165V5.71295H224.56V4.27767ZM224.56 9.99062H224.165V11.4259H224.56V9.99062ZM194.305 9.99062V8.55535H193.91V9.99062H194.305ZM192.733 9.99062V11.4259H193.128V12.8612H193.523V11.4259H193.918V9.99062H193.523V8.55535H193.128V9.99062H192.733ZM192.733 9.99062V8.55535H192.337V9.99062H192.733ZM226.133 7.14822H225.738V8.58349H226.133V7.14822ZM226.133 9.99062H225.738V11.4259H226.133V9.99062ZM222.987 1.43527H222.592V2.87054H222.987V1.43527ZM226.133 12.8612H225.738V14.2964H226.133V12.8612ZM221.81 14.2683H221.414V15.7036H221.81V14.2683ZM204.129 11.4259V9.99062H203.734V11.4259H204.129ZM208.057 29.9719H208.453V28.5366H208.057V29.9719ZM207.267 29.9719H207.662V28.5366H207.267V29.9719ZM204.912 11.4259V9.99062H204.517V11.4259H204.912ZM206.485 29.9719H206.88V28.5366H206.485V29.9719ZM208.84 29.9719H209.235V28.5366H208.84V29.9719ZM203.339 8.55535V7.12008H202.944V8.55535H203.339ZM212.768 29.9719H213.163V28.5366H212.768V29.9719ZM203.734 9.99062V8.55535H203.339V9.99062H203.734ZM211.195 29.9719H211.59V28.5366H211.195V29.9719ZM209.63 29.9719H210.025V28.5366H209.63V29.9719ZM214.341 29.9719H214.736V28.5366H214.341V29.9719ZM201.766 29.9719H202.161V28.5366H201.766V29.9719ZM200.194 29.9719H200.589V28.5366H200.194V29.9719ZM202.557 14.2683V12.833H202.161V14.2683H202.557ZM198.621 29.9719H199.016V28.5366H198.621V29.9719ZM208.057 11.4259V9.99062H207.662V11.4259H208.057ZM204.129 29.9719H204.525V28.5366H204.129V29.9719ZM204.912 29.9719H205.307V28.5366H204.912V29.9719ZM205.694 11.4259V9.99062H205.299V11.4259H205.694ZM203.339 29.9719H203.734V28.5366H203.339V29.9719ZM206.485 11.4259V9.99062H206.09V11.4259H206.485ZM205.694 29.9719H206.09V28.5366H205.694V29.9719ZM219.842 9.99062H219.447V11.4259H219.842V9.99062ZM200.589 7.14822V5.71295H200.194V7.14822H200.589ZM220.237 8.55535H219.842V9.99062H220.237V8.55535ZM220.632 11.4259V9.99062H220.237V11.4259H220.632ZM217.882 1.43527V2.87054H218.277V1.43527H217.882ZM199.016 7.14822V5.71295H198.621V7.14822H199.016ZM220.632 7.14822H220.237V8.58349H220.632V7.14822ZM220.632 5.71295V4.27767H220.237V5.71295H220.632ZM219.842 4.27767H219.447V5.71295H219.842V4.27767ZM219.059 1.43527H218.664V2.87054H219.059V1.43527ZM219.454 7.14822V8.58349H219.849V7.14822H219.454ZM199.806 7.14822V5.71295H199.411V7.14822H199.806ZM215.914 29.9719H216.309V28.5366H215.914V29.9719ZM202.557 8.55535V7.12008H202.161V8.55535H202.557ZM220.632 29.9719H221.027V28.5366H220.632V29.9719ZM217.486 29.9719H217.882V28.5366H217.486V29.9719ZM201.371 7.14822V5.71295H200.976V7.14822H201.371ZM222.205 29.9719H222.6V28.5366H222.205V29.9719ZM219.059 29.9719H219.454V28.5366H219.059V29.9719ZM218.664 2.87054H218.269V4.30582H218.664V2.87054ZM223.777 28.5366V27.1013H223.382V28.5366H223.777ZM219.059 5.71295V4.27767H218.664V5.71295H219.059ZM201.766 8.55535V7.12008H201.371V8.55535H201.766ZM218.269 4.27767H217.874V5.71295H218.269V4.27767ZM207.267 11.4259V9.99062H206.872V11.4259H207.267ZM197.443 12.8612V11.4259H197.048V12.8612H197.443ZM207.267 21.4165H207.662V19.9812H207.267V21.4165ZM201.766 14.2683V15.7036H202.161V14.2683H201.766ZM205.307 17.1388H204.912V18.5741H205.307V17.1388ZM197.838 11.4259V12.8612H198.233V11.4259H198.629V9.99062H198.233V8.55535H197.838V9.99062H197.443V11.4259H197.838ZM206.485 19.9812V21.4165H206.88V19.9812H206.485ZM212.768 18.546H213.163V17.1107H212.768V18.546ZM213.953 15.7036V14.2683H213.558V15.7036H213.953ZM211.195 21.4165H211.59V19.9812H211.195V21.4165ZM197.056 14.2683V12.833H196.661V14.2683H197.056ZM214.341 17.1388V15.7036H213.946V17.1388H214.341ZM208.445 11.4259H208.05V12.8612H208.445V11.4259ZM206.09 18.546V17.1107H205.694V18.546H206.09ZM206.88 11.4259H206.485V12.8612H206.88V11.4259ZM220.237 14.2683H219.842V15.7036H220.237V14.2683ZM207.662 19.9812H208.057V18.546H207.662V19.9812ZM210.018 11.4259H209.622V12.8612H210.018V11.4259ZM210.413 14.2683V12.833H210.018V14.2683H210.413ZM199.411 8.55535V7.12008H199.016V8.55535H199.411ZM198.621 8.55535V7.12008H198.226V8.55535H198.621ZM208.057 18.546H208.453V17.1107H208.057V18.546ZM200.984 14.2683V15.7036H201.379V14.2683H200.984ZM206.09 18.546V19.9812H206.485V18.546H206.09ZM204.912 18.546H204.517V19.9812H204.912V18.546ZM204.912 19.9812V21.4165H205.307V19.9812H204.912ZM193.91 14.2683V15.7036H194.305V14.2683H193.91ZM195.483 14.2683V12.833H195.088V14.2683H195.483ZM194.305 12.8612V11.4259H193.91V12.8612H194.305ZM195.87 12.8612V11.4259H195.475V12.8612H195.87ZM209.235 22.8518H209.63V21.4165H209.235V22.8518ZM206.485 18.546H206.88V17.1107H206.485V18.546ZM194.305 14.2683H194.701V12.833H194.305V14.2683ZM195.87 14.2683H196.266V12.833H195.87V14.2683ZM208.445 8.55535H208.05V9.99062H208.445V8.55535ZM206.88 8.55535H206.485V9.99062H206.88V8.55535ZM213.558 9.99062H213.163V11.4259H213.558V9.99062ZM210.018 8.55535H209.622V9.99062H210.018V8.55535ZM205.307 8.55535H204.912V9.99062H205.307V8.55535ZM205.307 18.546V19.9812H205.702V18.546H205.307ZM195.483 14.2683V15.7036H195.878V14.2683H195.483ZM214.341 12.8612H213.946V14.2964H214.341V12.8612ZM191.16 9.99062V8.55535H190.765V9.99062H191.16ZM205.694 19.9812V21.4165H206.09V19.9812H205.694ZM211.195 18.546H211.59V17.1107H211.195V18.546ZM202.161 12.8612V11.4259H201.766V12.8612H202.161ZM207.267 19.9812V18.546H206.872V19.9812H207.267ZM203.339 17.1388V18.5741H203.734V17.1388H203.339ZM207.267 14.2683V12.833H206.872V14.2683H207.267ZM204.517 15.7036V14.2683H204.122V15.7036H204.517ZM208.057 17.1388V15.7036H207.662V17.1388H208.057ZM203.734 15.7036V17.1388H204.129V15.7036H203.734ZM205.307 12.8612V11.4259H204.912V12.8612H205.307ZM204.517 12.8612V11.4259H204.122V12.8612H204.517ZM207.267 17.1388V15.7036H206.872V17.1388H207.267ZM201.371 12.8612V14.2964H201.766V12.8612H201.371ZM203.339 15.7036H202.944V17.1388H203.339V15.7036ZM199.411 11.4259V12.8612H199.806V11.4259H199.411ZM202.944 14.2683H202.549V15.7036H202.944V14.2683ZM206.09 15.7036V14.2683H205.694V15.7036H206.09ZM208.445 14.2683H208.05V15.7036H208.445V14.2683ZM205.694 14.2683V12.833H205.299V14.2683H205.694ZM199.411 9.99062H199.016V11.4259H199.411V9.99062ZM206.485 12.8612H206.09V14.2964H206.485V12.8612ZM200.194 11.4259V9.99062H199.798V11.4259H200.194ZM203.734 15.7036V14.2683H203.339V15.7036H203.734ZM209.63 12.8612H209.235V14.2964H209.63V12.8612ZM208.445 17.1388H208.84V15.7036H208.445V17.1388ZM209.235 15.7036V14.2683H208.84V15.7036H209.235ZM208.84 14.2683V12.833H208.445V14.2683H208.84ZM202.161 9.99062V8.55535H201.766V9.99062H202.161ZM202.944 9.99062V8.55535H202.549V9.99062H202.944ZM200.984 12.8612H200.589V14.2964H200.984V12.8612ZM209.63 15.7036H210.025V14.2683H209.63V15.7036ZM200.984 8.55535V7.12008H200.589V8.55535H200.984ZM201.371 9.99062V8.55535H200.976V9.99062H201.371ZM209.235 17.1388H209.63V15.7036H209.235V17.1388ZM201.371 12.8612V11.4259H200.976V12.8612H201.371ZM203.734 12.8612V11.4259H203.339V12.8612H203.734ZM204.912 17.1388V15.7036H204.517V17.1388H204.912ZM206.88 14.2683H206.485V15.7036H206.88V14.2683ZM197.443 12.8612V14.2964H197.838V12.8612H197.443ZM207.662 15.7036V14.2683H207.267V15.7036H207.662ZM203.339 11.4259V9.99062H202.944V11.4259H203.339ZM208.057 12.8612H207.662V14.2964H208.057V12.8612ZM204.129 17.1388V18.5741H204.525V17.1388H204.129ZM200.589 11.4259H200.194V12.8612H200.589V11.4259ZM197.056 14.2683V15.7036H197.451V14.2683H197.056ZM200.194 8.55535V7.12008H199.798V8.55535H200.194ZM198.621 14.2683V15.7036H199.016V14.2683H198.621ZM202.557 19.9812V21.4165H202.952V19.9812H202.557ZM199.016 12.8612V14.2964H199.411V12.8612H199.016ZM203.339 19.9812V21.4165H203.734V19.9812H203.339ZM204.129 14.2683V12.833H203.734V14.2683H204.129ZM202.944 12.8612V11.4259H202.549V12.8612H202.944ZM200.194 12.8612H199.798V14.2964H200.194V12.8612ZM199.016 12.8612V11.4259H198.621V12.8612H199.016ZM203.339 14.2683V12.833H202.944V14.2683H203.339ZM204.517 19.9812H204.122V21.4165H204.517V19.9812ZM198.621 12.8612H198.226V14.2964H198.621V12.8612ZM205.307 2.87054H204.912V4.30582H205.307V2.87054ZM202.557 18.546H202.161V19.9812H202.557V18.546ZM208.445 2.87054H208.05V4.30582H208.445V2.87054ZM215.131 4.27767H214.736V5.71295H215.131V4.27767ZM200.984 17.1388V18.5741H201.379V17.1388H200.984ZM206.88 2.87054H206.485V4.30582H206.88V2.87054ZM204.912 14.2683V12.833H204.517V14.2683H204.912ZM200.589 14.2683H200.194V15.7036H200.589V14.2683ZM203.734 2.87054H203.339V4.30582H203.734V2.87054ZM202.161 17.1388H201.766V18.5741H202.161V17.1388ZM200.194 17.1388V18.5741H200.589V17.1388H200.194ZM221.81 19.9812H221.414V21.4165H221.81V19.9812ZM222.205 18.546H221.81V19.9812H222.205V18.546ZM222.205 22.8518V21.4165H221.81V22.8518H222.205ZM221.414 21.4165H221.019V22.8518H221.414V21.4165ZM199.016 8.55535H198.621V9.99062H199.016V8.55535ZM219.842 15.7036H219.447V17.1388H219.842V15.7036ZM220.632 17.1388V15.7036H220.237V17.1388H220.632ZM206.09 21.4165V22.8518H206.485V21.4165H206.09ZM221.414 25.6942V24.2589H221.019V25.6942H221.414ZM220.632 18.546H220.237V19.9812H220.632V18.546ZM221.027 18.546V19.9812H221.422V18.546H221.027ZM204.517 21.4165V22.8518H204.912V21.4165H204.517ZM201.766 11.4259V9.99062H201.371V11.4259H201.766ZM200.589 9.99062V8.55535H200.194V9.99062H200.589ZM199.806 9.99062V8.55535H199.411V9.99062H199.806ZM202.557 11.4259V9.99062H202.161V11.4259H202.557ZM214.341 27.1295H214.736V25.6942H214.341V27.1295ZM221.027 24.2589V22.8236H220.632V24.2589H221.027ZM205.307 21.4165V22.8518H205.702V21.4165H205.307ZM212.768 27.1295H213.163V25.6942H212.768V27.1295ZM211.195 27.1295H211.59V25.6942H211.195V27.1295ZM216.704 15.7036H216.309V17.1388H216.704V15.7036ZM192.733 14.2683H192.337V15.7036H192.733V14.2683ZM203.734 18.546V19.9812H204.129V18.546H203.734ZM206.88 5.71295H206.485V7.14822H206.88V5.71295ZM192.337 12.8612H191.942V14.2964H192.337V12.8612ZM200.984 11.4259V9.99062H200.589V11.4259H200.984ZM205.307 5.71295H204.912V7.14822H205.307V5.71295ZM193.91 17.1388V15.7036H193.515V14.2683H193.12V15.7036H192.725V17.1388H193.12V18.5741H193.515V17.1388H193.91ZM193.91 17.1388V18.5741H194.305V17.1388H193.91ZM202.944 18.546V19.9812H203.339V18.546H202.944ZM206.485 17.1388V15.7036H206.09V17.1388H206.485ZM202.944 17.1388H202.549V18.5741H202.944V17.1388ZM212.768 21.4165H213.163V19.9812H212.768V21.4165ZM216.704 19.9812V18.546H216.309V19.9812H216.704ZM215.914 7.14822H215.518V8.58349H215.914V7.14822ZM215.914 12.8612H215.518V14.2964H215.914V12.8612ZM216.309 18.546V17.1107H215.914V18.546H216.309ZM193.91 14.2683V12.833H193.515V14.2683H193.91ZM192.733 12.8612V11.4259H192.337V12.8612H192.733ZM215.131 9.99062H214.736V11.4259H215.131V9.99062ZM214.341 7.14822H213.946V8.58349H214.341V7.14822ZM192.733 14.2683H193.128V12.833H192.733V14.2683ZM208.445 5.71295H208.05V7.14822H208.445V5.71295ZM219.059 18.546H218.664V19.9812H219.059V18.546ZM198.621 17.1388V18.5741H199.016V17.1388H198.621ZM219.059 22.8518V21.4165H218.664V22.8518H219.059ZM218.664 21.4165V19.9812H218.269V21.4165H218.664ZM214.341 24.2589H214.736V22.8236H214.341V24.2589ZM216.704 9.99062H216.309V11.4259H216.704V9.99062ZM200.194 17.1388V15.7036H199.798V14.2683H199.403V15.7036H199.008V17.1388H199.403V18.5741H199.798V17.1388H200.194ZM198.621 17.1388V15.7036H198.226V14.2683H197.831V15.7036H197.435V17.1388H197.831V18.5741H198.226V17.1388H198.621ZM218.269 15.7036H217.874V17.1388H218.269V15.7036ZM217.486 12.8612H217.091V14.2964H217.486V12.8612ZM197.056 17.1388V15.7036H196.661V14.2683H196.266V15.7036H195.87V17.1388H196.266V18.5741H196.661V17.1388H197.056ZM205.307 15.7036V14.2683H204.912V15.7036H205.307ZM202.557 15.7036H202.161V17.1388H202.557V15.7036ZM195.483 17.1388V18.5741H195.878V17.1388H195.483ZM212.768 24.2589H213.163V22.8236H212.768V24.2589ZM195.483 17.1388V15.7036H195.088V14.2683H194.693V15.7036H194.298V17.1388H194.693V18.5741H195.088V17.1388H195.483ZM205.694 17.1388V15.7036H205.299V17.1388H205.694ZM200.589 15.7036V17.1388H200.984V15.7036H200.589ZM211.195 24.2589H211.59V22.8236H211.195V24.2589ZM201.371 15.7036V17.1388H201.766V15.7036H201.371ZM197.056 17.1388V18.5741H197.451V17.1388H197.056ZM236.739 17.1388H237.134V15.7036H236.739V17.1388ZM227.31 28.5366H227.706V27.1013H227.31V28.5366ZM228.488 28.5366V27.1013H228.093V28.5366H228.488ZM226.528 2.87054H226.923V1.43527H226.528V2.87054ZM227.706 27.1295H228.101V25.6942H227.706V27.1295ZM226.528 14.2683H226.923V12.833H226.528V14.2683ZM226.528 11.4259H226.923V9.99062H226.528V11.4259ZM227.31 24.2589V25.6942H227.706V24.2589H227.31ZM226.528 5.71295H226.923V4.27767H226.528V5.71295ZM226.528 8.55535H226.923V7.12008H226.528V8.55535ZM228.093 11.4259H228.488V9.99062H228.093V11.4259ZM228.093 8.55535H228.488V7.12008H228.093V8.55535ZM228.093 2.87054H228.488V1.43527H228.093V2.87054ZM228.093 14.2683H228.488V12.833H228.093V14.2683ZM228.093 25.6942H228.488V24.2589H228.093V25.6942ZM228.093 5.71295H228.488V4.27767H228.093V5.71295ZM231.238 8.55535H231.634V7.12008H231.238V8.55535ZM228.093 22.8518H228.488V21.4165H228.093V22.8518ZM228.093 19.9812H228.488V18.546H228.093V19.9812ZM226.528 17.1388H226.923V15.7036H226.528V17.1388ZM224.955 5.71295H225.35V4.27767H224.955V5.71295ZM224.955 8.55535H225.35V7.12008H224.955V8.55535ZM224.955 11.4259H225.35V9.99062H224.955V11.4259ZM225.342 17.1388V15.7036H224.947V17.1388H225.342ZM226.915 28.5366V27.1013H226.52V28.5366H226.915ZM224.955 14.2683H225.35V12.833H224.955V14.2683ZM226.528 19.9812H226.923V18.546H226.528V19.9812ZM224.56 15.7036H224.955V14.2683H224.56V15.7036ZM224.165 12.8612V14.2964H224.56V12.8612H224.165ZM224.165 17.1388H224.56V15.7036H224.165V17.1388ZM226.133 21.4165H226.528V19.9812H226.133V21.4165ZM226.915 22.8518V21.4165H226.52V22.8518H226.915ZM225.738 28.5366H226.133V27.1013H225.738V28.5366ZM225.738 18.546V19.9812H226.133V18.546H225.738ZM225.738 22.8518H226.133V21.4165H225.738V22.8518ZM226.528 25.6942H226.923V24.2589H226.528V25.6942ZM226.133 27.1295H226.528V25.6942H226.133V27.1295ZM225.738 24.2589V25.6942H226.133V24.2589H225.738ZM224.955 2.87054H225.35V1.43527H224.955V2.87054ZM230.456 14.2683H230.851V12.833H230.456V14.2683ZM230.456 19.9812H230.851V18.546H230.456V19.9812ZM230.456 8.55535H230.851V7.12008H230.456V8.55535ZM230.456 11.4259H230.851V9.99062H230.456V11.4259ZM230.456 17.1388H230.851V15.7036H230.456V17.1388ZM230.456 28.5366H230.851V27.1013H230.456V28.5366ZM229.666 2.87054H230.061V1.43527H229.666V2.87054ZM230.456 22.8518H230.851V21.4165H230.456V22.8518ZM230.456 25.6942H230.851V24.2589H230.456V25.6942ZM230.456 5.71295H230.851V4.27767H230.456V5.71295ZM231.238 17.1388H231.634V15.7036H231.238V17.1388ZM231.238 14.2683H231.634V12.833H231.238V14.2683ZM228.883 28.5366H229.278V27.1013H228.883V28.5366ZM231.238 19.9812H231.634V18.546H231.238V19.9812ZM231.238 11.4259H231.634V9.99062H231.238V11.4259ZM231.238 28.5366H231.634V27.1013H231.238V28.5366ZM231.238 25.6942H231.634V24.2589H231.238V25.6942ZM231.238 22.8518H231.634V21.4165H231.238V22.8518ZM229.666 5.71295H230.061V4.27767H229.666V5.71295ZM228.883 11.4259H229.278V9.99062H228.883V11.4259ZM228.883 17.1388H229.278V15.7036H228.883V17.1388ZM228.883 14.2683H229.278V12.833H228.883V14.2683ZM228.883 8.55535H229.278V7.12008H228.883V8.55535ZM228.883 5.71295H229.278V4.27767H228.883V5.71295ZM228.883 19.9812H229.278V18.546H228.883V19.9812ZM228.883 25.6942H229.278V24.2589H228.883V25.6942ZM228.883 22.8518H229.278V21.4165H228.883V22.8518ZM229.666 11.4259H230.061V9.99062H229.666V11.4259ZM229.666 19.9812H230.061V18.546H229.666V19.9812ZM229.666 14.2683H230.061V12.833H229.666V14.2683ZM229.666 17.1388H230.061V15.7036H229.666V17.1388ZM229.666 8.55535H230.061V7.12008H229.666V8.55535ZM229.666 25.6942H230.061V24.2589H229.666V25.6942ZM229.666 28.5366H230.061V27.1013H229.666V28.5366ZM229.666 22.8518H230.061V21.4165H229.666V22.8518ZM228.883 2.87054H229.278V1.43527H228.883V2.87054ZM228.093 17.1388H228.488V15.7036H228.093V17.1388ZM213.558 25.6942V27.1295H213.953V25.6942H213.558ZM214.736 28.5366H215.131V27.1013H214.736V28.5366ZM213.953 27.1295V28.5647H214.349V27.1295H213.953ZM212.381 27.1295V28.5647H212.776V27.1295H212.381ZM213.163 28.5366H213.558V27.1013H213.163V28.5366ZM210.413 25.6942V27.1295H210.808V25.6942H210.413ZM210.808 27.1295V28.5647H211.203V27.1295H210.808ZM211.59 28.5366H211.986V27.1013H211.59V28.5366ZM210.018 28.5366H210.413V27.1013H210.018V28.5366ZM219.454 28.5366H219.849V27.1013H219.454V28.5366ZM217.882 28.5366H218.277V27.1013H217.882V28.5366ZM217.091 27.1295V28.5647H217.486V27.1295H217.091ZM218.269 25.6942V27.1295H218.664V25.6942H218.269ZM215.131 25.6942V27.1295H215.526V25.6942H215.131ZM218.664 27.1295V28.5647H219.059V27.1295H218.664ZM215.518 27.1295V28.5647H215.914V27.1295H215.518ZM216.309 28.5366H216.704V27.1013H216.309V28.5366ZM216.704 25.6942V27.1295H217.099V25.6942H216.704ZM211.986 25.6942V27.1295H212.381V25.6942H211.986ZM196.661 27.1295V25.6942H196.266V27.1295H195.87V28.5647H196.266V30H196.661V28.5647H197.056V27.1295H196.661ZM201.371 27.1295V25.6942H200.976V27.1295H200.581V28.5647H200.976V30H201.371V28.5647H201.766V27.1295H201.371ZM198.233 27.1295V25.6942H197.838V27.1295H197.443V28.5647H197.838V30H198.233V28.5647H198.629V27.1295H198.233ZM199.806 27.1295V25.6942H199.411V27.1295H199.016V28.5647H199.411V30H199.806V28.5647H200.201V27.1295H199.806ZM195.088 27.1295V25.6942H194.693V27.1295H194.298V28.5647H194.693V30H195.088V28.5647H195.483V27.1295H195.088ZM190.765 27.1295V28.5647H190.37V30H189.974V28.5647H189.579V30H189.184V28.5647H188.789V30H188.394V28.5647H187.999V30H187.604V28.5647H187.208V30H186.813V28.5647H186.418V30H186.023V28.5647H185.628V30H185.233V28.5647H184.838V30H184.443V28.5647H184.047V30H183.652V28.5647H183.257V30H182.862V28.5647H182.467V30H182.072V28.5647H181.677V30H181.282V28.5647H180.886V30H180.491V28.5647H180.096V30H179.701V28.5647H179.306V30H178.911V28.5647H178.516V30H178.12V28.5647H177.725V30H177.33V28.5647H176.935V30H176.54V28.5647H176.145V30H175.75V28.5647H175.355V30H174.959V28.5647H174.564V30H174.169V28.5647H173.774V30H173.379V28.5647H172.984V30H172.589V28.5647H172.194V30H171.798V28.5647H171.403V30H171.008V28.5647H170.613V30H170.218V28.5647H169.823V30H169.428V28.5647H169.033V30H167.855V28.5647H167.46V30H166.282V28.5647H165.887V30H164.709V28.5647H164.314V30H163.137V28.5647H162.741V30H161.564V28.5647H161.169V30H159.991V28.5647H159.596V30H158.418V28.5647H158.023V30H156.845V28.5647H156.45V30H-1V0H148.718V1.43527H149.113V0H150.291V1.43527H150.686V0H151.864V1.43527H152.259V0H153.436V1.43527H153.832V0H155.009V1.43527H155.404V0H156.582V1.43527H156.977V0H158.155V1.43527H158.55V0H159.728V1.43527H160.123V0H161.3V1.43527H161.695V0H162.091V1.43527H162.486V0H162.881V1.43527H163.276V0H163.671V1.43527H164.066V0H164.461V1.43527H164.857V0H165.252V1.43527H165.647V0H166.042V1.43527H166.437V0H166.832V1.43527H167.227V0H167.622V1.43527H168.018V0H169.195V1.43527H169.59V0H169.985V1.43527H170.381V0H170.776V1.43527H171.171V0H171.566V1.43527H171.961V0H172.356V1.43527H172.751V0H173.147V1.43527H173.542V0H173.937V1.43527H174.332V0H174.727V1.43527H175.122V0H175.517V1.43527H175.912V2.87054H175.517V4.30582H175.912V2.87054H176.308V4.30582H176.703V2.87054H176.308V1.43527H176.703V0H177.098V1.43527H177.493V2.87054H177.098V4.30582H177.493V2.87054H177.888V4.30582H178.283V2.87054H177.888V1.43527H178.283V0H178.678V1.43527H179.073V2.87054H178.678V4.30582H179.073V2.87054H179.469V4.30582H179.864V2.87054H179.469V1.43527H179.864V0H180.259V1.43527H180.654V2.87054H180.259V4.30582H180.654V2.87054H181.049V4.30582H181.444V2.87054H181.049V1.43527H181.444V0H181.839V1.43527H182.235V2.87054H181.839V4.30582H182.235V2.87054H182.63V4.30582H183.025V2.87054H182.63V1.43527H183.025V0H183.42V1.43527H183.815V2.87054H183.42V4.30582H183.815V2.87054H184.21V4.30582H184.605V5.74109H184.21V7.17636H183.815V5.74109H183.42V7.17636H183.815V8.61163H183.42V10.0469H183.815V8.61163H184.21V10.0469H184.605V8.61163H184.21V7.17636H184.605V5.74109H185V7.17636H185.396V8.61163H185V10.0469H185.396V8.61163H185.791V10.0469H186.186V11.4822H185.791V12.9175H185.396V11.4822H185V12.9175H185.396V14.3527H185V15.788H185.396V14.3527H185.791V15.788H186.186V14.3527H185.791V12.9175H186.186V11.4822H186.581V12.9175H186.976V14.3527H186.581V15.788H186.976V14.3527H187.371V15.788H187.766V17.2233H187.371V18.6585H186.976V17.2233H186.581V18.6585H186.976V20.0938H186.581V21.5291H186.976V20.0938H187.371V21.5291H187.766V20.0938H187.371V18.6585H187.766V17.2233H188.161V18.6585H188.557V20.0938H188.161V21.5291H188.557V20.0938H188.952V21.5291H189.347V22.9644H188.952V24.3996H188.557V22.9644H188.161V24.3996H188.557V25.8349H188.161V27.2702H188.557V25.8349H188.952V27.2702H189.347V25.8349H188.952V24.3996H189.347V22.9644H189.742V24.3996H190.137V25.8349H189.742V27.2702H190.137V25.8349H190.532V27.2702H190.927L190.765 27.1295ZM150.686 5.71295H150.291V7.14822H150.686V5.71295ZM152.251 11.4259H151.856V12.8612H152.251V11.4259ZM152.251 5.71295H151.856V7.14822H152.251V5.71295ZM153.824 17.1388H153.429V18.5741H153.824V17.1388ZM153.824 11.4259H153.429V12.8612H153.824V11.4259ZM153.824 5.71295H153.429V7.14822H153.824V5.71295ZM155.397 22.8518H155.001V24.2871H155.397V22.8518ZM155.397 17.1388H155.001V18.5741H155.397V17.1388ZM155.397 11.4259H155.001V12.8612H155.397V11.4259ZM155.397 5.71295H155.001V7.14822H155.397V5.71295ZM156.969 22.8518H156.574V24.2871H156.969V22.8518ZM156.969 17.1388H156.574V18.5741H156.969V17.1388ZM156.969 11.4259H156.574V12.8612H156.969V11.4259ZM156.969 5.71295H156.574V7.14822H156.969V5.71295ZM157.76 2.87054H157.365V4.30582H157.76V2.87054ZM158.542 22.8518H158.147V24.2871H158.542V22.8518ZM158.542 17.1388H158.147V18.5741H158.542V17.1388ZM158.542 11.4259H158.147V12.8612H158.542V11.4259ZM158.542 5.71295H158.147V7.14822H158.542V5.71295ZM159.325 8.55535H158.93V9.99062H159.325V8.55535ZM159.325 2.87054H158.93V4.30582H159.325V2.87054ZM160.115 22.8518H159.72V24.2871H160.115V22.8518ZM160.115 17.1388H159.72V18.5741H160.115V17.1388ZM160.115 11.4259H159.72V12.8612H160.115V11.4259ZM160.115 5.71295H159.72V7.14822H160.115V5.71295ZM160.897 14.2683H160.502V15.7036H160.897V14.2683ZM160.897 8.55535H160.502V9.99062H160.897V8.55535ZM160.897 2.87054H160.502V4.30582H160.897V2.87054ZM161.688 22.8518H161.293V24.2871H161.688V22.8518ZM161.688 17.1388H161.293V18.5741H161.688V17.1388ZM161.688 11.4259H161.293V12.8612H161.688V11.4259ZM161.688 5.71295H161.293V7.14822H161.688V5.71295ZM162.47 19.9812H162.075V21.4165H162.47V19.9812ZM162.47 14.2683H162.075V15.7036H162.47V14.2683ZM162.47 8.55535H162.075V9.99062H162.47V8.55535ZM162.47 2.87054H162.075V4.30582H162.47V2.87054ZM163.26 22.8518H162.865V24.2871H163.26V22.8518ZM163.26 17.1388H162.865V18.5741H163.26V17.1388ZM163.26 11.4259H162.865V12.8612H163.26V11.4259ZM163.26 5.71295H162.865V7.14822H163.26V5.71295ZM164.043 25.6942H163.648V27.1295H164.043V25.6942ZM164.043 19.9812H163.648V21.4165H164.043V19.9812ZM164.043 14.2683H163.648V15.7036H164.043V14.2683ZM164.043 8.55535H163.648V9.99062H164.043V8.55535ZM164.043 5.71295H163.648V7.14822H164.043V5.71295ZM164.043 2.87054H163.648V4.30582H164.043V2.87054ZM164.826 22.8518H164.43V24.2871H164.826V22.8518ZM164.826 17.1388H164.43V18.5741H164.826V17.1388ZM164.826 11.4259H164.43V12.8612H164.826V11.4259ZM164.826 5.71295H164.43V7.14822H164.826V5.71295ZM165.616 25.6942H165.221V27.1295H165.616V25.6942ZM165.616 19.9812H165.221V21.4165H165.616V19.9812ZM165.616 14.2683H165.221V15.7036H165.616V14.2683ZM165.616 11.4259H165.221V12.8612H165.616V11.4259ZM165.616 8.55535H165.221V9.99062H165.616V8.55535ZM165.616 5.71295H165.221V7.14822H165.616V5.71295ZM165.616 2.87054H165.221V4.30582H165.616V2.87054ZM166.398 22.8518H166.003V24.2871H166.398V22.8518ZM166.398 17.1388H166.003V18.5741H166.398V17.1388ZM166.398 11.4259H166.003V12.8612H166.398V11.4259ZM166.398 5.71295H166.003V7.14822H166.398V5.71295ZM167.189 25.6942H166.793V27.1295H167.189V25.6942ZM167.189 19.9812H166.793V21.4165H167.189V19.9812ZM167.189 17.1388H166.793V18.5741H167.189V17.1388ZM167.189 14.2683H166.793V15.7036H167.189V14.2683ZM167.189 11.4259H166.793V12.8612H167.189V11.4259ZM167.189 8.55535H166.793V9.99062H167.189V8.55535ZM167.189 5.71295H166.793V7.14822H167.189V5.71295ZM167.189 2.87054H166.793V4.30582H167.189V2.87054ZM167.971 22.8518H167.576V24.2871H167.971V22.8518ZM167.971 17.1388H167.576V18.5741H167.971V17.1388ZM167.971 11.4259H167.576V12.8612H167.971V11.4259ZM167.971 5.71295H167.576V7.14822H167.971V5.71295ZM168.761 25.6942H168.366V27.1295H168.761V25.6942ZM168.761 22.8518H168.366V24.2871H168.761V22.8518ZM168.761 19.9812H168.366V21.4165H168.761V19.9812ZM168.761 17.1388H168.366V18.5741H168.761V17.1388ZM168.761 14.2683H168.366V15.7036H168.761V14.2683ZM168.761 11.4259H168.366V12.8612H168.761V11.4259ZM168.761 8.55535H168.366V9.99062H168.761V8.55535ZM168.761 5.71295H168.366V7.14822H168.761V5.71295ZM168.761 2.87054H168.366V4.30582H168.761V2.87054ZM169.544 22.8518H169.149V24.2871H169.544V22.8518ZM169.544 17.1388H169.149V18.5741H169.544V17.1388ZM169.544 11.4259H169.149V12.8612H169.544V11.4259ZM169.544 5.71295H169.149V7.14822H169.544V5.71295ZM170.334 25.6942H169.939V27.1295H170.334V25.6942ZM170.334 22.8518H169.939V24.2871H170.334V22.8518ZM170.334 19.9812H169.939V21.4165H170.334V19.9812ZM170.334 17.1388H169.939V18.5741H170.334V17.1388ZM170.334 14.2683H169.939V15.7036H170.334V14.2683ZM170.334 11.4259H169.939V12.8612H170.334V11.4259ZM170.334 8.55535H169.939V9.99062H170.334V8.55535ZM170.334 5.71295H169.939V7.14822H170.334V5.71295ZM170.334 2.87054H169.939V4.30582H170.334V2.87054ZM171.117 22.8518H170.721V24.2871H171.117V22.8518ZM171.117 17.1388H170.721V18.5741H171.117V17.1388ZM171.117 11.4259H170.721V12.8612H171.117V11.4259ZM171.117 5.71295H170.721V7.14822H171.117V5.71295ZM171.117 2.87054H170.721V4.30582H171.117V2.87054ZM171.899 25.6942H171.504V27.1295H171.899V25.6942ZM171.899 22.8518H171.504V24.2871H171.899V22.8518ZM171.899 19.9812H171.504V21.4165H171.899V19.9812ZM171.899 17.1388H171.504V18.5741H171.899V17.1388ZM171.899 14.2683H171.504V15.7036H171.899V14.2683ZM171.899 11.4259H171.504V12.8612H171.899V11.4259ZM171.899 8.55535H171.504V9.99062H171.899V8.55535ZM171.899 5.71295H171.504V7.14822H171.899V5.71295ZM171.899 2.87054H171.504V4.30582H171.899V2.87054ZM172.689 22.8518H172.294V24.2871H172.689V22.8518ZM172.689 17.1388H172.294V18.5741H172.689V17.1388ZM172.689 11.4259H172.294V12.8612H172.689V11.4259ZM172.689 8.55535H172.294V9.99062H172.689V8.55535ZM172.689 5.71295H172.294V7.14822H172.689V5.71295ZM172.689 2.87054H172.294V4.30582H172.689V2.87054ZM173.472 25.6942H173.077V27.1295H173.472V25.6942ZM173.472 22.8518H173.077V24.2871H173.472V22.8518ZM173.472 19.9812H173.077V21.4165H173.472V19.9812ZM173.472 17.1388H173.077V18.5741H173.472V17.1388ZM173.472 14.2683H173.077V15.7036H173.472V14.2683ZM173.472 11.4259H173.077V12.8612H173.472V11.4259ZM173.472 8.55535H173.077V9.99062H173.472V8.55535ZM173.472 5.71295H173.077V7.14822H173.472V5.71295ZM173.472 2.87054H173.077V4.30582H173.472V2.87054ZM174.262 22.8518H173.867V24.2871H174.262V22.8518ZM174.262 17.1388H173.867V18.5741H174.262V17.1388ZM174.262 14.2683H173.867V15.7036H174.262V14.2683ZM174.262 11.4259H173.867V12.8612H174.262V11.4259ZM174.262 8.55535H173.867V9.99062H174.262V8.55535ZM174.262 5.71295H173.867V7.14822H174.262V5.71295ZM174.262 2.87054H173.867V4.30582H174.262V2.87054ZM175.045 25.6942H174.65V27.1295H175.045V25.6942ZM175.045 22.8518H174.65V24.2871H175.045V22.8518ZM175.045 19.9812H174.65V21.4165H175.045V19.9812ZM175.045 17.1388H174.65V18.5741H175.045V17.1388ZM175.045 14.2683H174.65V15.7036H175.045V14.2683ZM175.045 11.4259H174.65V12.8612H175.045V11.4259ZM175.045 8.55535H174.65V9.99062H175.045V8.55535ZM175.045 5.71295H174.65V7.14822H175.045V5.71295ZM175.045 2.87054H174.65V4.30582H175.045V2.87054ZM175.835 22.8518H175.44V24.2871H175.835V22.8518ZM175.835 19.9812H175.44V21.4165H175.835V19.9812ZM175.835 17.1388H175.44V18.5741H175.835V17.1388ZM175.835 14.2683H175.44V15.7036H175.835V14.2683ZM175.835 11.4259H175.44V12.8612H175.835V11.4259ZM175.835 8.55535H175.44V9.99062H175.835V8.55535ZM175.835 5.71295H175.44V7.14822H175.835V5.71295ZM176.617 25.6942H176.222V27.1295H176.617V25.6942ZM176.617 22.8518H176.222V24.2871H176.617V22.8518ZM176.617 19.9812H176.222V21.4165H176.617V19.9812ZM176.617 17.1388H176.222V18.5741H176.617V17.1388ZM176.617 14.2683H176.222V15.7036H176.617V14.2683ZM176.617 11.4259H176.222V12.8612H176.617V11.4259ZM176.617 8.55535H176.222V9.99062H176.617V8.55535ZM176.617 5.71295H176.222V7.14822H176.617V5.71295ZM177.408 25.6942H177.013V27.1295H177.408V25.6942ZM177.408 22.8518H177.013V24.2871H177.408V22.8518ZM177.408 19.9812H177.013V21.4165H177.408V19.9812ZM177.408 17.1388H177.013V18.5741H177.408V17.1388ZM177.408 14.2683H177.013V15.7036H177.408V14.2683ZM177.408 11.4259H177.013V12.8612H177.408V11.4259ZM178.19 25.6942H177.795V27.1295H178.19V25.6942ZM178.19 22.8518H177.795V24.2871H178.19V22.8518ZM178.19 19.9812H177.795V21.4165H178.19V19.9812ZM178.19 17.1388H177.795V18.5741H178.19V17.1388ZM178.19 14.2683H177.795V15.7036H178.19V14.2683ZM178.19 11.4259H177.795V12.8612H178.19V11.4259ZM178.19 5.71295H177.795V7.14822H177.4V5.71295H177.005V7.14822H177.4V8.58349H177.005V10.0188H177.4V8.58349H177.795V10.0188H178.19V8.58349H177.795V7.14822H178.19V5.71295ZM178.973 25.6942H178.578V27.1295H178.973V25.6942ZM178.973 22.8518H178.578V24.2871H178.973V22.8518ZM178.973 19.9812H178.578V21.4165H178.973V19.9812ZM178.973 17.1388H178.578V18.5741H178.973V17.1388ZM179.763 25.6942H179.368V27.1295H179.763V25.6942ZM179.763 22.8518H179.368V24.2871H179.763V22.8518ZM179.763 19.9812H179.368V21.4165H179.763V19.9812ZM179.763 17.1388H179.368V18.5741H179.763V17.1388ZM179.763 11.4259H179.368V12.8612H178.973V11.4259H178.578V12.8612H178.973V14.2964H178.578V15.7317H178.973V14.2964H179.368V15.7317H179.763V14.2964H179.368V12.8612H179.763V11.4259ZM179.763 5.71295H179.368V7.14822H178.973V5.71295H178.578V7.14822H178.973V8.58349H178.578V10.0188H178.973V8.58349H179.368V10.0188H179.763V8.58349H179.368V7.14822H179.763V5.71295ZM180.546 25.6942H180.15V27.1295H180.546V25.6942ZM180.546 22.8518H180.15V24.2871H180.546V22.8518ZM181.336 25.6942H180.941V27.1295H181.336V25.6942ZM181.336 22.8518H180.941V24.2871H181.336V22.8518ZM181.336 17.1388H180.941V18.5741H180.546V17.1388H180.15V18.5741H180.546V20.0094H180.15V21.4447H180.546V20.0094H180.941V21.4447H181.336V20.0094H180.941V18.5741H181.336V17.1388ZM181.336 11.4259H180.941V12.8612H180.546V11.4259H180.15V12.8612H180.546V14.2964H180.15V15.7317H180.546V14.2964H180.941V15.7317H181.336V14.2964H180.941V12.8612H181.336V11.4259ZM181.336 5.71295H180.941V7.14822H180.546V5.71295H180.15V7.14822H180.546V8.58349H180.15V10.0188H180.546V8.58349H180.941V10.0188H181.336V8.58349H180.941V7.14822H181.336V5.71295ZM182.909 22.8518H182.513V24.2871H182.118V22.8518H181.723V24.2871H182.118V25.7223H181.723V27.1576H182.118V25.7223H182.513V27.1576H182.909V25.7223H182.513V24.2871H182.909V22.8518ZM182.909 17.1388H182.513V18.5741H182.118V17.1388H181.723V18.5741H182.118V20.0094H181.723V21.4447H182.118V20.0094H182.513V21.4447H182.909V20.0094H182.513V18.5741H182.909V17.1388ZM182.909 11.4259H182.513V12.8612H182.118V11.4259H181.723V12.8612H182.118V14.2964H181.723V15.7317H182.118V14.2964H182.513V15.7317H182.909V14.2964H182.513V12.8612H182.909V11.4259ZM182.909 5.71295H182.513V7.14822H182.118V5.71295H181.723V7.14822H182.118V8.58349H181.723V10.0188H182.118V8.58349H182.513V10.0188H182.909V8.58349H182.513V7.14822H182.909V5.71295ZM184.481 22.8518H184.086V24.2871H183.691V22.8518H183.296V24.2871H183.691V25.7223H183.296V27.1576H183.691V25.7223H184.086V27.1576H184.481V25.7223H184.086V24.2871H184.481V22.8518ZM184.481 17.1388H184.086V18.5741H183.691V17.1388H183.296V18.5741H183.691V20.0094H183.296V21.4447H183.691V20.0094H184.086V21.4447H184.481V20.0094H184.086V18.5741H184.481V17.1388ZM184.481 11.4259H184.086V12.8612H183.691V11.4259H183.296V12.8612H183.691V14.2964H183.296V15.7317H183.691V14.2964H184.086V15.7317H184.481V14.2964H184.086V12.8612H184.481V11.4259ZM186.046 22.8518H185.651V24.2871H185.256V22.8518H184.861V24.2871H185.256V25.7223H184.861V27.1576H185.256V25.7223H185.651V27.1576H186.046V25.7223H185.651V24.2871H186.046V22.8518ZM186.046 17.1388H185.651V18.5741H185.256V17.1388H184.861V18.5741H185.256V20.0094H184.861V21.4447H185.256V20.0094H185.651V21.4447H186.046V20.0094H185.651V18.5741H186.046V17.1388ZM187.619 22.8518H187.224V24.2871H186.829V22.8518H186.434V24.2871H186.829V25.7223H186.434V27.1576H186.829V25.7223H187.224V27.1576H187.619V25.7223H187.224V24.2871H187.619V22.8518ZM191.942 27.1295V25.6942H191.547V27.1295H191.152V28.5647H191.547V30H191.942V28.5647H192.337V27.1295H191.942ZM224.955 19.9812H225.35V18.546H224.955V19.9812ZM193.515 27.1295V25.6942H193.12V27.1295H192.725V28.5647H193.12V30H193.515V28.5647H193.91V27.1295H193.515ZM206.88 27.1295V28.5647H207.275V27.1295H206.88ZM206.09 27.1295V28.5647H206.485V27.1295H206.09ZM207.662 27.1295V28.5647H208.057V27.1295H207.662ZM208.445 27.1295V28.5647H208.84V27.1295H208.445ZM204.517 27.1295V28.5647H204.912V27.1295H204.517ZM203.734 27.1295V28.5647H204.129V27.1295H203.734ZM205.307 27.1295V28.5647H205.702V27.1295H205.307ZM202.944 27.1295V25.6942H202.549V27.1295H202.154V28.5647H202.549V30H202.944V28.5647H203.339V27.1295H202.944ZM209.235 27.1295V28.5647H209.63V27.1295H209.235ZM222.592 7.14822V8.58349H222.987V7.14822H222.592ZM223.382 5.71295H223.777V4.27767H223.382V5.71295ZM223.382 8.55535H223.777V7.12008H223.382V8.55535ZM225.342 28.5366V27.1013H224.947V28.5366H225.342ZM223.382 2.87054H223.777V1.43527H223.382V2.87054ZM223.382 14.2683H223.777V12.833H223.382V14.2683ZM223.777 11.4259V9.99062H223.382V11.4259H223.777ZM222.592 11.4259H222.987V9.99062H222.592V11.4259ZM219.842 25.6942V27.1295H220.237V25.6942H219.842ZM224.165 28.5366H224.56V27.1013H224.165V28.5366ZM224.56 21.4165H224.955V19.9812H224.56V21.4165ZM225.342 22.8518V21.4165H224.947V22.8518H225.342ZM224.165 22.8518H224.56V21.4165H224.165V22.8518ZM222.592 12.8612V14.2964H222.987V12.8612H222.592ZM224.165 18.546V19.9812H224.56V18.546H224.165ZM224.955 25.6942H225.35V24.2589H224.955V25.6942ZM224.56 27.1295H224.955V25.6942H224.56V27.1295ZM224.165 24.2589V25.6942H224.56V24.2589H224.165ZM222.987 9.99062H223.382V8.55535H222.987V9.99062ZM221.81 27.1295V28.5647H222.205V27.1295H221.81ZM222.592 28.5366H222.987V27.1013H222.592V28.5366ZM222.205 24.2589H221.81V25.6942H222.205V24.2589ZM222.987 27.1295H223.382V25.6942H222.987V27.1295ZM220.237 27.1295V28.5647H220.632V27.1295H220.237ZM222.987 15.7036H223.382V14.2683H222.987V15.7036ZM221.414 25.6942V27.1295H221.81V25.6942H221.414ZM221.027 28.5366H221.422V27.1013H221.027V28.5366ZM222.592 24.2589V25.6942H222.987V24.2589H222.592ZM223.382 19.9812H223.777V18.546H223.382V19.9812ZM223.777 17.1388V15.7036H223.382V17.1388H223.777ZM222.592 18.546V19.9812H222.987V18.546H222.592ZM222.592 17.1388H222.987V15.7036H222.592V17.1388ZM223.382 25.6942H223.777V24.2589H223.382V25.6942ZM222.987 21.4165H223.382V19.9812H222.987V21.4165ZM223.777 22.8518V21.4165H223.382V22.8518H223.777ZM222.592 22.8518H222.987V21.4165H222.592V22.8518ZM245.386 14.2683H245.781V12.833H245.386V14.2683ZM242.24 19.9812H242.635V18.546H242.24V19.9812ZM242.24 14.2683H242.635V12.833H242.24V14.2683ZM242.24 8.55535H242.635V7.12008H242.24V8.55535ZM242.24 25.6942H242.635V24.2589H242.24V25.6942ZM242.24 28.5366H242.635V27.1013H242.24V28.5366ZM241.458 11.4259H241.853V9.99062H241.458V11.4259ZM242.24 2.87054H242.635V1.43527H242.24V2.87054ZM241.458 17.1388H241.853V15.7036H241.458V17.1388ZM241.458 5.71295H241.853V4.27767H241.458V5.71295ZM243.813 8.55535H244.208V7.12008H243.813V8.55535ZM243.03 28.5366H243.426V27.1013H243.03V28.5366ZM243.03 5.71295H243.426V4.27767H243.03V5.71295ZM243.813 19.9812H244.208V18.546H243.813V19.9812ZM243.813 14.2683H244.208V12.833H243.813V14.2683ZM243.813 25.6942H244.208V24.2589H243.813V25.6942ZM243.03 22.8518H243.426V21.4165H243.03V22.8518ZM243.03 17.1388H243.426V15.7036H243.03V17.1388ZM243.03 11.4259H243.426V9.99062H243.03V11.4259ZM241.458 22.8518H241.853V21.4165H241.458V22.8518ZM239.885 11.4259H240.28V9.99062H239.885V11.4259ZM239.885 22.8518H240.28V21.4165H239.885V22.8518ZM241.458 28.5366H241.853V27.1013H241.458V28.5366ZM239.885 17.1388H240.28V15.7036H239.885V17.1388ZM239.102 2.87054H239.497V1.43527H239.102V2.87054ZM239.102 17.1388H239.497V15.7036H239.102V17.1388ZM239.102 14.2683H239.497V12.833H239.102V14.2683ZM239.102 8.55535H239.497V7.12008H239.102V8.55535ZM239.885 28.5366H240.28V27.1013H239.885V28.5366ZM240.675 14.2683H241.07V12.833H240.675V14.2683ZM239.885 5.71295H240.28V4.27767H239.885V5.71295ZM240.675 2.87054H241.07V1.43527H240.675V2.87054ZM240.675 19.9812H241.07V18.546H240.675V19.9812ZM240.675 8.55535H241.07V7.12008H240.675V8.55535ZM240.675 22.8518H241.07V21.4165H240.675V22.8518ZM240.675 28.5366H241.07V27.1013H240.675V28.5366ZM240.675 25.6942H241.07V24.2589H240.675V25.6942ZM246.176 5.71295H246.571V4.27767H246.176V5.71295ZM249.314 11.4259H249.709V9.99062H249.314V11.4259ZM249.314 5.71295H249.709V4.27767H249.314V5.71295ZM250.887 28.5366H251.282V27.1013H250.887V28.5366ZM249.314 17.1388H249.709V15.7036H249.314V17.1388ZM247.741 5.71295H248.136V4.27767H247.741V5.71295ZM250.887 22.8518H251.282V21.4165H250.887V22.8518ZM249.314 22.8518H249.709V21.4165H249.314V22.8518ZM248.531 25.6942H248.926V24.2589H248.531V25.6942ZM249.314 28.5366H249.709V27.1013H249.314V28.5366ZM244.603 28.5366H244.998V27.1013H244.603V28.5366ZM254.032 28.5366H254.427V27.1013H254.032V28.5366ZM254.032 22.8518H254.427V21.4165H254.032V22.8518ZM255.605 27.1295V28.5647H256V27.1295H255.605ZM250.887 17.1388H251.282V15.7036H250.887V17.1388ZM252.459 17.1388H252.854V15.7036H252.459V17.1388ZM247.741 11.4259H248.136V9.99062H247.741V11.4259ZM252.459 28.5366H252.854V27.1013H252.459V28.5366ZM252.459 22.8518H252.854V21.4165H252.459V22.8518ZM250.887 11.4259H251.282V9.99062H250.887V11.4259ZM245.386 25.6942H245.781V24.2589H245.386V25.6942ZM245.386 19.9812H245.781V18.546H245.386V19.9812ZM244.603 5.71295H244.998V4.27767H244.603V5.71295ZM184.481 2.87054V4.30582H184.876V2.87054H185.272V1.43527H184.876V0H184.481V1.43527H184.086V2.87054H184.481ZM244.603 22.8518H244.998V21.4165H244.603V22.8518ZM246.176 28.5366H246.571V27.1013H246.176V28.5366ZM244.603 11.4259H244.998V9.99062H244.603V11.4259ZM244.603 17.1388H244.998V15.7036H244.603V17.1388ZM239.102 19.9812H239.497V18.546H239.102V19.9812ZM246.958 19.9812H247.354V18.546H246.958V19.9812ZM247.741 28.5366H248.136V27.1013H247.741V28.5366ZM247.741 22.8518H248.136V21.4165H247.741V22.8518ZM246.958 25.6942H247.354V24.2589H246.958V25.6942ZM246.176 22.8518H246.571V21.4165H246.176V22.8518ZM247.741 17.1388H248.136V15.7036H247.741V17.1388ZM246.176 17.1388H246.571V15.7036H246.176V17.1388ZM246.176 11.4259H246.571V9.99062H246.176V11.4259ZM233.602 22.8518H233.997V21.4165H233.602V22.8518ZM233.602 11.4259H233.997V9.99062H233.602V11.4259ZM233.602 17.1388H233.997V15.7036H233.602V17.1388ZM233.602 5.71295H233.997V4.27767H233.602V5.71295ZM233.602 19.9812H233.997V18.546H233.602V19.9812ZM234.384 28.5366H234.779V27.1013H234.384V28.5366ZM232.811 2.87054H233.206V1.43527H232.811V2.87054ZM233.602 28.5366H233.997V27.1013H233.602V28.5366ZM233.602 25.6942H233.997V24.2589H233.602V25.6942ZM231.238 5.71295H231.634V4.27767H231.238V5.71295ZM234.384 14.2683H234.779V12.833H234.384V14.2683ZM234.384 11.4259H234.779V9.99062H234.384V11.4259ZM234.384 8.55535H234.779V7.12008H234.384V8.55535ZM234.384 5.71295H234.779V4.27767H234.384V5.71295ZM232.811 5.71295H233.206V4.27767H232.811V5.71295ZM234.384 19.9812H234.779V18.546H234.384V19.9812ZM234.384 22.8518H234.779V21.4165H234.384V22.8518ZM234.384 17.1388H234.779V15.7036H234.384V17.1388ZM234.384 25.6942H234.779V24.2589H234.384V25.6942ZM232.029 5.71295H232.424V4.27767H232.029V5.71295ZM232.029 17.1388H232.424V15.7036H232.029V17.1388ZM232.029 19.9812H232.424V18.546H232.029V19.9812ZM232.029 14.2683H232.424V12.833H232.029V14.2683ZM232.029 22.8518H232.424V21.4165H232.029V22.8518ZM231.238 2.87054H231.634V1.43527H231.238V2.87054ZM232.029 11.4259H232.424V9.99062H232.029V11.4259ZM232.029 28.5366H232.424V27.1013H232.029V28.5366ZM232.029 25.6942H232.424V24.2589H232.029V25.6942ZM239.102 22.8518H239.497V21.4165H239.102V22.8518ZM232.811 8.55535H233.206V7.12008H232.811V8.55535ZM232.811 14.2683H233.206V12.833H232.811V14.2683ZM232.811 17.1388H233.206V15.7036H232.811V17.1388ZM232.811 11.4259H233.206V9.99062H232.811V11.4259ZM232.811 19.9812H233.206V18.546H232.811V19.9812ZM232.811 28.5366H233.206V27.1013H232.811V28.5366ZM232.811 25.6942H233.206V24.2589H232.811V25.6942ZM232.811 22.8518H233.206V21.4165H232.811V22.8518ZM234.384 2.87054H234.779V1.43527H234.384V2.87054ZM237.53 14.2683H237.925V12.833H237.53V14.2683ZM237.53 17.1388H237.925V15.7036H237.53V17.1388ZM237.53 19.9812H237.925V18.546H237.53V19.9812ZM237.53 11.4259H237.925V9.99062H237.53V11.4259ZM236.739 5.71295H237.134V4.27767H236.739V5.71295ZM237.53 28.5366H237.925V27.1013H237.53V28.5366ZM237.53 8.55535H237.925V7.12008H237.53V8.55535ZM236.739 11.4259H237.134V9.99062H236.739V11.4259ZM237.53 22.8518H237.925V21.4165H237.53V22.8518ZM237.53 25.6942H237.925V24.2589H237.53V25.6942ZM239.102 28.5366H239.497V27.1013H239.102V28.5366ZM238.312 5.71295H238.707V4.27767H238.312V5.71295ZM237.53 2.87054H237.925V1.43527H237.53V2.87054ZM238.312 11.4259H238.707V9.99062H238.312V11.4259ZM239.102 25.6942H239.497V24.2589H239.102V25.6942ZM238.312 17.1388H238.707V15.7036H238.312V17.1388ZM238.312 28.5366H238.707V27.1013H238.312V28.5366ZM238.312 22.8518H238.707V21.4165H238.312V22.8518ZM235.957 8.55535H236.352V7.12008H235.957V8.55535ZM235.167 11.4259H235.562V9.99062H235.167V11.4259ZM235.167 5.71295H235.562V4.27767H235.167V5.71295ZM235.957 28.5366H236.352V27.1013H235.957V28.5366ZM235.957 22.8518H236.352V21.4165H235.957V22.8518ZM235.957 25.6942H236.352V24.2589H235.957V25.6942ZM235.167 25.6942H235.562V24.2589H235.167V25.6942ZM235.167 22.8518H235.562V21.4165H235.167V22.8518ZM235.167 17.1388H235.562V15.7036H235.167V17.1388ZM235.957 2.87054H236.352V1.43527H235.957V2.87054ZM235.957 5.71295H236.352V4.27767H235.957V5.71295ZM236.739 22.8518H237.134V21.4165H236.739V22.8518ZM236.739 28.5366H237.134V27.1013H236.739V28.5366ZM235.167 28.5366H235.562V27.1013H235.167V28.5366ZM235.957 14.2683H236.352V12.833H235.957V14.2683ZM235.957 17.1388H236.352V15.7036H235.957V17.1388ZM235.957 11.4259H236.352V9.99062H235.957V11.4259ZM235.957 19.9812H236.352V18.546H235.957V19.9812ZM215.518 25.6942H215.914V24.2589H215.518V25.6942ZM197.056 22.8518V21.4165H196.661V19.9812H196.266V21.4165H195.87V22.8518H196.266V24.2871H196.661V22.8518H197.056ZM195.483 22.8518V21.4165H195.088V19.9812H194.693V21.4165H194.298V22.8518H194.693V24.2871H195.088V22.8518H195.483ZM199.411 5.71295V4.27767H199.016V5.71295H199.411ZM195.483 22.8518V24.2871H195.878V22.8518H195.483ZM193.515 21.4165V19.9812H193.12V21.4165H192.725V22.8518H193.12V24.2871H193.515V22.8518H193.91V21.4165H193.515ZM189.587 14.2683H189.982V12.833H189.587V11.3978H189.192V12.833H188.797V14.2683H189.192V15.7036H189.587V14.2683ZM188.797 11.4259H189.192V9.99062H188.797V8.55535H188.402V9.99062H188.007V11.4259H188.402V12.8612H188.797V11.4259ZM191.16 19.9812H191.555V18.546H191.16V17.1107H190.765V18.546H190.37V19.9812H190.765V21.4165H191.16V19.9812ZM190.37 17.1388H190.765V15.7036H190.37V14.2683H189.974V15.7036H189.579V17.1388H189.974V18.5741H190.37V17.1388ZM202.557 22.8518V24.2871H202.952V22.8518H202.557ZM201.766 22.8518V21.4165H201.371V19.9812H200.976V21.4165H200.581V22.8518H200.976V24.2871H201.371V22.8518H201.766ZM201.766 22.8518V24.2871H202.161V22.8518H201.766ZM188.014 8.55535H188.409V7.12008H188.014V5.6848H187.619V7.12008H187.224V8.55535H187.619V9.99062H188.014V8.55535ZM197.056 22.8518V24.2871H197.451V22.8518H197.056ZM200.194 22.8518V24.2871H200.589V22.8518H200.194ZM198.621 22.8518V21.4165H198.226V19.9812H197.831V21.4165H197.435V22.8518H197.831V24.2871H198.226V22.8518H198.621ZM200.194 22.8518V21.4165H199.798V19.9812H199.403V21.4165H199.008V22.8518H199.403V24.2871H199.798V22.8518H200.194ZM198.621 22.8518V24.2871H199.016V22.8518H198.621ZM191.16 7.14822V5.71295H190.765V7.14822H191.16ZM197.056 8.55535V7.12008H196.661V8.55535H197.056ZM195.87 7.14822V5.71295H195.475V7.14822H195.87ZM195.87 8.55535H196.266V7.12008H195.87V8.55535ZM189.192 8.55535V9.99062H189.587V8.55535H189.982V7.12008H189.587V5.6848H189.192V7.12008H188.797V8.55535H189.192ZM197.443 7.14822V5.71295H197.048V7.14822H197.443ZM198.621 5.71295V4.27767H198.226V5.71295H198.621ZM197.838 5.71295V4.27767H197.443V5.71295H197.838ZM194.305 8.55535H194.701V7.12008H194.305V8.55535ZM195.483 8.55535V7.12008H195.088V8.55535H195.483ZM191.16 8.55535H191.555V7.12008H191.16V8.55535ZM194.305 7.14822V5.71295H193.91V7.14822H194.305ZM192.337 8.55535V7.12008H191.942V8.55535H192.337ZM190.765 8.55535V7.12008H190.37V8.55535H190.765ZM203.734 22.8518H203.339V24.2871H203.734V22.8518ZM192.733 7.14822V5.71295H192.337V7.14822H192.733ZM214.341 5.71295V4.27767H213.946V5.71295H214.341ZM192.733 8.55535H193.128V7.12008H192.733V8.55535ZM191.942 21.4165V19.9812H191.547V21.4165H191.152V22.8518H191.547V24.2871H191.942V22.8518H192.337V21.4165H191.942ZM217.486 18.546H217.091V19.9812H217.486V18.546ZM217.882 22.8518H218.277V21.4165H217.882V22.8518ZM217.091 21.4165V22.8518H217.486V21.4165H217.091ZM217.882 18.546V17.1107H217.486V18.546H217.882ZM218.269 19.9812V18.546H217.874V19.9812H218.269ZM216.704 19.9812V21.4165H217.099V19.9812H216.704ZM215.518 21.4165V22.8518H215.914V21.4165H215.518ZM214.736 22.8518H215.131V21.4165H214.736V22.8518ZM216.309 22.8518H216.704V21.4165H216.309V22.8518ZM215.131 19.9812V21.4165H215.526V19.9812H215.131ZM215.518 9.99062V8.55535H215.123V9.99062H215.518ZM215.131 8.55535V7.12008H214.736V8.55535H215.131ZM217.486 17.1388V15.7036H217.091V17.1388H217.486ZM215.914 11.4259V9.99062H215.518V11.4259H215.914ZM214.736 7.14822V5.71295H214.341V7.14822H214.736ZM217.091 15.7036V14.2683H216.696V15.7036H217.091ZM216.309 12.8612V11.4259H215.914V12.8612H216.309ZM216.704 14.2683V12.833H216.309V14.2683H216.704ZM208.445 24.2589V25.6942H208.84V24.2589H208.445ZM203.734 24.2589V25.6942H204.129V24.2589H203.734ZM209.63 24.2589H210.025V22.8236H209.63V24.2589ZM206.88 24.2589V25.6942H207.275V24.2589H206.88ZM209.235 25.6942H209.63V24.2589H209.235V25.6942ZM207.662 24.2589V25.6942H208.057V24.2589H207.662ZM204.517 24.2589V25.6942H204.912V24.2589H204.517ZM205.307 24.2589V25.6942H205.702V24.2589H205.307ZM206.09 24.2589V25.6942H206.485V24.2589H206.09ZM213.558 19.9812V21.4165H213.953V19.9812H213.558ZM213.163 22.8518H213.558V21.4165H213.163V22.8518ZM212.381 21.4165V22.8518H212.776V21.4165H212.381ZM211.986 19.9812V21.4165H212.381V19.9812H211.986ZM213.953 21.4165V22.8518H214.349V21.4165H213.953ZM210.808 21.4165V22.8518H211.203V21.4165H210.808ZM210.413 19.9812V21.4165H210.808V19.9812H210.413ZM210.018 22.8518H210.413V21.4165H210.018V22.8518ZM211.59 22.8518H211.986V21.4165H211.59V22.8518ZM193.91 8.55535V7.12008H193.515V8.55535H193.91ZM204.129 22.8518V24.2871H204.525V22.8518H204.129ZM204.912 22.8518V24.2871H205.307V22.8518H204.912ZM206.485 22.8518V24.2871H206.88V22.8518H206.485ZM205.694 22.8518V24.2871H206.09V22.8518H205.694ZM204.129 21.4165H203.734V22.8518H204.129V21.4165ZM201.766 18.546H201.371V19.9812H201.766V18.546ZM202.161 19.9812H201.766V21.4165H202.161V19.9812ZM200.589 18.546V19.9812H200.984V18.546H200.589ZM212.381 18.546V19.9812H212.776V18.546H212.381ZM202.944 21.4165V22.8518H203.339V21.4165H202.944ZM210.018 18.546V19.9812H210.413V18.546H210.018ZM200.194 5.71295V4.27767H199.798V5.71295H200.194ZM209.63 21.4165H210.025V19.9812H209.63V21.4165ZM211.59 18.546V19.9812H211.986V18.546H211.59ZM208.057 24.2589H208.453V22.8236H208.057V24.2589ZM208.84 19.9812V21.4165H209.235V19.9812H208.84ZM207.267 22.8518V24.2871H207.662V22.8518H207.267ZM208.445 22.8518H208.84V21.4165H208.445V22.8518ZM202.161 21.4165V22.8518H202.557V21.4165H202.161ZM194.305 18.546V19.9812H194.701V18.546H194.305ZM193.91 18.546H193.515V19.9812H193.91V18.546ZM195.483 19.9812V21.4165H195.878V19.9812H195.483ZM195.483 18.546H195.088V19.9812H195.483V18.546ZM193.91 19.9812V21.4165H194.305V19.9812H193.91ZM200.194 19.9812V21.4165H200.589V19.9812H200.194ZM192.733 18.546V17.1107H192.337V18.546H191.942V19.9812H192.337V21.4165H192.733V19.9812H193.128V18.546H192.733ZM191.942 17.1388H192.337V15.7036H191.942V14.2683H191.547V15.7036H191.152V17.1388H191.547V18.5741H191.942V17.1388ZM191.16 14.2683H191.555V12.833H191.16V11.3978H190.765V12.833H190.37V14.2683H190.765V15.7036H191.16V14.2683ZM198.621 19.9812V21.4165H199.016V19.9812H198.621ZM195.87 18.546V19.9812H196.266V18.546H195.87ZM198.621 18.546H198.226V19.9812H198.621V18.546ZM200.194 18.546H199.798V19.9812H200.194V18.546ZM199.016 18.546V19.9812H199.411V18.546H199.016ZM197.443 18.546V19.9812H197.838V18.546H197.443ZM197.056 18.546H196.661V19.9812H197.056V18.546ZM197.056 19.9812V21.4165H197.451V19.9812H197.056ZM210.808 18.546V19.9812H211.203V18.546H210.808ZM207.267 8.55535V7.12008H206.872V8.55535H207.267ZM206.485 7.14822H206.09V8.58349H206.485V7.14822ZM206.09 9.99062V8.55535H205.694V9.99062H206.09ZM207.662 9.99062V8.55535H207.267V9.99062H207.662ZM208.057 7.14822H207.662V8.58349H208.057V7.14822ZM205.694 8.55535V7.12008H205.299V8.55535H205.694ZM209.235 9.99062V8.55535H208.84V9.99062H209.235ZM209.63 7.14822H209.235V8.58349H209.63V7.14822ZM208.84 8.55535V7.12008H208.445V8.55535H208.84ZM204.517 9.99062V8.55535H204.122V9.99062H204.517ZM204.912 7.14822H204.517V8.58349H204.912V7.14822ZM202.944 7.14822V5.71295H202.549V7.14822H202.944ZM201.766 5.71295V4.27767H201.371V5.71295H201.766ZM200.984 5.71295V4.27767H200.589V5.71295H200.984ZM202.161 7.14822V5.71295H201.766V7.14822H202.161ZM210.413 8.55535V7.12008H210.018V8.55535H210.413ZM203.734 7.14822V5.71295H203.339V7.14822H203.734ZM204.129 8.55535V7.12008H203.734V8.55535H204.129ZM212.768 7.14822H212.373V8.58349H212.768V7.14822ZM214.736 18.546V19.9812H215.131V18.546H214.736ZM215.518 19.9812H215.914V18.546H215.518V19.9812ZM215.914 17.1388V15.7036H215.518V17.1388H215.914ZM215.518 15.7036V14.2683H215.123V15.7036H215.518ZM215.131 15.7036H214.736V17.1388H215.131V15.7036ZM215.131 14.2683V12.833H214.736V14.2683H215.131ZM213.953 19.9812H214.349V18.546H213.953V19.9812ZM214.341 17.1388V18.5741H214.736V17.1388H214.341ZM213.163 18.546V19.9812H213.558V18.546H213.163ZM212.381 9.99062V8.55535H211.986V9.99062H212.381ZM211.986 8.55535V7.12008H211.59V8.55535H211.986ZM211.195 7.14822H210.8V8.58349H211.195V7.14822ZM210.808 9.99062V8.55535H210.413V9.99062H210.808ZM213.558 8.55535V7.12008H213.163V8.55535H213.558ZM214.341 11.4259V9.99062H213.946V11.4259H214.341ZM213.953 9.99062V8.55535H213.558V9.99062H213.953ZM214.736 12.8612V11.4259H214.341V12.8612H214.736ZM197.056 25.6942V27.1295H197.451V25.6942H197.056ZM217.486 11.4259V9.99062H217.091V11.4259H217.486ZM216.309 7.14822V5.71295H215.914V7.14822H216.309ZM217.882 12.8612V11.4259H217.486V12.8612H217.882ZM216.704 8.55535V7.12008H216.309V8.55535H216.704ZM217.091 9.99062V8.55535H216.696V9.99062H217.091ZM219.059 17.1388V15.7036H218.664V17.1388H219.059ZM219.454 18.546V17.1107H219.059V18.546H219.454ZM219.842 19.9812V18.546H219.447V19.9812H219.842ZM218.269 14.2683V12.833H217.874V14.2683H218.269ZM218.664 15.7036V14.2683H218.269V15.7036H218.664ZM213.953 4.27767V2.8424H213.558V4.27767H213.953ZM212.768 1.43527H212.373V2.87054H212.768V1.43527ZM213.558 2.87054V1.43527H213.163V2.87054H213.558ZM212.381 4.27767V2.8424H211.986V4.27767H212.381ZM215.518 4.27767V2.8424H215.123V4.27767H215.518ZM214.341 1.43527H213.946V2.87054H214.341V1.43527ZM211.986 2.87054V1.43527H211.59V2.87054H211.986ZM215.131 2.87054V1.43527H214.736V2.87054H215.131ZM215.914 5.71295V4.27767H215.518V5.71295H215.914ZM215.914 22.8518V24.2871H216.309V22.8518H215.914ZM217.091 25.6942H217.486V24.2589H217.091V25.6942ZM190.37 11.4259H190.765V9.99062H190.37V8.55535H189.974V9.99062H189.579V11.4259H189.974V12.8612H190.37V11.4259ZM216.309 24.2589V25.6942H216.704V24.2589H216.309ZM214.736 24.2589V25.6942H215.131V24.2589H214.736ZM213.953 24.2589V25.6942H214.349V24.2589H213.953ZM212.381 24.2589V25.6942H212.776V24.2589H212.381ZM213.163 24.2589V25.6942H213.558V24.2589H213.163ZM219.454 24.2589V25.6942H219.849V24.2589H219.454ZM219.842 21.4165H219.447V22.8518H219.842V21.4165ZM220.237 25.6942H220.632V24.2589H220.237V25.6942ZM220.237 21.4165V19.9812H219.842V21.4165H220.237ZM220.632 22.8518V21.4165H220.237V22.8518H220.632ZM218.664 25.6942H219.059V24.2589H218.664V25.6942ZM217.882 24.2589V25.6942H218.277V24.2589H217.882ZM219.059 22.8518V24.2871H219.454V22.8518H219.059ZM217.486 22.8518V24.2871H217.882V22.8518H217.486ZM200.984 2.87054V1.43527H200.589V2.87054H200.984ZM196.266 2.87054V1.43527H195.87V2.87054H196.266ZM197.838 2.87054V1.43527H197.443V2.87054H197.838ZM197.056 2.87054V1.43527H196.661V2.87054H197.056ZM211.195 1.43527H210.8V2.87054H211.195V1.43527ZM199.411 2.87054V1.43527H199.016V2.87054H199.411ZM200.194 2.87054V1.43527H199.798V2.87054H200.194ZM201.766 2.87054V1.43527H201.371V2.87054H201.766ZM211.59 24.2589V25.6942H211.986V24.2589H211.59ZM194.693 2.87054V1.43527H194.298V2.87054H194.693ZM198.621 2.87054V1.43527H198.226V2.87054H198.621ZM193.91 2.87054V1.43527H193.515V2.87054H193.91ZM190.765 2.87054V1.43527H190.37V2.87054H190.765ZM189.982 2.87054V1.43527H189.587V2.87054H189.982ZM187.619 2.87054V4.30582H188.014V2.87054H188.409V1.43527H188.014V0H187.619V1.43527H187.224V2.87054H187.619ZM189.192 2.87054V1.43527H188.797V2.87054H189.192ZM191.547 2.87054V1.43527H191.152V2.87054H191.547ZM193.12 2.87054V1.43527H192.725V2.87054H193.12ZM192.337 2.87054V1.43527H191.942V2.87054H192.337ZM195.483 2.87054V1.43527H195.088V2.87054H195.483ZM208.84 2.87054V1.43527H208.445V2.87054H208.84ZM207.267 2.87054V1.43527H206.872V2.87054H207.267ZM207.662 4.27767V2.8424H207.267V4.27767H207.662ZM209.235 4.27767V2.8424H208.84V4.27767H209.235ZM213.558 4.27767H213.163V5.71295H213.558V4.27767ZM210.808 4.27767V2.8424H210.413V4.27767H210.808ZM209.63 1.43527H209.235V2.87054H209.63V1.43527ZM210.413 2.87054V1.43527H210.018V2.87054H210.413ZM206.09 4.27767V2.8424H205.694V4.27767H206.09ZM204.129 2.87054V1.43527H203.734V2.87054H204.129ZM206.485 1.43527H206.09V2.87054H206.485V1.43527ZM202.944 4.27767V2.8424H202.549V4.27767H202.944ZM204.517 4.27767V2.8424H204.122V4.27767H204.517ZM203.339 1.43527H202.944V2.87054H203.339V1.43527ZM202.557 2.87054V1.43527H202.161V2.87054H202.557ZM205.694 2.87054V1.43527H205.299V2.87054H205.694ZM204.912 1.43527H204.517V2.87054H204.912V1.43527ZM208.057 1.43527H207.662V2.87054H208.057V1.43527ZM197.443 4.27767V2.8424H197.048V4.27767H197.443ZM195.87 4.27767V5.71295H196.266V7.14822H196.661V5.71295H197.056V4.27767H196.661V2.8424H196.266V4.27767H195.87ZM194.305 4.27767V5.71295H194.701V7.14822H195.096V5.71295H195.491V4.27767H195.096V2.8424H194.701V4.27767H194.305ZM198.233 4.27767V2.8424H197.838V4.27767H198.233ZM202.161 4.27767V2.8424H201.766V4.27767H202.161ZM200.589 4.27767V2.8424H200.194V4.27767H200.589ZM199.016 4.27767V2.8424H198.621V4.27767H199.016ZM201.371 4.27767V2.8424H200.976V4.27767H201.371ZM199.806 4.27767V2.8424H199.411V4.27767H199.806ZM195.87 4.27767V2.8424H195.475V4.27767H195.87ZM189.587 4.27767V2.8424H189.192V4.27767H189.587ZM189.587 4.27767V5.71295H189.982V7.14822H190.377V5.71295H190.772V4.27767H190.377V2.8424H189.982V4.27767H189.587ZM191.16 4.27767V2.8424H190.765V4.27767H191.16ZM194.305 4.27767V2.8424H193.91V4.27767H194.305ZM188.409 5.71295V7.14822H188.805V5.71295H189.2V4.27767H188.805V2.8424H188.409V4.27767H188.014V5.71295H188.409ZM192.733 4.27767V5.71295H193.128V7.14822H193.523V5.71295H193.918V4.27767H193.523V2.8424H193.128V4.27767H192.733ZM191.16 4.27767V5.71295H191.555V7.14822H191.95V5.71295H192.345V4.27767H191.95V2.8424H191.555V4.27767H191.16ZM192.733 4.27767V2.8424H192.337V4.27767H192.733ZM210.018 7.14822V5.71295H209.622V7.14822H210.018ZM209.63 5.71295V4.27767H209.235V5.71295H209.63ZM211.195 5.71295V4.27767H210.8V5.71295H211.195ZM211.59 7.14822V5.71295H211.195V7.14822H211.59ZM186.837 5.71295V7.14822H187.232V5.71295H187.627V4.27767H187.232V2.8424H186.837V4.27767H186.441V5.71295H186.837ZM210.413 4.27767H210.018V5.71295H210.413V4.27767ZM211.986 4.27767H211.59V5.71295H211.986V4.27767ZM213.163 7.14822V5.71295H212.768V7.14822H213.163ZM212.768 5.71295V4.27767H212.373V5.71295H212.768ZM207.267 5.71295V4.27767H206.872V5.71295H207.267ZM204.912 5.71295V4.27767H204.517V5.71295H204.912ZM204.129 5.71295V4.27767H203.734V5.71295H204.129ZM205.694 5.71295V4.27767H205.299V5.71295H205.694ZM203.339 5.71295V4.27767H202.944V5.71295H203.339ZM208.057 5.71295V4.27767H207.662V5.71295H208.057ZM208.84 5.71295V4.27767H208.445V5.71295H208.84ZM206.485 5.71295V4.27767H206.09V5.71295H206.485ZM202.557 5.71295V4.27767H202.161V5.71295H202.557ZM199.016 24.2589V25.6942H199.411V24.2589H199.016ZM202.161 24.2589V25.6942H202.557V24.2589H202.161ZM201.766 25.6942V27.1295H202.161V25.6942H201.766ZM203.339 24.2589H202.944V25.6942H203.339V24.2589ZM204.129 25.6942V27.1295H204.525V25.6942H204.129ZM203.339 25.6942V27.1295H203.734V25.6942H203.339ZM201.766 24.2589H201.371V25.6942H201.766V24.2589ZM200.194 24.2589H199.798V25.6942H200.194V24.2589ZM200.194 25.6942V27.1295H200.589V25.6942H200.194ZM200.589 24.2589V25.6942H200.984V24.2589H200.589ZM208.057 25.6942V27.1295H208.453V25.6942H208.057ZM185.659 5.71295H186.054V4.27767H185.659V2.8424H185.264V4.27767H184.869V5.71295H185.264V7.14822H185.659V5.71295ZM209.63 27.1295H210.025V25.6942H209.63V27.1295ZM210.808 24.2589V25.6942H211.203V24.2589H210.808ZM210.018 24.2589V25.6942H210.413V24.2589H210.018ZM205.694 25.6942V27.1295H206.09V25.6942H205.694ZM204.912 25.6942V27.1295H205.307V25.6942H204.912ZM206.485 25.6942V27.1295H206.88V25.6942H206.485ZM207.267 25.6942V27.1295H207.662V25.6942H207.267ZM208.84 25.6942V27.1295H209.235V25.6942H208.84ZM190.37 22.8518H190.765V21.4165H190.37V19.9812H189.974V21.4165H189.579V22.8518H189.974V24.2871H190.37V22.8518ZM198.621 25.6942V27.1295H199.016V25.6942H198.621ZM192.733 24.2589V22.8236H192.337V24.2589H191.942V25.6942H192.337V27.1295H192.733V25.6942H193.128V24.2589H192.733ZM191.16 24.2589V22.8236H190.765V24.2589H190.37V25.6942H190.765V27.1295H191.16V25.6942H191.555V24.2589H191.16ZM189.587 19.9812H189.982V18.546H189.587V17.1107H189.192V18.546H188.797V19.9812H189.192V21.4165H189.587V19.9812ZM188.014 14.2683H188.409V12.833H188.014V11.3978H187.619V12.833H187.224V14.2683H187.619V15.7036H188.014V14.2683ZM186.441 8.55535H186.837V7.12008H186.441V5.6848H186.046V7.12008H185.651V8.55535H186.046V9.99062H186.441V8.55535ZM187.232 11.4259H187.627V9.99062H187.232V8.55535H186.837V9.99062H186.441V11.4259H186.837V12.8612H187.232V11.4259ZM188.797 17.1388H189.192V15.7036H188.797V14.2683H188.402V15.7036H188.007V17.1388H188.402V18.5741H188.797V17.1388ZM197.056 24.2589H196.661V25.6942H197.056V24.2589ZM197.443 24.2589V25.6942H197.838V24.2589H197.443ZM186.046 2.87054V4.30582H186.441V2.87054H186.837V1.43527H186.441V0H186.046V1.43527H185.651V2.87054H186.046ZM198.621 24.2589H198.226V25.6942H198.621V24.2589ZM195.483 25.6942V27.1295H195.878V25.6942H195.483ZM195.87 24.2589V25.6942H196.266V24.2589H195.87ZM195.483 24.2589H195.088V25.6942H195.483V24.2589ZM194.305 24.2589V22.8236H193.91V24.2589H193.515V25.6942H193.91V27.1295H194.305V25.6942H194.701V24.2589H194.305Z" fill="#004BC7"/>
</svg>
