<svg width="580" height="32" viewBox="0 0 580 32" fill="none" xmlns="http://www.w3.org/2000/svg">
<path d="M385.189 1.53096H384.029V0H385.189V1.53096ZM450.891 10.6567H449.732V12.1876H450.891V10.6567ZM455.504 15.2195V13.6886H454.345V15.2195H455.504ZM454.345 18.2814H455.504V16.7505H454.345V18.2814ZM470.481 9.1257H469.322V10.6567H470.481V9.1257ZM471.64 7.62477H470.481V9.15572H471.64V7.62477ZM439.368 22.8443H440.528V21.3133H439.368V22.8443ZM369.053 0H367.894V1.53096H369.053V0ZM389.802 0H388.643V1.53096H389.802V0ZM454.345 13.7186V12.1876H453.186V13.7186H454.345ZM382.87 0H381.711V1.53096H382.87V0ZM468.186 7.62477V9.15572H469.345V7.62477H468.186ZM378.28 0H377.121V1.53096H378.28V0ZM453.186 12.1876V10.6567H452.027V12.1876H453.186ZM387.484 0H386.325V1.53096H387.484V0ZM476.254 13.7186H475.094V15.2495H476.254V13.7186ZM373.666 0H372.507V1.53096H373.666V0ZM388.643 31.97H389.802V30.439H388.643V31.97ZM345.985 0H344.826V1.53096H345.985V0ZM350.599 0H349.44V1.53096H350.599V0ZM446.277 12.1876V10.6567H445.118V12.1876H446.277ZM402.483 31.97H403.642V30.439H402.483V31.97ZM393.256 31.97H394.415V30.439H393.256V31.97ZM397.87 31.97H399.029V30.439H397.87V31.97ZM448.573 12.1876V10.6567H447.414V12.1876H448.573ZM443.982 12.1876V10.6567H442.823V12.1876H443.982ZM449.732 13.7186V12.1876H448.573V13.7186H449.732ZM364.439 0H363.28V1.53096H364.439V0ZM359.826 0H358.667V1.53096H359.826V0ZM438.209 24.3752H439.368V22.8443H438.209V24.3752ZM469.322 10.6567H468.163V12.1876H469.322V10.6567ZM435.914 22.8443V24.3752H437.073V22.8443H435.914ZM472.799 13.7186V15.2495H473.958V13.7186H472.799ZM355.212 0H354.053V1.53096H355.212V0ZM471.64 13.7186H470.481V15.2495H471.64V13.7186ZM471.64 12.1876V10.6567H470.481V12.1876H471.64ZM454.345 0H453.186V1.53096H454.345V0ZM441.664 12.1876V10.6567H440.505V12.1876H441.664ZM450.891 15.2195V13.6886H449.732V15.2195H450.891ZM431.301 0H430.141V1.53096H431.301V0ZM422.074 0H420.915V1.53096H422.074V0ZM448.573 16.7505H449.732V15.2195H448.573V16.7505ZM426.687 0H425.528V1.53096H426.687V0ZM415.165 0H414.006V1.53096H415.165V0ZM448.573 13.7186H447.414V15.2495H448.573V13.7186ZM419.755 0H418.596V1.53096H419.755V0ZM463.572 1.53096V3.06191H464.731V1.53096H463.572ZM417.46 0H416.301V1.53096H417.46V0ZM449.732 0H448.573V1.53096H449.732V0ZM458.959 0H457.8V1.53096H458.959V0ZM445.118 0H443.959V1.53096H445.118V0ZM445.118 18.2814H446.277V16.7505H445.118V18.2814ZM462.413 1.53096H461.254V3.06191H462.413V1.53096ZM435.914 0H434.755V1.53096H435.914V0ZM440.505 0H439.346V1.53096H440.505V0ZM443.982 19.7824H445.141V18.2514H443.982V19.7824ZM446.277 15.2195V16.7505H447.436V15.2195H446.277ZM467.027 1.53096H465.867V3.06191H467.027V1.53096ZM450.891 15.2195V16.7505H452.05V15.2195H450.891ZM396.711 0H395.552V1.53096H396.711V0ZM440.505 19.7824V21.3133H441.664V19.7824H440.505ZM401.324 0H400.165V1.53096H401.324V0ZM403.62 0H402.461V1.53096H403.62V0ZM399.029 0H397.87V1.53096H399.029V0ZM453.186 13.7186H452.027V15.2495H453.186V13.7186ZM394.415 0H393.256V1.53096H394.415V0ZM467.027 7.62477H465.867V9.15572H467.027V7.62477ZM464.731 4.56285H463.572V6.09381H464.731V4.56285ZM410.551 0H409.392V1.53096H410.551V0ZM449.732 18.2814H450.891V16.7505H449.732V18.2814ZM447.436 16.7505V18.2814H448.595V16.7505H447.436ZM452.05 16.7505V18.2814H453.209V16.7505H452.05ZM412.847 0H411.688V1.53096H412.847V0ZM465.867 3.06191H464.708V4.59287H465.867V3.06191ZM467.027 6.09381V4.56285H465.867V6.09381H467.027ZM408.233 0H407.074V1.53096H408.233V0ZM405.938 0H404.779V1.53096H405.938V0ZM442.823 21.3133H443.982V19.7824H442.823V21.3133ZM392.097 0H390.938V1.53096H392.097V0ZM480.867 6.09381V4.56285H479.708V6.09381H480.867ZM480.867 12.1876V10.6567H479.708V12.1876H480.867ZM478.549 4.56285H477.39V6.09381H478.549V4.56285ZM477.413 7.62477V9.15572H478.572V7.62477H477.413ZM480.867 7.62477H479.708V9.15572H480.867V7.62477ZM479.708 9.1257H478.549V10.6567H479.708V9.1257ZM475.094 3.06191H473.935V4.59287H475.094V3.06191ZM477.413 1.53096V3.06191H478.572V1.53096H477.413ZM403.62 10.6567V9.1257H402.461V10.6567H403.62ZM399.029 10.6567V12.1876H400.188V13.7186H401.347V12.1876H402.506V10.6567H401.347V9.1257H400.188V10.6567H399.029ZM480.867 1.53096H479.708V3.06191H480.867V1.53096ZM479.708 3.06191H478.549V4.59287H479.708V3.06191ZM407.097 31.97H408.256V30.439H407.097V31.97ZM478.549 16.7505H477.39V18.2814H478.549V16.7505ZM410.551 7.62477V6.09381H409.392V7.62477H410.551ZM472.799 1.53096V3.06191H473.958V1.53096H472.799ZM476.254 1.53096H475.094V3.06191H476.254V1.53096ZM480.867 18.2814V16.7505H479.708V18.2814H480.867ZM483.162 4.56285H482.003V6.09381H483.162V4.56285ZM477.413 13.7186V15.2495H478.572V13.7186H477.413ZM478.549 10.6567H477.39V12.1876H478.549V10.6567ZM409.392 9.1257V7.59475H408.233V9.1257H409.392ZM480.867 13.7186H479.708V15.2495H480.867V13.7186ZM408.233 10.6567V9.1257H407.074V10.6567H408.233ZM403.62 10.6567V12.1876H404.779V13.7186H405.938V12.1876H407.097V10.6567H405.938V9.1257H404.779V10.6567H403.62ZM497.003 19.7824H495.844V21.3133H497.003V19.7824ZM497.003 16.7505H495.844V18.2814H497.003V16.7505ZM389.802 10.6567V12.1876H390.961V13.7186H392.12V12.1876H393.279V10.6567H392.12V9.1257H390.961V10.6567H389.802ZM492.389 1.53096H491.23V3.06191H492.389V1.53096ZM497.003 22.8443H495.844V24.3752H497.003V22.8443ZM497.003 10.6567H495.844V12.1876H497.003V10.6567ZM497.003 4.56285H495.844V6.09381H497.003V4.56285ZM497.003 1.53096H495.844V3.06191H497.003V1.53096ZM497.003 13.7186H495.844V15.2495H497.003V13.7186ZM497.003 7.62477H495.844V9.15572H497.003V7.62477ZM492.389 4.56285H491.23V6.09381H492.389V4.56285ZM492.389 16.7505H491.23V18.2814H492.389V16.7505ZM487.776 1.53096H486.617V3.06191H487.776V1.53096ZM487.776 7.62477H486.617V9.15572H487.776V7.62477ZM487.776 4.56285H486.617V6.09381H487.776V4.56285ZM487.776 10.6567H486.617V12.1876H487.776V10.6567ZM399.029 10.6567V9.1257H397.87V10.6567H399.029ZM394.415 10.6567V12.1876H395.575V13.7186H396.734V12.1876H397.893V10.6567H396.734V9.1257H395.575V10.6567H394.415ZM394.415 10.6567V9.1257H393.256V10.6567H394.415ZM492.389 7.62477H491.23V9.15572H492.389V7.62477ZM492.389 10.6567H491.23V12.1876H492.389V10.6567ZM483.162 1.53096H482.003V3.06191H483.162V1.53096ZM492.389 13.7186H491.23V15.2495H492.389V13.7186ZM479.708 15.2195H478.549V16.7505H479.708V15.2195ZM427.846 12.1876V10.6567H426.687V12.1876H427.846ZM439.368 31.97H440.528V30.439H439.368V31.97ZM437.05 31.97H438.209V30.439H437.05V31.97ZM430.141 12.1876V10.6567H428.982V12.1876H430.141ZM434.755 31.97H435.914V30.439H434.755V31.97ZM441.664 31.97H442.823V30.439H441.664V31.97ZM425.528 9.1257V7.59475H424.369V9.1257H425.528ZM453.186 31.97H454.345V30.439H453.186V31.97ZM426.687 10.6567V9.1257H425.528V10.6567H426.687ZM448.573 31.97H449.732V30.439H448.573V31.97ZM443.982 31.97H445.141V30.439H443.982V31.97ZM457.8 31.97H458.959V30.439H457.8V31.97ZM420.915 31.97H422.074V30.439H420.915V31.97ZM416.301 31.97H417.46V30.439H416.301V31.97ZM423.233 15.2195V13.6886H422.074V15.2195H423.233ZM411.688 31.97H412.847V30.439H411.688V31.97ZM439.368 12.1876V10.6567H438.209V12.1876H439.368ZM427.846 31.97H429.005V30.439H427.846V31.97ZM430.141 31.97H431.301V30.439H430.141V31.97ZM432.437 12.1876V10.6567H431.278V12.1876H432.437ZM425.528 31.97H426.687V30.439H425.528V31.97ZM434.755 12.1876V10.6567H433.596V12.1876H434.755ZM432.437 31.97H433.596V30.439H432.437V31.97ZM473.935 10.6567H472.776V12.1876H473.935V10.6567ZM417.46 7.62477V6.09381H416.301V7.62477H417.46ZM475.094 9.1257H473.935V10.6567H475.094V9.1257ZM476.254 12.1876V10.6567H475.094V12.1876H476.254ZM468.186 1.53096V3.06191H469.345V1.53096H468.186ZM412.847 7.62477V6.09381H411.688V7.62477H412.847ZM476.254 7.62477H475.094V9.15572H476.254V7.62477ZM476.254 6.09381V4.56285H475.094V6.09381H476.254ZM473.935 4.56285H472.776V6.09381H473.935V4.56285ZM471.64 1.53096H470.481V3.06191H471.64V1.53096ZM472.799 7.62477V9.15572H473.958V7.62477H472.799ZM415.165 7.62477V6.09381H414.006V7.62477H415.165ZM462.413 31.97H463.572V30.439H462.413V31.97ZM423.233 9.1257V7.59475H422.074V9.1257H423.233ZM476.254 31.97H477.413V30.439H476.254V31.97ZM467.027 31.97H468.186V30.439H467.027V31.97ZM419.755 7.62477V6.09381H418.596V7.62477H419.755ZM480.867 31.97H482.026V30.439H480.867V31.97ZM471.64 31.97H472.799V30.439H471.64V31.97ZM470.481 3.06191H469.322V4.59287H470.481V3.06191ZM485.48 30.439V28.9081H484.321V30.439H485.48ZM471.64 6.09381V4.56285H470.481V6.09381H471.64ZM420.915 9.1257V7.59475H419.755V9.1257H420.915ZM469.322 4.56285H468.163V6.09381H469.322V4.56285ZM437.05 12.1876V10.6567H435.891V12.1876H437.05ZM408.233 13.7186V12.1876H407.074V13.7186H408.233ZM437.05 22.8443H438.209V21.3133H437.05V22.8443ZM420.915 15.2195V16.7505H422.074V15.2195H420.915ZM431.301 18.2814H430.141V19.8124H431.301V18.2814ZM409.392 12.1876V13.7186H410.551V12.1876H411.71V10.6567H410.551V9.1257H409.392V10.6567H408.233V12.1876H409.392ZM434.755 21.3133V22.8443H435.914V21.3133H434.755ZM453.186 19.7824H454.345V18.2514H453.186V19.7824ZM456.663 16.7505V15.2195H455.504V16.7505H456.663ZM448.573 22.8443H449.732V21.3133H448.573V22.8443ZM407.097 15.2195V13.6886H405.938V15.2195H407.097ZM457.8 18.2814V16.7505H456.641V18.2814H457.8ZM440.505 12.1876H439.346V13.7186H440.505V12.1876ZM433.596 19.7824V18.2514H432.437V19.7824H433.596ZM435.914 12.1876H434.755V13.7186H435.914V12.1876ZM475.094 15.2195H473.935V16.7505H475.094V15.2195ZM438.209 21.3133H439.368V19.7824H438.209V21.3133ZM445.118 12.1876H443.959V13.7186H445.118V12.1876ZM446.277 15.2195V13.6886H445.118V15.2195H446.277ZM414.006 9.1257V7.59475H412.847V9.1257H414.006ZM411.688 9.1257V7.59475H410.529V9.1257H411.688ZM439.368 19.7824H440.528V18.2514H439.368V19.7824ZM418.619 15.2195V16.7505H419.778V15.2195H418.619ZM433.596 19.7824V21.3133H434.755V19.7824H433.596ZM430.141 19.7824H428.982V21.3133H430.141V19.7824ZM430.141 21.3133V22.8443H431.301V21.3133H430.141ZM397.87 15.2195V16.7505H399.029V15.2195H397.87ZM402.483 15.2195V13.6886H401.324V15.2195H402.483ZM399.029 13.7186V12.1876H397.87V13.7186H399.029ZM403.62 13.7186V12.1876H402.461V13.7186H403.62ZM442.823 24.3752H443.982V22.8443H442.823V24.3752ZM434.755 19.7824H435.914V18.2514H434.755V19.7824ZM399.029 15.2195H400.188V13.6886H399.029V15.2195ZM403.62 15.2195H404.779V13.6886H403.62V15.2195ZM440.505 9.1257H439.346V10.6567H440.505V9.1257ZM435.914 9.1257H434.755V10.6567H435.914V9.1257ZM455.504 10.6567H454.345V12.1876H455.504V10.6567ZM445.118 9.1257H443.959V10.6567H445.118V9.1257ZM431.301 9.1257H430.141V10.6567H431.301V9.1257ZM431.301 19.7824V21.3133H432.46V19.7824H431.301ZM402.483 15.2195V16.7505H403.642V15.2195H402.483ZM457.8 13.7186H456.641V15.2495H457.8V13.7186ZM389.802 10.6567V9.1257H388.643V10.6567H389.802ZM432.437 21.3133V22.8443H433.596V21.3133H432.437ZM448.573 19.7824H449.732V18.2514H448.573V19.7824ZM422.074 13.7186V12.1876H420.915V13.7186H422.074ZM437.05 21.3133V19.7824H435.891V21.3133H437.05ZM425.528 18.2814V19.8124H426.687V18.2814H425.528ZM437.05 15.2195V13.6886H435.891V15.2195H437.05ZM428.982 16.7505V15.2195H427.823V16.7505H428.982ZM439.368 18.2814V16.7505H438.209V18.2814H439.368ZM426.687 16.7505V18.2814H427.846V16.7505H426.687ZM431.301 13.7186V12.1876H430.141V13.7186H431.301ZM428.982 13.7186V12.1876H427.823V13.7186H428.982ZM437.05 18.2814V16.7505H435.891V18.2814H437.05ZM419.755 13.7186V15.2495H420.915V13.7186H419.755ZM425.528 16.7505H424.369V18.2814H425.528V16.7505ZM414.006 12.1876V13.7186H415.165V12.1876H414.006ZM424.369 15.2195H423.21V16.7505H424.369V15.2195ZM433.596 16.7505V15.2195H432.437V16.7505H433.596ZM440.505 15.2195H439.346V16.7505H440.505V15.2195ZM432.437 15.2195V13.6886H431.278V15.2195H432.437ZM414.006 10.6567H412.847V12.1876H414.006V10.6567ZM434.755 13.7186H433.596V15.2495H434.755V13.7186ZM416.301 12.1876V10.6567H415.142V12.1876H416.301ZM426.687 16.7505V15.2195H425.528V16.7505H426.687ZM443.982 13.7186H442.823V15.2495H443.982V13.7186ZM440.505 18.2814H441.664V16.7505H440.505V18.2814ZM442.823 16.7505V15.2195H441.664V16.7505H442.823ZM441.664 15.2195V13.6886H440.505V15.2195H441.664ZM422.074 10.6567V9.1257H420.915V10.6567H422.074ZM424.369 10.6567V9.1257H423.21V10.6567H424.369ZM418.619 13.7186H417.46V15.2495H418.619V13.7186ZM443.982 16.7505H445.141V15.2195H443.982V16.7505ZM418.619 9.1257V7.59475H417.46V9.1257H418.619ZM419.755 10.6567V9.1257H418.596V10.6567H419.755ZM442.823 18.2814H443.982V16.7505H442.823V18.2814ZM419.755 13.7186V12.1876H418.596V13.7186H419.755ZM426.687 13.7186V12.1876H425.528V13.7186H426.687ZM430.141 18.2814V16.7505H428.982V18.2814H430.141ZM435.914 15.2195H434.755V16.7505H435.914V15.2195ZM408.233 13.7186V15.2495H409.392V13.7186H408.233ZM438.209 16.7505V15.2195H437.05V16.7505H438.209ZM425.528 12.1876V10.6567H424.369V12.1876H425.528ZM439.368 13.7186H438.209V15.2495H439.368V13.7186ZM427.846 18.2814V19.8124H429.005V18.2814H427.846ZM417.46 12.1876H416.301V13.7186H417.46V12.1876ZM407.097 15.2195V16.7505H408.256V15.2195H407.097ZM416.301 9.1257V7.59475H415.142V9.1257H416.301ZM411.688 15.2195V16.7505H412.847V15.2195H411.688ZM423.233 21.3133V22.8443H424.392V21.3133H423.233ZM412.847 13.7186V15.2495H414.006V13.7186H412.847ZM425.528 21.3133V22.8443H426.687V21.3133H425.528ZM427.846 15.2195V13.6886H426.687V15.2195H427.846ZM424.369 13.7186V12.1876H423.21V13.7186H424.369ZM416.301 13.7186H415.142V15.2495H416.301V13.7186ZM412.847 13.7186V12.1876H411.688V13.7186H412.847ZM425.528 15.2195V13.6886H424.369V15.2195H425.528ZM428.982 21.3133H427.823V22.8443H428.982V21.3133ZM411.688 13.7186H410.529V15.2495H411.688V13.7186ZM431.301 3.06191H430.141V4.59287H431.301V3.06191ZM423.233 19.7824H422.074V21.3133H423.233V19.7824ZM440.505 3.06191H439.346V4.59287H440.505V3.06191ZM460.118 4.56285H458.959V6.09381H460.118V4.56285ZM418.619 18.2814V19.8124H419.778V18.2814H418.619ZM435.914 3.06191H434.755V4.59287H435.914V3.06191ZM430.141 15.2195V13.6886H428.982V15.2195H430.141ZM417.46 15.2195H416.301V16.7505H417.46V15.2195ZM426.687 3.06191H425.528V4.59287H426.687V3.06191ZM422.074 18.2814H420.915V19.8124H422.074V18.2814ZM416.301 18.2814V19.8124H417.46V18.2814H416.301ZM479.708 21.3133H478.549V22.8443H479.708V21.3133ZM480.867 19.7824H479.708V21.3133H480.867V19.7824ZM480.867 24.3752V22.8443H479.708V24.3752H480.867ZM478.549 22.8443H477.39V24.3752H478.549V22.8443ZM412.847 9.1257H411.688V10.6567H412.847V9.1257ZM473.935 16.7505H472.776V18.2814H473.935V16.7505ZM476.254 18.2814V16.7505H475.094V18.2814H476.254ZM433.596 22.8443V24.3752H434.755V22.8443H433.596ZM478.549 27.4071V25.8762H477.39V27.4071H478.549ZM476.254 19.7824H475.094V21.3133H476.254V19.7824ZM477.413 19.7824V21.3133H478.572V19.7824H477.413ZM428.982 22.8443V24.3752H430.141V22.8443H428.982ZM420.915 12.1876V10.6567H419.755V12.1876H420.915ZM417.46 10.6567V9.1257H416.301V10.6567H417.46ZM415.165 10.6567V9.1257H414.006V10.6567H415.165ZM423.233 12.1876V10.6567H422.074V12.1876H423.233ZM457.8 28.9381H458.959V27.4071H457.8V28.9381ZM477.413 25.8762V24.3452H476.254V25.8762H477.413ZM431.301 22.8443V24.3752H432.46V22.8443H431.301ZM453.186 28.9381H454.345V27.4071H453.186V28.9381ZM448.573 28.9381H449.732V27.4071H448.573V28.9381ZM464.731 16.7505H463.572V18.2814H464.731V16.7505ZM394.415 15.2195H393.256V16.7505H394.415V15.2195ZM426.687 19.7824V21.3133H427.846V19.7824H426.687ZM435.914 6.09381H434.755V7.62477H435.914V6.09381ZM393.256 13.7186H392.097V15.2495H393.256V13.7186ZM418.619 12.1876V10.6567H417.46V12.1876H418.619ZM431.301 6.09381H430.141V7.62477H431.301V6.09381ZM397.87 18.2814V16.7505H396.711V15.2195H395.552V16.7505H394.393V18.2814H395.552V19.8124H396.711V18.2814H397.87ZM397.87 18.2814V19.8124H399.029V18.2814H397.87ZM424.369 19.7824V21.3133H425.528V19.7824H424.369ZM434.755 18.2814V16.7505H433.596V18.2814H434.755ZM424.369 18.2814H423.21V19.8124H424.369V18.2814ZM453.186 22.8443H454.345V21.3133H453.186V22.8443ZM464.731 21.3133V19.7824H463.572V21.3133H464.731ZM462.413 7.62477H461.254V9.15572H462.413V7.62477ZM462.413 13.7186H461.254V15.2495H462.413V13.7186ZM463.572 19.7824V18.2514H462.413V19.7824H463.572ZM397.87 15.2195V13.6886H396.711V15.2195H397.87ZM394.415 13.7186V12.1876H393.256V13.7186H394.415ZM460.118 10.6567H458.959V12.1876H460.118V10.6567ZM457.8 7.62477H456.641V9.15572H457.8V7.62477ZM394.415 15.2195H395.575V13.6886H394.415V15.2195ZM440.505 6.09381H439.346V7.62477H440.505V6.09381ZM471.64 19.7824H470.481V21.3133H471.64V19.7824ZM411.688 18.2814V19.8124H412.847V18.2814H411.688ZM471.64 24.3752V22.8443H470.481V24.3752H471.64ZM470.481 22.8443V21.3133H469.322V22.8443H470.481ZM457.8 25.8762H458.959V24.3452H457.8V25.8762ZM464.731 10.6567H463.572V12.1876H464.731V10.6567ZM416.301 18.2814V16.7505H415.142V15.2195H413.983V16.7505H412.824V18.2814H413.983V19.8124H415.142V18.2814H416.301ZM411.688 18.2814V16.7505H410.529V15.2195H409.37V16.7505H408.21V18.2814H409.37V19.8124H410.529V18.2814H411.688ZM469.322 16.7505H468.163V18.2814H469.322V16.7505ZM467.027 13.7186H465.867V15.2495H467.027V13.7186ZM407.097 18.2814V16.7505H405.938V15.2195H404.779V16.7505H403.62V18.2814H404.779V19.8124H405.938V18.2814H407.097ZM431.301 16.7505V15.2195H430.141V16.7505H431.301ZM423.233 16.7505H422.074V18.2814H423.233V16.7505ZM402.483 18.2814V19.8124H403.642V18.2814H402.483ZM453.186 25.8762H454.345V24.3452H453.186V25.8762ZM402.483 18.2814V16.7505H401.324V15.2195H400.165V16.7505H399.006V18.2814H400.165V19.8124H401.324V18.2814H402.483ZM432.437 18.2814V16.7505H431.278V18.2814H432.437ZM417.46 16.7505V18.2814H418.619V16.7505H417.46ZM448.573 25.8762H449.732V24.3452H448.573V25.8762ZM419.755 16.7505V18.2814H420.915V16.7505H419.755ZM407.097 18.2814V19.8124H408.256V18.2814H407.097ZM523.502 18.2814H524.661V16.7505H523.502V18.2814ZM495.844 30.439H497.003V28.9081H495.844V30.439ZM499.298 30.439V28.9081H498.139V30.439H499.298ZM493.548 3.06191H494.707V1.53096H493.548V3.06191ZM497.003 28.9381H498.162V27.4071H497.003V28.9381ZM493.548 15.2195H494.707V13.6886H493.548V15.2195ZM493.548 12.1876H494.707V10.6567H493.548V12.1876ZM495.844 25.8762V27.4071H497.003V25.8762H495.844ZM493.548 6.09381H494.707V4.56285H493.548V6.09381ZM493.548 9.1257H494.707V7.59475H493.548V9.1257ZM498.139 12.1876H499.298V10.6567H498.139V12.1876ZM498.139 9.1257H499.298V7.59475H498.139V9.1257ZM498.139 3.06191H499.298V1.53096H498.139V3.06191ZM498.139 15.2195H499.298V13.6886H498.139V15.2195ZM498.139 27.4071H499.298V25.8762H498.139V27.4071ZM498.139 6.09381H499.298V4.56285H498.139V6.09381ZM507.366 9.1257H508.525V7.59475H507.366V9.1257ZM498.139 24.3752H499.298V22.8443H498.139V24.3752ZM498.139 21.3133H499.298V19.7824H498.139V21.3133ZM493.548 18.2814H494.707V16.7505H493.548V18.2814ZM488.935 6.09381H490.094V4.56285H488.935V6.09381ZM488.935 9.1257H490.094V7.59475H488.935V9.1257ZM488.935 12.1876H490.094V10.6567H488.935V12.1876ZM490.071 18.2814V16.7505H488.912V18.2814H490.071ZM494.685 30.439V28.9081H493.526V30.439H494.685ZM488.935 15.2195H490.094V13.6886H488.935V15.2195ZM493.548 21.3133H494.707V19.7824H493.548V21.3133ZM487.776 16.7505H488.935V15.2195H487.776V16.7505ZM486.617 13.7186V15.2495H487.776V13.7186H486.617ZM486.617 18.2814H487.776V16.7505H486.617V18.2814ZM492.389 22.8443H493.548V21.3133H492.389V22.8443ZM494.685 24.3752V22.8443H493.526V24.3752H494.685ZM491.23 30.439H492.389V28.9081H491.23V30.439ZM491.23 19.7824V21.3133H492.389V19.7824H491.23ZM491.23 24.3752H492.389V22.8443H491.23V24.3752ZM493.548 27.4071H494.707V25.8762H493.548V27.4071ZM492.389 28.9381H493.548V27.4071H492.389V28.9381ZM491.23 25.8762V27.4071H492.389V25.8762H491.23ZM488.935 3.06191H490.094V1.53096H488.935V3.06191ZM505.071 15.2195H506.23V13.6886H505.071V15.2195ZM505.071 21.3133H506.23V19.7824H505.071V21.3133ZM505.071 9.1257H506.23V7.59475H505.071V9.1257ZM505.071 12.1876H506.23V10.6567H505.071V12.1876ZM505.071 18.2814H506.23V16.7505H505.071V18.2814ZM505.071 30.439H506.23V28.9081H505.071V30.439ZM502.753 3.06191H503.912V1.53096H502.753V3.06191ZM505.071 24.3752H506.23V22.8443H505.071V24.3752ZM505.071 27.4071H506.23V25.8762H505.071V27.4071ZM505.071 6.09381H506.23V4.56285H505.071V6.09381ZM507.366 18.2814H508.525V16.7505H507.366V18.2814ZM507.366 15.2195H508.525V13.6886H507.366V15.2195ZM500.457 30.439H501.616V28.9081H500.457V30.439ZM507.366 21.3133H508.525V19.7824H507.366V21.3133ZM507.366 12.1876H508.525V10.6567H507.366V12.1876ZM507.366 30.439H508.525V28.9081H507.366V30.439ZM507.366 27.4071H508.525V25.8762H507.366V27.4071ZM507.366 24.3752H508.525V22.8443H507.366V24.3752ZM502.753 6.09381H503.912V4.56285H502.753V6.09381ZM500.457 12.1876H501.616V10.6567H500.457V12.1876ZM500.457 18.2814H501.616V16.7505H500.457V18.2814ZM500.457 15.2195H501.616V13.6886H500.457V15.2195ZM500.457 9.1257H501.616V7.59475H500.457V9.1257ZM500.457 6.09381H501.616V4.56285H500.457V6.09381ZM500.457 21.3133H501.616V19.7824H500.457V21.3133ZM500.457 27.4071H501.616V25.8762H500.457V27.4071ZM500.457 24.3752H501.616V22.8443H500.457V24.3752ZM502.753 12.1876H503.912V10.6567H502.753V12.1876ZM502.753 21.3133H503.912V19.7824H502.753V21.3133ZM502.753 15.2195H503.912V13.6886H502.753V15.2195ZM502.753 18.2814H503.912V16.7505H502.753V18.2814ZM502.753 9.1257H503.912V7.59475H502.753V9.1257ZM502.753 27.4071H503.912V25.8762H502.753V27.4071ZM502.753 30.439H503.912V28.9081H502.753V30.439ZM502.753 24.3752H503.912V22.8443H502.753V24.3752ZM500.457 3.06191H501.616V1.53096H500.457V3.06191ZM498.139 18.2814H499.298V16.7505H498.139V18.2814ZM455.504 27.4071V28.9381H456.663V27.4071H455.504ZM458.959 30.439H460.118V28.9081H458.959V30.439ZM456.663 28.9381V30.469H457.822V28.9381H456.663ZM452.05 28.9381V30.469H453.209V28.9381H452.05ZM454.345 30.439H455.504V28.9081H454.345V30.439ZM446.277 27.4071V28.9381H447.436V27.4071H446.277ZM447.436 28.9381V30.469H448.595V28.9381H447.436ZM449.732 30.439H450.891V28.9081H449.732V30.439ZM445.118 30.439H446.277V28.9081H445.118V30.439ZM472.799 30.439H473.958V28.9081H472.799V30.439ZM468.186 30.439H469.345V28.9081H468.186V30.439ZM465.867 28.9381V30.469H467.027V28.9381H465.867ZM469.322 27.4071V28.9381H470.481V27.4071H469.322ZM460.118 27.4071V28.9381H461.277V27.4071H460.118ZM470.481 28.9381V30.469H471.64V28.9381H470.481ZM461.254 28.9381V30.469H462.413V28.9381H461.254ZM463.572 30.439H464.731V28.9081H463.572V30.439ZM464.731 27.4071V28.9381H465.89V27.4071H464.731ZM450.891 27.4071V28.9381H452.05V27.4071H450.891ZM405.938 28.9381V27.4071H404.779V28.9381H403.62V30.469H404.779V32H405.938V30.469H407.097V28.9381H405.938ZM419.755 28.9381V27.4071H418.596V28.9381H417.437V30.469H418.596V32H419.755V30.469H420.915V28.9381H419.755ZM410.551 28.9381V27.4071H409.392V28.9381H408.233V30.469H409.392V32H410.551V30.469H411.71V28.9381H410.551ZM415.165 28.9381V27.4071H414.006V28.9381H412.847V30.469H414.006V32H415.165V30.469H416.324V28.9381H415.165ZM401.324 28.9381V27.4071H400.165V28.9381H399.006V30.469H400.165V32H401.324V30.469H402.483V28.9381H401.324ZM388.643 28.9381V30.469H387.484V32H386.325V30.469H385.166V32H384.007V30.469H382.848V32H381.689V30.469H380.53V32H379.371V30.469H378.211V32H377.052V30.469H375.893V32H374.734V30.469H373.575V32H372.416V30.469H371.257V32H370.098V30.469H368.939V32H367.78V30.469H366.621V32H365.462V30.469H364.303V32H363.144V30.469H361.985V32H360.826V30.469H359.667V32H358.508V30.469H357.349V32H356.19V30.469H355.03V32H353.871V30.469H352.712V32H351.553V30.469H350.394V32H349.235V30.469H348.076V32H346.917V30.469H345.758V32H344.599V30.469H343.44V32H342.281V30.469H341.122V32H339.963V30.469H338.804V32H337.645V30.469H336.486V32H335.327V30.469H334.168V32H333.009V30.469H331.85V32H330.69V30.469H329.531V32H328.372V30.469H327.213V32H326.054V30.469H324.895V32H321.441V30.469H320.282V32H316.827V30.469H315.668V32H312.214V30.469H311.055V32H307.6V30.469H306.441V32H302.987V30.469H301.828V32H298.373V30.469H297.214V32H293.76V30.469H292.601V32H289.147V30.469H287.987V32H-124V0H265.306V1.53096H266.465V0H269.92V1.53096H271.079V0H274.533V1.53096H275.692V0H279.147V1.53096H280.306V0H283.76V1.53096H284.919V0H288.374V1.53096H289.533V0H292.987V1.53096H294.146V0H297.601V1.53096H298.76V0H302.214V1.53096H303.373V0H304.532V1.53096H305.691V0H306.85V1.53096H308.009V0H309.169V1.53096H310.328V0H311.487V1.53096H312.646V0H313.805V1.53096H314.964V0H316.123V1.53096H317.282V0H318.441V1.53096H319.6V0H320.759V1.53096H321.918V0H325.372V1.53096H326.532V0H327.691V1.53096H328.85V0H330.009V1.53096H331.168V0H332.327V1.53096H333.486V0H334.645V1.53096H335.804V0H336.963V1.53096H338.122V0H339.281V1.53096H340.44V0H341.599V1.53096H342.758V0H343.917V1.53096H345.076V3.06191H343.917V4.59287H345.076V3.06191H346.235V4.59287H347.394V3.06191H346.235V1.53096H347.394V0H348.553V1.53096H349.712V3.06191H348.553V4.59287H349.712V3.06191H350.872V4.59287H352.031V3.06191H350.872V1.53096H352.031V0H353.19V1.53096H354.349V3.06191H353.19V4.59287H354.349V3.06191H355.508V4.59287H356.667V3.06191H355.508V1.53096H356.667V0H357.826V1.53096H358.985V3.06191H357.826V4.59287H358.985V3.06191H360.144V4.59287H361.303V3.06191H360.144V1.53096H361.303V0H362.462V1.53096H363.621V3.06191H362.462V4.59287H363.621V3.06191H364.78V4.59287H365.939V3.06191H364.78V1.53096H365.939V0H367.098V1.53096H368.257V3.06191H367.098V4.59287H368.257V3.06191H369.416V4.59287H370.575V6.12383H369.416V7.65479H368.257V6.12383H367.098V7.65479H368.257V9.18574H367.098V10.7167H368.257V9.18574H369.416V10.7167H370.575V9.18574H369.416V7.65479H370.575V6.12383H371.734V7.65479H372.894V9.18574H371.734V10.7167H372.894V9.18574H374.053V10.7167H375.212V12.2477H374.053V13.7786H372.894V12.2477H371.734V13.7786H372.894V15.3096H371.734V16.8405H372.894V15.3096H374.053V16.8405H375.212V15.3096H374.053V13.7786H375.212V12.2477H376.371V13.7786H377.53V15.3096H376.371V16.8405H377.53V15.3096H378.689V16.8405H379.848V18.3715H378.689V19.9024H377.53V18.3715H376.371V19.9024H377.53V21.4334H376.371V22.9644H377.53V21.4334H378.689V22.9644H379.848V21.4334H378.689V19.9024H379.848V18.3715H381.007V19.9024H382.166V21.4334H381.007V22.9644H382.166V21.4334H383.325V22.9644H384.484V24.4953H383.325V26.0263H382.166V24.4953H381.007V26.0263H382.166V27.5572H381.007V29.0882H382.166V27.5572H383.325V29.0882H384.484V27.5572H383.325V26.0263H384.484V24.4953H385.643V26.0263H386.802V27.5572H385.643V29.0882H386.802V27.5572H387.961V29.0882H389.12L388.643 28.9381ZM271.079 6.09381H269.92V7.62477H271.079V6.09381ZM275.67 12.1876H274.511V13.7186H275.67V12.1876ZM275.67 6.09381H274.511V7.62477H275.67V6.09381ZM280.283 18.2814H279.124V19.8124H280.283V18.2814ZM280.283 12.1876H279.124V13.7186H280.283V12.1876ZM280.283 6.09381H279.124V7.62477H280.283V6.09381ZM284.897 24.3752H283.738V25.9062H284.897V24.3752ZM284.897 18.2814H283.738V19.8124H284.897V18.2814ZM284.897 12.1876H283.738V13.7186H284.897V12.1876ZM284.897 6.09381H283.738V7.62477H284.897V6.09381ZM289.51 24.3752H288.351V25.9062H289.51V24.3752ZM289.51 18.2814H288.351V19.8124H289.51V18.2814ZM289.51 12.1876H288.351V13.7186H289.51V12.1876ZM289.51 6.09381H288.351V7.62477H289.51V6.09381ZM291.828 3.06191H290.669V4.59287H291.828V3.06191ZM294.124 24.3752H292.965V25.9062H294.124V24.3752ZM294.124 18.2814H292.965V19.8124H294.124V18.2814ZM294.124 12.1876H292.965V13.7186H294.124V12.1876ZM294.124 6.09381H292.965V7.62477H294.124V6.09381ZM296.419 9.1257H295.26V10.6567H296.419V9.1257ZM296.419 3.06191H295.26V4.59287H296.419V3.06191ZM298.737 24.3752H297.578V25.9062H298.737V24.3752ZM298.737 18.2814H297.578V19.8124H298.737V18.2814ZM298.737 12.1876H297.578V13.7186H298.737V12.1876ZM298.737 6.09381H297.578V7.62477H298.737V6.09381ZM301.032 15.2195H299.873V16.7505H301.032V15.2195ZM301.032 9.1257H299.873V10.6567H301.032V9.1257ZM301.032 3.06191H299.873V4.59287H301.032V3.06191ZM303.351 24.3752H302.191V25.9062H303.351V24.3752ZM303.351 18.2814H302.191V19.8124H303.351V18.2814ZM303.351 12.1876H302.191V13.7186H303.351V12.1876ZM303.351 6.09381H302.191V7.62477H303.351V6.09381ZM305.646 21.3133H304.487V22.8443H305.646V21.3133ZM305.646 15.2195H304.487V16.7505H305.646V15.2195ZM305.646 9.1257H304.487V10.6567H305.646V9.1257ZM305.646 3.06191H304.487V4.59287H305.646V3.06191ZM307.964 24.3752H306.805V25.9062H307.964V24.3752ZM307.964 18.2814H306.805V19.8124H307.964V18.2814ZM307.964 12.1876H306.805V13.7186H307.964V12.1876ZM307.964 6.09381H306.805V7.62477H307.964V6.09381ZM310.259 27.4071H309.1V28.9381H310.259V27.4071ZM310.259 21.3133H309.1V22.8443H310.259V21.3133ZM310.259 15.2195H309.1V16.7505H310.259V15.2195ZM310.259 9.1257H309.1V10.6567H310.259V9.1257ZM310.259 6.09381H309.1V7.62477H310.259V6.09381ZM310.259 3.06191H309.1V4.59287H310.259V3.06191ZM312.555 24.3752H311.396V25.9062H312.555V24.3752ZM312.555 18.2814H311.396V19.8124H312.555V18.2814ZM312.555 12.1876H311.396V13.7186H312.555V12.1876ZM312.555 6.09381H311.396V7.62477H312.555V6.09381ZM314.873 27.4071H313.714V28.9381H314.873V27.4071ZM314.873 21.3133H313.714V22.8443H314.873V21.3133ZM314.873 15.2195H313.714V16.7505H314.873V15.2195ZM314.873 12.1876H313.714V13.7186H314.873V12.1876ZM314.873 9.1257H313.714V10.6567H314.873V9.1257ZM314.873 6.09381H313.714V7.62477H314.873V6.09381ZM314.873 3.06191H313.714V4.59287H314.873V3.06191ZM317.168 24.3752H316.009V25.9062H317.168V24.3752ZM317.168 18.2814H316.009V19.8124H317.168V18.2814ZM317.168 12.1876H316.009V13.7186H317.168V12.1876ZM317.168 6.09381H316.009V7.62477H317.168V6.09381ZM319.486 27.4071H318.327V28.9381H319.486V27.4071ZM319.486 21.3133H318.327V22.8443H319.486V21.3133ZM319.486 18.2814H318.327V19.8124H319.486V18.2814ZM319.486 15.2195H318.327V16.7505H319.486V15.2195ZM319.486 12.1876H318.327V13.7186H319.486V12.1876ZM319.486 9.1257H318.327V10.6567H319.486V9.1257ZM319.486 6.09381H318.327V7.62477H319.486V6.09381ZM319.486 3.06191H318.327V4.59287H319.486V3.06191ZM321.782 24.3752H320.623V25.9062H321.782V24.3752ZM321.782 18.2814H320.623V19.8124H321.782V18.2814ZM321.782 12.1876H320.623V13.7186H321.782V12.1876ZM321.782 6.09381H320.623V7.62477H321.782V6.09381ZM324.1 27.4071H322.941V28.9381H324.1V27.4071ZM324.1 24.3752H322.941V25.9062H324.1V24.3752ZM324.1 21.3133H322.941V22.8443H324.1V21.3133ZM324.1 18.2814H322.941V19.8124H324.1V18.2814ZM324.1 15.2195H322.941V16.7505H324.1V15.2195ZM324.1 12.1876H322.941V13.7186H324.1V12.1876ZM324.1 9.1257H322.941V10.6567H324.1V9.1257ZM324.1 6.09381H322.941V7.62477H324.1V6.09381ZM324.1 3.06191H322.941V4.59287H324.1V3.06191ZM326.395 24.3752H325.236V25.9062H326.395V24.3752ZM326.395 18.2814H325.236V19.8124H326.395V18.2814ZM326.395 12.1876H325.236V13.7186H326.395V12.1876ZM326.395 6.09381H325.236V7.62477H326.395V6.09381ZM328.713 27.4071H327.554V28.9381H328.713V27.4071ZM328.713 24.3752H327.554V25.9062H328.713V24.3752ZM328.713 21.3133H327.554V22.8443H328.713V21.3133ZM328.713 18.2814H327.554V19.8124H328.713V18.2814ZM328.713 15.2195H327.554V16.7505H328.713V15.2195ZM328.713 12.1876H327.554V13.7186H328.713V12.1876ZM328.713 9.1257H327.554V10.6567H328.713V9.1257ZM328.713 6.09381H327.554V7.62477H328.713V6.09381ZM328.713 3.06191H327.554V4.59287H328.713V3.06191ZM331.009 24.3752H329.85V25.9062H331.009V24.3752ZM331.009 18.2814H329.85V19.8124H331.009V18.2814ZM331.009 12.1876H329.85V13.7186H331.009V12.1876ZM331.009 6.09381H329.85V7.62477H331.009V6.09381ZM331.009 3.06191H329.85V4.59287H331.009V3.06191ZM333.304 27.4071H332.145V28.9381H333.304V27.4071ZM333.304 24.3752H332.145V25.9062H333.304V24.3752ZM333.304 21.3133H332.145V22.8443H333.304V21.3133ZM333.304 18.2814H332.145V19.8124H333.304V18.2814ZM333.304 15.2195H332.145V16.7505H333.304V15.2195ZM333.304 12.1876H332.145V13.7186H333.304V12.1876ZM333.304 9.1257H332.145V10.6567H333.304V9.1257ZM333.304 6.09381H332.145V7.62477H333.304V6.09381ZM333.304 3.06191H332.145V4.59287H333.304V3.06191ZM335.622 24.3752H334.463V25.9062H335.622V24.3752ZM335.622 18.2814H334.463V19.8124H335.622V18.2814ZM335.622 12.1876H334.463V13.7186H335.622V12.1876ZM335.622 9.1257H334.463V10.6567H335.622V9.1257ZM335.622 6.09381H334.463V7.62477H335.622V6.09381ZM335.622 3.06191H334.463V4.59287H335.622V3.06191ZM337.918 27.4071H336.758V28.9381H337.918V27.4071ZM337.918 24.3752H336.758V25.9062H337.918V24.3752ZM337.918 21.3133H336.758V22.8443H337.918V21.3133ZM337.918 18.2814H336.758V19.8124H337.918V18.2814ZM337.918 15.2195H336.758V16.7505H337.918V15.2195ZM337.918 12.1876H336.758V13.7186H337.918V12.1876ZM337.918 9.1257H336.758V10.6567H337.918V9.1257ZM337.918 6.09381H336.758V7.62477H337.918V6.09381ZM337.918 3.06191H336.758V4.59287H337.918V3.06191ZM340.236 24.3752H339.077V25.9062H340.236V24.3752ZM340.236 18.2814H339.077V19.8124H340.236V18.2814ZM340.236 15.2195H339.077V16.7505H340.236V15.2195ZM340.236 12.1876H339.077V13.7186H340.236V12.1876ZM340.236 9.1257H339.077V10.6567H340.236V9.1257ZM340.236 6.09381H339.077V7.62477H340.236V6.09381ZM340.236 3.06191H339.077V4.59287H340.236V3.06191ZM342.531 27.4071H341.372V28.9381H342.531V27.4071ZM342.531 24.3752H341.372V25.9062H342.531V24.3752ZM342.531 21.3133H341.372V22.8443H342.531V21.3133ZM342.531 18.2814H341.372V19.8124H342.531V18.2814ZM342.531 15.2195H341.372V16.7505H342.531V15.2195ZM342.531 12.1876H341.372V13.7186H342.531V12.1876ZM342.531 9.1257H341.372V10.6567H342.531V9.1257ZM342.531 6.09381H341.372V7.62477H342.531V6.09381ZM342.531 3.06191H341.372V4.59287H342.531V3.06191ZM344.849 24.3752H343.69V25.9062H344.849V24.3752ZM344.849 21.3133H343.69V22.8443H344.849V21.3133ZM344.849 18.2814H343.69V19.8124H344.849V18.2814ZM344.849 15.2195H343.69V16.7505H344.849V15.2195ZM344.849 12.1876H343.69V13.7186H344.849V12.1876ZM344.849 9.1257H343.69V10.6567H344.849V9.1257ZM344.849 6.09381H343.69V7.62477H344.849V6.09381ZM347.144 27.4071H345.985V28.9381H347.144V27.4071ZM347.144 24.3752H345.985V25.9062H347.144V24.3752ZM347.144 21.3133H345.985V22.8443H347.144V21.3133ZM347.144 18.2814H345.985V19.8124H347.144V18.2814ZM347.144 15.2195H345.985V16.7505H347.144V15.2195ZM347.144 12.1876H345.985V13.7186H347.144V12.1876ZM347.144 9.1257H345.985V10.6567H347.144V9.1257ZM347.144 6.09381H345.985V7.62477H347.144V6.09381ZM349.463 27.4071H348.303V28.9381H349.463V27.4071ZM349.463 24.3752H348.303V25.9062H349.463V24.3752ZM349.463 21.3133H348.303V22.8443H349.463V21.3133ZM349.463 18.2814H348.303V19.8124H349.463V18.2814ZM349.463 15.2195H348.303V16.7505H349.463V15.2195ZM349.463 12.1876H348.303V13.7186H349.463V12.1876ZM351.758 27.4071H350.599V28.9381H351.758V27.4071ZM351.758 24.3752H350.599V25.9062H351.758V24.3752ZM351.758 21.3133H350.599V22.8443H351.758V21.3133ZM351.758 18.2814H350.599V19.8124H351.758V18.2814ZM351.758 15.2195H350.599V16.7505H351.758V15.2195ZM351.758 12.1876H350.599V13.7186H351.758V12.1876ZM351.758 6.09381H350.599V7.62477H349.44V6.09381H348.281V7.62477H349.44V9.15572H348.281V10.6867H349.44V9.15572H350.599V10.6867H351.758V9.15572H350.599V7.62477H351.758V6.09381ZM354.053 27.4071H352.894V28.9381H354.053V27.4071ZM354.053 24.3752H352.894V25.9062H354.053V24.3752ZM354.053 21.3133H352.894V22.8443H354.053V21.3133ZM354.053 18.2814H352.894V19.8124H354.053V18.2814ZM356.371 27.4071H355.212V28.9381H356.371V27.4071ZM356.371 24.3752H355.212V25.9062H356.371V24.3752ZM356.371 21.3133H355.212V22.8443H356.371V21.3133ZM356.371 18.2814H355.212V19.8124H356.371V18.2814ZM356.371 12.1876H355.212V13.7186H354.053V12.1876H352.894V13.7186H354.053V15.2495H352.894V16.7805H354.053V15.2495H355.212V16.7805H356.371V15.2495H355.212V13.7186H356.371V12.1876ZM356.371 6.09381H355.212V7.62477H354.053V6.09381H352.894V7.62477H354.053V9.15572H352.894V10.6867H354.053V9.15572H355.212V10.6867H356.371V9.15572H355.212V7.62477H356.371V6.09381ZM358.667 27.4071H357.508V28.9381H358.667V27.4071ZM358.667 24.3752H357.508V25.9062H358.667V24.3752ZM360.985 27.4071H359.826V28.9381H360.985V27.4071ZM360.985 24.3752H359.826V25.9062H360.985V24.3752ZM360.985 18.2814H359.826V19.8124H358.667V18.2814H357.508V19.8124H358.667V21.3433H357.508V22.8743H358.667V21.3433H359.826V22.8743H360.985V21.3433H359.826V19.8124H360.985V18.2814ZM360.985 12.1876H359.826V13.7186H358.667V12.1876H357.508V13.7186H358.667V15.2495H357.508V16.7805H358.667V15.2495H359.826V16.7805H360.985V15.2495H359.826V13.7186H360.985V12.1876ZM360.985 6.09381H359.826V7.62477H358.667V6.09381H357.508V7.62477H358.667V9.15572H357.508V10.6867H358.667V9.15572H359.826V10.6867H360.985V9.15572H359.826V7.62477H360.985V6.09381ZM365.598 24.3752H364.439V25.9062H363.28V24.3752H362.121V25.9062H363.28V27.4372H362.121V28.9681H363.28V27.4372H364.439V28.9681H365.598V27.4372H364.439V25.9062H365.598V24.3752ZM365.598 18.2814H364.439V19.8124H363.28V18.2814H362.121V19.8124H363.28V21.3433H362.121V22.8743H363.28V21.3433H364.439V22.8743H365.598V21.3433H364.439V19.8124H365.598V18.2814ZM365.598 12.1876H364.439V13.7186H363.28V12.1876H362.121V13.7186H363.28V15.2495H362.121V16.7805H363.28V15.2495H364.439V16.7805H365.598V15.2495H364.439V13.7186H365.598V12.1876ZM365.598 6.09381H364.439V7.62477H363.28V6.09381H362.121V7.62477H363.28V9.15572H362.121V10.6867H363.28V9.15572H364.439V10.6867H365.598V9.15572H364.439V7.62477H365.598V6.09381ZM370.212 24.3752H369.053V25.9062H367.894V24.3752H366.735V25.9062H367.894V27.4372H366.735V28.9681H367.894V27.4372H369.053V28.9681H370.212V27.4372H369.053V25.9062H370.212V24.3752ZM370.212 18.2814H369.053V19.8124H367.894V18.2814H366.735V19.8124H367.894V21.3433H366.735V22.8743H367.894V21.3433H369.053V22.8743H370.212V21.3433H369.053V19.8124H370.212V18.2814ZM370.212 12.1876H369.053V13.7186H367.894V12.1876H366.735V13.7186H367.894V15.2495H366.735V16.7805H367.894V15.2495H369.053V16.7805H370.212V15.2495H369.053V13.7186H370.212V12.1876ZM374.803 24.3752H373.643V25.9062H372.484V24.3752H371.325V25.9062H372.484V27.4372H371.325V28.9681H372.484V27.4372H373.643V28.9681H374.803V27.4372H373.643V25.9062H374.803V24.3752ZM374.803 18.2814H373.643V19.8124H372.484V18.2814H371.325V19.8124H372.484V21.3433H371.325V22.8743H372.484V21.3433H373.643V22.8743H374.803V21.3433H373.643V19.8124H374.803V18.2814ZM379.416 24.3752H378.257V25.9062H377.098V24.3752H375.939V25.9062H377.098V27.4372H375.939V28.9681H377.098V27.4372H378.257V28.9681H379.416V27.4372H378.257V25.9062H379.416V24.3752ZM392.097 28.9381V27.4071H390.938V28.9381H389.779V30.469H390.938V32H392.097V30.469H393.256V28.9381H392.097ZM488.935 21.3133H490.094V19.7824H488.935V21.3133ZM396.711 28.9381V27.4071H395.552V28.9381H394.393V30.469H395.552V32H396.711V30.469H397.87V28.9381H396.711ZM435.914 28.9381V30.469H437.073V28.9381H435.914ZM433.596 28.9381V30.469H434.755V28.9381H433.596ZM438.209 28.9381V30.469H439.368V28.9381H438.209ZM440.505 28.9381V30.469H441.664V28.9381H440.505ZM428.982 28.9381V30.469H430.141V28.9381H428.982ZM426.687 28.9381V30.469H427.846V28.9381H426.687ZM431.301 28.9381V30.469H432.46V28.9381H431.301ZM424.369 28.9381V27.4071H423.21V28.9381H422.051V30.469H423.21V32H424.369V30.469H425.528V28.9381H424.369ZM442.823 28.9381V30.469H443.982V28.9381H442.823ZM482.003 7.62477V9.15572H483.162V7.62477H482.003ZM484.321 6.09381H485.48V4.56285H484.321V6.09381ZM484.321 9.1257H485.48V7.59475H484.321V9.1257ZM490.071 30.439V28.9081H488.912V30.439H490.071ZM484.321 3.06191H485.48V1.53096H484.321V3.06191ZM484.321 15.2195H485.48V13.6886H484.321V15.2195ZM485.48 12.1876V10.6567H484.321V12.1876H485.48ZM482.003 12.1876H483.162V10.6567H482.003V12.1876ZM473.935 27.4071V28.9381H475.094V27.4071H473.935ZM486.617 30.439H487.776V28.9081H486.617V30.439ZM487.776 22.8443H488.935V21.3133H487.776V22.8443ZM490.071 24.3752V22.8443H488.912V24.3752H490.071ZM486.617 24.3752H487.776V22.8443H486.617V24.3752ZM482.003 13.7186V15.2495H483.162V13.7186H482.003ZM486.617 19.7824V21.3133H487.776V19.7824H486.617ZM488.935 27.4071H490.094V25.8762H488.935V27.4071ZM487.776 28.9381H488.935V27.4071H487.776V28.9381ZM486.617 25.8762V27.4071H487.776V25.8762H486.617ZM483.162 10.6567H484.321V9.1257H483.162V10.6567ZM479.708 28.9381V30.469H480.867V28.9381H479.708ZM482.003 30.439H483.162V28.9081H482.003V30.439ZM480.867 25.8762H479.708V27.4071H480.867V25.8762ZM483.162 28.9381H484.321V27.4071H483.162V28.9381ZM475.094 28.9381V30.469H476.254V28.9381H475.094ZM483.162 16.7505H484.321V15.2195H483.162V16.7505ZM478.549 27.4071V28.9381H479.708V27.4071H478.549ZM477.413 30.439H478.572V28.9081H477.413V30.439ZM482.003 25.8762V27.4071H483.162V25.8762H482.003ZM484.321 21.3133H485.48V19.7824H484.321V21.3133ZM485.48 18.2814V16.7505H484.321V18.2814H485.48ZM482.003 19.7824V21.3133H483.162V19.7824H482.003ZM482.003 18.2814H483.162V16.7505H482.003V18.2814ZM484.321 27.4071H485.48V25.8762H484.321V27.4071ZM483.162 22.8443H484.321V21.3133H483.162V22.8443ZM485.48 24.3752V22.8443H484.321V24.3752H485.48ZM482.003 24.3752H483.162V22.8443H482.003V24.3752ZM548.865 15.2195H550.024V13.6886H548.865V15.2195ZM539.638 21.3133H540.797V19.7824H539.638V21.3133ZM539.638 15.2195H540.797V13.6886H539.638V15.2195ZM539.638 9.1257H540.797V7.59475H539.638V9.1257ZM539.638 27.4071H540.797V25.8762H539.638V27.4071ZM539.638 30.439H540.797V28.9081H539.638V30.439ZM537.342 12.1876H538.501V10.6567H537.342V12.1876ZM539.638 3.06191H540.797V1.53096H539.638V3.06191ZM537.342 18.2814H538.501V16.7505H537.342V18.2814ZM537.342 6.09381H538.501V4.56285H537.342V6.09381ZM544.251 9.1257H545.41V7.59475H544.251V9.1257ZM541.956 30.439H543.115V28.9081H541.956V30.439ZM541.956 6.09381H543.115V4.56285H541.956V6.09381ZM544.251 21.3133H545.41V19.7824H544.251V21.3133ZM544.251 15.2195H545.41V13.6886H544.251V15.2195ZM544.251 27.4071H545.41V25.8762H544.251V27.4071ZM541.956 24.3752H543.115V22.8443H541.956V24.3752ZM541.956 18.2814H543.115V16.7505H541.956V18.2814ZM541.956 12.1876H543.115V10.6567H541.956V12.1876ZM537.342 24.3752H538.501V22.8443H537.342V24.3752ZM532.729 12.1876H533.888V10.6567H532.729V12.1876ZM532.729 24.3752H533.888V22.8443H532.729V24.3752ZM537.342 30.439H538.501V28.9081H537.342V30.439ZM532.729 18.2814H533.888V16.7505H532.729V18.2814ZM530.433 3.06191H531.592V1.53096H530.433V3.06191ZM530.433 18.2814H531.592V16.7505H530.433V18.2814ZM530.433 15.2195H531.592V13.6886H530.433V15.2195ZM530.433 9.1257H531.592V7.59475H530.433V9.1257ZM532.729 30.439H533.888V28.9081H532.729V30.439ZM535.047 15.2195H536.206V13.6886H535.047V15.2195ZM532.729 6.09381H533.888V4.56285H532.729V6.09381ZM535.047 3.06191H536.206V1.53096H535.047V3.06191ZM535.047 21.3133H536.206V19.7824H535.047V21.3133ZM535.047 9.1257H536.206V7.59475H535.047V9.1257ZM535.047 24.3752H536.206V22.8443H535.047V24.3752ZM535.047 30.439H536.206V28.9081H535.047V30.439ZM535.047 27.4071H536.206V25.8762H535.047V27.4071ZM551.183 6.09381H552.342V4.56285H551.183V6.09381ZM560.387 12.1876H561.546V10.6567H560.387V12.1876ZM560.387 6.09381H561.546V4.56285H560.387V6.09381ZM565 30.439H566.159V28.9081H565V30.439ZM560.387 18.2814H561.546V16.7505H560.387V18.2814ZM555.773 6.09381H556.932V4.56285H555.773V6.09381ZM565 24.3752H566.159V22.8443H565V24.3752ZM560.387 24.3752H561.546V22.8443H560.387V24.3752ZM558.092 27.4071H559.251V25.8762H558.092V27.4071ZM560.387 30.439H561.546V28.9081H560.387V30.439ZM546.569 30.439H547.728V28.9081H546.569V30.439ZM574.227 30.439H575.386V28.9081H574.227V30.439ZM574.227 24.3752H575.386V22.8443H574.227V24.3752ZM578.841 28.9381V30.469H580V28.9381H578.841ZM565 18.2814H566.159V16.7505H565V18.2814ZM569.614 18.2814H570.773V16.7505H569.614V18.2814ZM555.773 12.1876H556.932V10.6567H555.773V12.1876ZM569.614 30.439H570.773V28.9081H569.614V30.439ZM569.614 24.3752H570.773V22.8443H569.614V24.3752ZM565 12.1876H566.159V10.6567H565V12.1876ZM548.865 27.4071H550.024V25.8762H548.865V27.4071ZM548.865 21.3133H550.024V19.7824H548.865V21.3133ZM546.569 6.09381H547.728V4.56285H546.569V6.09381ZM370.212 3.06191V4.59287H371.371V3.06191H372.53V1.53096H371.371V0H370.212V1.53096H369.053V3.06191H370.212ZM546.569 24.3752H547.728V22.8443H546.569V24.3752ZM551.183 30.439H552.342V28.9081H551.183V30.439ZM546.569 12.1876H547.728V10.6567H546.569V12.1876ZM546.569 18.2814H547.728V16.7505H546.569V18.2814ZM530.433 21.3133H531.592V19.7824H530.433V21.3133ZM553.478 21.3133H554.637V19.7824H553.478V21.3133ZM555.773 30.439H556.932V28.9081H555.773V30.439ZM555.773 24.3752H556.932V22.8443H555.773V24.3752ZM553.478 27.4071H554.637V25.8762H553.478V27.4071ZM551.183 24.3752H552.342V22.8443H551.183V24.3752ZM555.773 18.2814H556.932V16.7505H555.773V18.2814ZM551.183 18.2814H552.342V16.7505H551.183V18.2814ZM551.183 12.1876H552.342V10.6567H551.183V12.1876ZM514.298 24.3752H515.457V22.8443H514.298V24.3752ZM514.298 12.1876H515.457V10.6567H514.298V12.1876ZM514.298 18.2814H515.457V16.7505H514.298V18.2814ZM514.298 6.09381H515.457V4.56285H514.298V6.09381ZM514.298 21.3133H515.457V19.7824H514.298V21.3133ZM516.593 30.439H517.752V28.9081H516.593V30.439ZM511.98 3.06191H513.139V1.53096H511.98V3.06191ZM514.298 30.439H515.457V28.9081H514.298V30.439ZM514.298 27.4071H515.457V25.8762H514.298V27.4071ZM507.366 6.09381H508.525V4.56285H507.366V6.09381ZM516.593 15.2195H517.752V13.6886H516.593V15.2195ZM516.593 12.1876H517.752V10.6567H516.593V12.1876ZM516.593 9.1257H517.752V7.59475H516.593V9.1257ZM516.593 6.09381H517.752V4.56285H516.593V6.09381ZM511.98 6.09381H513.139V4.56285H511.98V6.09381ZM516.593 21.3133H517.752V19.7824H516.593V21.3133ZM516.593 24.3752H517.752V22.8443H516.593V24.3752ZM516.593 18.2814H517.752V16.7505H516.593V18.2814ZM516.593 27.4071H517.752V25.8762H516.593V27.4071ZM509.684 6.09381H510.843V4.56285H509.684V6.09381ZM509.684 18.2814H510.843V16.7505H509.684V18.2814ZM509.684 21.3133H510.843V19.7824H509.684V21.3133ZM509.684 15.2195H510.843V13.6886H509.684V15.2195ZM509.684 24.3752H510.843V22.8443H509.684V24.3752ZM507.366 3.06191H508.525V1.53096H507.366V3.06191ZM509.684 12.1876H510.843V10.6567H509.684V12.1876ZM509.684 30.439H510.843V28.9081H509.684V30.439ZM509.684 27.4071H510.843V25.8762H509.684V27.4071ZM530.433 24.3752H531.592V22.8443H530.433V24.3752ZM511.98 9.1257H513.139V7.59475H511.98V9.1257ZM511.98 15.2195H513.139V13.6886H511.98V15.2195ZM511.98 18.2814H513.139V16.7505H511.98V18.2814ZM511.98 12.1876H513.139V10.6567H511.98V12.1876ZM511.98 21.3133H513.139V19.7824H511.98V21.3133ZM511.98 30.439H513.139V28.9081H511.98V30.439ZM511.98 27.4071H513.139V25.8762H511.98V27.4071ZM511.98 24.3752H513.139V22.8443H511.98V24.3752ZM516.593 3.06191H517.752V1.53096H516.593V3.06191ZM525.82 15.2195H526.979V13.6886H525.82V15.2195ZM525.82 18.2814H526.979V16.7505H525.82V18.2814ZM525.82 21.3133H526.979V19.7824H525.82V21.3133ZM525.82 12.1876H526.979V10.6567H525.82V12.1876ZM523.502 6.09381H524.661V4.56285H523.502V6.09381ZM525.82 30.439H526.979V28.9081H525.82V30.439ZM525.82 9.1257H526.979V7.59475H525.82V9.1257ZM523.502 12.1876H524.661V10.6567H523.502V12.1876ZM525.82 24.3752H526.979V22.8443H525.82V24.3752ZM525.82 27.4071H526.979V25.8762H525.82V27.4071ZM530.433 30.439H531.592V28.9081H530.433V30.439ZM528.115 6.09381H529.274V4.56285H528.115V6.09381ZM525.82 3.06191H526.979V1.53096H525.82V3.06191ZM528.115 12.1876H529.274V10.6567H528.115V12.1876ZM530.433 27.4071H531.592V25.8762H530.433V27.4071ZM528.115 18.2814H529.274V16.7505H528.115V18.2814ZM528.115 30.439H529.274V28.9081H528.115V30.439ZM528.115 24.3752H529.274V22.8443H528.115V24.3752ZM521.206 9.1257H522.366V7.59475H521.206V9.1257ZM518.888 12.1876H520.047V10.6567H518.888V12.1876ZM518.888 6.09381H520.047V4.56285H518.888V6.09381ZM521.206 30.439H522.366V28.9081H521.206V30.439ZM521.206 24.3752H522.366V22.8443H521.206V24.3752ZM521.206 27.4071H522.366V25.8762H521.206V27.4071ZM518.888 27.4071H520.047V25.8762H518.888V27.4071ZM518.888 24.3752H520.047V22.8443H518.888V24.3752ZM518.888 18.2814H520.047V16.7505H518.888V18.2814ZM521.206 3.06191H522.366V1.53096H521.206V3.06191ZM521.206 6.09381H522.366V4.56285H521.206V6.09381ZM523.502 24.3752H524.661V22.8443H523.502V24.3752ZM523.502 30.439H524.661V28.9081H523.502V30.439ZM518.888 30.439H520.047V28.9081H518.888V30.439ZM521.206 15.2195H522.366V13.6886H521.206V15.2195ZM521.206 18.2814H522.366V16.7505H521.206V18.2814ZM521.206 12.1876H522.366V10.6567H521.206V12.1876ZM521.206 21.3133H522.366V19.7824H521.206V21.3133ZM461.254 27.4071H462.413V25.8762H461.254V27.4071ZM407.097 24.3752V22.8443H405.938V21.3133H404.779V22.8443H403.62V24.3752H404.779V25.9062H405.938V24.3752H407.097ZM402.483 24.3752V22.8443H401.324V21.3133H400.165V22.8443H399.006V24.3752H400.165V25.9062H401.324V24.3752H402.483ZM414.006 6.09381V4.56285H412.847V6.09381H414.006ZM402.483 24.3752V25.9062H403.642V24.3752H402.483ZM396.711 22.8443V21.3133H395.552V22.8443H394.393V24.3752H395.552V25.9062H396.711V24.3752H397.87V22.8443H396.711ZM385.189 15.2195H386.348V13.6886H385.189V12.1576H384.029V13.6886H382.87V15.2195H384.029V16.7505H385.189V15.2195ZM382.87 12.1876H384.029V10.6567H382.87V9.1257H381.711V10.6567H380.552V12.1876H381.711V13.7186H382.87V12.1876ZM389.802 21.3133H390.961V19.7824H389.802V18.2514H388.643V19.7824H387.484V21.3133H388.643V22.8443H389.802V21.3133ZM387.484 18.2814H388.643V16.7505H387.484V15.2195H386.325V16.7505H385.166V18.2814H386.325V19.8124H387.484V18.2814ZM423.233 24.3752V25.9062H424.392V24.3752H423.233ZM420.915 24.3752V22.8443H419.755V21.3133H418.596V22.8443H417.437V24.3752H418.596V25.9062H419.755V24.3752H420.915ZM420.915 24.3752V25.9062H422.074V24.3752H420.915ZM380.575 9.1257H381.734V7.59475H380.575V6.06379H379.416V7.59475H378.257V9.1257H379.416V10.6567H380.575V9.1257ZM407.097 24.3752V25.9062H408.256V24.3752H407.097ZM416.301 24.3752V25.9062H417.46V24.3752H416.301ZM411.688 24.3752V22.8443H410.529V21.3133H409.37V22.8443H408.21V24.3752H409.37V25.9062H410.529V24.3752H411.688ZM416.301 24.3752V22.8443H415.142V21.3133H413.983V22.8443H412.824V24.3752H413.983V25.9062H415.142V24.3752H416.301ZM411.688 24.3752V25.9062H412.847V24.3752H411.688ZM389.802 7.62477V6.09381H388.643V7.62477H389.802ZM407.097 9.1257V7.59475H405.938V9.1257H407.097ZM403.62 7.62477V6.09381H402.461V7.62477H403.62ZM403.62 9.1257H404.779V7.59475H403.62V9.1257ZM384.029 9.1257V10.6567H385.189V9.1257H386.348V7.59475H385.189V6.06379H384.029V7.59475H382.87V9.1257H384.029ZM408.233 7.62477V6.09381H407.074V7.62477H408.233ZM411.688 6.09381V4.56285H410.529V6.09381H411.688ZM409.392 6.09381V4.56285H408.233V6.09381H409.392ZM399.029 9.1257H400.188V7.59475H399.029V9.1257ZM402.483 9.1257V7.59475H401.324V9.1257H402.483ZM389.802 9.1257H390.961V7.59475H389.802V9.1257ZM399.029 7.62477V6.09381H397.87V7.62477H399.029ZM393.256 9.1257V7.59475H392.097V9.1257H393.256ZM388.643 9.1257V7.59475H387.484V9.1257H388.643ZM426.687 24.3752H425.528V25.9062H426.687V24.3752ZM394.415 7.62477V6.09381H393.256V7.62477H394.415ZM457.8 6.09381V4.56285H456.641V6.09381H457.8ZM394.415 9.1257H395.575V7.59475H394.415V9.1257ZM392.097 22.8443V21.3133H390.938V22.8443H389.779V24.3752H390.938V25.9062H392.097V24.3752H393.256V22.8443H392.097ZM467.027 19.7824H465.867V21.3133H467.027V19.7824ZM468.186 24.3752H469.345V22.8443H468.186V24.3752ZM465.867 22.8443V24.3752H467.027V22.8443H465.867ZM468.186 19.7824V18.2514H467.027V19.7824H468.186ZM469.322 21.3133V19.7824H468.163V21.3133H469.322ZM464.731 21.3133V22.8443H465.89V21.3133H464.731ZM461.254 22.8443V24.3752H462.413V22.8443H461.254ZM458.959 24.3752H460.118V22.8443H458.959V24.3752ZM463.572 24.3752H464.731V22.8443H463.572V24.3752ZM460.118 21.3133V22.8443H461.277V21.3133H460.118ZM461.254 10.6567V9.1257H460.095V10.6567H461.254ZM460.118 9.1257V7.59475H458.959V9.1257H460.118ZM467.027 18.2814V16.7505H465.867V18.2814H467.027ZM462.413 12.1876V10.6567H461.254V12.1876H462.413ZM458.959 7.62477V6.09381H457.8V7.62477H458.959ZM465.867 16.7505V15.2195H464.708V16.7505H465.867ZM463.572 13.7186V12.1876H462.413V13.7186H463.572ZM464.731 15.2195V13.6886H463.572V15.2195H464.731ZM440.505 25.8762V27.4071H441.664V25.8762H440.505ZM426.687 25.8762V27.4071H427.846V25.8762H426.687ZM443.982 25.8762H445.141V24.3452H443.982V25.8762ZM435.914 25.8762V27.4071H437.073V25.8762H435.914ZM442.823 27.4071H443.982V25.8762H442.823V27.4071ZM438.209 25.8762V27.4071H439.368V25.8762H438.209ZM428.982 25.8762V27.4071H430.141V25.8762H428.982ZM431.301 25.8762V27.4071H432.46V25.8762H431.301ZM433.596 25.8762V27.4071H434.755V25.8762H433.596ZM455.504 21.3133V22.8443H456.663V21.3133H455.504ZM454.345 24.3752H455.504V22.8443H454.345V24.3752ZM452.05 22.8443V24.3752H453.209V22.8443H452.05ZM450.891 21.3133V22.8443H452.05V21.3133H450.891ZM456.663 22.8443V24.3752H457.822V22.8443H456.663ZM447.436 22.8443V24.3752H448.595V22.8443H447.436ZM446.277 21.3133V22.8443H447.436V21.3133H446.277ZM445.118 24.3752H446.277V22.8443H445.118V24.3752ZM449.732 24.3752H450.891V22.8443H449.732V24.3752ZM397.87 9.1257V7.59475H396.711V9.1257H397.87ZM427.846 24.3752V25.9062H429.005V24.3752H427.846ZM430.141 24.3752V25.9062H431.301V24.3752H430.141ZM434.755 24.3752V25.9062H435.914V24.3752H434.755ZM432.437 24.3752V25.9062H433.596V24.3752H432.437ZM427.846 22.8443H426.687V24.3752H427.846V22.8443ZM420.915 19.7824H419.755V21.3133H420.915V19.7824ZM422.074 21.3133H420.915V22.8443H422.074V21.3133ZM417.46 19.7824V21.3133H418.619V19.7824H417.46ZM452.05 19.7824V21.3133H453.209V19.7824H452.05ZM424.369 22.8443V24.3752H425.528V22.8443H424.369ZM445.118 19.7824V21.3133H446.277V19.7824H445.118ZM416.301 6.09381V4.56285H415.142V6.09381H416.301ZM443.982 22.8443H445.141V21.3133H443.982V22.8443ZM449.732 19.7824V21.3133H450.891V19.7824H449.732ZM439.368 25.8762H440.528V24.3452H439.368V25.8762ZM441.664 21.3133V22.8443H442.823V21.3133H441.664ZM437.05 24.3752V25.9062H438.209V24.3752H437.05ZM440.505 24.3752H441.664V22.8443H440.505V24.3752ZM422.074 22.8443V24.3752H423.233V22.8443H422.074ZM399.029 19.7824V21.3133H400.188V19.7824H399.029ZM397.87 19.7824H396.711V21.3133H397.87V19.7824ZM402.483 21.3133V22.8443H403.642V21.3133H402.483ZM402.483 19.7824H401.324V21.3133H402.483V19.7824ZM397.87 21.3133V22.8443H399.029V21.3133H397.87ZM416.301 21.3133V22.8443H417.46V21.3133H416.301ZM394.415 19.7824V18.2514H393.256V19.7824H392.097V21.3133H393.256V22.8443H394.415V21.3133H395.575V19.7824H394.415ZM392.097 18.2814H393.256V16.7505H392.097V15.2195H390.938V16.7505H389.779V18.2814H390.938V19.8124H392.097V18.2814ZM389.802 15.2195H390.961V13.6886H389.802V12.1576H388.643V13.6886H387.484V15.2195H388.643V16.7505H389.802V15.2195ZM411.688 21.3133V22.8443H412.847V21.3133H411.688ZM403.62 19.7824V21.3133H404.779V19.7824H403.62ZM411.688 19.7824H410.529V21.3133H411.688V19.7824ZM416.301 19.7824H415.142V21.3133H416.301V19.7824ZM412.847 19.7824V21.3133H414.006V19.7824H412.847ZM408.233 19.7824V21.3133H409.392V19.7824H408.233ZM407.097 19.7824H405.938V21.3133H407.097V19.7824ZM407.097 21.3133V22.8443H408.256V21.3133H407.097ZM447.436 19.7824V21.3133H448.595V19.7824H447.436ZM437.05 9.1257V7.59475H435.891V9.1257H437.05ZM434.755 7.62477H433.596V9.15572H434.755V7.62477ZM433.596 10.6567V9.1257H432.437V10.6567H433.596ZM438.209 10.6567V9.1257H437.05V10.6567H438.209ZM439.368 7.62477H438.209V9.15572H439.368V7.62477ZM432.437 9.1257V7.59475H431.278V9.1257H432.437ZM442.823 10.6567V9.1257H441.664V10.6567H442.823ZM443.982 7.62477H442.823V9.15572H443.982V7.62477ZM441.664 9.1257V7.59475H440.505V9.1257H441.664ZM428.982 10.6567V9.1257H427.823V10.6567H428.982ZM430.141 7.62477H428.982V9.15572H430.141V7.62477ZM424.369 7.62477V6.09381H423.21V7.62477H424.369ZM420.915 6.09381V4.56285H419.755V6.09381H420.915ZM418.619 6.09381V4.56285H417.46V6.09381H418.619ZM422.074 7.62477V6.09381H420.915V7.62477H422.074ZM446.277 9.1257V7.59475H445.118V9.1257H446.277ZM426.687 7.62477V6.09381H425.528V7.62477H426.687ZM427.846 9.1257V7.59475H426.687V9.1257H427.846ZM453.186 7.62477H452.027V9.15572H453.186V7.62477ZM458.959 19.7824V21.3133H460.118V19.7824H458.959ZM461.254 21.3133H462.413V19.7824H461.254V21.3133ZM462.413 18.2814V16.7505H461.254V18.2814H462.413ZM461.254 16.7505V15.2195H460.095V16.7505H461.254ZM460.118 16.7505H458.959V18.2814H460.118V16.7505ZM460.118 15.2195V13.6886H458.959V15.2195H460.118ZM456.663 21.3133H457.822V19.7824H456.663V21.3133ZM457.8 18.2814V19.8124H458.959V18.2814H457.8ZM454.345 19.7824V21.3133H455.504V19.7824H454.345ZM452.05 10.6567V9.1257H450.891V10.6567H452.05ZM450.891 9.1257V7.59475H449.732V9.1257H450.891ZM448.573 7.62477H447.414V9.15572H448.573V7.62477ZM447.436 10.6567V9.1257H446.277V10.6567H447.436ZM455.504 9.1257V7.59475H454.345V9.1257H455.504ZM457.8 12.1876V10.6567H456.641V12.1876H457.8ZM456.663 10.6567V9.1257H455.504V10.6567H456.663ZM458.959 13.7186V12.1876H457.8V13.7186H458.959ZM407.097 27.4071V28.9381H408.256V27.4071H407.097ZM467.027 12.1876V10.6567H465.867V12.1876H467.027ZM463.572 7.62477V6.09381H462.413V7.62477H463.572ZM468.186 13.7186V12.1876H467.027V13.7186H468.186ZM464.731 9.1257V7.59475H463.572V9.1257H464.731ZM465.867 10.6567V9.1257H464.708V10.6567H465.867ZM471.64 18.2814V16.7505H470.481V18.2814H471.64ZM472.799 19.7824V18.2514H471.64V19.7824H472.799ZM473.935 21.3133V19.7824H472.776V21.3133H473.935ZM469.322 15.2195V13.6886H468.163V15.2195H469.322ZM470.481 16.7505V15.2195H469.322V16.7505H470.481ZM456.663 4.56285V3.0319H455.504V4.56285H456.663ZM453.186 1.53096H452.027V3.06191H453.186V1.53096ZM455.504 3.06191V1.53096H454.345V3.06191H455.504ZM452.05 4.56285V3.0319H450.891V4.56285H452.05ZM461.254 4.56285V3.0319H460.095V4.56285H461.254ZM457.8 1.53096H456.641V3.06191H457.8V1.53096ZM450.891 3.06191V1.53096H449.732V3.06191H450.891ZM460.118 3.06191V1.53096H458.959V3.06191H460.118ZM462.413 6.09381V4.56285H461.254V6.09381H462.413ZM462.413 24.3752V25.9062H463.572V24.3752H462.413ZM465.867 27.4071H467.027V25.8762H465.867V27.4071ZM387.484 12.1876H388.643V10.6567H387.484V9.1257H386.325V10.6567H385.166V12.1876H386.325V13.7186H387.484V12.1876ZM463.572 25.8762V27.4071H464.731V25.8762H463.572ZM458.959 25.8762V27.4071H460.118V25.8762H458.959ZM456.663 25.8762V27.4071H457.822V25.8762H456.663ZM452.05 25.8762V27.4071H453.209V25.8762H452.05ZM454.345 25.8762V27.4071H455.504V25.8762H454.345ZM472.799 25.8762V27.4071H473.958V25.8762H472.799ZM473.935 22.8443H472.776V24.3752H473.935V22.8443ZM475.094 27.4071H476.254V25.8762H475.094V27.4071ZM475.094 22.8443V21.3133H473.935V22.8443H475.094ZM476.254 24.3752V22.8443H475.094V24.3752H476.254ZM470.481 27.4071H471.64V25.8762H470.481V27.4071ZM468.186 25.8762V27.4071H469.345V25.8762H468.186ZM471.64 24.3752V25.9062H472.799V24.3752H471.64ZM467.027 24.3752V25.9062H468.186V24.3752H467.027ZM418.619 3.06191V1.53096H417.46V3.06191H418.619ZM404.779 3.06191V1.53096H403.62V3.06191H404.779ZM409.392 3.06191V1.53096H408.233V3.06191H409.392ZM407.097 3.06191V1.53096H405.938V3.06191H407.097ZM448.573 1.53096H447.414V3.06191H448.573V1.53096ZM414.006 3.06191V1.53096H412.847V3.06191H414.006ZM416.301 3.06191V1.53096H415.142V3.06191H416.301ZM420.915 3.06191V1.53096H419.755V3.06191H420.915ZM449.732 25.8762V27.4071H450.891V25.8762H449.732ZM400.165 3.06191V1.53096H399.006V3.06191H400.165ZM411.688 3.06191V1.53096H410.529V3.06191H411.688ZM397.87 3.06191V1.53096H396.711V3.06191H397.87ZM388.643 3.06191V1.53096H387.484V3.06191H388.643ZM386.348 3.06191V1.53096H385.189V3.06191H386.348ZM379.416 3.06191V4.59287H380.575V3.06191H381.734V1.53096H380.575V0H379.416V1.53096H378.257V3.06191H379.416ZM384.029 3.06191V1.53096H382.87V3.06191H384.029ZM390.938 3.06191V1.53096H389.779V3.06191H390.938ZM395.552 3.06191V1.53096H394.393V3.06191H395.552ZM393.256 3.06191V1.53096H392.097V3.06191H393.256ZM402.483 3.06191V1.53096H401.324V3.06191H402.483ZM441.664 3.06191V1.53096H440.505V3.06191H441.664ZM437.05 3.06191V1.53096H435.891V3.06191H437.05ZM438.209 4.56285V3.0319H437.05V4.56285H438.209ZM442.823 4.56285V3.0319H441.664V4.56285H442.823ZM455.504 4.56285H454.345V6.09381H455.504V4.56285ZM447.436 4.56285V3.0319H446.277V4.56285H447.436ZM443.982 1.53096H442.823V3.06191H443.982V1.53096ZM446.277 3.06191V1.53096H445.118V3.06191H446.277ZM433.596 4.56285V3.0319H432.437V4.56285H433.596ZM427.846 3.06191V1.53096H426.687V3.06191H427.846ZM434.755 1.53096H433.596V3.06191H434.755V1.53096ZM424.369 4.56285V3.0319H423.21V4.56285H424.369ZM428.982 4.56285V3.0319H427.823V4.56285H428.982ZM425.528 1.53096H424.369V3.06191H425.528V1.53096ZM423.233 3.06191V1.53096H422.074V3.06191H423.233ZM432.437 3.06191V1.53096H431.278V3.06191H432.437ZM430.141 1.53096H428.982V3.06191H430.141V1.53096ZM439.368 1.53096H438.209V3.06191H439.368V1.53096ZM408.233 4.56285V3.0319H407.074V4.56285H408.233ZM403.62 4.56285V6.09381H404.779V7.62477H405.938V6.09381H407.097V4.56285H405.938V3.0319H404.779V4.56285H403.62ZM399.029 4.56285V6.09381H400.188V7.62477H401.347V6.09381H402.506V4.56285H401.347V3.0319H400.188V4.56285H399.029ZM410.551 4.56285V3.0319H409.392V4.56285H410.551ZM422.074 4.56285V3.0319H420.915V4.56285H422.074ZM417.46 4.56285V3.0319H416.301V4.56285H417.46ZM412.847 4.56285V3.0319H411.688V4.56285H412.847ZM419.755 4.56285V3.0319H418.596V4.56285H419.755ZM415.165 4.56285V3.0319H414.006V4.56285H415.165ZM403.62 4.56285V3.0319H402.461V4.56285H403.62ZM385.189 4.56285V3.0319H384.029V4.56285H385.189ZM385.189 4.56285V6.09381H386.348V7.62477H387.507V6.09381H388.666V4.56285H387.507V3.0319H386.348V4.56285H385.189ZM389.802 4.56285V3.0319H388.643V4.56285H389.802ZM399.029 4.56285V3.0319H397.87V4.56285H399.029ZM381.734 6.09381V7.62477H382.893V6.09381H384.052V4.56285H382.893V3.0319H381.734V4.56285H380.575V6.09381H381.734ZM394.415 4.56285V6.09381H395.575V7.62477H396.734V6.09381H397.893V4.56285H396.734V3.0319H395.575V4.56285H394.415ZM389.802 4.56285V6.09381H390.961V7.62477H392.12V6.09381H393.279V4.56285H392.12V3.0319H390.961V4.56285H389.802ZM394.415 4.56285V3.0319H393.256V4.56285H394.415ZM445.118 7.62477V6.09381H443.959V7.62477H445.118ZM443.982 6.09381V4.56285H442.823V6.09381H443.982ZM448.573 6.09381V4.56285H447.414V6.09381H448.573ZM449.732 7.62477V6.09381H448.573V7.62477H449.732ZM377.121 6.09381V7.62477H378.28V6.09381H379.439V4.56285H378.28V3.0319H377.121V4.56285H375.962V6.09381H377.121ZM446.277 4.56285H445.118V6.09381H446.277V4.56285ZM450.891 4.56285H449.732V6.09381H450.891V4.56285ZM454.345 7.62477V6.09381H453.186V7.62477H454.345ZM453.186 6.09381V4.56285H452.027V6.09381H453.186ZM437.05 6.09381V4.56285H435.891V6.09381H437.05ZM430.141 6.09381V4.56285H428.982V6.09381H430.141ZM427.846 6.09381V4.56285H426.687V6.09381H427.846ZM432.437 6.09381V4.56285H431.278V6.09381H432.437ZM425.528 6.09381V4.56285H424.369V6.09381H425.528ZM439.368 6.09381V4.56285H438.209V6.09381H439.368ZM441.664 6.09381V4.56285H440.505V6.09381H441.664ZM434.755 6.09381V4.56285H433.596V6.09381H434.755ZM423.233 6.09381V4.56285H422.074V6.09381H423.233ZM412.847 25.8762V27.4071H414.006V25.8762H412.847ZM422.074 25.8762V27.4071H423.233V25.8762H422.074ZM420.915 27.4071V28.9381H422.074V27.4071H420.915ZM425.528 25.8762H424.369V27.4071H425.528V25.8762ZM427.846 27.4071V28.9381H429.005V27.4071H427.846ZM425.528 27.4071V28.9381H426.687V27.4071H425.528ZM420.915 25.8762H419.755V27.4071H420.915V25.8762ZM416.301 25.8762H415.142V27.4071H416.301V25.8762ZM416.301 27.4071V28.9381H417.46V27.4071H416.301ZM417.46 25.8762V27.4071H418.619V25.8762H417.46ZM439.368 27.4071V28.9381H440.528V27.4071H439.368ZM373.666 6.09381H374.825V4.56285H373.666V3.0319H372.507V4.56285H371.348V6.09381H372.507V7.62477H373.666V6.09381ZM443.982 28.9381H445.141V27.4071H443.982V28.9381ZM447.436 25.8762V27.4071H448.595V25.8762H447.436ZM445.118 25.8762V27.4071H446.277V25.8762H445.118ZM432.437 27.4071V28.9381H433.596V27.4071H432.437ZM430.141 27.4071V28.9381H431.301V27.4071H430.141ZM434.755 27.4071V28.9381H435.914V27.4071H434.755ZM437.05 27.4071V28.9381H438.209V27.4071H437.05ZM441.664 27.4071V28.9381H442.823V27.4071H441.664ZM387.484 24.3752H388.643V22.8443H387.484V21.3133H386.325V22.8443H385.166V24.3752H386.325V25.9062H387.484V24.3752ZM411.688 27.4071V28.9381H412.847V27.4071H411.688ZM394.415 25.8762V24.3452H393.256V25.8762H392.097V27.4071H393.256V28.9381H394.415V27.4071H395.575V25.8762H394.415ZM389.802 25.8762V24.3452H388.643V25.8762H387.484V27.4071H388.643V28.9381H389.802V27.4071H390.961V25.8762H389.802ZM385.189 21.3133H386.348V19.7824H385.189V18.2514H384.029V19.7824H382.87V21.3133H384.029V22.8443H385.189V21.3133ZM380.575 15.2195H381.734V13.6886H380.575V12.1576H379.416V13.6886H378.257V15.2195H379.416V16.7505H380.575V15.2195ZM375.962 9.1257H377.121V7.59475H375.962V6.06379H374.803V7.59475H373.643V9.1257H374.803V10.6567H375.962V9.1257ZM378.28 12.1876H379.439V10.6567H378.28V9.1257H377.121V10.6567H375.962V12.1876H377.121V13.7186H378.28V12.1876ZM382.87 18.2814H384.029V16.7505H382.87V15.2195H381.711V16.7505H380.552V18.2814H381.711V19.8124H382.87V18.2814ZM407.097 25.8762H405.938V27.4071H407.097V25.8762ZM408.233 25.8762V27.4071H409.392V25.8762H408.233ZM374.803 3.06191V4.59287H375.962V3.06191H377.121V1.53096H375.962V0H374.803V1.53096H373.643V3.06191H374.803ZM411.688 25.8762H410.529V27.4071H411.688V25.8762ZM402.483 27.4071V28.9381H403.642V27.4071H402.483ZM403.62 25.8762V27.4071H404.779V25.8762H403.62ZM402.483 25.8762H401.324V27.4071H402.483V25.8762ZM399.029 25.8762V24.3452H397.87V25.8762H396.711V27.4071H397.87V28.9381H399.029V27.4071H400.188V25.8762H399.029Z" fill="#004BC7"/>
</svg>
