<svg width="922" height="32" viewBox="0 0 922 32" fill="none" xmlns="http://www.w3.org/2000/svg">
<path d="M666.184 1.53096H664.667V0H666.184V1.53096ZM752.143 10.6567H750.627V12.1876H752.143V10.6567ZM758.179 15.2195V13.6886H756.663V15.2195H758.179ZM756.663 18.2814H758.179V16.7505H756.663V18.2814ZM777.774 9.1257H776.257V10.6567H777.774V9.1257ZM779.29 7.62477H777.774V9.15572H779.29V7.62477ZM737.068 22.8443H738.585V21.3133H737.068V22.8443ZM645.073 0H643.556V1.53096H645.073V0ZM672.219 0H670.703V1.53096H672.219V0ZM756.663 13.7186V12.1876H755.146V13.7186H756.663ZM663.151 0H661.634V1.53096H663.151V0ZM774.771 7.62477V9.15572H776.287V7.62477H774.771ZM657.145 0H655.628V1.53096H657.145V0ZM755.146 12.1876V10.6567H753.63V12.1876H755.146ZM669.187 0H667.67V1.53096H669.187V0ZM785.326 13.7186H783.81V15.2495H785.326V13.7186ZM651.109 0H649.592V1.53096H651.109V0ZM670.703 31.97H672.219V30.439H670.703V31.97ZM614.893 0H613.377V1.53096H614.893V0ZM620.929 0H619.413V1.53096H620.929V0ZM746.107 12.1876V10.6567H744.591V12.1876H746.107ZM688.811 31.97H690.327V30.439H688.811V31.97ZM676.739 31.97H678.255V30.439H676.739V31.97ZM682.775 31.97H684.291V30.439H682.775V31.97ZM749.111 12.1876V10.6567H747.594V12.1876H749.111ZM743.104 12.1876V10.6567H741.588V12.1876H743.104ZM750.627 13.7186V12.1876H749.111V13.7186H750.627ZM639.037 0H637.52V1.53096H639.037V0ZM633.001 0H631.484V1.53096H633.001V0ZM735.552 24.3752H737.068V22.8443H735.552V24.3752ZM776.257 10.6567H774.741V12.1876H776.257V10.6567ZM732.549 22.8443V24.3752H734.065V22.8443H732.549ZM780.807 13.7186V15.2495H782.323V13.7186H780.807ZM626.965 0H625.448V1.53096H626.965V0ZM779.29 13.7186H777.774V15.2495H779.29V13.7186ZM779.29 12.1876V10.6567H777.774V12.1876H779.29ZM756.663 0H755.146V1.53096H756.663V0ZM740.071 12.1876V10.6567H738.555V12.1876H740.071ZM752.143 15.2195V13.6886H750.627V15.2195H752.143ZM726.513 0H724.997V1.53096H726.513V0ZM714.441 0H712.925V1.53096H714.441V0ZM749.111 16.7505H750.627V15.2195H749.111V16.7505ZM720.477 0H718.961V1.53096H720.477V0ZM705.402 0H703.886V1.53096H705.402V0ZM749.111 13.7186H747.594V15.2495H749.111V13.7186ZM711.408 0H709.892V1.53096H711.408V0ZM768.735 1.53096V3.06191H770.251V1.53096H768.735ZM708.405 0H706.889V1.53096H708.405V0ZM750.627 0H749.111V1.53096H750.627V0ZM762.699 0H761.182V1.53096H762.699V0ZM744.591 0H743.075V1.53096H744.591V0ZM744.591 18.2814H746.107V16.7505H744.591V18.2814ZM767.218 1.53096H765.702V3.06191H767.218V1.53096ZM732.549 0H731.032V1.53096H732.549V0ZM738.555 0H737.039V1.53096H738.555V0ZM743.104 19.7824H744.621V18.2514H743.104V19.7824ZM746.107 15.2195V16.7505H747.624V15.2195H746.107ZM773.254 1.53096H771.738V3.06191H773.254V1.53096ZM752.143 15.2195V16.7505H753.66V15.2195H752.143ZM681.258 0H679.742V1.53096H681.258V0ZM738.555 19.7824V21.3133H740.071V19.7824H738.555ZM687.294 0H685.778V1.53096H687.294V0ZM690.297 0H688.781V1.53096H690.297V0ZM684.291 0H682.775V1.53096H684.291V0ZM755.146 13.7186H753.63V15.2495H755.146V13.7186ZM678.255 0H676.739V1.53096H678.255V0ZM773.254 7.62477H771.738V9.15572H773.254V7.62477ZM770.251 4.56285H768.735V6.09381H770.251V4.56285ZM699.366 0H697.85V1.53096H699.366V0ZM750.627 18.2814H752.143V16.7505H750.627V18.2814ZM747.624 16.7505V18.2814H749.14V16.7505H747.624ZM753.66 16.7505V18.2814H755.176V16.7505H753.66ZM702.369 0H700.853V1.53096H702.369V0ZM771.738 3.06191H770.221V4.59287H771.738V3.06191ZM773.254 6.09381V4.56285H771.738V6.09381H773.254ZM696.333 0H694.817V1.53096H696.333V0ZM693.33 0H691.814V1.53096H693.33V0ZM741.588 21.3133H743.104V19.7824H741.588V21.3133ZM675.223 0H673.706V1.53096H675.223V0ZM791.362 6.09381V4.56285H789.846V6.09381H791.362ZM791.362 12.1876V10.6567H789.846V12.1876H791.362ZM788.329 4.56285H786.813V6.09381H788.329V4.56285ZM786.842 7.62477V9.15572H788.359V7.62477H786.842ZM791.362 7.62477H789.846V9.15572H791.362V7.62477ZM789.846 9.1257H788.329V10.6567H789.846V9.1257ZM783.81 3.06191H782.293V4.59287H783.81V3.06191ZM786.842 1.53096V3.06191H788.359V1.53096H786.842ZM690.297 10.6567V9.1257H688.781V10.6567H690.297ZM684.291 10.6567V12.1876H685.808V13.7186H687.324V12.1876H688.841V10.6567H687.324V9.1257H685.808V10.6567H684.291ZM791.362 1.53096H789.846V3.06191H791.362V1.53096ZM789.846 3.06191H788.329V4.59287H789.846V3.06191ZM694.847 31.97H696.363V30.439H694.847V31.97ZM788.329 16.7505H786.813V18.2814H788.329V16.7505ZM699.366 7.62477V6.09381H697.85V7.62477H699.366ZM780.807 1.53096V3.06191H782.323V1.53096H780.807ZM785.326 1.53096H783.81V3.06191H785.326V1.53096ZM791.362 18.2814V16.7505H789.846V18.2814H791.362ZM794.365 4.56285H792.849V6.09381H794.365V4.56285ZM786.842 13.7186V15.2495H788.359V13.7186H786.842ZM788.329 10.6567H786.813V12.1876H788.329V10.6567ZM697.85 9.1257V7.59475H696.333V9.1257H697.85ZM791.362 13.7186H789.846V15.2495H791.362V13.7186ZM696.333 10.6567V9.1257H694.817V10.6567H696.333ZM690.297 10.6567V12.1876H691.814V13.7186H693.33V12.1876H694.847V10.6567H693.33V9.1257H691.814V10.6567H690.297ZM812.473 19.7824H810.956V21.3133H812.473V19.7824ZM812.473 16.7505H810.956V18.2814H812.473V16.7505ZM672.219 10.6567V12.1876H673.736V13.7186H675.252V12.1876H676.769V10.6567H675.252V9.1257H673.736V10.6567H672.219ZM806.437 1.53096H804.92V3.06191H806.437V1.53096ZM812.473 22.8443H810.956V24.3752H812.473V22.8443ZM812.473 10.6567H810.956V12.1876H812.473V10.6567ZM812.473 4.56285H810.956V6.09381H812.473V4.56285ZM812.473 1.53096H810.956V3.06191H812.473V1.53096ZM812.473 13.7186H810.956V15.2495H812.473V13.7186ZM812.473 7.62477H810.956V9.15572H812.473V7.62477ZM806.437 4.56285H804.92V6.09381H806.437V4.56285ZM806.437 16.7505H804.92V18.2814H806.437V16.7505ZM800.401 1.53096H798.884V3.06191H800.401V1.53096ZM800.401 7.62477H798.884V9.15572H800.401V7.62477ZM800.401 4.56285H798.884V6.09381H800.401V4.56285ZM800.401 10.6567H798.884V12.1876H800.401V10.6567ZM684.291 10.6567V9.1257H682.775V10.6567H684.291ZM678.255 10.6567V12.1876H679.772V13.7186H681.288V12.1876H682.805V10.6567H681.288V9.1257H679.772V10.6567H678.255ZM678.255 10.6567V9.1257H676.739V10.6567H678.255ZM806.437 7.62477H804.92V9.15572H806.437V7.62477ZM806.437 10.6567H804.92V12.1876H806.437V10.6567ZM794.365 1.53096H792.849V3.06191H794.365V1.53096ZM806.437 13.7186H804.92V15.2495H806.437V13.7186ZM789.846 15.2195H788.329V16.7505H789.846V15.2195ZM721.993 12.1876V10.6567H720.477V12.1876H721.993ZM737.068 31.97H738.585V30.439H737.068V31.97ZM734.036 31.97H735.552V30.439H734.036V31.97ZM724.997 12.1876V10.6567H723.48V12.1876H724.997ZM731.032 31.97H732.549V30.439H731.032V31.97ZM740.071 31.97H741.588V30.439H740.071V31.97ZM718.961 9.1257V7.59475H717.444V9.1257H718.961ZM755.146 31.97H756.663V30.439H755.146V31.97ZM720.477 10.6567V9.1257H718.961V10.6567H720.477ZM749.111 31.97H750.627V30.439H749.111V31.97ZM743.104 31.97H744.621V30.439H743.104V31.97ZM761.182 31.97H762.699V30.439H761.182V31.97ZM712.925 31.97H714.441V30.439H712.925V31.97ZM706.889 31.97H708.405V30.439H706.889V31.97ZM715.958 15.2195V13.6886H714.441V15.2195H715.958ZM700.853 31.97H702.369V30.439H700.853V31.97ZM737.068 12.1876V10.6567H735.552V12.1876H737.068ZM721.993 31.97H723.51V30.439H721.993V31.97ZM724.997 31.97H726.513V30.439H724.997V31.97ZM728 12.1876V10.6567H726.483V12.1876H728ZM718.961 31.97H720.477V30.439H718.961V31.97ZM731.032 12.1876V10.6567H729.516V12.1876H731.032ZM728 31.97H729.516V30.439H728V31.97ZM782.293 10.6567H780.777V12.1876H782.293V10.6567ZM708.405 7.62477V6.09381H706.889V7.62477H708.405ZM783.81 9.1257H782.293V10.6567H783.81V9.1257ZM785.326 12.1876V10.6567H783.81V12.1876H785.326ZM774.771 1.53096V3.06191H776.287V1.53096H774.771ZM702.369 7.62477V6.09381H700.853V7.62477H702.369ZM785.326 7.62477H783.81V9.15572H785.326V7.62477ZM785.326 6.09381V4.56285H783.81V6.09381H785.326ZM782.293 4.56285H780.777V6.09381H782.293V4.56285ZM779.29 1.53096H777.774V3.06191H779.29V1.53096ZM780.807 7.62477V9.15572H782.323V7.62477H780.807ZM705.402 7.62477V6.09381H703.886V7.62477H705.402ZM767.218 31.97H768.735V30.439H767.218V31.97ZM715.958 9.1257V7.59475H714.441V9.1257H715.958ZM785.326 31.97H786.842V30.439H785.326V31.97ZM773.254 31.97H774.771V30.439H773.254V31.97ZM711.408 7.62477V6.09381H709.892V7.62477H711.408ZM791.362 31.97H792.878V30.439H791.362V31.97ZM779.29 31.97H780.807V30.439H779.29V31.97ZM777.774 3.06191H776.257V4.59287H777.774V3.06191ZM797.398 30.439V28.9081H795.881V30.439H797.398ZM779.29 6.09381V4.56285H777.774V6.09381H779.29ZM712.925 9.1257V7.59475H711.408V9.1257H712.925ZM776.257 4.56285H774.741V6.09381H776.257V4.56285ZM734.036 12.1876V10.6567H732.519V12.1876H734.036ZM696.333 13.7186V12.1876H694.817V13.7186H696.333ZM734.036 22.8443H735.552V21.3133H734.036V22.8443ZM712.925 15.2195V16.7505H714.441V15.2195H712.925ZM726.513 18.2814H724.997V19.8124H726.513V18.2814ZM697.85 12.1876V13.7186H699.366V12.1876H700.883V10.6567H699.366V9.1257H697.85V10.6567H696.333V12.1876H697.85ZM731.032 21.3133V22.8443H732.549V21.3133H731.032ZM755.146 19.7824H756.663V18.2514H755.146V19.7824ZM759.696 16.7505V15.2195H758.179V16.7505H759.696ZM749.111 22.8443H750.627V21.3133H749.111V22.8443ZM694.847 15.2195V13.6886H693.33V15.2195H694.847ZM761.182 18.2814V16.7505H759.666V18.2814H761.182ZM738.555 12.1876H737.039V13.7186H738.555V12.1876ZM729.516 19.7824V18.2514H728V19.7824H729.516ZM732.549 12.1876H731.032V13.7186H732.549V12.1876ZM783.81 15.2195H782.293V16.7505H783.81V15.2195ZM735.552 21.3133H737.068V19.7824H735.552V21.3133ZM744.591 12.1876H743.075V13.7186H744.591V12.1876ZM746.107 15.2195V13.6886H744.591V15.2195H746.107ZM703.886 9.1257V7.59475H702.369V9.1257H703.886ZM700.853 9.1257V7.59475H699.336V9.1257H700.853ZM737.068 19.7824H738.585V18.2514H737.068V19.7824ZM709.922 15.2195V16.7505H711.438V15.2195H709.922ZM729.516 19.7824V21.3133H731.032V19.7824H729.516ZM724.997 19.7824H723.48V21.3133H724.997V19.7824ZM724.997 21.3133V22.8443H726.513V21.3133H724.997ZM682.775 15.2195V16.7505H684.291V15.2195H682.775ZM688.811 15.2195V13.6886H687.294V15.2195H688.811ZM684.291 13.7186V12.1876H682.775V13.7186H684.291ZM690.297 13.7186V12.1876H688.781V13.7186H690.297ZM741.588 24.3752H743.104V22.8443H741.588V24.3752ZM731.032 19.7824H732.549V18.2514H731.032V19.7824ZM684.291 15.2195H685.808V13.6886H684.291V15.2195ZM690.297 15.2195H691.814V13.6886H690.297V15.2195ZM738.555 9.1257H737.039V10.6567H738.555V9.1257ZM732.549 9.1257H731.032V10.6567H732.549V9.1257ZM758.179 10.6567H756.663V12.1876H758.179V10.6567ZM744.591 9.1257H743.075V10.6567H744.591V9.1257ZM726.513 9.1257H724.997V10.6567H726.513V9.1257ZM726.513 19.7824V21.3133H728.029V19.7824H726.513ZM688.811 15.2195V16.7505H690.327V15.2195H688.811ZM761.182 13.7186H759.666V15.2495H761.182V13.7186ZM672.219 10.6567V9.1257H670.703V10.6567H672.219ZM728 21.3133V22.8443H729.516V21.3133H728ZM749.111 19.7824H750.627V18.2514H749.111V19.7824ZM714.441 13.7186V12.1876H712.925V13.7186H714.441ZM734.036 21.3133V19.7824H732.519V21.3133H734.036ZM718.961 18.2814V19.8124H720.477V18.2814H718.961ZM734.036 15.2195V13.6886H732.519V15.2195H734.036ZM723.48 16.7505V15.2195H721.964V16.7505H723.48ZM737.068 18.2814V16.7505H735.552V18.2814H737.068ZM720.477 16.7505V18.2814H721.993V16.7505H720.477ZM726.513 13.7186V12.1876H724.997V13.7186H726.513ZM723.48 13.7186V12.1876H721.964V13.7186H723.48ZM734.036 18.2814V16.7505H732.519V18.2814H734.036ZM711.408 13.7186V15.2495H712.925V13.7186H711.408ZM718.961 16.7505H717.444V18.2814H718.961V16.7505ZM703.886 12.1876V13.7186H705.402V12.1876H703.886ZM717.444 15.2195H715.928V16.7505H717.444V15.2195ZM729.516 16.7505V15.2195H728V16.7505H729.516ZM738.555 15.2195H737.039V16.7505H738.555V15.2195ZM728 15.2195V13.6886H726.483V15.2195H728ZM703.886 10.6567H702.369V12.1876H703.886V10.6567ZM731.032 13.7186H729.516V15.2495H731.032V13.7186ZM706.889 12.1876V10.6567H705.372V12.1876H706.889ZM720.477 16.7505V15.2195H718.961V16.7505H720.477ZM743.104 13.7186H741.588V15.2495H743.104V13.7186ZM738.555 18.2814H740.071V16.7505H738.555V18.2814ZM741.588 16.7505V15.2195H740.071V16.7505H741.588ZM740.071 15.2195V13.6886H738.555V15.2195H740.071ZM714.441 10.6567V9.1257H712.925V10.6567H714.441ZM717.444 10.6567V9.1257H715.928V10.6567H717.444ZM709.922 13.7186H708.405V15.2495H709.922V13.7186ZM743.104 16.7505H744.621V15.2195H743.104V16.7505ZM709.922 9.1257V7.59475H708.405V9.1257H709.922ZM711.408 10.6567V9.1257H709.892V10.6567H711.408ZM741.588 18.2814H743.104V16.7505H741.588V18.2814ZM711.408 13.7186V12.1876H709.892V13.7186H711.408ZM720.477 13.7186V12.1876H718.961V13.7186H720.477ZM724.997 18.2814V16.7505H723.48V18.2814H724.997ZM732.549 15.2195H731.032V16.7505H732.549V15.2195ZM696.333 13.7186V15.2495H697.85V13.7186H696.333ZM735.552 16.7505V15.2195H734.036V16.7505H735.552ZM718.961 12.1876V10.6567H717.444V12.1876H718.961ZM737.068 13.7186H735.552V15.2495H737.068V13.7186ZM721.993 18.2814V19.8124H723.51V18.2814H721.993ZM708.405 12.1876H706.889V13.7186H708.405V12.1876ZM694.847 15.2195V16.7505H696.363V15.2195H694.847ZM706.889 9.1257V7.59475H705.372V9.1257H706.889ZM700.853 15.2195V16.7505H702.369V15.2195H700.853ZM715.958 21.3133V22.8443H717.474V21.3133H715.958ZM702.369 13.7186V15.2495H703.886V13.7186H702.369ZM718.961 21.3133V22.8443H720.477V21.3133H718.961ZM721.993 15.2195V13.6886H720.477V15.2195H721.993ZM717.444 13.7186V12.1876H715.928V13.7186H717.444ZM706.889 13.7186H705.372V15.2495H706.889V13.7186ZM702.369 13.7186V12.1876H700.853V13.7186H702.369ZM718.961 15.2195V13.6886H717.444V15.2195H718.961ZM723.48 21.3133H721.964V22.8443H723.48V21.3133ZM700.853 13.7186H699.336V15.2495H700.853V13.7186ZM726.513 3.06191H724.997V4.59287H726.513V3.06191ZM715.958 19.7824H714.441V21.3133H715.958V19.7824ZM738.555 3.06191H737.039V4.59287H738.555V3.06191ZM764.215 4.56285H762.699V6.09381H764.215V4.56285ZM709.922 18.2814V19.8124H711.438V18.2814H709.922ZM732.549 3.06191H731.032V4.59287H732.549V3.06191ZM724.997 15.2195V13.6886H723.48V15.2195H724.997ZM708.405 15.2195H706.889V16.7505H708.405V15.2195ZM720.477 3.06191H718.961V4.59287H720.477V3.06191ZM714.441 18.2814H712.925V19.8124H714.441V18.2814ZM706.889 18.2814V19.8124H708.405V18.2814H706.889ZM789.846 21.3133H788.329V22.8443H789.846V21.3133ZM791.362 19.7824H789.846V21.3133H791.362V19.7824ZM791.362 24.3752V22.8443H789.846V24.3752H791.362ZM788.329 22.8443H786.813V24.3752H788.329V22.8443ZM702.369 9.1257H700.853V10.6567H702.369V9.1257ZM782.293 16.7505H780.777V18.2814H782.293V16.7505ZM785.326 18.2814V16.7505H783.81V18.2814H785.326ZM729.516 22.8443V24.3752H731.032V22.8443H729.516ZM788.329 27.4071V25.8762H786.813V27.4071H788.329ZM785.326 19.7824H783.81V21.3133H785.326V19.7824ZM786.842 19.7824V21.3133H788.359V19.7824H786.842ZM723.48 22.8443V24.3752H724.997V22.8443H723.48ZM712.925 12.1876V10.6567H711.408V12.1876H712.925ZM708.405 10.6567V9.1257H706.889V10.6567H708.405ZM705.402 10.6567V9.1257H703.886V10.6567H705.402ZM715.958 12.1876V10.6567H714.441V12.1876H715.958ZM761.182 28.9381H762.699V27.4071H761.182V28.9381ZM786.842 25.8762V24.3452H785.326V25.8762H786.842ZM726.513 22.8443V24.3752H728.029V22.8443H726.513ZM755.146 28.9381H756.663V27.4071H755.146V28.9381ZM749.111 28.9381H750.627V27.4071H749.111V28.9381ZM770.251 16.7505H768.735V18.2814H770.251V16.7505ZM678.255 15.2195H676.739V16.7505H678.255V15.2195ZM720.477 19.7824V21.3133H721.993V19.7824H720.477ZM732.549 6.09381H731.032V7.62477H732.549V6.09381ZM676.739 13.7186H675.223V15.2495H676.739V13.7186ZM709.922 12.1876V10.6567H708.405V12.1876H709.922ZM726.513 6.09381H724.997V7.62477H726.513V6.09381ZM682.775 18.2814V16.7505H681.258V15.2195H679.742V16.7505H678.226V18.2814H679.742V19.8124H681.258V18.2814H682.775ZM682.775 18.2814V19.8124H684.291V18.2814H682.775ZM717.444 19.7824V21.3133H718.961V19.7824H717.444ZM731.032 18.2814V16.7505H729.516V18.2814H731.032ZM717.444 18.2814H715.928V19.8124H717.444V18.2814ZM755.146 22.8443H756.663V21.3133H755.146V22.8443ZM770.251 21.3133V19.7824H768.735V21.3133H770.251ZM767.218 7.62477H765.702V9.15572H767.218V7.62477ZM767.218 13.7186H765.702V15.2495H767.218V13.7186ZM768.735 19.7824V18.2514H767.218V19.7824H768.735ZM682.775 15.2195V13.6886H681.258V15.2195H682.775ZM678.255 13.7186V12.1876H676.739V13.7186H678.255ZM764.215 10.6567H762.699V12.1876H764.215V10.6567ZM761.182 7.62477H759.666V9.15572H761.182V7.62477ZM678.255 15.2195H679.772V13.6886H678.255V15.2195ZM738.555 6.09381H737.039V7.62477H738.555V6.09381ZM779.29 19.7824H777.774V21.3133H779.29V19.7824ZM700.853 18.2814V19.8124H702.369V18.2814H700.853ZM779.29 24.3752V22.8443H777.774V24.3752H779.29ZM777.774 22.8443V21.3133H776.257V22.8443H777.774ZM761.182 25.8762H762.699V24.3452H761.182V25.8762ZM770.251 10.6567H768.735V12.1876H770.251V10.6567ZM706.889 18.2814V16.7505H705.372V15.2195H703.856V16.7505H702.34V18.2814H703.856V19.8124H705.372V18.2814H706.889ZM700.853 18.2814V16.7505H699.336V15.2195H697.82V16.7505H696.304V18.2814H697.82V19.8124H699.336V18.2814H700.853ZM776.257 16.7505H774.741V18.2814H776.257V16.7505ZM773.254 13.7186H771.738V15.2495H773.254V13.7186ZM694.847 18.2814V16.7505H693.33V15.2195H691.814V16.7505H690.297V18.2814H691.814V19.8124H693.33V18.2814H694.847ZM726.513 16.7505V15.2195H724.997V16.7505H726.513ZM715.958 16.7505H714.441V18.2814H715.958V16.7505ZM688.811 18.2814V19.8124H690.327V18.2814H688.811ZM755.146 25.8762H756.663V24.3452H755.146V25.8762ZM688.811 18.2814V16.7505H687.294V15.2195H685.778V16.7505H684.262V18.2814H685.778V19.8124H687.294V18.2814H688.811ZM728 18.2814V16.7505H726.483V18.2814H728ZM708.405 16.7505V18.2814H709.922V16.7505H708.405ZM749.111 25.8762H750.627V24.3452H749.111V25.8762ZM711.408 16.7505V18.2814H712.925V16.7505H711.408ZM694.847 18.2814V19.8124H696.363V18.2814H694.847ZM847.142 18.2814H848.659V16.7505H847.142V18.2814ZM810.956 30.439H812.473V28.9081H810.956V30.439ZM815.476 30.439V28.9081H813.959V30.439H815.476ZM807.953 3.06191H809.47V1.53096H807.953V3.06191ZM812.473 28.9381H813.989V27.4071H812.473V28.9381ZM807.953 15.2195H809.47V13.6886H807.953V15.2195ZM807.953 12.1876H809.47V10.6567H807.953V12.1876ZM810.956 25.8762V27.4071H812.473V25.8762H810.956ZM807.953 6.09381H809.47V4.56285H807.953V6.09381ZM807.953 9.1257H809.47V7.59475H807.953V9.1257ZM813.959 12.1876H815.476V10.6567H813.959V12.1876ZM813.959 9.1257H815.476V7.59475H813.959V9.1257ZM813.959 3.06191H815.476V1.53096H813.959V3.06191ZM813.959 15.2195H815.476V13.6886H813.959V15.2195ZM813.959 27.4071H815.476V25.8762H813.959V27.4071ZM813.959 6.09381H815.476V4.56285H813.959V6.09381ZM826.031 9.1257H827.548V7.59475H826.031V9.1257ZM813.959 24.3752H815.476V22.8443H813.959V24.3752ZM813.959 21.3133H815.476V19.7824H813.959V21.3133ZM807.953 18.2814H809.47V16.7505H807.953V18.2814ZM801.917 6.09381H803.434V4.56285H801.917V6.09381ZM801.917 9.1257H803.434V7.59475H801.917V9.1257ZM801.917 12.1876H803.434V10.6567H801.917V12.1876ZM803.404 18.2814V16.7505H801.888V18.2814H803.404ZM809.44 30.439V28.9081H807.924V30.439H809.44ZM801.917 15.2195H803.434V13.6886H801.917V15.2195ZM807.953 21.3133H809.47V19.7824H807.953V21.3133ZM800.401 16.7505H801.917V15.2195H800.401V16.7505ZM798.884 13.7186V15.2495H800.401V13.7186H798.884ZM798.884 18.2814H800.401V16.7505H798.884V18.2814ZM806.437 22.8443H807.953V21.3133H806.437V22.8443ZM809.44 24.3752V22.8443H807.924V24.3752H809.44ZM804.92 30.439H806.437V28.9081H804.92V30.439ZM804.92 19.7824V21.3133H806.437V19.7824H804.92ZM804.92 24.3752H806.437V22.8443H804.92V24.3752ZM807.953 27.4071H809.47V25.8762H807.953V27.4071ZM806.437 28.9381H807.953V27.4071H806.437V28.9381ZM804.92 25.8762V27.4071H806.437V25.8762H804.92ZM801.917 3.06191H803.434V1.53096H801.917V3.06191ZM823.028 15.2195H824.545V13.6886H823.028V15.2195ZM823.028 21.3133H824.545V19.7824H823.028V21.3133ZM823.028 9.1257H824.545V7.59475H823.028V9.1257ZM823.028 12.1876H824.545V10.6567H823.028V12.1876ZM823.028 18.2814H824.545V16.7505H823.028V18.2814ZM823.028 30.439H824.545V28.9081H823.028V30.439ZM819.995 3.06191H821.512V1.53096H819.995V3.06191ZM823.028 24.3752H824.545V22.8443H823.028V24.3752ZM823.028 27.4071H824.545V25.8762H823.028V27.4071ZM823.028 6.09381H824.545V4.56285H823.028V6.09381ZM826.031 18.2814H827.548V16.7505H826.031V18.2814ZM826.031 15.2195H827.548V13.6886H826.031V15.2195ZM816.992 30.439H818.509V28.9081H816.992V30.439ZM826.031 21.3133H827.548V19.7824H826.031V21.3133ZM826.031 12.1876H827.548V10.6567H826.031V12.1876ZM826.031 30.439H827.548V28.9081H826.031V30.439ZM826.031 27.4071H827.548V25.8762H826.031V27.4071ZM826.031 24.3752H827.548V22.8443H826.031V24.3752ZM819.995 6.09381H821.512V4.56285H819.995V6.09381ZM816.992 12.1876H818.509V10.6567H816.992V12.1876ZM816.992 18.2814H818.509V16.7505H816.992V18.2814ZM816.992 15.2195H818.509V13.6886H816.992V15.2195ZM816.992 9.1257H818.509V7.59475H816.992V9.1257ZM816.992 6.09381H818.509V4.56285H816.992V6.09381ZM816.992 21.3133H818.509V19.7824H816.992V21.3133ZM816.992 27.4071H818.509V25.8762H816.992V27.4071ZM816.992 24.3752H818.509V22.8443H816.992V24.3752ZM819.995 12.1876H821.512V10.6567H819.995V12.1876ZM819.995 21.3133H821.512V19.7824H819.995V21.3133ZM819.995 15.2195H821.512V13.6886H819.995V15.2195ZM819.995 18.2814H821.512V16.7505H819.995V18.2814ZM819.995 9.1257H821.512V7.59475H819.995V9.1257ZM819.995 27.4071H821.512V25.8762H819.995V27.4071ZM819.995 30.439H821.512V28.9081H819.995V30.439ZM819.995 24.3752H821.512V22.8443H819.995V24.3752ZM816.992 3.06191H818.509V1.53096H816.992V3.06191ZM813.959 18.2814H815.476V16.7505H813.959V18.2814ZM758.179 27.4071V28.9381H759.696V27.4071H758.179ZM762.699 30.439H764.215V28.9081H762.699V30.439ZM759.696 28.9381V30.469H761.212V28.9381H759.696ZM753.66 28.9381V30.469H755.176V28.9381H753.66ZM756.663 30.439H758.179V28.9081H756.663V30.439ZM746.107 27.4071V28.9381H747.624V27.4071H746.107ZM747.624 28.9381V30.469H749.14V28.9381H747.624ZM750.627 30.439H752.143V28.9081H750.627V30.439ZM744.591 30.439H746.107V28.9081H744.591V30.439ZM780.807 30.439H782.323V28.9081H780.807V30.439ZM774.771 30.439H776.287V28.9081H774.771V30.439ZM771.738 28.9381V30.469H773.254V28.9381H771.738ZM776.257 27.4071V28.9381H777.774V27.4071H776.257ZM764.215 27.4071V28.9381H765.732V27.4071H764.215ZM777.774 28.9381V30.469H779.29V28.9381H777.774ZM765.702 28.9381V30.469H767.218V28.9381H765.702ZM768.735 30.439H770.251V28.9081H768.735V30.439ZM770.251 27.4071V28.9381H771.768V27.4071H770.251ZM752.143 27.4071V28.9381H753.66V27.4071H752.143ZM693.33 28.9381V27.4071H691.814V28.9381H690.297V30.469H691.814V32H693.33V30.469H694.847V28.9381H693.33ZM711.408 28.9381V27.4071H709.892V28.9381H708.375V30.469H709.892V32H711.408V30.469H712.925V28.9381H711.408ZM699.366 28.9381V27.4071H697.85V28.9381H696.333V30.469H697.85V32H699.366V30.469H700.883V28.9381H699.366ZM705.402 28.9381V27.4071H703.886V28.9381H702.369V30.469H703.886V32H705.402V30.469H706.919V28.9381H705.402ZM687.294 28.9381V27.4071H685.778V28.9381H684.262V30.469H685.778V32H687.294V30.469H688.811V28.9381H687.294ZM670.703 28.9381V30.469H669.187V32H667.67V30.469H666.154V32H664.637V30.469H663.121V32H661.604V30.469H660.088V32H658.572V30.469H657.055V32H655.539V30.469H654.023V32H652.506V30.469H650.99V32H649.473V30.469H647.957V32H646.44V30.469H644.924V32H643.408V30.469H641.891V32H640.375V30.469H638.858V32H637.342V30.469H635.826V32H634.309V30.469H632.793V32H631.276V30.469H629.76V32H628.243V30.469H626.727V32H625.211V30.469H623.694V32H622.178V30.469H620.661V32H619.145V30.469H617.629V32H616.112V30.469H614.596V32H613.079V30.469H611.563V32H610.047V30.469H608.53V32H607.014V30.469H605.497V32H603.981V30.469H602.464V32H600.948V30.469H599.432V32H597.915V30.469H596.399V32H594.882V30.469H593.366V32H591.85V30.469H590.333V32H588.817V30.469H587.3V32H582.781V30.469H581.264V32H576.745V30.469H575.228V32H570.709V30.469H569.193V32H564.673V30.469H563.157V32H558.637V30.469H557.121V32H552.601V30.469H551.085V32H546.565V30.469H545.049V32H540.529V30.469H539.013V32H-0.000183916V0H509.339V1.53096H510.855V0H515.375V1.53096H516.891V0H521.411V1.53096H522.927V0H527.447V1.53096H528.963V0H533.483V1.53096H534.999V0H539.519V1.53096H541.035V0H545.554V1.53096H547.071V0H551.59V1.53096H553.107V0H557.626V1.53096H559.143V0H560.659V1.53096H562.175V0H563.692V1.53096H565.208V0H566.725V1.53096H568.241V0H569.758V1.53096H571.274V0H572.79V1.53096H574.307V0H575.823V1.53096H577.34V0H578.856V1.53096H580.372V0H581.889V1.53096H583.405V0H587.925V1.53096H589.441V0H590.958V1.53096H592.474V0H593.99V1.53096H595.507V0H597.023V1.53096H598.54V0H600.056V1.53096H601.572V0H603.089V1.53096H604.605V0H606.122V1.53096H607.638V0H609.155V1.53096H610.671V0H612.187V1.53096H613.704V3.06191H612.187V4.59287H613.704V3.06191H615.22V4.59287H616.737V3.06191H615.22V1.53096H616.737V0H618.253V1.53096H619.769V3.06191H618.253V4.59287H619.769V3.06191H621.286V4.59287H622.802V3.06191H621.286V1.53096H622.802V0H624.319V1.53096H625.835V3.06191H624.319V4.59287H625.835V3.06191H627.352V4.59287H628.868V3.06191H627.352V1.53096H628.868V0H630.384V1.53096H631.901V3.06191H630.384V4.59287H631.901V3.06191H633.417V4.59287H634.934V3.06191H633.417V1.53096H634.934V0H636.45V1.53096H637.966V3.06191H636.45V4.59287H637.966V3.06191H639.483V4.59287H640.999V3.06191H639.483V1.53096H640.999V0H642.516V1.53096H644.032V3.06191H642.516V4.59287H644.032V3.06191H645.548V4.59287H647.065V6.12383H645.548V7.65479H644.032V6.12383H642.516V7.65479H644.032V9.18574H642.516V10.7167H644.032V9.18574H645.548V10.7167H647.065V9.18574H645.548V7.65479H647.065V6.12383H648.581V7.65479H650.098V9.18574H648.581V10.7167H650.098V9.18574H651.614V10.7167H653.13V12.2477H651.614V13.7786H650.098V12.2477H648.581V13.7786H650.098V15.3096H648.581V16.8405H650.098V15.3096H651.614V16.8405H653.13V15.3096H651.614V13.7786H653.13V12.2477H654.647V13.7786H656.163V15.3096H654.647V16.8405H656.163V15.3096H657.68V16.8405H659.196V18.3715H657.68V19.9024H656.163V18.3715H654.647V19.9024H656.163V21.4334H654.647V22.9644H656.163V21.4334H657.68V22.9644H659.196V21.4334H657.68V19.9024H659.196V18.3715H660.713V19.9024H662.229V21.4334H660.713V22.9644H662.229V21.4334H663.745V22.9644H665.262V24.4953H663.745V26.0263H662.229V24.4953H660.713V26.0263H662.229V27.5572H660.713V29.0882H662.229V27.5572H663.745V29.0882H665.262V27.5572H663.745V26.0263H665.262V24.4953H666.778V26.0263H668.295V27.5572H666.778V29.0882H668.295V27.5572H669.811V29.0882H671.327L670.703 28.9381ZM516.891 6.09381H515.375V7.62477H516.891V6.09381ZM522.897 12.1876H521.381V13.7186H522.897V12.1876ZM522.897 6.09381H521.381V7.62477H522.897V6.09381ZM528.933 18.2814H527.417V19.8124H528.933V18.2814ZM528.933 12.1876H527.417V13.7186H528.933V12.1876ZM528.933 6.09381H527.417V7.62477H528.933V6.09381ZM534.969 24.3752H533.453V25.9062H534.969V24.3752ZM534.969 18.2814H533.453V19.8124H534.969V18.2814ZM534.969 12.1876H533.453V13.7186H534.969V12.1876ZM534.969 6.09381H533.453V7.62477H534.969V6.09381ZM541.005 24.3752H539.489V25.9062H541.005V24.3752ZM541.005 18.2814H539.489V19.8124H541.005V18.2814ZM541.005 12.1876H539.489V13.7186H541.005V12.1876ZM541.005 6.09381H539.489V7.62477H541.005V6.09381ZM544.038 3.06191H542.522V4.59287H544.038V3.06191ZM547.041 24.3752H545.525V25.9062H547.041V24.3752ZM547.041 18.2814H545.525V19.8124H547.041V18.2814ZM547.041 12.1876H545.525V13.7186H547.041V12.1876ZM547.041 6.09381H545.525V7.62477H547.041V6.09381ZM550.044 9.1257H548.528V10.6567H550.044V9.1257ZM550.044 3.06191H548.528V4.59287H550.044V3.06191ZM553.077 24.3752H551.561V25.9062H553.077V24.3752ZM553.077 18.2814H551.561V19.8124H553.077V18.2814ZM553.077 12.1876H551.561V13.7186H553.077V12.1876ZM553.077 6.09381H551.561V7.62477H553.077V6.09381ZM556.08 15.2195H554.564V16.7505H556.08V15.2195ZM556.08 9.1257H554.564V10.6567H556.08V9.1257ZM556.08 3.06191H554.564V4.59287H556.08V3.06191ZM559.113 24.3752H557.596V25.9062H559.113V24.3752ZM559.113 18.2814H557.596V19.8124H559.113V18.2814ZM559.113 12.1876H557.596V13.7186H559.113V12.1876ZM559.113 6.09381H557.596V7.62477H559.113V6.09381ZM562.116 21.3133H560.6V22.8443H562.116V21.3133ZM562.116 15.2195H560.6V16.7505H562.116V15.2195ZM562.116 9.1257H560.6V10.6567H562.116V9.1257ZM562.116 3.06191H560.6V4.59287H562.116V3.06191ZM565.149 24.3752H563.632V25.9062H565.149V24.3752ZM565.149 18.2814H563.632V19.8124H565.149V18.2814ZM565.149 12.1876H563.632V13.7186H565.149V12.1876ZM565.149 6.09381H563.632V7.62477H565.149V6.09381ZM568.152 27.4071H566.635V28.9381H568.152V27.4071ZM568.152 21.3133H566.635V22.8443H568.152V21.3133ZM568.152 15.2195H566.635V16.7505H568.152V15.2195ZM568.152 9.1257H566.635V10.6567H568.152V9.1257ZM568.152 6.09381H566.635V7.62477H568.152V6.09381ZM568.152 3.06191H566.635V4.59287H568.152V3.06191ZM571.155 24.3752H569.639V25.9062H571.155V24.3752ZM571.155 18.2814H569.639V19.8124H571.155V18.2814ZM571.155 12.1876H569.639V13.7186H571.155V12.1876ZM571.155 6.09381H569.639V7.62477H571.155V6.09381ZM574.188 27.4071H572.671V28.9381H574.188V27.4071ZM574.188 21.3133H572.671V22.8443H574.188V21.3133ZM574.188 15.2195H572.671V16.7505H574.188V15.2195ZM574.188 12.1876H572.671V13.7186H574.188V12.1876ZM574.188 9.1257H572.671V10.6567H574.188V9.1257ZM574.188 6.09381H572.671V7.62477H574.188V6.09381ZM574.188 3.06191H572.671V4.59287H574.188V3.06191ZM577.191 24.3752H575.674V25.9062H577.191V24.3752ZM577.191 18.2814H575.674V19.8124H577.191V18.2814ZM577.191 12.1876H575.674V13.7186H577.191V12.1876ZM577.191 6.09381H575.674V7.62477H577.191V6.09381ZM580.224 27.4071H578.707V28.9381H580.224V27.4071ZM580.224 21.3133H578.707V22.8443H580.224V21.3133ZM580.224 18.2814H578.707V19.8124H580.224V18.2814ZM580.224 15.2195H578.707V16.7505H580.224V15.2195ZM580.224 12.1876H578.707V13.7186H580.224V12.1876ZM580.224 9.1257H578.707V10.6567H580.224V9.1257ZM580.224 6.09381H578.707V7.62477H580.224V6.09381ZM580.224 3.06191H578.707V4.59287H580.224V3.06191ZM583.227 24.3752H581.71V25.9062H583.227V24.3752ZM583.227 18.2814H581.71V19.8124H583.227V18.2814ZM583.227 12.1876H581.71V13.7186H583.227V12.1876ZM583.227 6.09381H581.71V7.62477H583.227V6.09381ZM586.26 27.4071H584.743V28.9381H586.26V27.4071ZM586.26 24.3752H584.743V25.9062H586.26V24.3752ZM586.26 21.3133H584.743V22.8443H586.26V21.3133ZM586.26 18.2814H584.743V19.8124H586.26V18.2814ZM586.26 15.2195H584.743V16.7505H586.26V15.2195ZM586.26 12.1876H584.743V13.7186H586.26V12.1876ZM586.26 9.1257H584.743V10.6567H586.26V9.1257ZM586.26 6.09381H584.743V7.62477H586.26V6.09381ZM586.26 3.06191H584.743V4.59287H586.26V3.06191ZM589.263 24.3752H587.746V25.9062H589.263V24.3752ZM589.263 18.2814H587.746V19.8124H589.263V18.2814ZM589.263 12.1876H587.746V13.7186H589.263V12.1876ZM589.263 6.09381H587.746V7.62477H589.263V6.09381ZM592.296 27.4071H590.779V28.9381H592.296V27.4071ZM592.296 24.3752H590.779V25.9062H592.296V24.3752ZM592.296 21.3133H590.779V22.8443H592.296V21.3133ZM592.296 18.2814H590.779V19.8124H592.296V18.2814ZM592.296 15.2195H590.779V16.7505H592.296V15.2195ZM592.296 12.1876H590.779V13.7186H592.296V12.1876ZM592.296 9.1257H590.779V10.6567H592.296V9.1257ZM592.296 6.09381H590.779V7.62477H592.296V6.09381ZM592.296 3.06191H590.779V4.59287H592.296V3.06191ZM595.299 24.3752H593.782V25.9062H595.299V24.3752ZM595.299 18.2814H593.782V19.8124H595.299V18.2814ZM595.299 12.1876H593.782V13.7186H595.299V12.1876ZM595.299 6.09381H593.782V7.62477H595.299V6.09381ZM595.299 3.06191H593.782V4.59287H595.299V3.06191ZM598.302 27.4071H596.785V28.9381H598.302V27.4071ZM598.302 24.3752H596.785V25.9062H598.302V24.3752ZM598.302 21.3133H596.785V22.8443H598.302V21.3133ZM598.302 18.2814H596.785V19.8124H598.302V18.2814ZM598.302 15.2195H596.785V16.7505H598.302V15.2195ZM598.302 12.1876H596.785V13.7186H598.302V12.1876ZM598.302 9.1257H596.785V10.6567H598.302V9.1257ZM598.302 6.09381H596.785V7.62477H598.302V6.09381ZM598.302 3.06191H596.785V4.59287H598.302V3.06191ZM601.335 24.3752H599.818V25.9062H601.335V24.3752ZM601.335 18.2814H599.818V19.8124H601.335V18.2814ZM601.335 12.1876H599.818V13.7186H601.335V12.1876ZM601.335 9.1257H599.818V10.6567H601.335V9.1257ZM601.335 6.09381H599.818V7.62477H601.335V6.09381ZM601.335 3.06191H599.818V4.59287H601.335V3.06191ZM604.338 27.4071H602.821V28.9381H604.338V27.4071ZM604.338 24.3752H602.821V25.9062H604.338V24.3752ZM604.338 21.3133H602.821V22.8443H604.338V21.3133ZM604.338 18.2814H602.821V19.8124H604.338V18.2814ZM604.338 15.2195H602.821V16.7505H604.338V15.2195ZM604.338 12.1876H602.821V13.7186H604.338V12.1876ZM604.338 9.1257H602.821V10.6567H604.338V9.1257ZM604.338 6.09381H602.821V7.62477H604.338V6.09381ZM604.338 3.06191H602.821V4.59287H604.338V3.06191ZM607.37 24.3752H605.854V25.9062H607.37V24.3752ZM607.37 18.2814H605.854V19.8124H607.37V18.2814ZM607.37 15.2195H605.854V16.7505H607.37V15.2195ZM607.37 12.1876H605.854V13.7186H607.37V12.1876ZM607.37 9.1257H605.854V10.6567H607.37V9.1257ZM607.37 6.09381H605.854V7.62477H607.37V6.09381ZM607.37 3.06191H605.854V4.59287H607.37V3.06191ZM610.374 27.4071H608.857V28.9381H610.374V27.4071ZM610.374 24.3752H608.857V25.9062H610.374V24.3752ZM610.374 21.3133H608.857V22.8443H610.374V21.3133ZM610.374 18.2814H608.857V19.8124H610.374V18.2814ZM610.374 15.2195H608.857V16.7505H610.374V15.2195ZM610.374 12.1876H608.857V13.7186H610.374V12.1876ZM610.374 9.1257H608.857V10.6567H610.374V9.1257ZM610.374 6.09381H608.857V7.62477H610.374V6.09381ZM610.374 3.06191H608.857V4.59287H610.374V3.06191ZM613.406 24.3752H611.89V25.9062H613.406V24.3752ZM613.406 21.3133H611.89V22.8443H613.406V21.3133ZM613.406 18.2814H611.89V19.8124H613.406V18.2814ZM613.406 15.2195H611.89V16.7505H613.406V15.2195ZM613.406 12.1876H611.89V13.7186H613.406V12.1876ZM613.406 9.1257H611.89V10.6567H613.406V9.1257ZM613.406 6.09381H611.89V7.62477H613.406V6.09381ZM616.409 27.4071H614.893V28.9381H616.409V27.4071ZM616.409 24.3752H614.893V25.9062H616.409V24.3752ZM616.409 21.3133H614.893V22.8443H616.409V21.3133ZM616.409 18.2814H614.893V19.8124H616.409V18.2814ZM616.409 15.2195H614.893V16.7505H616.409V15.2195ZM616.409 12.1876H614.893V13.7186H616.409V12.1876ZM616.409 9.1257H614.893V10.6567H616.409V9.1257ZM616.409 6.09381H614.893V7.62477H616.409V6.09381ZM619.442 27.4071H617.926V28.9381H619.442V27.4071ZM619.442 24.3752H617.926V25.9062H619.442V24.3752ZM619.442 21.3133H617.926V22.8443H619.442V21.3133ZM619.442 18.2814H617.926V19.8124H619.442V18.2814ZM619.442 15.2195H617.926V16.7505H619.442V15.2195ZM619.442 12.1876H617.926V13.7186H619.442V12.1876ZM622.445 27.4071H620.929V28.9381H622.445V27.4071ZM622.445 24.3752H620.929V25.9062H622.445V24.3752ZM622.445 21.3133H620.929V22.8443H622.445V21.3133ZM622.445 18.2814H620.929V19.8124H622.445V18.2814ZM622.445 15.2195H620.929V16.7505H622.445V15.2195ZM622.445 12.1876H620.929V13.7186H622.445V12.1876ZM622.445 6.09381H620.929V7.62477H619.413V6.09381H617.896V7.62477H619.413V9.15572H617.896V10.6867H619.413V9.15572H620.929V10.6867H622.445V9.15572H620.929V7.62477H622.445V6.09381ZM625.448 27.4071H623.932V28.9381H625.448V27.4071ZM625.448 24.3752H623.932V25.9062H625.448V24.3752ZM625.448 21.3133H623.932V22.8443H625.448V21.3133ZM625.448 18.2814H623.932V19.8124H625.448V18.2814ZM628.481 27.4071H626.965V28.9381H628.481V27.4071ZM628.481 24.3752H626.965V25.9062H628.481V24.3752ZM628.481 21.3133H626.965V22.8443H628.481V21.3133ZM628.481 18.2814H626.965V19.8124H628.481V18.2814ZM628.481 12.1876H626.965V13.7186H625.448V12.1876H623.932V13.7186H625.448V15.2495H623.932V16.7805H625.448V15.2495H626.965V16.7805H628.481V15.2495H626.965V13.7186H628.481V12.1876ZM628.481 6.09381H626.965V7.62477H625.448V6.09381H623.932V7.62477H625.448V9.15572H623.932V10.6867H625.448V9.15572H626.965V10.6867H628.481V9.15572H626.965V7.62477H628.481V6.09381ZM631.484 27.4071H629.968V28.9381H631.484V27.4071ZM631.484 24.3752H629.968V25.9062H631.484V24.3752ZM634.517 27.4071H633.001V28.9381H634.517V27.4071ZM634.517 24.3752H633.001V25.9062H634.517V24.3752ZM634.517 18.2814H633.001V19.8124H631.484V18.2814H629.968V19.8124H631.484V21.3433H629.968V22.8743H631.484V21.3433H633.001V22.8743H634.517V21.3433H633.001V19.8124H634.517V18.2814ZM634.517 12.1876H633.001V13.7186H631.484V12.1876H629.968V13.7186H631.484V15.2495H629.968V16.7805H631.484V15.2495H633.001V16.7805H634.517V15.2495H633.001V13.7186H634.517V12.1876ZM634.517 6.09381H633.001V7.62477H631.484V6.09381H629.968V7.62477H631.484V9.15572H629.968V10.6867H631.484V9.15572H633.001V10.6867H634.517V9.15572H633.001V7.62477H634.517V6.09381ZM640.553 24.3752H639.037V25.9062H637.52V24.3752H636.004V25.9062H637.52V27.4372H636.004V28.9681H637.52V27.4372H639.037V28.9681H640.553V27.4372H639.037V25.9062H640.553V24.3752ZM640.553 18.2814H639.037V19.8124H637.52V18.2814H636.004V19.8124H637.52V21.3433H636.004V22.8743H637.52V21.3433H639.037V22.8743H640.553V21.3433H639.037V19.8124H640.553V18.2814ZM640.553 12.1876H639.037V13.7186H637.52V12.1876H636.004V13.7186H637.52V15.2495H636.004V16.7805H637.52V15.2495H639.037V16.7805H640.553V15.2495H639.037V13.7186H640.553V12.1876ZM640.553 6.09381H639.037V7.62477H637.52V6.09381H636.004V7.62477H637.52V9.15572H636.004V10.6867H637.52V9.15572H639.037V10.6867H640.553V9.15572H639.037V7.62477H640.553V6.09381ZM646.589 24.3752H645.073V25.9062H643.556V24.3752H642.04V25.9062H643.556V27.4372H642.04V28.9681H643.556V27.4372H645.073V28.9681H646.589V27.4372H645.073V25.9062H646.589V24.3752ZM646.589 18.2814H645.073V19.8124H643.556V18.2814H642.04V19.8124H643.556V21.3433H642.04V22.8743H643.556V21.3433H645.073V22.8743H646.589V21.3433H645.073V19.8124H646.589V18.2814ZM646.589 12.1876H645.073V13.7186H643.556V12.1876H642.04V13.7186H643.556V15.2495H642.04V16.7805H643.556V15.2495H645.073V16.7805H646.589V15.2495H645.073V13.7186H646.589V12.1876ZM652.595 24.3752H651.079V25.9062H649.562V24.3752H648.046V25.9062H649.562V27.4372H648.046V28.9681H649.562V27.4372H651.079V28.9681H652.595V27.4372H651.079V25.9062H652.595V24.3752ZM652.595 18.2814H651.079V19.8124H649.562V18.2814H648.046V19.8124H649.562V21.3433H648.046V22.8743H649.562V21.3433H651.079V22.8743H652.595V21.3433H651.079V19.8124H652.595V18.2814ZM658.631 24.3752H657.115V25.9062H655.598V24.3752H654.082V25.9062H655.598V27.4372H654.082V28.9681H655.598V27.4372H657.115V28.9681H658.631V27.4372H657.115V25.9062H658.631V24.3752ZM675.223 28.9381V27.4071H673.706V28.9381H672.19V30.469H673.706V32H675.223V30.469H676.739V28.9381H675.223ZM801.917 21.3133H803.434V19.7824H801.917V21.3133ZM681.258 28.9381V27.4071H679.742V28.9381H678.226V30.469H679.742V32H681.258V30.469H682.775V28.9381H681.258ZM732.549 28.9381V30.469H734.065V28.9381H732.549ZM729.516 28.9381V30.469H731.032V28.9381H729.516ZM735.552 28.9381V30.469H737.068V28.9381H735.552ZM738.555 28.9381V30.469H740.071V28.9381H738.555ZM723.48 28.9381V30.469H724.997V28.9381H723.48ZM720.477 28.9381V30.469H721.993V28.9381H720.477ZM726.513 28.9381V30.469H728.029V28.9381H726.513ZM717.444 28.9381V27.4071H715.928V28.9381H714.411V30.469H715.928V32H717.444V30.469H718.961V28.9381H717.444ZM741.588 28.9381V30.469H743.104V28.9381H741.588ZM792.849 7.62477V9.15572H794.365V7.62477H792.849ZM795.881 6.09381H797.398V4.56285H795.881V6.09381ZM795.881 9.1257H797.398V7.59475H795.881V9.1257ZM803.404 30.439V28.9081H801.888V30.439H803.404ZM795.881 3.06191H797.398V1.53096H795.881V3.06191ZM795.881 15.2195H797.398V13.6886H795.881V15.2195ZM797.398 12.1876V10.6567H795.881V12.1876H797.398ZM792.849 12.1876H794.365V10.6567H792.849V12.1876ZM782.293 27.4071V28.9381H783.81V27.4071H782.293ZM798.884 30.439H800.401V28.9081H798.884V30.439ZM800.401 22.8443H801.917V21.3133H800.401V22.8443ZM803.404 24.3752V22.8443H801.888V24.3752H803.404ZM798.884 24.3752H800.401V22.8443H798.884V24.3752ZM792.849 13.7186V15.2495H794.365V13.7186H792.849ZM798.884 19.7824V21.3133H800.401V19.7824H798.884ZM801.917 27.4071H803.434V25.8762H801.917V27.4071ZM800.401 28.9381H801.917V27.4071H800.401V28.9381ZM798.884 25.8762V27.4071H800.401V25.8762H798.884ZM794.365 10.6567H795.881V9.1257H794.365V10.6567ZM789.846 28.9381V30.469H791.362V28.9381H789.846ZM792.849 30.439H794.365V28.9081H792.849V30.439ZM791.362 25.8762H789.846V27.4071H791.362V25.8762ZM794.365 28.9381H795.881V27.4071H794.365V28.9381ZM783.81 28.9381V30.469H785.326V28.9381H783.81ZM794.365 16.7505H795.881V15.2195H794.365V16.7505ZM788.329 27.4071V28.9381H789.846V27.4071H788.329ZM786.842 30.439H788.359V28.9081H786.842V30.439ZM792.849 25.8762V27.4071H794.365V25.8762H792.849ZM795.881 21.3133H797.398V19.7824H795.881V21.3133ZM797.398 18.2814V16.7505H795.881V18.2814H797.398ZM792.849 19.7824V21.3133H794.365V19.7824H792.849ZM792.849 18.2814H794.365V16.7505H792.849V18.2814ZM795.881 27.4071H797.398V25.8762H795.881V27.4071ZM794.365 22.8443H795.881V21.3133H794.365V22.8443ZM797.398 24.3752V22.8443H795.881V24.3752H797.398ZM792.849 24.3752H794.365V22.8443H792.849V24.3752ZM880.325 15.2195H881.841V13.6886H880.325V15.2195ZM868.253 21.3133H869.769V19.7824H868.253V21.3133ZM868.253 15.2195H869.769V13.6886H868.253V15.2195ZM868.253 9.1257H869.769V7.59475H868.253V9.1257ZM868.253 27.4071H869.769V25.8762H868.253V27.4071ZM868.253 30.439H869.769V28.9081H868.253V30.439ZM865.25 12.1876H866.766V10.6567H865.25V12.1876ZM868.253 3.06191H869.769V1.53096H868.253V3.06191ZM865.25 18.2814H866.766V16.7505H865.25V18.2814ZM865.25 6.09381H866.766V4.56285H865.25V6.09381ZM874.289 9.1257H875.805V7.59475H874.289V9.1257ZM871.286 30.439H872.802V28.9081H871.286V30.439ZM871.286 6.09381H872.802V4.56285H871.286V6.09381ZM874.289 21.3133H875.805V19.7824H874.289V21.3133ZM874.289 15.2195H875.805V13.6886H874.289V15.2195ZM874.289 27.4071H875.805V25.8762H874.289V27.4071ZM871.286 24.3752H872.802V22.8443H871.286V24.3752ZM871.286 18.2814H872.802V16.7505H871.286V18.2814ZM871.286 12.1876H872.802V10.6567H871.286V12.1876ZM865.25 24.3752H866.766V22.8443H865.25V24.3752ZM859.214 12.1876H860.73V10.6567H859.214V12.1876ZM859.214 24.3752H860.73V22.8443H859.214V24.3752ZM865.25 30.439H866.766V28.9081H865.25V30.439ZM859.214 18.2814H860.73V16.7505H859.214V18.2814ZM856.211 3.06191H857.727V1.53096H856.211V3.06191ZM856.211 18.2814H857.727V16.7505H856.211V18.2814ZM856.211 15.2195H857.727V13.6886H856.211V15.2195ZM856.211 9.1257H857.727V7.59475H856.211V9.1257ZM859.214 30.439H860.73V28.9081H859.214V30.439ZM862.247 15.2195H863.763V13.6886H862.247V15.2195ZM859.214 6.09381H860.73V4.56285H859.214V6.09381ZM862.247 3.06191H863.763V1.53096H862.247V3.06191ZM862.247 21.3133H863.763V19.7824H862.247V21.3133ZM862.247 9.1257H863.763V7.59475H862.247V9.1257ZM862.247 24.3752H863.763V22.8443H862.247V24.3752ZM862.247 30.439H863.763V28.9081H862.247V30.439ZM862.247 27.4071H863.763V25.8762H862.247V27.4071ZM883.358 6.09381H884.874V4.56285H883.358V6.09381ZM895.4 12.1876H896.916V10.6567H895.4V12.1876ZM895.4 6.09381H896.916V4.56285H895.4V6.09381ZM901.436 30.439H902.952V28.9081H901.436V30.439ZM895.4 18.2814H896.916V16.7505H895.4V18.2814ZM889.364 6.09381H890.88V4.56285H889.364V6.09381ZM901.436 24.3752H902.952V22.8443H901.436V24.3752ZM895.4 24.3752H896.916V22.8443H895.4V24.3752ZM892.397 27.4071H893.913V25.8762H892.397V27.4071ZM895.4 30.439H896.916V28.9081H895.4V30.439ZM877.322 30.439H878.838V28.9081H877.322V30.439ZM913.508 30.439H915.024V28.9081H913.508V30.439ZM913.508 24.3752H915.024V22.8443H913.508V24.3752ZM919.543 28.9381V30.469H921.06V28.9381H919.543ZM901.436 18.2814H902.952V16.7505H901.436V18.2814ZM907.472 18.2814H908.988V16.7505H907.472V18.2814ZM889.364 12.1876H890.88V10.6567H889.364V12.1876ZM907.472 30.439H908.988V28.9081H907.472V30.439ZM907.472 24.3752H908.988V22.8443H907.472V24.3752ZM901.436 12.1876H902.952V10.6567H901.436V12.1876ZM880.325 27.4071H881.841V25.8762H880.325V27.4071ZM880.325 21.3133H881.841V19.7824H880.325V21.3133ZM877.322 6.09381H878.838V4.56285H877.322V6.09381ZM646.589 3.06191V4.59287H648.106V3.06191H649.622V1.53096H648.106V0H646.589V1.53096H645.073V3.06191H646.589ZM877.322 24.3752H878.838V22.8443H877.322V24.3752ZM883.358 30.439H884.874V28.9081H883.358V30.439ZM877.322 12.1876H878.838V10.6567H877.322V12.1876ZM877.322 18.2814H878.838V16.7505H877.322V18.2814ZM856.211 21.3133H857.727V19.7824H856.211V21.3133ZM886.361 21.3133H887.877V19.7824H886.361V21.3133ZM889.364 30.439H890.88V28.9081H889.364V30.439ZM889.364 24.3752H890.88V22.8443H889.364V24.3752ZM886.361 27.4071H887.877V25.8762H886.361V27.4071ZM883.358 24.3752H884.874V22.8443H883.358V24.3752ZM889.364 18.2814H890.88V16.7505H889.364V18.2814ZM883.358 18.2814H884.874V16.7505H883.358V18.2814ZM883.358 12.1876H884.874V10.6567H883.358V12.1876ZM835.1 24.3752H836.616V22.8443H835.1V24.3752ZM835.1 12.1876H836.616V10.6567H835.1V12.1876ZM835.1 18.2814H836.616V16.7505H835.1V18.2814ZM835.1 6.09381H836.616V4.56285H835.1V6.09381ZM835.1 21.3133H836.616V19.7824H835.1V21.3133ZM838.103 30.439H839.62V28.9081H838.103V30.439ZM832.067 3.06191H833.584V1.53096H832.067V3.06191ZM835.1 30.439H836.616V28.9081H835.1V30.439ZM835.1 27.4071H836.616V25.8762H835.1V27.4071ZM826.031 6.09381H827.548V4.56285H826.031V6.09381ZM838.103 15.2195H839.62V13.6886H838.103V15.2195ZM838.103 12.1876H839.62V10.6567H838.103V12.1876ZM838.103 9.1257H839.62V7.59475H838.103V9.1257ZM838.103 6.09381H839.62V4.56285H838.103V6.09381ZM832.067 6.09381H833.584V4.56285H832.067V6.09381ZM838.103 21.3133H839.62V19.7824H838.103V21.3133ZM838.103 24.3752H839.62V22.8443H838.103V24.3752ZM838.103 18.2814H839.62V16.7505H838.103V18.2814ZM838.103 27.4071H839.62V25.8762H838.103V27.4071ZM829.064 6.09381H830.581V4.56285H829.064V6.09381ZM829.064 18.2814H830.581V16.7505H829.064V18.2814ZM829.064 21.3133H830.581V19.7824H829.064V21.3133ZM829.064 15.2195H830.581V13.6886H829.064V15.2195ZM829.064 24.3752H830.581V22.8443H829.064V24.3752ZM826.031 3.06191H827.548V1.53096H826.031V3.06191ZM829.064 12.1876H830.581V10.6567H829.064V12.1876ZM829.064 30.439H830.581V28.9081H829.064V30.439ZM829.064 27.4071H830.581V25.8762H829.064V27.4071ZM856.211 24.3752H857.727V22.8443H856.211V24.3752ZM832.067 9.1257H833.584V7.59475H832.067V9.1257ZM832.067 15.2195H833.584V13.6886H832.067V15.2195ZM832.067 18.2814H833.584V16.7505H832.067V18.2814ZM832.067 12.1876H833.584V10.6567H832.067V12.1876ZM832.067 21.3133H833.584V19.7824H832.067V21.3133ZM832.067 30.439H833.584V28.9081H832.067V30.439ZM832.067 27.4071H833.584V25.8762H832.067V27.4071ZM832.067 24.3752H833.584V22.8443H832.067V24.3752ZM838.103 3.06191H839.62V1.53096H838.103V3.06191ZM850.175 15.2195H851.691V13.6886H850.175V15.2195ZM850.175 18.2814H851.691V16.7505H850.175V18.2814ZM850.175 21.3133H851.691V19.7824H850.175V21.3133ZM850.175 12.1876H851.691V10.6567H850.175V12.1876ZM847.142 6.09381H848.659V4.56285H847.142V6.09381ZM850.175 30.439H851.691V28.9081H850.175V30.439ZM850.175 9.1257H851.691V7.59475H850.175V9.1257ZM847.142 12.1876H848.659V10.6567H847.142V12.1876ZM850.175 24.3752H851.691V22.8443H850.175V24.3752ZM850.175 27.4071H851.691V25.8762H850.175V27.4071ZM856.211 30.439H857.727V28.9081H856.211V30.439ZM853.178 6.09381H854.695V4.56285H853.178V6.09381ZM850.175 3.06191H851.691V1.53096H850.175V3.06191ZM853.178 12.1876H854.695V10.6567H853.178V12.1876ZM856.211 27.4071H857.727V25.8762H856.211V27.4071ZM853.178 18.2814H854.695V16.7505H853.178V18.2814ZM853.178 30.439H854.695V28.9081H853.178V30.439ZM853.178 24.3752H854.695V22.8443H853.178V24.3752ZM844.139 9.1257H845.655V7.59475H844.139V9.1257ZM841.106 12.1876H842.623V10.6567H841.106V12.1876ZM841.106 6.09381H842.623V4.56285H841.106V6.09381ZM844.139 30.439H845.655V28.9081H844.139V30.439ZM844.139 24.3752H845.655V22.8443H844.139V24.3752ZM844.139 27.4071H845.655V25.8762H844.139V27.4071ZM841.106 27.4071H842.623V25.8762H841.106V27.4071ZM841.106 24.3752H842.623V22.8443H841.106V24.3752ZM841.106 18.2814H842.623V16.7505H841.106V18.2814ZM844.139 3.06191H845.655V1.53096H844.139V3.06191ZM844.139 6.09381H845.655V4.56285H844.139V6.09381ZM847.142 24.3752H848.659V22.8443H847.142V24.3752ZM847.142 30.439H848.659V28.9081H847.142V30.439ZM841.106 30.439H842.623V28.9081H841.106V30.439ZM844.139 15.2195H845.655V13.6886H844.139V15.2195ZM844.139 18.2814H845.655V16.7505H844.139V18.2814ZM844.139 12.1876H845.655V10.6567H844.139V12.1876ZM844.139 21.3133H845.655V19.7824H844.139V21.3133ZM765.702 27.4071H767.218V25.8762H765.702V27.4071ZM694.847 24.3752V22.8443H693.33V21.3133H691.814V22.8443H690.297V24.3752H691.814V25.9062H693.33V24.3752H694.847ZM688.811 24.3752V22.8443H687.294V21.3133H685.778V22.8443H684.262V24.3752H685.778V25.9062H687.294V24.3752H688.811ZM703.886 6.09381V4.56285H702.369V6.09381H703.886ZM688.811 24.3752V25.9062H690.327V24.3752H688.811ZM681.258 22.8443V21.3133H679.742V22.8443H678.226V24.3752H679.742V25.9062H681.258V24.3752H682.775V22.8443H681.258ZM666.184 15.2195H667.7V13.6886H666.184V12.1576H664.667V13.6886H663.151V15.2195H664.667V16.7505H666.184V15.2195ZM663.151 12.1876H664.667V10.6567H663.151V9.1257H661.634V10.6567H660.118V12.1876H661.634V13.7186H663.151V12.1876ZM672.219 21.3133H673.736V19.7824H672.219V18.2514H670.703V19.7824H669.187V21.3133H670.703V22.8443H672.219V21.3133ZM669.187 18.2814H670.703V16.7505H669.187V15.2195H667.67V16.7505H666.154V18.2814H667.67V19.8124H669.187V18.2814ZM715.958 24.3752V25.9062H717.474V24.3752H715.958ZM712.925 24.3752V22.8443H711.408V21.3133H709.892V22.8443H708.375V24.3752H709.892V25.9062H711.408V24.3752H712.925ZM712.925 24.3752V25.9062H714.441V24.3752H712.925ZM660.148 9.1257H661.664V7.59475H660.148V6.06379H658.631V7.59475H657.115V9.1257H658.631V10.6567H660.148V9.1257ZM694.847 24.3752V25.9062H696.363V24.3752H694.847ZM706.889 24.3752V25.9062H708.405V24.3752H706.889ZM700.853 24.3752V22.8443H699.336V21.3133H697.82V22.8443H696.304V24.3752H697.82V25.9062H699.336V24.3752H700.853ZM706.889 24.3752V22.8443H705.372V21.3133H703.856V22.8443H702.34V24.3752H703.856V25.9062H705.372V24.3752H706.889ZM700.853 24.3752V25.9062H702.369V24.3752H700.853ZM672.219 7.62477V6.09381H670.703V7.62477H672.219ZM694.847 9.1257V7.59475H693.33V9.1257H694.847ZM690.297 7.62477V6.09381H688.781V7.62477H690.297ZM690.297 9.1257H691.814V7.59475H690.297V9.1257ZM664.667 9.1257V10.6567H666.184V9.1257H667.7V7.59475H666.184V6.06379H664.667V7.59475H663.151V9.1257H664.667ZM696.333 7.62477V6.09381H694.817V7.62477H696.333ZM700.853 6.09381V4.56285H699.336V6.09381H700.853ZM697.85 6.09381V4.56285H696.333V6.09381H697.85ZM684.291 9.1257H685.808V7.59475H684.291V9.1257ZM688.811 9.1257V7.59475H687.294V9.1257H688.811ZM672.219 9.1257H673.736V7.59475H672.219V9.1257ZM684.291 7.62477V6.09381H682.775V7.62477H684.291ZM676.739 9.1257V7.59475H675.223V9.1257H676.739ZM670.703 9.1257V7.59475H669.187V9.1257H670.703ZM720.477 24.3752H718.961V25.9062H720.477V24.3752ZM678.255 7.62477V6.09381H676.739V7.62477H678.255ZM761.182 6.09381V4.56285H759.666V6.09381H761.182ZM678.255 9.1257H679.772V7.59475H678.255V9.1257ZM675.223 22.8443V21.3133H673.706V22.8443H672.19V24.3752H673.706V25.9062H675.223V24.3752H676.739V22.8443H675.223ZM773.254 19.7824H771.738V21.3133H773.254V19.7824ZM774.771 24.3752H776.287V22.8443H774.771V24.3752ZM771.738 22.8443V24.3752H773.254V22.8443H771.738ZM774.771 19.7824V18.2514H773.254V19.7824H774.771ZM776.257 21.3133V19.7824H774.741V21.3133H776.257ZM770.251 21.3133V22.8443H771.768V21.3133H770.251ZM765.702 22.8443V24.3752H767.218V22.8443H765.702ZM762.699 24.3752H764.215V22.8443H762.699V24.3752ZM768.735 24.3752H770.251V22.8443H768.735V24.3752ZM764.215 21.3133V22.8443H765.732V21.3133H764.215ZM765.702 10.6567V9.1257H764.185V10.6567H765.702ZM764.215 9.1257V7.59475H762.699V9.1257H764.215ZM773.254 18.2814V16.7505H771.738V18.2814H773.254ZM767.218 12.1876V10.6567H765.702V12.1876H767.218ZM762.699 7.62477V6.09381H761.182V7.62477H762.699ZM771.738 16.7505V15.2195H770.221V16.7505H771.738ZM768.735 13.7186V12.1876H767.218V13.7186H768.735ZM770.251 15.2195V13.6886H768.735V15.2195H770.251ZM738.555 25.8762V27.4071H740.071V25.8762H738.555ZM720.477 25.8762V27.4071H721.993V25.8762H720.477ZM743.104 25.8762H744.621V24.3452H743.104V25.8762ZM732.549 25.8762V27.4071H734.065V25.8762H732.549ZM741.588 27.4071H743.104V25.8762H741.588V27.4071ZM735.552 25.8762V27.4071H737.068V25.8762H735.552ZM723.48 25.8762V27.4071H724.997V25.8762H723.48ZM726.513 25.8762V27.4071H728.029V25.8762H726.513ZM729.516 25.8762V27.4071H731.032V25.8762H729.516ZM758.179 21.3133V22.8443H759.696V21.3133H758.179ZM756.663 24.3752H758.179V22.8443H756.663V24.3752ZM753.66 22.8443V24.3752H755.176V22.8443H753.66ZM752.143 21.3133V22.8443H753.66V21.3133H752.143ZM759.696 22.8443V24.3752H761.212V22.8443H759.696ZM747.624 22.8443V24.3752H749.14V22.8443H747.624ZM746.107 21.3133V22.8443H747.624V21.3133H746.107ZM744.591 24.3752H746.107V22.8443H744.591V24.3752ZM750.627 24.3752H752.143V22.8443H750.627V24.3752ZM682.775 9.1257V7.59475H681.258V9.1257H682.775ZM721.993 24.3752V25.9062H723.51V24.3752H721.993ZM724.997 24.3752V25.9062H726.513V24.3752H724.997ZM731.032 24.3752V25.9062H732.549V24.3752H731.032ZM728 24.3752V25.9062H729.516V24.3752H728ZM721.993 22.8443H720.477V24.3752H721.993V22.8443ZM712.925 19.7824H711.408V21.3133H712.925V19.7824ZM714.441 21.3133H712.925V22.8443H714.441V21.3133ZM708.405 19.7824V21.3133H709.922V19.7824H708.405ZM753.66 19.7824V21.3133H755.176V19.7824H753.66ZM717.444 22.8443V24.3752H718.961V22.8443H717.444ZM744.591 19.7824V21.3133H746.107V19.7824H744.591ZM706.889 6.09381V4.56285H705.372V6.09381H706.889ZM743.104 22.8443H744.621V21.3133H743.104V22.8443ZM750.627 19.7824V21.3133H752.143V19.7824H750.627ZM737.068 25.8762H738.585V24.3452H737.068V25.8762ZM740.071 21.3133V22.8443H741.588V21.3133H740.071ZM734.036 24.3752V25.9062H735.552V24.3752H734.036ZM738.555 24.3752H740.071V22.8443H738.555V24.3752ZM714.441 22.8443V24.3752H715.958V22.8443H714.441ZM684.291 19.7824V21.3133H685.808V19.7824H684.291ZM682.775 19.7824H681.258V21.3133H682.775V19.7824ZM688.811 21.3133V22.8443H690.327V21.3133H688.811ZM688.811 19.7824H687.294V21.3133H688.811V19.7824ZM682.775 21.3133V22.8443H684.291V21.3133H682.775ZM706.889 21.3133V22.8443H708.405V21.3133H706.889ZM678.255 19.7824V18.2514H676.739V19.7824H675.223V21.3133H676.739V22.8443H678.255V21.3133H679.772V19.7824H678.255ZM675.223 18.2814H676.739V16.7505H675.223V15.2195H673.706V16.7505H672.19V18.2814H673.706V19.8124H675.223V18.2814ZM672.219 15.2195H673.736V13.6886H672.219V12.1576H670.703V13.6886H669.187V15.2195H670.703V16.7505H672.219V15.2195ZM700.853 21.3133V22.8443H702.369V21.3133H700.853ZM690.297 19.7824V21.3133H691.814V19.7824H690.297ZM700.853 19.7824H699.336V21.3133H700.853V19.7824ZM706.889 19.7824H705.372V21.3133H706.889V19.7824ZM702.369 19.7824V21.3133H703.886V19.7824H702.369ZM696.333 19.7824V21.3133H697.85V19.7824H696.333ZM694.847 19.7824H693.33V21.3133H694.847V19.7824ZM694.847 21.3133V22.8443H696.363V21.3133H694.847ZM747.624 19.7824V21.3133H749.14V19.7824H747.624ZM734.036 9.1257V7.59475H732.519V9.1257H734.036ZM731.032 7.62477H729.516V9.15572H731.032V7.62477ZM729.516 10.6567V9.1257H728V10.6567H729.516ZM735.552 10.6567V9.1257H734.036V10.6567H735.552ZM737.068 7.62477H735.552V9.15572H737.068V7.62477ZM728 9.1257V7.59475H726.483V9.1257H728ZM741.588 10.6567V9.1257H740.071V10.6567H741.588ZM743.104 7.62477H741.588V9.15572H743.104V7.62477ZM740.071 9.1257V7.59475H738.555V9.1257H740.071ZM723.48 10.6567V9.1257H721.964V10.6567H723.48ZM724.997 7.62477H723.48V9.15572H724.997V7.62477ZM717.444 7.62477V6.09381H715.928V7.62477H717.444ZM712.925 6.09381V4.56285H711.408V6.09381H712.925ZM709.922 6.09381V4.56285H708.405V6.09381H709.922ZM714.441 7.62477V6.09381H712.925V7.62477H714.441ZM746.107 9.1257V7.59475H744.591V9.1257H746.107ZM720.477 7.62477V6.09381H718.961V7.62477H720.477ZM721.993 9.1257V7.59475H720.477V9.1257H721.993ZM755.146 7.62477H753.63V9.15572H755.146V7.62477ZM762.699 19.7824V21.3133H764.215V19.7824H762.699ZM765.702 21.3133H767.218V19.7824H765.702V21.3133ZM767.218 18.2814V16.7505H765.702V18.2814H767.218ZM765.702 16.7505V15.2195H764.185V16.7505H765.702ZM764.215 16.7505H762.699V18.2814H764.215V16.7505ZM764.215 15.2195V13.6886H762.699V15.2195H764.215ZM759.696 21.3133H761.212V19.7824H759.696V21.3133ZM761.182 18.2814V19.8124H762.699V18.2814H761.182ZM756.663 19.7824V21.3133H758.179V19.7824H756.663ZM753.66 10.6567V9.1257H752.143V10.6567H753.66ZM752.143 9.1257V7.59475H750.627V9.1257H752.143ZM749.111 7.62477H747.594V9.15572H749.111V7.62477ZM747.624 10.6567V9.1257H746.107V10.6567H747.624ZM758.179 9.1257V7.59475H756.663V9.1257H758.179ZM761.182 12.1876V10.6567H759.666V12.1876H761.182ZM759.696 10.6567V9.1257H758.179V10.6567H759.696ZM762.699 13.7186V12.1876H761.182V13.7186H762.699ZM694.847 27.4071V28.9381H696.363V27.4071H694.847ZM773.254 12.1876V10.6567H771.738V12.1876H773.254ZM768.735 7.62477V6.09381H767.218V7.62477H768.735ZM774.771 13.7186V12.1876H773.254V13.7186H774.771ZM770.251 9.1257V7.59475H768.735V9.1257H770.251ZM771.738 10.6567V9.1257H770.221V10.6567H771.738ZM779.29 18.2814V16.7505H777.774V18.2814H779.29ZM780.807 19.7824V18.2514H779.29V19.7824H780.807ZM782.293 21.3133V19.7824H780.777V21.3133H782.293ZM776.257 15.2195V13.6886H774.741V15.2195H776.257ZM777.774 16.7505V15.2195H776.257V16.7505H777.774ZM759.696 4.56285V3.0319H758.179V4.56285H759.696ZM755.146 1.53096H753.63V3.06191H755.146V1.53096ZM758.179 3.06191V1.53096H756.663V3.06191H758.179ZM753.66 4.56285V3.0319H752.143V4.56285H753.66ZM765.702 4.56285V3.0319H764.185V4.56285H765.702ZM761.182 1.53096H759.666V3.06191H761.182V1.53096ZM752.143 3.06191V1.53096H750.627V3.06191H752.143ZM764.215 3.06191V1.53096H762.699V3.06191H764.215ZM767.218 6.09381V4.56285H765.702V6.09381H767.218ZM767.218 24.3752V25.9062H768.735V24.3752H767.218ZM771.738 27.4071H773.254V25.8762H771.738V27.4071ZM669.187 12.1876H670.703V10.6567H669.187V9.1257H667.67V10.6567H666.154V12.1876H667.67V13.7186H669.187V12.1876ZM768.735 25.8762V27.4071H770.251V25.8762H768.735ZM762.699 25.8762V27.4071H764.215V25.8762H762.699ZM759.696 25.8762V27.4071H761.212V25.8762H759.696ZM753.66 25.8762V27.4071H755.176V25.8762H753.66ZM756.663 25.8762V27.4071H758.179V25.8762H756.663ZM780.807 25.8762V27.4071H782.323V25.8762H780.807ZM782.293 22.8443H780.777V24.3752H782.293V22.8443ZM783.81 27.4071H785.326V25.8762H783.81V27.4071ZM783.81 22.8443V21.3133H782.293V22.8443H783.81ZM785.326 24.3752V22.8443H783.81V24.3752H785.326ZM777.774 27.4071H779.29V25.8762H777.774V27.4071ZM774.771 25.8762V27.4071H776.287V25.8762H774.771ZM779.29 24.3752V25.9062H780.807V24.3752H779.29ZM773.254 24.3752V25.9062H774.771V24.3752H773.254ZM709.922 3.06191V1.53096H708.405V3.06191H709.922ZM691.814 3.06191V1.53096H690.297V3.06191H691.814ZM697.85 3.06191V1.53096H696.333V3.06191H697.85ZM694.847 3.06191V1.53096H693.33V3.06191H694.847ZM749.111 1.53096H747.594V3.06191H749.111V1.53096ZM703.886 3.06191V1.53096H702.369V3.06191H703.886ZM706.889 3.06191V1.53096H705.372V3.06191H706.889ZM712.925 3.06191V1.53096H711.408V3.06191H712.925ZM750.627 25.8762V27.4071H752.143V25.8762H750.627ZM685.778 3.06191V1.53096H684.262V3.06191H685.778ZM700.853 3.06191V1.53096H699.336V3.06191H700.853ZM682.775 3.06191V1.53096H681.258V3.06191H682.775ZM670.703 3.06191V1.53096H669.187V3.06191H670.703ZM667.7 3.06191V1.53096H666.184V3.06191H667.7ZM658.631 3.06191V4.59287H660.148V3.06191H661.664V1.53096H660.148V0H658.631V1.53096H657.115V3.06191H658.631ZM664.667 3.06191V1.53096H663.151V3.06191H664.667ZM673.706 3.06191V1.53096H672.19V3.06191H673.706ZM679.742 3.06191V1.53096H678.226V3.06191H679.742ZM676.739 3.06191V1.53096H675.223V3.06191H676.739ZM688.811 3.06191V1.53096H687.294V3.06191H688.811ZM740.071 3.06191V1.53096H738.555V3.06191H740.071ZM734.036 3.06191V1.53096H732.519V3.06191H734.036ZM735.552 4.56285V3.0319H734.036V4.56285H735.552ZM741.588 4.56285V3.0319H740.071V4.56285H741.588ZM758.179 4.56285H756.663V6.09381H758.179V4.56285ZM747.624 4.56285V3.0319H746.107V4.56285H747.624ZM743.104 1.53096H741.588V3.06191H743.104V1.53096ZM746.107 3.06191V1.53096H744.591V3.06191H746.107ZM729.516 4.56285V3.0319H728V4.56285H729.516ZM721.993 3.06191V1.53096H720.477V3.06191H721.993ZM731.032 1.53096H729.516V3.06191H731.032V1.53096ZM717.444 4.56285V3.0319H715.928V4.56285H717.444ZM723.48 4.56285V3.0319H721.964V4.56285H723.48ZM718.961 1.53096H717.444V3.06191H718.961V1.53096ZM715.958 3.06191V1.53096H714.441V3.06191H715.958ZM728 3.06191V1.53096H726.483V3.06191H728ZM724.997 1.53096H723.48V3.06191H724.997V1.53096ZM737.068 1.53096H735.552V3.06191H737.068V1.53096ZM696.333 4.56285V3.0319H694.817V4.56285H696.333ZM690.297 4.56285V6.09381H691.814V7.62477H693.33V6.09381H694.847V4.56285H693.33V3.0319H691.814V4.56285H690.297ZM684.291 4.56285V6.09381H685.808V7.62477H687.324V6.09381H688.841V4.56285H687.324V3.0319H685.808V4.56285H684.291ZM699.366 4.56285V3.0319H697.85V4.56285H699.366ZM714.441 4.56285V3.0319H712.925V4.56285H714.441ZM708.405 4.56285V3.0319H706.889V4.56285H708.405ZM702.369 4.56285V3.0319H700.853V4.56285H702.369ZM711.408 4.56285V3.0319H709.892V4.56285H711.408ZM705.402 4.56285V3.0319H703.886V4.56285H705.402ZM690.297 4.56285V3.0319H688.781V4.56285H690.297ZM666.184 4.56285V3.0319H664.667V4.56285H666.184ZM666.184 4.56285V6.09381H667.7V7.62477H669.216V6.09381H670.733V4.56285H669.216V3.0319H667.7V4.56285H666.184ZM672.219 4.56285V3.0319H670.703V4.56285H672.219ZM684.291 4.56285V3.0319H682.775V4.56285H684.291ZM661.664 6.09381V7.62477H663.18V6.09381H664.697V4.56285H663.18V3.0319H661.664V4.56285H660.148V6.09381H661.664ZM678.255 4.56285V6.09381H679.772V7.62477H681.288V6.09381H682.805V4.56285H681.288V3.0319H679.772V4.56285H678.255ZM672.219 4.56285V6.09381H673.736V7.62477H675.252V6.09381H676.769V4.56285H675.252V3.0319H673.736V4.56285H672.219ZM678.255 4.56285V3.0319H676.739V4.56285H678.255ZM744.591 7.62477V6.09381H743.075V7.62477H744.591ZM743.104 6.09381V4.56285H741.588V6.09381H743.104ZM749.111 6.09381V4.56285H747.594V6.09381H749.111ZM750.627 7.62477V6.09381H749.111V7.62477H750.627ZM655.628 6.09381V7.62477H657.145V6.09381H658.661V4.56285H657.145V3.0319H655.628V4.56285H654.112V6.09381H655.628ZM746.107 4.56285H744.591V6.09381H746.107V4.56285ZM752.143 4.56285H750.627V6.09381H752.143V4.56285ZM756.663 7.62477V6.09381H755.146V7.62477H756.663ZM755.146 6.09381V4.56285H753.63V6.09381H755.146ZM734.036 6.09381V4.56285H732.519V6.09381H734.036ZM724.997 6.09381V4.56285H723.48V6.09381H724.997ZM721.993 6.09381V4.56285H720.477V6.09381H721.993ZM728 6.09381V4.56285H726.483V6.09381H728ZM718.961 6.09381V4.56285H717.444V6.09381H718.961ZM737.068 6.09381V4.56285H735.552V6.09381H737.068ZM740.071 6.09381V4.56285H738.555V6.09381H740.071ZM731.032 6.09381V4.56285H729.516V6.09381H731.032ZM715.958 6.09381V4.56285H714.441V6.09381H715.958ZM702.369 25.8762V27.4071H703.886V25.8762H702.369ZM714.441 25.8762V27.4071H715.958V25.8762H714.441ZM712.925 27.4071V28.9381H714.441V27.4071H712.925ZM718.961 25.8762H717.444V27.4071H718.961V25.8762ZM721.993 27.4071V28.9381H723.51V27.4071H721.993ZM718.961 27.4071V28.9381H720.477V27.4071H718.961ZM712.925 25.8762H711.408V27.4071H712.925V25.8762ZM706.889 25.8762H705.372V27.4071H706.889V25.8762ZM706.889 27.4071V28.9381H708.405V27.4071H706.889ZM708.405 25.8762V27.4071H709.922V25.8762H708.405ZM737.068 27.4071V28.9381H738.585V27.4071H737.068ZM651.109 6.09381H652.625V4.56285H651.109V3.0319H649.592V4.56285H648.076V6.09381H649.592V7.62477H651.109V6.09381ZM743.104 28.9381H744.621V27.4071H743.104V28.9381ZM747.624 25.8762V27.4071H749.14V25.8762H747.624ZM744.591 25.8762V27.4071H746.107V25.8762H744.591ZM728 27.4071V28.9381H729.516V27.4071H728ZM724.997 27.4071V28.9381H726.513V27.4071H724.997ZM731.032 27.4071V28.9381H732.549V27.4071H731.032ZM734.036 27.4071V28.9381H735.552V27.4071H734.036ZM740.071 27.4071V28.9381H741.588V27.4071H740.071ZM669.187 24.3752H670.703V22.8443H669.187V21.3133H667.67V22.8443H666.154V24.3752H667.67V25.9062H669.187V24.3752ZM700.853 27.4071V28.9381H702.369V27.4071H700.853ZM678.255 25.8762V24.3452H676.739V25.8762H675.223V27.4071H676.739V28.9381H678.255V27.4071H679.772V25.8762H678.255ZM672.219 25.8762V24.3452H670.703V25.8762H669.187V27.4071H670.703V28.9381H672.219V27.4071H673.736V25.8762H672.219ZM666.184 21.3133H667.7V19.7824H666.184V18.2514H664.667V19.7824H663.151V21.3133H664.667V22.8443H666.184V21.3133ZM660.148 15.2195H661.664V13.6886H660.148V12.1576H658.631V13.6886H657.115V15.2195H658.631V16.7505H660.148V15.2195ZM654.112 9.1257H655.628V7.59475H654.112V6.06379H652.595V7.59475H651.079V9.1257H652.595V10.6567H654.112V9.1257ZM657.145 12.1876H658.661V10.6567H657.145V9.1257H655.628V10.6567H654.112V12.1876H655.628V13.7186H657.145V12.1876ZM663.151 18.2814H664.667V16.7505H663.151V15.2195H661.634V16.7505H660.118V18.2814H661.634V19.8124H663.151V18.2814ZM694.847 25.8762H693.33V27.4071H694.847V25.8762ZM696.333 25.8762V27.4071H697.85V25.8762H696.333ZM652.595 3.06191V4.59287H654.112V3.06191H655.628V1.53096H654.112V0H652.595V1.53096H651.079V3.06191H652.595ZM700.853 25.8762H699.336V27.4071H700.853V25.8762ZM688.811 27.4071V28.9381H690.327V27.4071H688.811ZM690.297 25.8762V27.4071H691.814V25.8762H690.297ZM688.811 25.8762H687.294V27.4071H688.811V25.8762ZM684.291 25.8762V24.3452H682.775V25.8762H681.258V27.4071H682.775V28.9381H684.291V27.4071H685.808V25.8762H684.291Z" fill="#004BC7"/>
</svg>
