<svg width="1920" height="1105" viewBox="0 0 1920 1105" fill="none" xmlns="http://www.w3.org/2000/svg">
<g clip-path="url(#clip0_219_9)">
<path d="M11.7884 -0.480469H10.8667V1439.97H11.7884V-0.480469Z" fill="#E6E6E6" fill-opacity="0.5"/>
<path d="M26.6185 -0.480469H25.6968V1439.97H26.6185V-0.480469Z" fill="#E6E6E6" fill-opacity="0.5"/>
<path d="M41.4515 -0.480469H40.5298V1439.97H41.4515V-0.480469Z" fill="#E6E6E6" fill-opacity="0.5"/>
<path d="M56.2845 -0.480469H55.3628V1439.97H56.2845V-0.480469Z" fill="#E6E6E6" fill-opacity="0.5"/>
<path d="M71.117 -0.480469H70.1953V1439.97H71.117V-0.480469Z" fill="#E6E6E6" fill-opacity="0.5"/>
<path d="M85.9496 -0.480469H85.0278V1439.97H85.9496V-0.480469Z" fill="#E6E6E6" fill-opacity="0.5"/>
<path d="M100.783 -0.480469H99.8608V1439.97H100.783V-0.480469Z" fill="#E6E6E6" fill-opacity="0.5"/>
<path d="M115.613 -0.480469H114.691V1439.97H115.613V-0.480469Z" fill="#E6E6E6" fill-opacity="0.5"/>
<path d="M130.446 -0.480469H129.524V1439.97H130.446V-0.480469Z" fill="#E6E6E6" fill-opacity="0.5"/>
<path d="M145.279 -0.480469H144.357V1439.97H145.279V-0.480469Z" fill="#E6E6E6" fill-opacity="0.5"/>
<path d="M160.112 -0.480469H159.19V1439.97H160.112V-0.480469Z" fill="#E6E6E6" fill-opacity="0.5"/>
<path d="M174.944 -0.480469H174.022V1439.97H174.944V-0.480469Z" fill="#E6E6E6" fill-opacity="0.5"/>
<path d="M189.775 -0.480469H188.853V1439.97H189.775V-0.480469Z" fill="#E6E6E6" fill-opacity="0.5"/>
<path d="M204.607 -0.480469H203.686V1439.97H204.607V-0.480469Z" fill="#E6E6E6" fill-opacity="0.5"/>
<path d="M219.439 -0.480469H218.518V1439.97H219.439V-0.480469Z" fill="#E6E6E6" fill-opacity="0.5"/>
<path d="M234.273 -0.480469H233.352V1439.97H234.273V-0.480469Z" fill="#E6E6E6" fill-opacity="0.5"/>
<path d="M249.105 -0.480469H248.184V1439.97H249.105V-0.480469Z" fill="#E6E6E6" fill-opacity="0.5"/>
<path d="M263.936 -0.480469H263.014V1439.97H263.936V-0.480469Z" fill="#E6E6E6" fill-opacity="0.5"/>
<path d="M278.768 -0.480469H277.847V1439.97H278.768V-0.480469Z" fill="#E6E6E6" fill-opacity="0.5"/>
<path d="M293.601 -0.480469H292.679V1439.97H293.601V-0.480469Z" fill="#E6E6E6" fill-opacity="0.5"/>
<path d="M308.434 -0.480469H307.513V1439.97H308.434V-0.480469Z" fill="#E6E6E6" fill-opacity="0.5"/>
<path d="M323.267 -0.480469H322.345V1439.97H323.267V-0.480469Z" fill="#E6E6E6" fill-opacity="0.5"/>
<path d="M338.097 -0.480469H337.175V1439.97H338.097V-0.480469Z" fill="#E6E6E6" fill-opacity="0.5"/>
<path d="M352.93 -0.480469H352.008V1439.97H352.93V-0.480469Z" fill="#E6E6E6" fill-opacity="0.5"/>
<path d="M367.763 -0.480469H366.841V1439.97H367.763V-0.480469Z" fill="#E6E6E6" fill-opacity="0.5"/>
<path d="M382.595 -0.480469H381.673V1439.97H382.595V-0.480469Z" fill="#E6E6E6" fill-opacity="0.5"/>
<path d="M397.428 -0.480469H396.506V1439.97H397.428V-0.480469Z" fill="#E6E6E6" fill-opacity="0.5"/>
<path d="M412.262 -0.480469H411.34V1439.97H412.262V-0.480469Z" fill="#E6E6E6" fill-opacity="0.5"/>
<path d="M427.092 -0.480469H426.17V1439.97H427.092V-0.480469Z" fill="#E6E6E6" fill-opacity="0.5"/>
<path d="M441.924 -0.480469H441.002V1439.97H441.924V-0.480469Z" fill="#E6E6E6" fill-opacity="0.5"/>
<path d="M456.757 -0.480469H455.835V1439.97H456.757V-0.480469Z" fill="#E6E6E6" fill-opacity="0.5"/>
<path d="M471.589 -0.480469H470.667V1439.97H471.589V-0.480469Z" fill="#E6E6E6" fill-opacity="0.5"/>
<path d="M486.423 -0.480469H485.501V1439.97H486.423V-0.480469Z" fill="#E6E6E6" fill-opacity="0.5"/>
<path d="M501.253 -0.480469H500.331V1439.97H501.253V-0.480469Z" fill="#E6E6E6" fill-opacity="0.5"/>
<path d="M516.085 -0.480469H515.164V1439.97H516.085V-0.480469Z" fill="#E6E6E6" fill-opacity="0.5"/>
<path d="M530.918 -0.480469H529.996V1439.97H530.918V-0.480469Z" fill="#E6E6E6" fill-opacity="0.5"/>
<path d="M545.751 -0.480469H544.829V1439.97H545.751V-0.480469Z" fill="#E6E6E6" fill-opacity="0.5"/>
<path d="M560.584 -0.480469H559.662V1439.97H560.584V-0.480469Z" fill="#E6E6E6" fill-opacity="0.5"/>
<path d="M575.414 -0.480469H574.492V1439.97H575.414V-0.480469Z" fill="#E6E6E6" fill-opacity="0.5"/>
<path d="M590.247 -0.480469H589.325V1439.97H590.247V-0.480469Z" fill="#E6E6E6" fill-opacity="0.5"/>
<path d="M605.079 -0.480469H604.157V1439.97H605.079V-0.480469Z" fill="#E6E6E6" fill-opacity="0.5"/>
<path d="M619.912 -0.480469H618.991V1439.97H619.912V-0.480469Z" fill="#E6E6E6" fill-opacity="0.5"/>
<path d="M634.745 -0.480469H633.823V1439.97H634.745V-0.480469Z" fill="#E6E6E6" fill-opacity="0.5"/>
<path d="M649.575 -0.480469H648.653V1439.97H649.575V-0.480469Z" fill="#E6E6E6" fill-opacity="0.5"/>
<path d="M664.408 -0.480469H663.486V1439.97H664.408V-0.480469Z" fill="#E6E6E6" fill-opacity="0.5"/>
<path d="M679.241 -0.480469H678.319V1439.97H679.241V-0.480469Z" fill="#E6E6E6" fill-opacity="0.5"/>
<path d="M694.074 -0.480469H693.152V1439.97H694.074V-0.480469Z" fill="#E6E6E6" fill-opacity="0.5"/>
<path d="M708.906 -0.480469H707.984V1439.97H708.906V-0.480469Z" fill="#E6E6E6" fill-opacity="0.5"/>
<path d="M723.739 -0.480469H722.817V1439.97H723.739V-0.480469Z" fill="#E6E6E6" fill-opacity="0.5"/>
<path d="M738.569 -0.480469H737.647V1439.97H738.569V-0.480469Z" fill="#E6E6E6" fill-opacity="0.5"/>
<path d="M753.402 -0.480469H752.48V1439.97H753.402V-0.480469Z" fill="#E6E6E6" fill-opacity="0.5"/>
<path d="M768.235 -0.480469H767.313V1439.97H768.235V-0.480469Z" fill="#E6E6E6" fill-opacity="0.5"/>
<path d="M783.067 -0.480469H782.146V1439.97H783.067V-0.480469Z" fill="#E6E6E6" fill-opacity="0.5"/>
<path d="M797.9 -0.480469H796.978V1439.97H797.9V-0.480469Z" fill="#E6E6E6" fill-opacity="0.5"/>
<path d="M812.73 -0.480469H811.809V1439.97H812.73V-0.480469Z" fill="#E6E6E6" fill-opacity="0.5"/>
<path d="M827.563 -0.480469H826.642V1439.97H827.563V-0.480469Z" fill="#E6E6E6" fill-opacity="0.5"/>
<path d="M842.396 -0.480469H841.475V1439.97H842.396V-0.480469Z" fill="#E6E6E6" fill-opacity="0.5"/>
<path d="M857.229 -0.480469H856.307V1439.97H857.229V-0.480469Z" fill="#E6E6E6" fill-opacity="0.5"/>
<path d="M872.062 -0.480469H871.14V1439.97H872.062V-0.480469Z" fill="#E6E6E6" fill-opacity="0.5"/>
<path d="M886.892 -0.480469H885.971V1439.97H886.892V-0.480469Z" fill="#E6E6E6" fill-opacity="0.5"/>
<path d="M901.725 -0.480469H900.803V1439.97H901.725V-0.480469Z" fill="#E6E6E6" fill-opacity="0.5"/>
<path d="M916.558 -0.480469H915.636V1439.97H916.558V-0.480469Z" fill="#E6E6E6" fill-opacity="0.5"/>
<path d="M931.391 -0.480469H930.469V1439.97H931.391V-0.480469Z" fill="#E6E6E6" fill-opacity="0.5"/>
<path d="M946.224 -0.480469H945.302V1439.97H946.224V-0.480469Z" fill="#E6E6E6" fill-opacity="0.5"/>
<path d="M961.056 -0.480469H960.134V1439.97H961.056V-0.480469Z" fill="#E6E6E6" fill-opacity="0.5"/>
<path d="M961.454 0.841616V-0.0800781H-479V0.841616H961.454Z" fill="#E6E6E6" fill-opacity="0.5"/>
<path d="M961.454 15.6746V14.7529H-479V15.6746H961.454Z" fill="#E6E6E6" fill-opacity="0.5"/>
<path d="M961.454 30.5076V29.5859H-479V30.5076H961.454Z" fill="#E6E6E6" fill-opacity="0.5"/>
<path d="M961.454 45.3406V44.4189H-479V45.3406H961.454Z" fill="#E6E6E6" fill-opacity="0.5"/>
<path d="M961.457 60.1707V59.249H-478.997V60.1707H961.457Z" fill="#E6E6E6" fill-opacity="0.5"/>
<path d="M961.454 75.0027V74.0811H-479V75.0027H961.454Z" fill="#E6E6E6" fill-opacity="0.5"/>
<path d="M961.454 89.8358V88.9141H-479V89.8358H961.454Z" fill="#E6E6E6" fill-opacity="0.5"/>
<path d="M961.454 104.669V103.747H-479V104.669H961.454Z" fill="#E6E6E6" fill-opacity="0.5"/>
<path d="M961.454 119.502V118.58H-479V119.502H961.454Z" fill="#E6E6E6" fill-opacity="0.5"/>
<path d="M961.454 134.332V133.41H-479V134.332H961.454Z" fill="#E6E6E6" fill-opacity="0.5"/>
<path d="M961.457 149.165V148.243H-478.997V149.165H961.457Z" fill="#E6E6E6" fill-opacity="0.5"/>
<path d="M961.454 163.997V163.075H-479V163.997H961.454Z" fill="#E6E6E6" fill-opacity="0.5"/>
<path d="M961.454 178.83V177.908H-479V178.83H961.454Z" fill="#E6E6E6" fill-opacity="0.5"/>
<path d="M961.454 193.663V192.741H-479V193.663H961.454Z" fill="#E6E6E6" fill-opacity="0.5"/>
<path d="M961.454 208.496V207.574H-479V208.496H961.454Z" fill="#E6E6E6" fill-opacity="0.5"/>
<path d="M961.457 223.326V222.404H-478.997V223.326H961.457Z" fill="#E6E6E6" fill-opacity="0.5"/>
<path d="M961.454 238.159V237.237H-479V238.159H961.454Z" fill="#E6E6E6" fill-opacity="0.5"/>
<path d="M961.454 252.991V252.069H-479V252.991H961.454Z" fill="#E6E6E6" fill-opacity="0.5"/>
<path d="M961.454 267.824V266.902H-479V267.824H961.454Z" fill="#E6E6E6" fill-opacity="0.5"/>
<path d="M961.454 282.657V281.735H-479V282.657H961.454Z" fill="#E6E6E6" fill-opacity="0.5"/>
<path d="M961.457 297.487V296.565H-478.997V297.487H961.457Z" fill="#E6E6E6" fill-opacity="0.5"/>
<path d="M961.454 312.32V311.398H-479V312.32H961.454Z" fill="#E6E6E6" fill-opacity="0.5"/>
<path d="M961.454 327.153V326.231H-479V327.153H961.454Z" fill="#E6E6E6" fill-opacity="0.5"/>
<path d="M961.454 341.985V341.063H-479V341.985H961.454Z" fill="#E6E6E6" fill-opacity="0.5"/>
<path d="M961.454 356.818V355.896H-479V356.818H961.454Z" fill="#E6E6E6" fill-opacity="0.5"/>
<path d="M961.457 371.648V370.727H-478.997V371.648H961.457Z" fill="#E6E6E6" fill-opacity="0.5"/>
<path d="M961.457 386.481V385.56H-478.997V386.481H961.457Z" fill="#E6E6E6" fill-opacity="0.5"/>
<path d="M961.454 401.314V400.393H-479V401.314H961.454Z" fill="#E6E6E6" fill-opacity="0.5"/>
<path d="M961.454 416.147V415.226H-479V416.147H961.454Z" fill="#E6E6E6" fill-opacity="0.5"/>
<path d="M961.454 430.979V430.058H-479V430.979H961.454Z" fill="#E6E6E6" fill-opacity="0.5"/>
<path d="M961.454 445.812V444.891H-479V445.812H961.454Z" fill="#E6E6E6" fill-opacity="0.5"/>
<path d="M961.457 460.642V459.721H-478.997V460.642H961.457Z" fill="#E6E6E6" fill-opacity="0.5"/>
<path d="M961.454 475.475V474.554H-479V475.475H961.454Z" fill="#E6E6E6" fill-opacity="0.5"/>
<path d="M961.454 490.308V489.387H-479V490.308H961.454Z" fill="#E6E6E6" fill-opacity="0.5"/>
<path d="M961.454 505.141V504.22H-479V505.141H961.454Z" fill="#E6E6E6" fill-opacity="0.5"/>
<path d="M961.454 519.973V519.052H-479V519.973H961.454Z" fill="#E6E6E6" fill-opacity="0.5"/>
<path d="M961.457 534.805V533.883H-478.997V534.805H961.457Z" fill="#E6E6E6" fill-opacity="0.5"/>
<path d="M961.454 549.637V548.715H-479V549.637H961.454Z" fill="#E6E6E6" fill-opacity="0.5"/>
<path d="M961.454 564.47V563.548H-479V564.47H961.454Z" fill="#E6E6E6" fill-opacity="0.5"/>
<path d="M961.454 579.303V578.381H-479V579.303H961.454Z" fill="#E6E6E6" fill-opacity="0.5"/>
<path d="M961.454 594.136V593.214H-479V594.136H961.454Z" fill="#E6E6E6" fill-opacity="0.5"/>
<path d="M961.457 608.966V608.044H-478.997V608.966H961.457Z" fill="#E6E6E6" fill-opacity="0.5"/>
<path d="M961.454 623.798V622.876H-479V623.798H961.454Z" fill="#E6E6E6" fill-opacity="0.5"/>
<path d="M961.454 638.631V637.709H-479V638.631H961.454Z" fill="#E6E6E6" fill-opacity="0.5"/>
<path d="M961.454 653.464V652.542H-479V653.464H961.454Z" fill="#E6E6E6" fill-opacity="0.5"/>
<path d="M961.454 668.297V667.375H-479V668.297H961.454Z" fill="#E6E6E6" fill-opacity="0.5"/>
<path d="M961.457 683.127V682.205H-478.997V683.127H961.457Z" fill="#E6E6E6" fill-opacity="0.5"/>
<path d="M961.457 697.96V697.038H-478.997V697.96H961.457Z" fill="#E6E6E6" fill-opacity="0.5"/>
<path d="M961.454 712.793V711.871H-479V712.793H961.454Z" fill="#E6E6E6" fill-opacity="0.5"/>
<path d="M961.454 727.625V726.703H-479V727.625H961.454Z" fill="#E6E6E6" fill-opacity="0.5"/>
<path d="M961.454 742.458V741.536H-479V742.458H961.454Z" fill="#E6E6E6" fill-opacity="0.5"/>
<path d="M961.454 757.291V756.369H-479V757.291H961.454Z" fill="#E6E6E6" fill-opacity="0.5"/>
<path d="M961.457 772.121V771.199H-478.997V772.121H961.457Z" fill="#E6E6E6" fill-opacity="0.5"/>
<path d="M961.454 786.954V786.032H-479V786.954H961.454Z" fill="#E6E6E6" fill-opacity="0.5"/>
<path d="M961.454 801.787V800.865H-479V801.787H961.454Z" fill="#E6E6E6" fill-opacity="0.5"/>
<path d="M961.454 816.619V815.697H-479V816.619H961.454Z" fill="#E6E6E6" fill-opacity="0.5"/>
<path d="M961.454 831.452V830.53H-479V831.452H961.454Z" fill="#E6E6E6" fill-opacity="0.5"/>
<path d="M961.457 846.282V845.36H-478.997V846.282H961.457Z" fill="#E6E6E6" fill-opacity="0.5"/>
<path d="M961.454 861.115V860.193H-479V861.115H961.454Z" fill="#E6E6E6" fill-opacity="0.5"/>
<path d="M961.454 875.948V875.026H-479V875.948H961.454Z" fill="#E6E6E6" fill-opacity="0.5"/>
<path d="M961.454 890.781V889.859H-479V890.781H961.454Z" fill="#E6E6E6" fill-opacity="0.5"/>
<path d="M961.454 905.613V904.691H-479V905.613H961.454Z" fill="#E6E6E6" fill-opacity="0.5"/>
<path d="M961.457 920.443V919.521H-478.997V920.443H961.457Z" fill="#E6E6E6" fill-opacity="0.5"/>
<path d="M961.454 935.276V934.354H-479V935.276H961.454Z" fill="#E6E6E6" fill-opacity="0.5"/>
<path d="M961.454 950.109V949.188H-479V950.109H961.454Z" fill="#E6E6E6" fill-opacity="0.5"/>
<path d="M961.454 964.942V964.021H-479V964.942H961.454Z" fill="#E6E6E6" fill-opacity="0.5"/>
<path d="M961.454 979.774V978.853H-479V979.774H961.454Z" fill="#E6E6E6" fill-opacity="0.5"/>
<path d="M961.454 994.605V993.684H-479V994.605H961.454Z" fill="#E6E6E6" fill-opacity="0.5"/>
<path d="M961.457 1009.44V1008.52H-478.997V1009.44H961.457Z" fill="#E6E6E6" fill-opacity="0.5"/>
<path d="M961.454 1024.27V1023.35H-479V1024.27H961.454Z" fill="#E6E6E6" fill-opacity="0.5"/>
<path d="M961.454 1039.1V1038.18H-479V1039.1H961.454Z" fill="#E6E6E6" fill-opacity="0.5"/>
<path d="M961.454 1053.94V1053.01H-479V1053.94H961.454Z" fill="#E6E6E6" fill-opacity="0.5"/>
<path d="M961.454 1068.77V1067.85H-479V1068.77H961.454Z" fill="#E6E6E6" fill-opacity="0.5"/>
<path d="M961.457 1083.6V1082.68H-478.997V1083.6H961.457Z" fill="#E6E6E6" fill-opacity="0.5"/>
<path d="M961.454 1098.43V1097.51H-479V1098.43H961.454Z" fill="#E6E6E6" fill-opacity="0.5"/>
<path d="M975.613 -0.480469H974.691V1439.97H975.613V-0.480469Z" fill="#E6E6E6" fill-opacity="0.5"/>
<path d="M990.445 -0.480469H989.523V1439.97H990.445V-0.480469Z" fill="#E6E6E6" fill-opacity="0.5"/>
<path d="M1005.28 -0.480469H1004.35V1439.97H1005.28V-0.480469Z" fill="#E6E6E6" fill-opacity="0.5"/>
<path d="M1020.11 -0.480469H1019.19V1439.97H1020.11V-0.480469Z" fill="#E6E6E6" fill-opacity="0.5"/>
<path d="M1034.94 -0.480469H1034.02V1439.97H1034.94V-0.480469Z" fill="#E6E6E6" fill-opacity="0.5"/>
<path d="M1049.77 -0.480469H1048.85V1439.97H1049.77V-0.480469Z" fill="#E6E6E6" fill-opacity="0.5"/>
<path d="M1064.61 -0.480469H1063.68V1439.97H1064.61V-0.480469Z" fill="#E6E6E6" fill-opacity="0.5"/>
<path d="M1079.44 -0.480469H1078.52V1439.97H1079.44V-0.480469Z" fill="#E6E6E6" fill-opacity="0.5"/>
<path d="M1094.27 -0.480469H1093.35V1439.97H1094.27V-0.480469Z" fill="#E6E6E6" fill-opacity="0.5"/>
<path d="M1109.1 -0.480469H1108.18V1439.97H1109.1V-0.480469Z" fill="#E6E6E6" fill-opacity="0.5"/>
<path d="M1123.93 -0.480469H1123.01V1439.97H1123.93V-0.480469Z" fill="#E6E6E6" fill-opacity="0.5"/>
<path d="M1138.77 -0.480469H1137.85V1439.97H1138.77V-0.480469Z" fill="#E6E6E6" fill-opacity="0.5"/>
<path d="M1153.6 -0.480469H1152.68V1439.97H1153.6V-0.480469Z" fill="#E6E6E6" fill-opacity="0.5"/>
<path d="M1168.43 -0.480469H1167.51V1439.97H1168.43V-0.480469Z" fill="#E6E6E6" fill-opacity="0.5"/>
<path d="M1183.26 -0.480469H1182.34V1439.97H1183.26V-0.480469Z" fill="#E6E6E6" fill-opacity="0.5"/>
<path d="M1198.1 -0.480469H1197.17V1439.97H1198.1V-0.480469Z" fill="#E6E6E6" fill-opacity="0.5"/>
<path d="M1212.93 -0.480469H1212.01V1439.97H1212.93V-0.480469Z" fill="#E6E6E6" fill-opacity="0.5"/>
<path d="M1227.76 -0.480469H1226.84V1439.97H1227.76V-0.480469Z" fill="#E6E6E6" fill-opacity="0.5"/>
<path d="M1242.59 -0.480469H1241.67V1439.97H1242.59V-0.480469Z" fill="#E6E6E6" fill-opacity="0.5"/>
<path d="M1257.43 -0.480469H1256.5V1439.97H1257.43V-0.480469Z" fill="#E6E6E6" fill-opacity="0.5"/>
<path d="M1272.26 -0.480469H1271.34V1439.97H1272.26V-0.480469Z" fill="#E6E6E6" fill-opacity="0.5"/>
<path d="M1287.09 -0.480469H1286.17V1439.97H1287.09V-0.480469Z" fill="#E6E6E6" fill-opacity="0.5"/>
<path d="M1301.92 -0.480469H1301V1439.97H1301.92V-0.480469Z" fill="#E6E6E6" fill-opacity="0.5"/>
<path d="M1316.75 -0.480469H1315.83V1439.97H1316.75V-0.480469Z" fill="#E6E6E6" fill-opacity="0.5"/>
<path d="M1331.59 -0.480469H1330.66V1439.97H1331.59V-0.480469Z" fill="#E6E6E6" fill-opacity="0.5"/>
<path d="M1346.42 -0.480469H1345.5V1439.97H1346.42V-0.480469Z" fill="#E6E6E6" fill-opacity="0.5"/>
<path d="M1361.25 -0.480469H1360.33V1439.97H1361.25V-0.480469Z" fill="#E6E6E6" fill-opacity="0.5"/>
<path d="M1376.08 -0.480469H1375.16V1439.97H1376.08V-0.480469Z" fill="#E6E6E6" fill-opacity="0.5"/>
<path d="M1390.91 -0.480469H1389.99V1439.97H1390.91V-0.480469Z" fill="#E6E6E6" fill-opacity="0.5"/>
<path d="M1405.75 -0.480469H1404.83V1439.97H1405.75V-0.480469Z" fill="#E6E6E6" fill-opacity="0.5"/>
<path d="M1420.58 -0.480469H1419.66V1439.97H1420.58V-0.480469Z" fill="#E6E6E6" fill-opacity="0.5"/>
<path d="M1435.41 -0.480469H1434.49V1439.97H1435.41V-0.480469Z" fill="#E6E6E6" fill-opacity="0.5"/>
<path d="M1450.25 -0.480469H1449.32V1439.97H1450.25V-0.480469Z" fill="#E6E6E6" fill-opacity="0.5"/>
<path d="M1465.08 -0.480469H1464.15V1439.97H1465.08V-0.480469Z" fill="#E6E6E6" fill-opacity="0.5"/>
<path d="M1479.91 -0.480469H1478.99V1439.97H1479.91V-0.480469Z" fill="#E6E6E6" fill-opacity="0.5"/>
<path d="M1494.74 -0.480469H1493.82V1439.97H1494.74V-0.480469Z" fill="#E6E6E6" fill-opacity="0.5"/>
<path d="M1509.57 -0.480469H1508.65V1439.97H1509.57V-0.480469Z" fill="#E6E6E6" fill-opacity="0.5"/>
<path d="M1524.41 -0.480469H1523.49V1439.97H1524.41V-0.480469Z" fill="#E6E6E6" fill-opacity="0.5"/>
<path d="M1539.24 -0.480469H1538.32V1439.97H1539.24V-0.480469Z" fill="#E6E6E6" fill-opacity="0.5"/>
<path d="M1554.07 -0.480469H1553.15V1439.97H1554.07V-0.480469Z" fill="#E6E6E6" fill-opacity="0.5"/>
<path d="M1568.9 -0.480469H1567.98V1439.97H1568.9V-0.480469Z" fill="#E6E6E6" fill-opacity="0.5"/>
<path d="M1583.74 -0.480469H1582.81V1439.97H1583.74V-0.480469Z" fill="#E6E6E6" fill-opacity="0.5"/>
<path d="M1598.57 -0.480469H1597.65V1439.97H1598.57V-0.480469Z" fill="#E6E6E6" fill-opacity="0.5"/>
<path d="M1613.4 -0.480469H1612.48V1439.97H1613.4V-0.480469Z" fill="#E6E6E6" fill-opacity="0.5"/>
<path d="M1628.23 -0.480469H1627.31V1439.97H1628.23V-0.480469Z" fill="#E6E6E6" fill-opacity="0.5"/>
<path d="M1643.06 -0.480469H1642.14V1439.97H1643.06V-0.480469Z" fill="#E6E6E6" fill-opacity="0.5"/>
<path d="M1657.9 -0.480469H1656.98V1439.97H1657.9V-0.480469Z" fill="#E6E6E6" fill-opacity="0.5"/>
<path d="M1672.73 -0.480469H1671.81V1439.97H1672.73V-0.480469Z" fill="#E6E6E6" fill-opacity="0.5"/>
<path d="M1687.56 -0.480469H1686.64V1439.97H1687.56V-0.480469Z" fill="#E6E6E6" fill-opacity="0.5"/>
<path d="M1702.39 -0.480469H1701.47V1439.97H1702.39V-0.480469Z" fill="#E6E6E6" fill-opacity="0.5"/>
<path d="M1717.23 -0.480469H1716.3V1439.97H1717.23V-0.480469Z" fill="#E6E6E6" fill-opacity="0.5"/>
<path d="M1732.06 -0.480469H1731.14V1439.97H1732.06V-0.480469Z" fill="#E6E6E6" fill-opacity="0.5"/>
<path d="M1746.89 -0.480469H1745.97V1439.97H1746.89V-0.480469Z" fill="#E6E6E6" fill-opacity="0.5"/>
<path d="M1761.72 -0.480469H1760.8V1439.97H1761.72V-0.480469Z" fill="#E6E6E6" fill-opacity="0.5"/>
<path d="M1776.55 -0.480469H1775.63V1439.97H1776.55V-0.480469Z" fill="#E6E6E6" fill-opacity="0.5"/>
<path d="M1791.39 -0.480469H1790.47V1439.97H1791.39V-0.480469Z" fill="#E6E6E6" fill-opacity="0.5"/>
<path d="M1806.22 -0.480469H1805.3V1439.97H1806.22V-0.480469Z" fill="#E6E6E6" fill-opacity="0.5"/>
<path d="M1821.05 -0.480469H1820.13V1439.97H1821.05V-0.480469Z" fill="#E6E6E6" fill-opacity="0.5"/>
<path d="M1835.89 -0.480469H1834.96V1439.97H1835.89V-0.480469Z" fill="#E6E6E6" fill-opacity="0.5"/>
<path d="M1850.72 -0.480469H1849.8V1439.97H1850.72V-0.480469Z" fill="#E6E6E6" fill-opacity="0.5"/>
<path d="M1865.55 -0.480469H1864.63V1439.97H1865.55V-0.480469Z" fill="#E6E6E6" fill-opacity="0.5"/>
<path d="M1880.38 -0.480469H1879.46V1439.97H1880.38V-0.480469Z" fill="#E6E6E6" fill-opacity="0.5"/>
<path d="M1895.21 -0.480469H1894.29V1439.97H1895.21V-0.480469Z" fill="#E6E6E6" fill-opacity="0.5"/>
<path d="M1910.05 -0.480469H1909.12V1439.97H1910.05V-0.480469Z" fill="#E6E6E6" fill-opacity="0.5"/>
<path d="M2399.91 0.841616V-0.0800781H959.458V0.841616H2399.91Z" fill="#E6E6E6" fill-opacity="0.5"/>
<path d="M2399.91 15.6746V14.7529H959.458V15.6746H2399.91Z" fill="#E6E6E6" fill-opacity="0.5"/>
<path d="M2399.91 30.5076V29.5859H959.458V30.5076H2399.91Z" fill="#E6E6E6" fill-opacity="0.5"/>
<path d="M2399.91 45.3406V44.4189H959.458V45.3406H2399.91Z" fill="#E6E6E6" fill-opacity="0.5"/>
<path d="M2399.92 60.1707V59.249H959.461V60.1707H2399.92Z" fill="#E6E6E6" fill-opacity="0.5"/>
<path d="M2399.91 75.0027V74.0811H959.458V75.0027H2399.91Z" fill="#E6E6E6" fill-opacity="0.5"/>
<path d="M2399.91 89.8358V88.9141H959.458V89.8358H2399.91Z" fill="#E6E6E6" fill-opacity="0.5"/>
<path d="M2399.91 104.669V103.747H959.458V104.669H2399.91Z" fill="#E6E6E6" fill-opacity="0.5"/>
<path d="M2399.91 119.502V118.58H959.458V119.502H2399.91Z" fill="#E6E6E6" fill-opacity="0.5"/>
<path d="M2399.91 134.332V133.41H959.458V134.332H2399.91Z" fill="#E6E6E6" fill-opacity="0.5"/>
<path d="M2399.92 149.165V148.243H959.461V149.165H2399.92Z" fill="#E6E6E6" fill-opacity="0.5"/>
<path d="M2399.91 163.997V163.075H959.458V163.997H2399.91Z" fill="#E6E6E6" fill-opacity="0.5"/>
<path d="M2399.91 178.83V177.908H959.458V178.83H2399.91Z" fill="#E6E6E6" fill-opacity="0.5"/>
<path d="M2399.91 193.663V192.741H959.458V193.663H2399.91Z" fill="#E6E6E6" fill-opacity="0.5"/>
<path d="M2399.91 208.496V207.574H959.458V208.496H2399.91Z" fill="#E6E6E6" fill-opacity="0.5"/>
<path d="M2399.92 223.326V222.404H959.461V223.326H2399.92Z" fill="#E6E6E6" fill-opacity="0.5"/>
<path d="M2399.91 238.159V237.237H959.458V238.159H2399.91Z" fill="#E6E6E6" fill-opacity="0.5"/>
<path d="M2399.91 252.991V252.069H959.458V252.991H2399.91Z" fill="#E6E6E6" fill-opacity="0.5"/>
<path d="M2399.91 267.824V266.902H959.458V267.824H2399.91Z" fill="#E6E6E6" fill-opacity="0.5"/>
<path d="M2399.91 282.657V281.735H959.458V282.657H2399.91Z" fill="#E6E6E6" fill-opacity="0.5"/>
<path d="M2399.92 297.487V296.565H959.461V297.487H2399.92Z" fill="#E6E6E6" fill-opacity="0.5"/>
<path d="M2399.91 312.32V311.398H959.458V312.32H2399.91Z" fill="#E6E6E6" fill-opacity="0.5"/>
<path d="M2399.91 327.153V326.231H959.458V327.153H2399.91Z" fill="#E6E6E6" fill-opacity="0.5"/>
<path d="M2399.91 341.985V341.063H959.458V341.985H2399.91Z" fill="#E6E6E6" fill-opacity="0.5"/>
<path d="M2399.91 356.818V355.896H959.458V356.818H2399.91Z" fill="#E6E6E6" fill-opacity="0.5"/>
<path d="M2399.92 371.648V370.727H959.461V371.648H2399.92Z" fill="#E6E6E6" fill-opacity="0.5"/>
<path d="M2399.92 386.481V385.56H959.461V386.481H2399.92Z" fill="#E6E6E6" fill-opacity="0.5"/>
<path d="M2399.91 401.314V400.393H959.458V401.314H2399.91Z" fill="#E6E6E6" fill-opacity="0.5"/>
<path d="M2399.91 416.147V415.226H959.458V416.147H2399.91Z" fill="#E6E6E6" fill-opacity="0.5"/>
<path d="M2399.91 430.979V430.058H959.458V430.979H2399.91Z" fill="#E6E6E6" fill-opacity="0.5"/>
<path d="M2399.91 445.812V444.891H959.458V445.812H2399.91Z" fill="#E6E6E6" fill-opacity="0.5"/>
<path d="M2399.92 460.642V459.721H959.461V460.642H2399.92Z" fill="#E6E6E6" fill-opacity="0.5"/>
<path d="M2399.91 475.475V474.554H959.458V475.475H2399.91Z" fill="#E6E6E6" fill-opacity="0.5"/>
<path d="M2399.91 490.308V489.387H959.458V490.308H2399.91Z" fill="#E6E6E6" fill-opacity="0.5"/>
<path d="M2399.91 505.141V504.22H959.458V505.141H2399.91Z" fill="#E6E6E6" fill-opacity="0.5"/>
<path d="M2399.91 519.973V519.052H959.458V519.973H2399.91Z" fill="#E6E6E6" fill-opacity="0.5"/>
<path d="M2399.92 534.805V533.883H959.461V534.805H2399.92Z" fill="#E6E6E6" fill-opacity="0.5"/>
<path d="M2399.91 549.637V548.715H959.458V549.637H2399.91Z" fill="#E6E6E6" fill-opacity="0.5"/>
<path d="M2399.91 564.47V563.548H959.458V564.47H2399.91Z" fill="#E6E6E6" fill-opacity="0.5"/>
<path d="M2399.91 579.303V578.381H959.458V579.303H2399.91Z" fill="#E6E6E6" fill-opacity="0.5"/>
<path d="M2399.91 594.136V593.214H959.458V594.136H2399.91Z" fill="#E6E6E6" fill-opacity="0.5"/>
<path d="M2399.92 608.966V608.044H959.461V608.966H2399.92Z" fill="#E6E6E6" fill-opacity="0.5"/>
<path d="M2399.91 623.798V622.876H959.458V623.798H2399.91Z" fill="#E6E6E6" fill-opacity="0.5"/>
<path d="M2399.91 638.631V637.709H959.458V638.631H2399.91Z" fill="#E6E6E6" fill-opacity="0.5"/>
<path d="M2399.91 653.464V652.542H959.458V653.464H2399.91Z" fill="#E6E6E6" fill-opacity="0.5"/>
<path d="M2399.91 668.297V667.375H959.458V668.297H2399.91Z" fill="#E6E6E6" fill-opacity="0.5"/>
<path d="M2399.92 683.127V682.205H959.461V683.127H2399.92Z" fill="#E6E6E6" fill-opacity="0.5"/>
<path d="M2399.92 697.96V697.038H959.461V697.96H2399.92Z" fill="#E6E6E6" fill-opacity="0.5"/>
<path d="M2399.91 712.793V711.871H959.458V712.793H2399.91Z" fill="#E6E6E6" fill-opacity="0.5"/>
<path d="M2399.91 727.625V726.703H959.458V727.625H2399.91Z" fill="#E6E6E6" fill-opacity="0.5"/>
<path d="M2399.91 742.458V741.536H959.458V742.458H2399.91Z" fill="#E6E6E6" fill-opacity="0.5"/>
<path d="M2399.91 757.291V756.369H959.458V757.291H2399.91Z" fill="#E6E6E6" fill-opacity="0.5"/>
<path d="M2399.92 772.121V771.199H959.461V772.121H2399.92Z" fill="#E6E6E6" fill-opacity="0.5"/>
<path d="M2399.91 786.954V786.032H959.458V786.954H2399.91Z" fill="#E6E6E6" fill-opacity="0.5"/>
<path d="M2399.91 801.787V800.865H959.458V801.787H2399.91Z" fill="#E6E6E6" fill-opacity="0.5"/>
<path d="M2399.91 816.619V815.697H959.458V816.619H2399.91Z" fill="#E6E6E6" fill-opacity="0.5"/>
<path d="M2399.91 831.452V830.53H959.458V831.452H2399.91Z" fill="#E6E6E6" fill-opacity="0.5"/>
<path d="M2399.92 846.282V845.36H959.461V846.282H2399.92Z" fill="#E6E6E6" fill-opacity="0.5"/>
<path d="M2399.91 861.115V860.193H959.458V861.115H2399.91Z" fill="#E6E6E6" fill-opacity="0.5"/>
<path d="M2399.91 875.948V875.026H959.458V875.948H2399.91Z" fill="#E6E6E6" fill-opacity="0.5"/>
<path d="M2399.91 890.781V889.859H959.458V890.781H2399.91Z" fill="#E6E6E6" fill-opacity="0.5"/>
<path d="M2399.91 905.613V904.691H959.458V905.613H2399.91Z" fill="#E6E6E6" fill-opacity="0.5"/>
<path d="M2399.92 920.443V919.521H959.461V920.443H2399.92Z" fill="#E6E6E6" fill-opacity="0.5"/>
<path d="M2399.91 935.276V934.354H959.458V935.276H2399.91Z" fill="#E6E6E6" fill-opacity="0.5"/>
<path d="M2399.91 950.109V949.188H959.458V950.109H2399.91Z" fill="#E6E6E6" fill-opacity="0.5"/>
<path d="M2399.91 964.942V964.021H959.458V964.942H2399.91Z" fill="#E6E6E6" fill-opacity="0.5"/>
<path d="M2399.91 979.774V978.853H959.458V979.774H2399.91Z" fill="#E6E6E6" fill-opacity="0.5"/>
<path d="M2399.91 994.605V993.684H959.458V994.605H2399.91Z" fill="#E6E6E6" fill-opacity="0.5"/>
<path d="M2399.92 1009.44V1008.52H959.461V1009.44H2399.92Z" fill="#E6E6E6" fill-opacity="0.5"/>
<path d="M2399.91 1024.27V1023.35H959.458V1024.27H2399.91Z" fill="#E6E6E6" fill-opacity="0.5"/>
<path d="M2399.91 1039.1V1038.18H959.458V1039.1H2399.91Z" fill="#E6E6E6" fill-opacity="0.5"/>
<path d="M2399.91 1053.94V1053.01H959.458V1053.94H2399.91Z" fill="#E6E6E6" fill-opacity="0.5"/>
<path d="M2399.91 1068.77V1067.85H959.458V1068.77H2399.91Z" fill="#E6E6E6" fill-opacity="0.5"/>
<path d="M2399.92 1083.6V1082.68H959.461V1083.6H2399.92Z" fill="#E6E6E6" fill-opacity="0.5"/>
<path d="M2399.91 1098.43V1097.51H959.458V1098.43H2399.91Z" fill="#E6E6E6" fill-opacity="0.5"/>
</g>
<defs>
<clipPath id="clip0_219_9">
<rect width="1920" height="1105" fill="white"/>
</clipPath>
</defs>
</svg>
