<svg width="16" height="16" viewBox="0 0 16 16" fill="none" xmlns="http://www.w3.org/2000/svg">
<path d="M9.59368 7.19527H10.4142V6.40631H11.2032V5.5858H11.9921V4.79684H12.8126V4.00789H13.6016V3.18738H14.3905V2.39842H15.211V1.60947H16V0.788955H15.211V0H14.3905V0.788955H13.6016V1.60947H12.8126V2.39842H11.9921V3.18738H11.2032V4.00789H10.4142V4.79684H9.59368V5.5858H8.80473V6.40631H7.19527V5.5858H6.40632V4.79684H5.58582V4.00789H4.79686V3.18738H4.00791V2.39842H3.18736V1.60947H2.39841V0.788955H1.60945V0H0.788956V0.788955H0V1.60947H0.788956V2.39842H1.60945V3.18738H2.39841V4.00789H3.18736V4.79684H4.00791V5.5858H4.79686V6.40631H5.58582V7.19527H6.40632V8.80473H5.58582V9.59369H4.79686V10.4142H4.00791V11.2032H3.18736V11.9921H2.39841V12.8126H1.60945V13.6016H0.788956V14.3905H0V15.211H0.788956V16H1.60945V15.211H2.39841V14.3905H3.18736V13.6016H4.00791V12.8126H4.79686V11.9921H5.58582V11.2032H6.40632V10.4142H7.19527V9.59369H8.80473V10.4142H9.59368V11.2032H10.4142V11.9921H11.2032V12.8126H11.9921V13.6016H12.8126V14.3905H13.6016V15.211H14.3905V16H15.211V15.211H16V14.3905H15.211V13.6016H14.3905V12.8126H13.6016V11.9921H12.8126V11.2032H11.9921V10.4142H11.2032V9.59369H10.4142V8.80473H9.59368V7.19527Z" fill="#ECECEC"/>
</svg>
